<?xml version="1.0" encoding="utf-8" standalone="no"?>
<!DOCTYPE svg PUBLIC "-//W3C//DTD SVG 1.1//EN"
  "http://www.w3.org/Graphics/SVG/1.1/DTD/svg11.dtd">
<svg xmlns:xlink="http://www.w3.org/1999/xlink" width="1080pt" height="432pt" viewBox="0 0 1080 432" xmlns="http://www.w3.org/2000/svg" version="1.1">
 <metadata>
  <rdf:RDF xmlns:dc="http://purl.org/dc/elements/1.1/" xmlns:cc="http://creativecommons.org/ns#" xmlns:rdf="http://www.w3.org/1999/02/22-rdf-syntax-ns#">
   <cc:Work>
    <dc:type rdf:resource="http://purl.org/dc/dcmitype/StillImage"/>
    <dc:date>2024-12-10T13:00:20.938371</dc:date>
    <dc:format>image/svg+xml</dc:format>
    <dc:creator>
     <cc:Agent>
      <dc:title>Matplotlib v3.9.3, https://matplotlib.org/</dc:title>
     </cc:Agent>
    </dc:creator>
   </cc:Work>
  </rdf:RDF>
 </metadata>
 <defs>
  <style type="text/css">*{stroke-linejoin: round; stroke-linecap: butt}</style>
 </defs>
 <g id="figure_1">
  <g id="patch_1">
   <path d="M 0 432 
L 1080 432 
L 1080 0 
L 0 0 
z
" style="fill: #ffffff"/>
  </g>
  <g id="axes_1">
   <g id="patch_2">
    <path d="M 40.165 421.2 
L 1069.2 421.2 
L 1069.2 10.8 
L 40.165 10.8 
z
" style="fill: #ffffff"/>
   </g>
   <g id="matplotlib.axis_1"/>
   <g id="matplotlib.axis_2">
    <g id="ytick_1">
     <g id="line2d_1">
      <defs>
       <path id="m016170ff83" d="M 0 0 
L -3.5 0 
" style="stroke: #000000; stroke-width: 0.8"/>
      </defs>
      <g>
       <use xlink:href="#m016170ff83" x="40.165" y="391.492663" style="stroke: #000000; stroke-width: 0.8"/>
      </g>
     </g>
     <g id="text_1">
      <!-- 0.65 -->
      <g transform="translate(10.899375 395.291882) scale(0.1 -0.1)">
       <defs>
        <path id="DejaVuSans-30" d="M 2034 4250 
Q 1547 4250 1301 3770 
Q 1056 3291 1056 2328 
Q 1056 1369 1301 889 
Q 1547 409 2034 409 
Q 2525 409 2770 889 
Q 3016 1369 3016 2328 
Q 3016 3291 2770 3770 
Q 2525 4250 2034 4250 
z
M 2034 4750 
Q 2819 4750 3233 4129 
Q 3647 3509 3647 2328 
Q 3647 1150 3233 529 
Q 2819 -91 2034 -91 
Q 1250 -91 836 529 
Q 422 1150 422 2328 
Q 422 3509 836 4129 
Q 1250 4750 2034 4750 
z
" transform="scale(0.015625)"/>
        <path id="DejaVuSans-2e" d="M 684 794 
L 1344 794 
L 1344 0 
L 684 0 
L 684 794 
z
" transform="scale(0.015625)"/>
        <path id="DejaVuSans-36" d="M 2113 2584 
Q 1688 2584 1439 2293 
Q 1191 2003 1191 1497 
Q 1191 994 1439 701 
Q 1688 409 2113 409 
Q 2538 409 2786 701 
Q 3034 994 3034 1497 
Q 3034 2003 2786 2293 
Q 2538 2584 2113 2584 
z
M 3366 4563 
L 3366 3988 
Q 3128 4100 2886 4159 
Q 2644 4219 2406 4219 
Q 1781 4219 1451 3797 
Q 1122 3375 1075 2522 
Q 1259 2794 1537 2939 
Q 1816 3084 2150 3084 
Q 2853 3084 3261 2657 
Q 3669 2231 3669 1497 
Q 3669 778 3244 343 
Q 2819 -91 2113 -91 
Q 1303 -91 875 529 
Q 447 1150 447 2328 
Q 447 3434 972 4092 
Q 1497 4750 2381 4750 
Q 2619 4750 2861 4703 
Q 3103 4656 3366 4563 
z
" transform="scale(0.015625)"/>
        <path id="DejaVuSans-35" d="M 691 4666 
L 3169 4666 
L 3169 4134 
L 1269 4134 
L 1269 2991 
Q 1406 3038 1543 3061 
Q 1681 3084 1819 3084 
Q 2600 3084 3056 2656 
Q 3513 2228 3513 1497 
Q 3513 744 3044 326 
Q 2575 -91 1722 -91 
Q 1428 -91 1123 -41 
Q 819 9 494 109 
L 494 744 
Q 775 591 1075 516 
Q 1375 441 1709 441 
Q 2250 441 2565 725 
Q 2881 1009 2881 1497 
Q 2881 1984 2565 2268 
Q 2250 2553 1709 2553 
Q 1456 2553 1204 2497 
Q 953 2441 691 2322 
L 691 4666 
z
" transform="scale(0.015625)"/>
       </defs>
       <use xlink:href="#DejaVuSans-30"/>
       <use xlink:href="#DejaVuSans-2e" x="63.623047"/>
       <use xlink:href="#DejaVuSans-36" x="95.410156"/>
       <use xlink:href="#DejaVuSans-35" x="159.033203"/>
      </g>
     </g>
    </g>
    <g id="ytick_2">
     <g id="line2d_2">
      <g>
       <use xlink:href="#m016170ff83" x="40.165" y="338.896743" style="stroke: #000000; stroke-width: 0.8"/>
      </g>
     </g>
     <g id="text_2">
      <!-- 0.70 -->
      <g transform="translate(10.899375 342.695962) scale(0.1 -0.1)">
       <defs>
        <path id="DejaVuSans-37" d="M 525 4666 
L 3525 4666 
L 3525 4397 
L 1831 0 
L 1172 0 
L 2766 4134 
L 525 4134 
L 525 4666 
z
" transform="scale(0.015625)"/>
       </defs>
       <use xlink:href="#DejaVuSans-30"/>
       <use xlink:href="#DejaVuSans-2e" x="63.623047"/>
       <use xlink:href="#DejaVuSans-37" x="95.410156"/>
       <use xlink:href="#DejaVuSans-30" x="159.033203"/>
      </g>
     </g>
    </g>
    <g id="ytick_3">
     <g id="line2d_3">
      <g>
       <use xlink:href="#m016170ff83" x="40.165" y="286.300822" style="stroke: #000000; stroke-width: 0.8"/>
      </g>
     </g>
     <g id="text_3">
      <!-- 0.75 -->
      <g transform="translate(10.899375 290.100041) scale(0.1 -0.1)">
       <use xlink:href="#DejaVuSans-30"/>
       <use xlink:href="#DejaVuSans-2e" x="63.623047"/>
       <use xlink:href="#DejaVuSans-37" x="95.410156"/>
       <use xlink:href="#DejaVuSans-35" x="159.033203"/>
      </g>
     </g>
    </g>
    <g id="ytick_4">
     <g id="line2d_4">
      <g>
       <use xlink:href="#m016170ff83" x="40.165" y="233.704902" style="stroke: #000000; stroke-width: 0.8"/>
      </g>
     </g>
     <g id="text_4">
      <!-- 0.80 -->
      <g transform="translate(10.899375 237.504121) scale(0.1 -0.1)">
       <defs>
        <path id="DejaVuSans-38" d="M 2034 2216 
Q 1584 2216 1326 1975 
Q 1069 1734 1069 1313 
Q 1069 891 1326 650 
Q 1584 409 2034 409 
Q 2484 409 2743 651 
Q 3003 894 3003 1313 
Q 3003 1734 2745 1975 
Q 2488 2216 2034 2216 
z
M 1403 2484 
Q 997 2584 770 2862 
Q 544 3141 544 3541 
Q 544 4100 942 4425 
Q 1341 4750 2034 4750 
Q 2731 4750 3128 4425 
Q 3525 4100 3525 3541 
Q 3525 3141 3298 2862 
Q 3072 2584 2669 2484 
Q 3125 2378 3379 2068 
Q 3634 1759 3634 1313 
Q 3634 634 3220 271 
Q 2806 -91 2034 -91 
Q 1263 -91 848 271 
Q 434 634 434 1313 
Q 434 1759 690 2068 
Q 947 2378 1403 2484 
z
M 1172 3481 
Q 1172 3119 1398 2916 
Q 1625 2713 2034 2713 
Q 2441 2713 2670 2916 
Q 2900 3119 2900 3481 
Q 2900 3844 2670 4047 
Q 2441 4250 2034 4250 
Q 1625 4250 1398 4047 
Q 1172 3844 1172 3481 
z
" transform="scale(0.015625)"/>
       </defs>
       <use xlink:href="#DejaVuSans-30"/>
       <use xlink:href="#DejaVuSans-2e" x="63.623047"/>
       <use xlink:href="#DejaVuSans-38" x="95.410156"/>
       <use xlink:href="#DejaVuSans-30" x="159.033203"/>
      </g>
     </g>
    </g>
    <g id="ytick_5">
     <g id="line2d_5">
      <g>
       <use xlink:href="#m016170ff83" x="40.165" y="181.108982" style="stroke: #000000; stroke-width: 0.8"/>
      </g>
     </g>
     <g id="text_5">
      <!-- 0.85 -->
      <g transform="translate(10.899375 184.908201) scale(0.1 -0.1)">
       <use xlink:href="#DejaVuSans-30"/>
       <use xlink:href="#DejaVuSans-2e" x="63.623047"/>
       <use xlink:href="#DejaVuSans-38" x="95.410156"/>
       <use xlink:href="#DejaVuSans-35" x="159.033203"/>
      </g>
     </g>
    </g>
    <g id="ytick_6">
     <g id="line2d_6">
      <g>
       <use xlink:href="#m016170ff83" x="40.165" y="128.513061" style="stroke: #000000; stroke-width: 0.8"/>
      </g>
     </g>
     <g id="text_6">
      <!-- 0.90 -->
      <g transform="translate(10.899375 132.31228) scale(0.1 -0.1)">
       <defs>
        <path id="DejaVuSans-39" d="M 703 97 
L 703 672 
Q 941 559 1184 500 
Q 1428 441 1663 441 
Q 2288 441 2617 861 
Q 2947 1281 2994 2138 
Q 2813 1869 2534 1725 
Q 2256 1581 1919 1581 
Q 1219 1581 811 2004 
Q 403 2428 403 3163 
Q 403 3881 828 4315 
Q 1253 4750 1959 4750 
Q 2769 4750 3195 4129 
Q 3622 3509 3622 2328 
Q 3622 1225 3098 567 
Q 2575 -91 1691 -91 
Q 1453 -91 1209 -44 
Q 966 3 703 97 
z
M 1959 2075 
Q 2384 2075 2632 2365 
Q 2881 2656 2881 3163 
Q 2881 3666 2632 3958 
Q 2384 4250 1959 4250 
Q 1534 4250 1286 3958 
Q 1038 3666 1038 3163 
Q 1038 2656 1286 2365 
Q 1534 2075 1959 2075 
z
" transform="scale(0.015625)"/>
       </defs>
       <use xlink:href="#DejaVuSans-30"/>
       <use xlink:href="#DejaVuSans-2e" x="63.623047"/>
       <use xlink:href="#DejaVuSans-39" x="95.410156"/>
       <use xlink:href="#DejaVuSans-30" x="159.033203"/>
      </g>
     </g>
    </g>
    <g id="ytick_7">
     <g id="line2d_7">
      <g>
       <use xlink:href="#m016170ff83" x="40.165" y="75.917141" style="stroke: #000000; stroke-width: 0.8"/>
      </g>
     </g>
     <g id="text_7">
      <!-- 0.95 -->
      <g transform="translate(10.899375 79.71636) scale(0.1 -0.1)">
       <use xlink:href="#DejaVuSans-30"/>
       <use xlink:href="#DejaVuSans-2e" x="63.623047"/>
       <use xlink:href="#DejaVuSans-39" x="95.410156"/>
       <use xlink:href="#DejaVuSans-35" x="159.033203"/>
      </g>
     </g>
    </g>
    <g id="ytick_8">
     <g id="line2d_8">
      <g>
       <use xlink:href="#m016170ff83" x="40.165" y="23.321221" style="stroke: #000000; stroke-width: 0.8"/>
      </g>
     </g>
     <g id="text_8">
      <!-- 1.00 -->
      <g transform="translate(10.899375 27.120439) scale(0.1 -0.1)">
       <defs>
        <path id="DejaVuSans-31" d="M 794 531 
L 1825 531 
L 1825 4091 
L 703 3866 
L 703 4441 
L 1819 4666 
L 2450 4666 
L 2450 531 
L 3481 531 
L 3481 0 
L 794 0 
L 794 531 
z
" transform="scale(0.015625)"/>
       </defs>
       <use xlink:href="#DejaVuSans-31"/>
       <use xlink:href="#DejaVuSans-2e" x="63.623047"/>
       <use xlink:href="#DejaVuSans-30" x="95.410156"/>
       <use xlink:href="#DejaVuSans-30" x="159.033203"/>
      </g>
     </g>
    </g>
   </g>
   <g id="patch_3">
    <path d="M 54.8655 140.44375 
L 172.4695 140.44375 
L 172.4695 92.673569 
L 54.8655 92.673569 
L 54.8655 140.44375 
z
" clip-path="url(#pebfdb5a160)" style="fill: #3274a1; stroke: #3d3d3d; stroke-linejoin: miter"/>
   </g>
   <g id="line2d_9">
    <path d="M 113.6675 140.44375 
L 113.6675 208.44031 
" clip-path="url(#pebfdb5a160)" style="fill: none; stroke: #3d3d3d"/>
   </g>
   <g id="line2d_10">
    <path d="M 113.6675 92.673569 
L 113.6675 59.915802 
" clip-path="url(#pebfdb5a160)" style="fill: none; stroke: #3d3d3d"/>
   </g>
   <g id="line2d_11">
    <path d="M 84.2665 208.44031 
L 143.0685 208.44031 
" clip-path="url(#pebfdb5a160)" style="fill: none; stroke: #3d3d3d; stroke-linecap: square"/>
   </g>
   <g id="line2d_12">
    <path d="M 84.2665 59.915802 
L 143.0685 59.915802 
" clip-path="url(#pebfdb5a160)" style="fill: none; stroke: #3d3d3d; stroke-linecap: square"/>
   </g>
   <g id="line2d_13">
    <defs>
     <path id="m350079b5c2" d="M 0 3 
C 0.795609 3 1.55874 2.683901 2.12132 2.12132 
C 2.683901 1.55874 3 0.795609 3 0 
C 3 -0.795609 2.683901 -1.55874 2.12132 -2.12132 
C 1.55874 -2.683901 0.795609 -3 0 -3 
C -0.795609 -3 -1.55874 -2.683901 -2.12132 -2.12132 
C -2.683901 -1.55874 -3 -0.795609 -3 0 
C -3 0.795609 -2.683901 1.55874 -2.12132 2.12132 
C -1.55874 2.683901 -0.795609 3 0 3 
z
" style="stroke: #3d3d3d"/>
    </defs>
    <g clip-path="url(#pebfdb5a160)">
     <use xlink:href="#m350079b5c2" x="113.6675" y="346.043835" style="fill-opacity: 0; stroke: #3d3d3d"/>
     <use xlink:href="#m350079b5c2" x="113.6675" y="243.242666" style="fill-opacity: 0; stroke: #3d3d3d"/>
     <use xlink:href="#m350079b5c2" x="113.6675" y="305.190461" style="fill-opacity: 0; stroke: #3d3d3d"/>
     <use xlink:href="#m350079b5c2" x="113.6675" y="399.460852" style="fill-opacity: 0; stroke: #3d3d3d"/>
     <use xlink:href="#m350079b5c2" x="113.6675" y="213.922872" style="fill-opacity: 0; stroke: #3d3d3d"/>
     <use xlink:href="#m350079b5c2" x="113.6675" y="271.353672" style="fill-opacity: 0; stroke: #3d3d3d"/>
     <use xlink:href="#m350079b5c2" x="113.6675" y="281.096071" style="fill-opacity: 0; stroke: #3d3d3d"/>
     <use xlink:href="#m350079b5c2" x="113.6675" y="264.730715" style="fill-opacity: 0; stroke: #3d3d3d"/>
     <use xlink:href="#m350079b5c2" x="113.6675" y="257.91968" style="fill-opacity: 0; stroke: #3d3d3d"/>
    </g>
   </g>
   <g id="patch_4">
    <path d="M 201.8705 143.83378 
L 319.4745 143.83378 
L 319.4745 99.774756 
L 201.8705 99.774756 
L 201.8705 143.83378 
z
" clip-path="url(#pebfdb5a160)" style="fill: #e1812c; stroke: #3d3d3d; stroke-linejoin: miter"/>
   </g>
   <g id="line2d_14">
    <path d="M 260.6725 143.83378 
L 260.6725 208.147261 
" clip-path="url(#pebfdb5a160)" style="fill: none; stroke: #3d3d3d"/>
   </g>
   <g id="line2d_15">
    <path d="M 260.6725 99.774756 
L 260.6725 69.568702 
" clip-path="url(#pebfdb5a160)" style="fill: none; stroke: #3d3d3d"/>
   </g>
   <g id="line2d_16">
    <path d="M 231.2715 208.147261 
L 290.0735 208.147261 
" clip-path="url(#pebfdb5a160)" style="fill: none; stroke: #3d3d3d; stroke-linecap: square"/>
   </g>
   <g id="line2d_17">
    <path d="M 231.2715 69.568702 
L 290.0735 69.568702 
" clip-path="url(#pebfdb5a160)" style="fill: none; stroke: #3d3d3d; stroke-linecap: square"/>
   </g>
   <g id="line2d_18">
    <g clip-path="url(#pebfdb5a160)">
     <use xlink:href="#m350079b5c2" x="260.6725" y="351.559366" style="fill-opacity: 0; stroke: #3d3d3d"/>
     <use xlink:href="#m350079b5c2" x="260.6725" y="242.88813" style="fill-opacity: 0; stroke: #3d3d3d"/>
     <use xlink:href="#m350079b5c2" x="260.6725" y="299.793802" style="fill-opacity: 0; stroke: #3d3d3d"/>
     <use xlink:href="#m350079b5c2" x="260.6725" y="402.545455" style="fill-opacity: 0; stroke: #3d3d3d"/>
     <use xlink:href="#m350079b5c2" x="260.6725" y="211.452866" style="fill-opacity: 0; stroke: #3d3d3d"/>
     <use xlink:href="#m350079b5c2" x="260.6725" y="270.021651" style="fill-opacity: 0; stroke: #3d3d3d"/>
     <use xlink:href="#m350079b5c2" x="260.6725" y="284.538567" style="fill-opacity: 0; stroke: #3d3d3d"/>
     <use xlink:href="#m350079b5c2" x="260.6725" y="215.901364" style="fill-opacity: 0; stroke: #3d3d3d"/>
     <use xlink:href="#m350079b5c2" x="260.6725" y="259.101173" style="fill-opacity: 0; stroke: #3d3d3d"/>
     <use xlink:href="#m350079b5c2" x="260.6725" y="266.682731" style="fill-opacity: 0; stroke: #3d3d3d"/>
    </g>
   </g>
   <g id="patch_5">
    <path d="M 348.8755 110.874991 
L 466.4795 110.874991 
L 466.4795 74.15611 
L 348.8755 74.15611 
L 348.8755 110.874991 
z
" clip-path="url(#pebfdb5a160)" style="fill: #3a923a; stroke: #3d3d3d; stroke-linejoin: miter"/>
   </g>
   <g id="line2d_19">
    <path d="M 407.6775 110.874991 
L 407.6775 165.278067 
" clip-path="url(#pebfdb5a160)" style="fill: none; stroke: #3d3d3d"/>
   </g>
   <g id="line2d_20">
    <path d="M 407.6775 74.15611 
L 407.6775 45.147826 
" clip-path="url(#pebfdb5a160)" style="fill: none; stroke: #3d3d3d"/>
   </g>
   <g id="line2d_21">
    <path d="M 378.2765 165.278067 
L 437.0785 165.278067 
" clip-path="url(#pebfdb5a160)" style="fill: none; stroke: #3d3d3d; stroke-linecap: square"/>
   </g>
   <g id="line2d_22">
    <path d="M 378.2765 45.147826 
L 437.0785 45.147826 
" clip-path="url(#pebfdb5a160)" style="fill: none; stroke: #3d3d3d; stroke-linecap: square"/>
   </g>
   <g id="line2d_23">
    <g clip-path="url(#pebfdb5a160)">
     <use xlink:href="#m350079b5c2" x="407.6775" y="322.974391" style="fill-opacity: 0; stroke: #3d3d3d"/>
     <use xlink:href="#m350079b5c2" x="407.6775" y="170.141446" style="fill-opacity: 0; stroke: #3d3d3d"/>
     <use xlink:href="#m350079b5c2" x="407.6775" y="198.221424" style="fill-opacity: 0; stroke: #3d3d3d"/>
     <use xlink:href="#m350079b5c2" x="407.6775" y="280.463895" style="fill-opacity: 0; stroke: #3d3d3d"/>
     <use xlink:href="#m350079b5c2" x="407.6775" y="360.7333" style="fill-opacity: 0; stroke: #3d3d3d"/>
     <use xlink:href="#m350079b5c2" x="407.6775" y="171.626379" style="fill-opacity: 0; stroke: #3d3d3d"/>
     <use xlink:href="#m350079b5c2" x="407.6775" y="169.978175" style="fill-opacity: 0; stroke: #3d3d3d"/>
     <use xlink:href="#m350079b5c2" x="407.6775" y="233.316247" style="fill-opacity: 0; stroke: #3d3d3d"/>
     <use xlink:href="#m350079b5c2" x="407.6775" y="239.955666" style="fill-opacity: 0; stroke: #3d3d3d"/>
     <use xlink:href="#m350079b5c2" x="407.6775" y="172.621522" style="fill-opacity: 0; stroke: #3d3d3d"/>
     <use xlink:href="#m350079b5c2" x="407.6775" y="173.191786" style="fill-opacity: 0; stroke: #3d3d3d"/>
     <use xlink:href="#m350079b5c2" x="407.6775" y="188.534452" style="fill-opacity: 0; stroke: #3d3d3d"/>
     <use xlink:href="#m350079b5c2" x="407.6775" y="207.569097" style="fill-opacity: 0; stroke: #3d3d3d"/>
     <use xlink:href="#m350079b5c2" x="407.6775" y="180.567307" style="fill-opacity: 0; stroke: #3d3d3d"/>
     <use xlink:href="#m350079b5c2" x="407.6775" y="226.350756" style="fill-opacity: 0; stroke: #3d3d3d"/>
    </g>
   </g>
   <g id="patch_6">
    <path d="M 495.8805 100.972263 
L 613.4845 100.972263 
L 613.4845 71.785577 
L 495.8805 71.785577 
L 495.8805 100.972263 
z
" clip-path="url(#pebfdb5a160)" style="fill: #c03d3e; stroke: #3d3d3d; stroke-linejoin: miter"/>
   </g>
   <g id="line2d_24">
    <path d="M 554.6825 100.972263 
L 554.6825 135.002048 
" clip-path="url(#pebfdb5a160)" style="fill: none; stroke: #3d3d3d"/>
   </g>
   <g id="line2d_25">
    <path d="M 554.6825 71.785577 
L 554.6825 45.797223 
" clip-path="url(#pebfdb5a160)" style="fill: none; stroke: #3d3d3d"/>
   </g>
   <g id="line2d_26">
    <path d="M 525.2815 135.002048 
L 584.0835 135.002048 
" clip-path="url(#pebfdb5a160)" style="fill: none; stroke: #3d3d3d; stroke-linecap: square"/>
   </g>
   <g id="line2d_27">
    <path d="M 525.2815 45.797223 
L 584.0835 45.797223 
" clip-path="url(#pebfdb5a160)" style="fill: none; stroke: #3d3d3d; stroke-linecap: square"/>
   </g>
   <g id="line2d_28">
    <g clip-path="url(#pebfdb5a160)">
     <use xlink:href="#m350079b5c2" x="554.6825" y="275.286024" style="fill-opacity: 0; stroke: #3d3d3d"/>
     <use xlink:href="#m350079b5c2" x="554.6825" y="158.806023" style="fill-opacity: 0; stroke: #3d3d3d"/>
     <use xlink:href="#m350079b5c2" x="554.6825" y="174.819094" style="fill-opacity: 0; stroke: #3d3d3d"/>
     <use xlink:href="#m350079b5c2" x="554.6825" y="227.851284" style="fill-opacity: 0; stroke: #3d3d3d"/>
     <use xlink:href="#m350079b5c2" x="554.6825" y="308.36367" style="fill-opacity: 0; stroke: #3d3d3d"/>
     <use xlink:href="#m350079b5c2" x="554.6825" y="158.156745" style="fill-opacity: 0; stroke: #3d3d3d"/>
     <use xlink:href="#m350079b5c2" x="554.6825" y="151.255501" style="fill-opacity: 0; stroke: #3d3d3d"/>
     <use xlink:href="#m350079b5c2" x="554.6825" y="196.807174" style="fill-opacity: 0; stroke: #3d3d3d"/>
     <use xlink:href="#m350079b5c2" x="554.6825" y="203.544882" style="fill-opacity: 0; stroke: #3d3d3d"/>
     <use xlink:href="#m350079b5c2" x="554.6825" y="150.682974" style="fill-opacity: 0; stroke: #3d3d3d"/>
     <use xlink:href="#m350079b5c2" x="554.6825" y="163.001591" style="fill-opacity: 0; stroke: #3d3d3d"/>
     <use xlink:href="#m350079b5c2" x="554.6825" y="165.279113" style="fill-opacity: 0; stroke: #3d3d3d"/>
     <use xlink:href="#m350079b5c2" x="554.6825" y="167.562509" style="fill-opacity: 0; stroke: #3d3d3d"/>
     <use xlink:href="#m350079b5c2" x="554.6825" y="157.293807" style="fill-opacity: 0; stroke: #3d3d3d"/>
     <use xlink:href="#m350079b5c2" x="554.6825" y="215.883245" style="fill-opacity: 0; stroke: #3d3d3d"/>
    </g>
   </g>
   <g id="patch_7">
    <path d="M 642.8855 122.295179 
L 760.4895 122.295179 
L 760.4895 68.377364 
L 642.8855 68.377364 
L 642.8855 122.295179 
z
" clip-path="url(#pebfdb5a160)" style="fill: #9372b2; stroke: #3d3d3d; stroke-linejoin: miter"/>
   </g>
   <g id="line2d_29">
    <path d="M 701.6875 122.295179 
L 701.6875 190.037525 
" clip-path="url(#pebfdb5a160)" style="fill: none; stroke: #3d3d3d"/>
   </g>
   <g id="line2d_30">
    <path d="M 701.6875 68.377364 
L 701.6875 33.498407 
" clip-path="url(#pebfdb5a160)" style="fill: none; stroke: #3d3d3d"/>
   </g>
   <g id="line2d_31">
    <path d="M 672.2865 190.037525 
L 731.0885 190.037525 
" clip-path="url(#pebfdb5a160)" style="fill: none; stroke: #3d3d3d; stroke-linecap: square"/>
   </g>
   <g id="line2d_32">
    <path d="M 672.2865 33.498407 
L 731.0885 33.498407 
" clip-path="url(#pebfdb5a160)" style="fill: none; stroke: #3d3d3d; stroke-linecap: square"/>
   </g>
   <g id="line2d_33">
    <g clip-path="url(#pebfdb5a160)">
     <use xlink:href="#m350079b5c2" x="701.6875" y="253.839717" style="fill-opacity: 0; stroke: #3d3d3d"/>
     <use xlink:href="#m350079b5c2" x="701.6875" y="211.17306" style="fill-opacity: 0; stroke: #3d3d3d"/>
    </g>
   </g>
   <g id="patch_8">
    <path d="M 789.8905 129.6263 
L 907.4945 129.6263 
L 907.4945 77.320747 
L 789.8905 77.320747 
L 789.8905 129.6263 
z
" clip-path="url(#pebfdb5a160)" style="fill: #845b53; stroke: #3d3d3d; stroke-linejoin: miter"/>
   </g>
   <g id="line2d_34">
    <path d="M 848.6925 129.6263 
L 848.6925 199.546338 
" clip-path="url(#pebfdb5a160)" style="fill: none; stroke: #3d3d3d"/>
   </g>
   <g id="line2d_35">
    <path d="M 848.6925 77.320747 
L 848.6925 37.269558 
" clip-path="url(#pebfdb5a160)" style="fill: none; stroke: #3d3d3d"/>
   </g>
   <g id="line2d_36">
    <path d="M 819.2915 199.546338 
L 878.0935 199.546338 
" clip-path="url(#pebfdb5a160)" style="fill: none; stroke: #3d3d3d; stroke-linecap: square"/>
   </g>
   <g id="line2d_37">
    <path d="M 819.2915 37.269558 
L 878.0935 37.269558 
" clip-path="url(#pebfdb5a160)" style="fill: none; stroke: #3d3d3d; stroke-linecap: square"/>
   </g>
   <g id="line2d_38">
    <g clip-path="url(#pebfdb5a160)">
     <use xlink:href="#m350079b5c2" x="848.6925" y="235.172787" style="fill-opacity: 0; stroke: #3d3d3d"/>
     <use xlink:href="#m350079b5c2" x="848.6925" y="227.398746" style="fill-opacity: 0; stroke: #3d3d3d"/>
     <use xlink:href="#m350079b5c2" x="848.6925" y="224.874981" style="fill-opacity: 0; stroke: #3d3d3d"/>
    </g>
   </g>
   <g id="patch_9">
    <path d="M 936.8955 130.291931 
L 1054.4995 130.291931 
L 1054.4995 72.221736 
L 936.8955 72.221736 
L 936.8955 130.291931 
z
" clip-path="url(#pebfdb5a160)" style="fill: #d684bd; stroke: #3d3d3d; stroke-linejoin: miter"/>
   </g>
   <g id="line2d_39">
    <path d="M 995.6975 130.291931 
L 995.6975 213.457932 
" clip-path="url(#pebfdb5a160)" style="fill: none; stroke: #3d3d3d"/>
   </g>
   <g id="line2d_40">
    <path d="M 995.6975 72.221736 
L 995.6975 29.454545 
" clip-path="url(#pebfdb5a160)" style="fill: none; stroke: #3d3d3d"/>
   </g>
   <g id="line2d_41">
    <path d="M 966.2965 213.457932 
L 1025.0985 213.457932 
" clip-path="url(#pebfdb5a160)" style="fill: none; stroke: #3d3d3d; stroke-linecap: square"/>
   </g>
   <g id="line2d_42">
    <path d="M 966.2965 29.454545 
L 1025.0985 29.454545 
" clip-path="url(#pebfdb5a160)" style="fill: none; stroke: #3d3d3d; stroke-linecap: square"/>
   </g>
   <g id="line2d_43">
    <g clip-path="url(#pebfdb5a160)">
     <use xlink:href="#m350079b5c2" x="995.6975" y="246.257116" style="fill-opacity: 0; stroke: #3d3d3d"/>
     <use xlink:href="#m350079b5c2" x="995.6975" y="219.643701" style="fill-opacity: 0; stroke: #3d3d3d"/>
     <use xlink:href="#m350079b5c2" x="995.6975" y="230.234164" style="fill-opacity: 0; stroke: #3d3d3d"/>
    </g>
   </g>
   <g id="line2d_44">
    <path d="M 54.8655 110.657902 
L 172.4695 110.657902 
" clip-path="url(#pebfdb5a160)" style="fill: none; stroke: #3d3d3d"/>
   </g>
   <g id="line2d_45">
    <path d="M 201.8705 117.426491 
L 319.4745 117.426491 
" clip-path="url(#pebfdb5a160)" style="fill: none; stroke: #3d3d3d"/>
   </g>
   <g id="line2d_46">
    <path d="M 348.8755 88.721253 
L 466.4795 88.721253 
" clip-path="url(#pebfdb5a160)" style="fill: none; stroke: #3d3d3d"/>
   </g>
   <g id="line2d_47">
    <path d="M 495.8805 83.868503 
L 613.4845 83.868503 
" clip-path="url(#pebfdb5a160)" style="fill: none; stroke: #3d3d3d"/>
   </g>
   <g id="line2d_48">
    <path d="M 642.8855 96.938939 
L 760.4895 96.938939 
" clip-path="url(#pebfdb5a160)" style="fill: none; stroke: #3d3d3d"/>
   </g>
   <g id="line2d_49">
    <path d="M 789.8905 105.638457 
L 907.4945 105.638457 
" clip-path="url(#pebfdb5a160)" style="fill: none; stroke: #3d3d3d"/>
   </g>
   <g id="line2d_50">
    <path d="M 936.8955 104.924889 
L 1054.4995 104.924889 
" clip-path="url(#pebfdb5a160)" style="fill: none; stroke: #3d3d3d"/>
   </g>
   <g id="patch_10">
    <path d="M 40.165 421.2 
L 40.165 10.8 
" style="fill: none; stroke: #000000; stroke-width: 0.8; stroke-linejoin: miter; stroke-linecap: square"/>
   </g>
   <g id="patch_11">
    <path d="M 1069.2 421.2 
L 1069.2 10.8 
" style="fill: none; stroke: #000000; stroke-width: 0.8; stroke-linejoin: miter; stroke-linecap: square"/>
   </g>
   <g id="patch_12">
    <path d="M 40.165 421.2 
L 1069.2 421.2 
" style="fill: none; stroke: #000000; stroke-width: 0.8; stroke-linejoin: miter; stroke-linecap: square"/>
   </g>
   <g id="patch_13">
    <path d="M 40.165 10.8 
L 1069.2 10.8 
" style="fill: none; stroke: #000000; stroke-width: 0.8; stroke-linejoin: miter; stroke-linecap: square"/>
   </g>
  </g>
 </g>
 <defs>
  <clipPath id="pebfdb5a160">
   <rect x="40.165" y="10.8" width="1029.035" height="410.4"/>
  </clipPath>
 </defs>
</svg>
