<?xml version="1.0" encoding="utf-8" standalone="no"?>
<!DOCTYPE svg PUBLIC "-//W3C//DTD SVG 1.1//EN"
  "http://www.w3.org/Graphics/SVG/1.1/DTD/svg11.dtd">
<svg xmlns:xlink="http://www.w3.org/1999/xlink" width="1080pt" height="432pt" viewBox="0 0 1080 432" xmlns="http://www.w3.org/2000/svg" version="1.1">
 <metadata>
  <rdf:RDF xmlns:dc="http://purl.org/dc/elements/1.1/" xmlns:cc="http://creativecommons.org/ns#" xmlns:rdf="http://www.w3.org/1999/02/22-rdf-syntax-ns#">
   <cc:Work>
    <dc:type rdf:resource="http://purl.org/dc/dcmitype/StillImage"/>
    <dc:date>2024-12-10T13:00:21.470713</dc:date>
    <dc:format>image/svg+xml</dc:format>
    <dc:creator>
     <cc:Agent>
      <dc:title>Matplotlib v3.9.3, https://matplotlib.org/</dc:title>
     </cc:Agent>
    </dc:creator>
   </cc:Work>
  </rdf:RDF>
 </metadata>
 <defs>
  <style type="text/css">*{stroke-linejoin: round; stroke-linecap: butt}</style>
 </defs>
 <g id="figure_1">
  <g id="patch_1">
   <path d="M 0 432 
L 1080 432 
L 1080 0 
L 0 0 
z
" style="fill: #ffffff"/>
  </g>
  <g id="axes_1">
   <g id="patch_2">
    <path d="M 24.19 421.2 
L 1069.2 421.2 
L 1069.2 13.282995 
L 24.19 13.282995 
z
" style="fill: #ffffff"/>
   </g>
   <g id="matplotlib.axis_1"/>
   <g id="matplotlib.axis_2">
    <g id="ytick_1">
     <g id="line2d_1">
      <defs>
       <path id="mbf11af7d69" d="M 0 0 
L -3.5 0 
" style="stroke: #000000; stroke-width: 0.8"/>
      </defs>
      <g>
       <use xlink:href="#mbf11af7d69" x="24.19" y="15.094249" style="stroke: #000000; stroke-width: 0.8"/>
      </g>
     </g>
     <g id="text_1">
      <!-- 1 -->
      <g transform="translate(10.8275 18.893467) scale(0.1 -0.1)">
       <defs>
        <path id="DejaVuSans-31" d="M 794 531 
L 1825 531 
L 1825 4091 
L 703 3866 
L 703 4441 
L 1819 4666 
L 2450 4666 
L 2450 531 
L 3481 531 
L 3481 0 
L 794 0 
L 794 531 
z
" transform="scale(0.015625)"/>
       </defs>
       <use xlink:href="#DejaVuSans-31"/>
      </g>
     </g>
    </g>
    <g id="ytick_2">
     <g id="line2d_2">
      <g>
       <use xlink:href="#mbf11af7d69" x="24.19" y="74.494577" style="stroke: #000000; stroke-width: 0.8"/>
      </g>
     </g>
     <g id="text_2">
      <!-- 2 -->
      <g transform="translate(10.8275 78.293796) scale(0.1 -0.1)">
       <defs>
        <path id="DejaVuSans-32" d="M 1228 531 
L 3431 531 
L 3431 0 
L 469 0 
L 469 531 
Q 828 903 1448 1529 
Q 2069 2156 2228 2338 
Q 2531 2678 2651 2914 
Q 2772 3150 2772 3378 
Q 2772 3750 2511 3984 
Q 2250 4219 1831 4219 
Q 1534 4219 1204 4116 
Q 875 4013 500 3803 
L 500 4441 
Q 881 4594 1212 4672 
Q 1544 4750 1819 4750 
Q 2544 4750 2975 4387 
Q 3406 4025 3406 3419 
Q 3406 3131 3298 2873 
Q 3191 2616 2906 2266 
Q 2828 2175 2409 1742 
Q 1991 1309 1228 531 
z
" transform="scale(0.015625)"/>
       </defs>
       <use xlink:href="#DejaVuSans-32"/>
      </g>
     </g>
    </g>
    <g id="ytick_3">
     <g id="line2d_3">
      <g>
       <use xlink:href="#mbf11af7d69" x="24.19" y="133.894906" style="stroke: #000000; stroke-width: 0.8"/>
      </g>
     </g>
     <g id="text_3">
      <!-- 3 -->
      <g transform="translate(10.8275 137.694125) scale(0.1 -0.1)">
       <defs>
        <path id="DejaVuSans-33" d="M 2597 2516 
Q 3050 2419 3304 2112 
Q 3559 1806 3559 1356 
Q 3559 666 3084 287 
Q 2609 -91 1734 -91 
Q 1441 -91 1130 -33 
Q 819 25 488 141 
L 488 750 
Q 750 597 1062 519 
Q 1375 441 1716 441 
Q 2309 441 2620 675 
Q 2931 909 2931 1356 
Q 2931 1769 2642 2001 
Q 2353 2234 1838 2234 
L 1294 2234 
L 1294 2753 
L 1863 2753 
Q 2328 2753 2575 2939 
Q 2822 3125 2822 3475 
Q 2822 3834 2567 4026 
Q 2313 4219 1838 4219 
Q 1578 4219 1281 4162 
Q 984 4106 628 3988 
L 628 4550 
Q 988 4650 1302 4700 
Q 1616 4750 1894 4750 
Q 2613 4750 3031 4423 
Q 3450 4097 3450 3541 
Q 3450 3153 3228 2886 
Q 3006 2619 2597 2516 
z
" transform="scale(0.015625)"/>
       </defs>
       <use xlink:href="#DejaVuSans-33"/>
      </g>
     </g>
    </g>
    <g id="ytick_4">
     <g id="line2d_4">
      <g>
       <use xlink:href="#mbf11af7d69" x="24.19" y="193.295235" style="stroke: #000000; stroke-width: 0.8"/>
      </g>
     </g>
     <g id="text_4">
      <!-- 4 -->
      <g transform="translate(10.8275 197.094454) scale(0.1 -0.1)">
       <defs>
        <path id="DejaVuSans-34" d="M 2419 4116 
L 825 1625 
L 2419 1625 
L 2419 4116 
z
M 2253 4666 
L 3047 4666 
L 3047 1625 
L 3713 1625 
L 3713 1100 
L 3047 1100 
L 3047 0 
L 2419 0 
L 2419 1100 
L 313 1100 
L 313 1709 
L 2253 4666 
z
" transform="scale(0.015625)"/>
       </defs>
       <use xlink:href="#DejaVuSans-34"/>
      </g>
     </g>
    </g>
    <g id="ytick_5">
     <g id="line2d_5">
      <g>
       <use xlink:href="#mbf11af7d69" x="24.19" y="252.695564" style="stroke: #000000; stroke-width: 0.8"/>
      </g>
     </g>
     <g id="text_5">
      <!-- 5 -->
      <g transform="translate(10.8275 256.494783) scale(0.1 -0.1)">
       <defs>
        <path id="DejaVuSans-35" d="M 691 4666 
L 3169 4666 
L 3169 4134 
L 1269 4134 
L 1269 2991 
Q 1406 3038 1543 3061 
Q 1681 3084 1819 3084 
Q 2600 3084 3056 2656 
Q 3513 2228 3513 1497 
Q 3513 744 3044 326 
Q 2575 -91 1722 -91 
Q 1428 -91 1123 -41 
Q 819 9 494 109 
L 494 744 
Q 775 591 1075 516 
Q 1375 441 1709 441 
Q 2250 441 2565 725 
Q 2881 1009 2881 1497 
Q 2881 1984 2565 2268 
Q 2250 2553 1709 2553 
Q 1456 2553 1204 2497 
Q 953 2441 691 2322 
L 691 4666 
z
" transform="scale(0.015625)"/>
       </defs>
       <use xlink:href="#DejaVuSans-35"/>
      </g>
     </g>
    </g>
    <g id="ytick_6">
     <g id="line2d_6">
      <g>
       <use xlink:href="#mbf11af7d69" x="24.19" y="312.095893" style="stroke: #000000; stroke-width: 0.8"/>
      </g>
     </g>
     <g id="text_6">
      <!-- 6 -->
      <g transform="translate(10.8275 315.895111) scale(0.1 -0.1)">
       <defs>
        <path id="DejaVuSans-36" d="M 2113 2584 
Q 1688 2584 1439 2293 
Q 1191 2003 1191 1497 
Q 1191 994 1439 701 
Q 1688 409 2113 409 
Q 2538 409 2786 701 
Q 3034 994 3034 1497 
Q 3034 2003 2786 2293 
Q 2538 2584 2113 2584 
z
M 3366 4563 
L 3366 3988 
Q 3128 4100 2886 4159 
Q 2644 4219 2406 4219 
Q 1781 4219 1451 3797 
Q 1122 3375 1075 2522 
Q 1259 2794 1537 2939 
Q 1816 3084 2150 3084 
Q 2853 3084 3261 2657 
Q 3669 2231 3669 1497 
Q 3669 778 3244 343 
Q 2819 -91 2113 -91 
Q 1303 -91 875 529 
Q 447 1150 447 2328 
Q 447 3434 972 4092 
Q 1497 4750 2381 4750 
Q 2619 4750 2861 4703 
Q 3103 4656 3366 4563 
z
" transform="scale(0.015625)"/>
       </defs>
       <use xlink:href="#DejaVuSans-36"/>
      </g>
     </g>
    </g>
    <g id="ytick_7">
     <g id="line2d_7">
      <g>
       <use xlink:href="#mbf11af7d69" x="24.19" y="371.496221" style="stroke: #000000; stroke-width: 0.8"/>
      </g>
     </g>
     <g id="text_7">
      <!-- 7 -->
      <g transform="translate(10.8275 375.29544) scale(0.1 -0.1)">
       <defs>
        <path id="DejaVuSans-37" d="M 525 4666 
L 3525 4666 
L 3525 4397 
L 1831 0 
L 1172 0 
L 2766 4134 
L 525 4134 
L 525 4666 
z
" transform="scale(0.015625)"/>
       </defs>
       <use xlink:href="#DejaVuSans-37"/>
      </g>
     </g>
    </g>
   </g>
   <g id="patch_3">
    <path d="M 39.118714 147.555817 
L 158.548429 147.555817 
L 158.548429 203.182894 
L 39.118714 203.182894 
L 39.118714 147.555817 
z
" clip-path="url(#p80209f97ee)" style="fill: #3274a1; stroke: #3d3d3d; stroke-linejoin: miter"/>
   </g>
   <g id="line2d_8">
    <path d="M 98.833571 147.555817 
L 98.833571 107.215587 
" clip-path="url(#p80209f97ee)" style="fill: none; stroke: #3d3d3d"/>
   </g>
   <g id="line2d_9">
    <path d="M 98.833571 203.182894 
L 98.833571 274.222818 
" clip-path="url(#p80209f97ee)" style="fill: none; stroke: #3d3d3d"/>
   </g>
   <g id="line2d_10">
    <path d="M 68.976143 107.215587 
L 128.691 107.215587 
" clip-path="url(#p80209f97ee)" style="fill: none; stroke: #3d3d3d; stroke-linecap: square"/>
   </g>
   <g id="line2d_11">
    <path d="M 68.976143 274.222818 
L 128.691 274.222818 
" clip-path="url(#p80209f97ee)" style="fill: none; stroke: #3d3d3d; stroke-linecap: square"/>
   </g>
   <g id="line2d_12">
    <defs>
     <path id="m775cc83131" d="M 0 3 
C 0.795609 3 1.55874 2.683901 2.12132 2.12132 
C 2.683901 1.55874 3 0.795609 3 0 
C 3 -0.795609 2.683901 -1.55874 2.12132 -2.12132 
C 1.55874 -2.683901 0.795609 -3 0 -3 
C -0.795609 -3 -1.55874 -2.683901 -2.12132 -2.12132 
C -2.683901 -1.55874 -3 -0.795609 -3 0 
C -3 0.795609 -2.683901 1.55874 -2.12132 2.12132 
C -1.55874 2.683901 -0.795609 3 0 3 
z
" style="stroke: #3d3d3d"/>
    </defs>
    <g clip-path="url(#p80209f97ee)">
     <use xlink:href="#m775cc83131" x="98.833571" y="373.129346" style="fill-opacity: 0; stroke: #3d3d3d"/>
     <use xlink:href="#m775cc83131" x="98.833571" y="341.223455" style="fill-opacity: 0; stroke: #3d3d3d"/>
     <use xlink:href="#m775cc83131" x="98.833571" y="346.476911" style="fill-opacity: 0; stroke: #3d3d3d"/>
     <use xlink:href="#m775cc83131" x="98.833571" y="380.079133" style="fill-opacity: 0; stroke: #3d3d3d"/>
     <use xlink:href="#m775cc83131" x="98.833571" y="303.103971" style="fill-opacity: 0; stroke: #3d3d3d"/>
     <use xlink:href="#m775cc83131" x="98.833571" y="317.532226" style="fill-opacity: 0; stroke: #3d3d3d"/>
     <use xlink:href="#m775cc83131" x="98.833571" y="303.971934" style="fill-opacity: 0; stroke: #3d3d3d"/>
     <use xlink:href="#m775cc83131" x="98.833571" y="313.958546" style="fill-opacity: 0; stroke: #3d3d3d"/>
     <use xlink:href="#m775cc83131" x="98.833571" y="296.406172" style="fill-opacity: 0; stroke: #3d3d3d"/>
     <use xlink:href="#m775cc83131" x="98.833571" y="363.610491" style="fill-opacity: 0; stroke: #3d3d3d"/>
    </g>
   </g>
   <g id="patch_4">
    <path d="M 188.405857 156.293686 
L 307.835571 156.293686 
L 307.835571 207.846928 
L 188.405857 207.846928 
L 188.405857 156.293686 
z
" clip-path="url(#p80209f97ee)" style="fill: #e1812c; stroke: #3d3d3d; stroke-linejoin: miter"/>
   </g>
   <g id="line2d_13">
    <path d="M 248.120714 156.293686 
L 248.120714 113.782667 
" clip-path="url(#p80209f97ee)" style="fill: none; stroke: #3d3d3d"/>
   </g>
   <g id="line2d_14">
    <path d="M 248.120714 207.846928 
L 248.120714 280.022142 
" clip-path="url(#p80209f97ee)" style="fill: none; stroke: #3d3d3d"/>
   </g>
   <g id="line2d_15">
    <path d="M 218.263286 113.782667 
L 277.978143 113.782667 
" clip-path="url(#p80209f97ee)" style="fill: none; stroke: #3d3d3d; stroke-linecap: square"/>
   </g>
   <g id="line2d_16">
    <path d="M 218.263286 280.022142 
L 277.978143 280.022142 
" clip-path="url(#p80209f97ee)" style="fill: none; stroke: #3d3d3d; stroke-linecap: square"/>
   </g>
   <g id="line2d_17">
    <g clip-path="url(#p80209f97ee)">
     <use xlink:href="#m775cc83131" x="248.120714" y="375.492052" style="fill-opacity: 0; stroke: #3d3d3d"/>
     <use xlink:href="#m775cc83131" x="248.120714" y="338.078133" style="fill-opacity: 0; stroke: #3d3d3d"/>
     <use xlink:href="#m775cc83131" x="248.120714" y="342.008865" style="fill-opacity: 0; stroke: #3d3d3d"/>
     <use xlink:href="#m775cc83131" x="248.120714" y="378.98488" style="fill-opacity: 0; stroke: #3d3d3d"/>
     <use xlink:href="#m775cc83131" x="248.120714" y="299.514608" style="fill-opacity: 0; stroke: #3d3d3d"/>
     <use xlink:href="#m775cc83131" x="248.120714" y="322.050258" style="fill-opacity: 0; stroke: #3d3d3d"/>
     <use xlink:href="#m775cc83131" x="248.120714" y="302.584962" style="fill-opacity: 0; stroke: #3d3d3d"/>
     <use xlink:href="#m775cc83131" x="248.120714" y="316.267171" style="fill-opacity: 0; stroke: #3d3d3d"/>
     <use xlink:href="#m775cc83131" x="248.120714" y="300.444805" style="fill-opacity: 0; stroke: #3d3d3d"/>
     <use xlink:href="#m775cc83131" x="248.120714" y="356.673045" style="fill-opacity: 0; stroke: #3d3d3d"/>
    </g>
   </g>
   <g id="patch_5">
    <path d="M 337.693 115.698117 
L 457.122714 115.698117 
L 457.122714 174.147382 
L 337.693 174.147382 
L 337.693 115.698117 
z
" clip-path="url(#p80209f97ee)" style="fill: #3a923a; stroke: #3d3d3d; stroke-linejoin: miter"/>
   </g>
   <g id="line2d_18">
    <path d="M 397.407857 115.698117 
L 397.407857 68.109982 
" clip-path="url(#p80209f97ee)" style="fill: none; stroke: #3d3d3d"/>
   </g>
   <g id="line2d_19">
    <path d="M 397.407857 174.147382 
L 397.407857 253.360307 
" clip-path="url(#p80209f97ee)" style="fill: none; stroke: #3d3d3d"/>
   </g>
   <g id="line2d_20">
    <path d="M 367.550429 68.109982 
L 427.265286 68.109982 
" clip-path="url(#p80209f97ee)" style="fill: none; stroke: #3d3d3d; stroke-linecap: square"/>
   </g>
   <g id="line2d_21">
    <path d="M 367.550429 253.360307 
L 427.265286 253.360307 
" clip-path="url(#p80209f97ee)" style="fill: none; stroke: #3d3d3d; stroke-linecap: square"/>
   </g>
   <g id="line2d_22">
    <g clip-path="url(#p80209f97ee)">
     <use xlink:href="#m775cc83131" x="397.407857" y="359.475579" style="fill-opacity: 0; stroke: #3d3d3d"/>
     <use xlink:href="#m775cc83131" x="397.407857" y="265.071405" style="fill-opacity: 0; stroke: #3d3d3d"/>
     <use xlink:href="#m775cc83131" x="397.407857" y="292.840871" style="fill-opacity: 0; stroke: #3d3d3d"/>
     <use xlink:href="#m775cc83131" x="397.407857" y="332.211183" style="fill-opacity: 0; stroke: #3d3d3d"/>
     <use xlink:href="#m775cc83131" x="397.407857" y="358.557672" style="fill-opacity: 0; stroke: #3d3d3d"/>
     <use xlink:href="#m775cc83131" x="397.407857" y="279.163572" style="fill-opacity: 0; stroke: #3d3d3d"/>
     <use xlink:href="#m775cc83131" x="397.407857" y="275.314854" style="fill-opacity: 0; stroke: #3d3d3d"/>
     <use xlink:href="#m775cc83131" x="397.407857" y="281.953668" style="fill-opacity: 0; stroke: #3d3d3d"/>
     <use xlink:href="#m775cc83131" x="397.407857" y="264.65896" style="fill-opacity: 0; stroke: #3d3d3d"/>
     <use xlink:href="#m775cc83131" x="397.407857" y="304.257273" style="fill-opacity: 0; stroke: #3d3d3d"/>
    </g>
   </g>
   <g id="patch_6">
    <path d="M 486.980143 107.664909 
L 606.409857 107.664909 
L 606.409857 157.475586 
L 486.980143 157.475586 
L 486.980143 107.664909 
z
" clip-path="url(#p80209f97ee)" style="fill: #c03d3e; stroke: #3d3d3d; stroke-linejoin: miter"/>
   </g>
   <g id="line2d_23">
    <path d="M 546.695 107.664909 
L 546.695 60.017943 
" clip-path="url(#p80209f97ee)" style="fill: none; stroke: #3d3d3d"/>
   </g>
   <g id="line2d_24">
    <path d="M 546.695 157.475586 
L 546.695 215.854582 
" clip-path="url(#p80209f97ee)" style="fill: none; stroke: #3d3d3d"/>
   </g>
   <g id="line2d_25">
    <path d="M 516.837571 60.017943 
L 576.552429 60.017943 
" clip-path="url(#p80209f97ee)" style="fill: none; stroke: #3d3d3d; stroke-linecap: square"/>
   </g>
   <g id="line2d_26">
    <path d="M 516.837571 215.854582 
L 576.552429 215.854582 
" clip-path="url(#p80209f97ee)" style="fill: none; stroke: #3d3d3d; stroke-linecap: square"/>
   </g>
   <g id="line2d_27">
    <g clip-path="url(#p80209f97ee)">
     <use xlink:href="#m775cc83131" x="546.695" y="297.718744" style="fill-opacity: 0; stroke: #3d3d3d"/>
     <use xlink:href="#m775cc83131" x="546.695" y="252.622782" style="fill-opacity: 0; stroke: #3d3d3d"/>
     <use xlink:href="#m775cc83131" x="546.695" y="251.407777" style="fill-opacity: 0; stroke: #3d3d3d"/>
     <use xlink:href="#m775cc83131" x="546.695" y="264.460095" style="fill-opacity: 0; stroke: #3d3d3d"/>
     <use xlink:href="#m775cc83131" x="546.695" y="302.195213" style="fill-opacity: 0; stroke: #3d3d3d"/>
     <use xlink:href="#m775cc83131" x="546.695" y="233.761645" style="fill-opacity: 0; stroke: #3d3d3d"/>
     <use xlink:href="#m775cc83131" x="546.695" y="232.796064" style="fill-opacity: 0; stroke: #3d3d3d"/>
     <use xlink:href="#m775cc83131" x="546.695" y="234.961599" style="fill-opacity: 0; stroke: #3d3d3d"/>
     <use xlink:href="#m775cc83131" x="546.695" y="236.700283" style="fill-opacity: 0; stroke: #3d3d3d"/>
     <use xlink:href="#m775cc83131" x="546.695" y="235.584509" style="fill-opacity: 0; stroke: #3d3d3d"/>
    </g>
   </g>
   <g id="patch_7">
    <path d="M 636.267286 111.604452 
L 755.697 111.604452 
L 755.697 179.493371 
L 636.267286 179.493371 
L 636.267286 111.604452 
z
" clip-path="url(#p80209f97ee)" style="fill: #9372b2; stroke: #3d3d3d; stroke-linejoin: miter"/>
   </g>
   <g id="line2d_28">
    <path d="M 695.982143 111.604452 
L 695.982143 31.824677 
" clip-path="url(#p80209f97ee)" style="fill: none; stroke: #3d3d3d"/>
   </g>
   <g id="line2d_29">
    <path d="M 695.982143 179.493371 
L 695.982143 277.529889 
" clip-path="url(#p80209f97ee)" style="fill: none; stroke: #3d3d3d"/>
   </g>
   <g id="line2d_30">
    <path d="M 666.124714 31.824677 
L 725.839571 31.824677 
" clip-path="url(#p80209f97ee)" style="fill: none; stroke: #3d3d3d; stroke-linecap: square"/>
   </g>
   <g id="line2d_31">
    <path d="M 666.124714 277.529889 
L 725.839571 277.529889 
" clip-path="url(#p80209f97ee)" style="fill: none; stroke: #3d3d3d; stroke-linecap: square"/>
   </g>
   <g id="line2d_32"/>
   <g id="patch_8">
    <path d="M 785.554429 122.880649 
L 904.984143 122.880649 
L 904.984143 193.57948 
L 785.554429 193.57948 
L 785.554429 122.880649 
z
" clip-path="url(#p80209f97ee)" style="fill: #845b53; stroke: #3d3d3d; stroke-linejoin: miter"/>
   </g>
   <g id="line2d_33">
    <path d="M 845.269286 122.880649 
L 845.269286 46.280739 
" clip-path="url(#p80209f97ee)" style="fill: none; stroke: #3d3d3d"/>
   </g>
   <g id="line2d_34">
    <path d="M 845.269286 193.57948 
L 845.269286 294.333859 
" clip-path="url(#p80209f97ee)" style="fill: none; stroke: #3d3d3d"/>
   </g>
   <g id="line2d_35">
    <path d="M 815.411857 46.280739 
L 875.126714 46.280739 
" clip-path="url(#p80209f97ee)" style="fill: none; stroke: #3d3d3d; stroke-linecap: square"/>
   </g>
   <g id="line2d_36">
    <path d="M 815.411857 294.333859 
L 875.126714 294.333859 
" clip-path="url(#p80209f97ee)" style="fill: none; stroke: #3d3d3d; stroke-linecap: square"/>
   </g>
   <g id="line2d_37"/>
   <g id="patch_9">
    <path d="M 934.841571 224.560948 
L 1054.271286 224.560948 
L 1054.271286 292.310532 
L 934.841571 292.310532 
L 934.841571 224.560948 
z
" clip-path="url(#p80209f97ee)" style="fill: #d684bd; stroke: #3d3d3d; stroke-linejoin: miter"/>
   </g>
   <g id="line2d_38">
    <path d="M 994.556429 224.560948 
L 994.556429 126.490741 
" clip-path="url(#p80209f97ee)" style="fill: none; stroke: #3d3d3d"/>
   </g>
   <g id="line2d_39">
    <path d="M 994.556429 292.310532 
L 994.556429 390.576007 
" clip-path="url(#p80209f97ee)" style="fill: none; stroke: #3d3d3d"/>
   </g>
   <g id="line2d_40">
    <path d="M 964.699 126.490741 
L 1024.413857 126.490741 
" clip-path="url(#p80209f97ee)" style="fill: none; stroke: #3d3d3d; stroke-linecap: square"/>
   </g>
   <g id="line2d_41">
    <path d="M 964.699 390.576007 
L 1024.413857 390.576007 
" clip-path="url(#p80209f97ee)" style="fill: none; stroke: #3d3d3d; stroke-linecap: square"/>
   </g>
   <g id="line2d_42">
    <g clip-path="url(#p80209f97ee)">
     <use xlink:href="#m775cc83131" x="994.556429" y="121.934248" style="fill-opacity: 0; stroke: #3d3d3d"/>
     <use xlink:href="#m775cc83131" x="994.556429" y="122.821131" style="fill-opacity: 0; stroke: #3d3d3d"/>
     <use xlink:href="#m775cc83131" x="994.556429" y="395.517789" style="fill-opacity: 0; stroke: #3d3d3d"/>
     <use xlink:href="#m775cc83131" x="994.556429" y="402.658318" style="fill-opacity: 0; stroke: #3d3d3d"/>
    </g>
   </g>
   <g id="line2d_43">
    <path d="M 39.118714 172.65544 
L 158.548429 172.65544 
" clip-path="url(#p80209f97ee)" style="fill: none; stroke: #3d3d3d"/>
   </g>
   <g id="line2d_44">
    <path d="M 188.405857 178.316363 
L 307.835571 178.316363 
" clip-path="url(#p80209f97ee)" style="fill: none; stroke: #3d3d3d"/>
   </g>
   <g id="line2d_45">
    <path d="M 337.693 145.326504 
L 457.122714 145.326504 
" clip-path="url(#p80209f97ee)" style="fill: none; stroke: #3d3d3d"/>
   </g>
   <g id="line2d_46">
    <path d="M 486.980143 135.497013 
L 606.409857 135.497013 
" clip-path="url(#p80209f97ee)" style="fill: none; stroke: #3d3d3d"/>
   </g>
   <g id="line2d_47">
    <path d="M 636.267286 148.354393 
L 755.697 148.354393 
" clip-path="url(#p80209f97ee)" style="fill: none; stroke: #3d3d3d"/>
   </g>
   <g id="line2d_48">
    <path d="M 785.554429 164.005149 
L 904.984143 164.005149 
" clip-path="url(#p80209f97ee)" style="fill: none; stroke: #3d3d3d"/>
   </g>
   <g id="line2d_49">
    <path d="M 934.841571 259.42072 
L 1054.271286 259.42072 
" clip-path="url(#p80209f97ee)" style="fill: none; stroke: #3d3d3d"/>
   </g>
   <g id="patch_10">
    <path d="M 24.19 421.2 
L 24.19 13.282995 
" style="fill: none; stroke: #000000; stroke-width: 0.8; stroke-linejoin: miter; stroke-linecap: square"/>
   </g>
   <g id="patch_11">
    <path d="M 1069.2 421.2 
L 1069.2 13.282995 
" style="fill: none; stroke: #000000; stroke-width: 0.8; stroke-linejoin: miter; stroke-linecap: square"/>
   </g>
   <g id="patch_12">
    <path d="M 24.19 421.2 
L 1069.2 421.2 
" style="fill: none; stroke: #000000; stroke-width: 0.8; stroke-linejoin: miter; stroke-linecap: square"/>
   </g>
   <g id="patch_13">
    <path d="M 24.19 13.282995 
L 1069.2 13.282995 
" style="fill: none; stroke: #000000; stroke-width: 0.8; stroke-linejoin: miter; stroke-linecap: square"/>
   </g>
  </g>
 </g>
 <defs>
  <clipPath id="p80209f97ee">
   <rect x="24.19" y="13.282995" width="1045.01" height="407.917005"/>
  </clipPath>
 </defs>
</svg>
