<?xml version="1.0" encoding="utf-8" standalone="no"?>
<!DOCTYPE svg PUBLIC "-//W3C//DTD SVG 1.1//EN"
  "http://www.w3.org/Graphics/SVG/1.1/DTD/svg11.dtd">
<svg xmlns:xlink="http://www.w3.org/1999/xlink" width="1080pt" height="432pt" viewBox="0 0 1080 432" xmlns="http://www.w3.org/2000/svg" version="1.1">
 <metadata>
  <rdf:RDF xmlns:dc="http://purl.org/dc/elements/1.1/" xmlns:cc="http://creativecommons.org/ns#" xmlns:rdf="http://www.w3.org/1999/02/22-rdf-syntax-ns#">
   <cc:Work>
    <dc:type rdf:resource="http://purl.org/dc/dcmitype/StillImage"/>
    <dc:date>2024-12-10T13:00:27.611614</dc:date>
    <dc:format>image/svg+xml</dc:format>
    <dc:creator>
     <cc:Agent>
      <dc:title>Matplotlib v3.9.3, https://matplotlib.org/</dc:title>
     </cc:Agent>
    </dc:creator>
   </cc:Work>
  </rdf:RDF>
 </metadata>
 <defs>
  <style type="text/css">*{stroke-linejoin: round; stroke-linecap: butt}</style>
 </defs>
 <g id="figure_1">
  <g id="patch_1">
   <path d="M 0 432 
L 1080 432 
L 1080 0 
L 0 0 
z
" style="fill: #ffffff"/>
  </g>
  <g id="axes_1">
   <g id="patch_2">
    <path d="M 24.19 421.2 
L 1069.2 421.2 
L 1069.2 10.8 
L 24.19 10.8 
z
" style="fill: #ffffff"/>
   </g>
   <g id="matplotlib.axis_1"/>
   <g id="matplotlib.axis_2">
    <g id="ytick_1">
     <g id="line2d_1">
      <defs>
       <path id="m4fb8d9bc67" d="M 0 0 
L -3.5 0 
" style="stroke: #000000; stroke-width: 0.8"/>
      </defs>
      <g>
       <use xlink:href="#m4fb8d9bc67" x="24.19" y="45.632558" style="stroke: #000000; stroke-width: 0.8"/>
      </g>
     </g>
     <g id="text_1">
      <!-- 2 -->
      <g transform="translate(10.8275 49.431777) scale(0.1 -0.1)">
       <defs>
        <path id="DejaVuSans-32" d="M 1228 531 
L 3431 531 
L 3431 0 
L 469 0 
L 469 531 
Q 828 903 1448 1529 
Q 2069 2156 2228 2338 
Q 2531 2678 2651 2914 
Q 2772 3150 2772 3378 
Q 2772 3750 2511 3984 
Q 2250 4219 1831 4219 
Q 1534 4219 1204 4116 
Q 875 4013 500 3803 
L 500 4441 
Q 881 4594 1212 4672 
Q 1544 4750 1819 4750 
Q 2544 4750 2975 4387 
Q 3406 4025 3406 3419 
Q 3406 3131 3298 2873 
Q 3191 2616 2906 2266 
Q 2828 2175 2409 1742 
Q 1991 1309 1228 531 
z
" transform="scale(0.015625)"/>
       </defs>
       <use xlink:href="#DejaVuSans-32"/>
      </g>
     </g>
    </g>
    <g id="ytick_2">
     <g id="line2d_2">
      <g>
       <use xlink:href="#m4fb8d9bc67" x="24.19" y="95.855885" style="stroke: #000000; stroke-width: 0.8"/>
      </g>
     </g>
     <g id="text_2">
      <!-- 3 -->
      <g transform="translate(10.8275 99.655104) scale(0.1 -0.1)">
       <defs>
        <path id="DejaVuSans-33" d="M 2597 2516 
Q 3050 2419 3304 2112 
Q 3559 1806 3559 1356 
Q 3559 666 3084 287 
Q 2609 -91 1734 -91 
Q 1441 -91 1130 -33 
Q 819 25 488 141 
L 488 750 
Q 750 597 1062 519 
Q 1375 441 1716 441 
Q 2309 441 2620 675 
Q 2931 909 2931 1356 
Q 2931 1769 2642 2001 
Q 2353 2234 1838 2234 
L 1294 2234 
L 1294 2753 
L 1863 2753 
Q 2328 2753 2575 2939 
Q 2822 3125 2822 3475 
Q 2822 3834 2567 4026 
Q 2313 4219 1838 4219 
Q 1578 4219 1281 4162 
Q 984 4106 628 3988 
L 628 4550 
Q 988 4650 1302 4700 
Q 1616 4750 1894 4750 
Q 2613 4750 3031 4423 
Q 3450 4097 3450 3541 
Q 3450 3153 3228 2886 
Q 3006 2619 2597 2516 
z
" transform="scale(0.015625)"/>
       </defs>
       <use xlink:href="#DejaVuSans-33"/>
      </g>
     </g>
    </g>
    <g id="ytick_3">
     <g id="line2d_3">
      <g>
       <use xlink:href="#m4fb8d9bc67" x="24.19" y="146.079212" style="stroke: #000000; stroke-width: 0.8"/>
      </g>
     </g>
     <g id="text_3">
      <!-- 4 -->
      <g transform="translate(10.8275 149.878431) scale(0.1 -0.1)">
       <defs>
        <path id="DejaVuSans-34" d="M 2419 4116 
L 825 1625 
L 2419 1625 
L 2419 4116 
z
M 2253 4666 
L 3047 4666 
L 3047 1625 
L 3713 1625 
L 3713 1100 
L 3047 1100 
L 3047 0 
L 2419 0 
L 2419 1100 
L 313 1100 
L 313 1709 
L 2253 4666 
z
" transform="scale(0.015625)"/>
       </defs>
       <use xlink:href="#DejaVuSans-34"/>
      </g>
     </g>
    </g>
    <g id="ytick_4">
     <g id="line2d_4">
      <g>
       <use xlink:href="#m4fb8d9bc67" x="24.19" y="196.302539" style="stroke: #000000; stroke-width: 0.8"/>
      </g>
     </g>
     <g id="text_4">
      <!-- 5 -->
      <g transform="translate(10.8275 200.101758) scale(0.1 -0.1)">
       <defs>
        <path id="DejaVuSans-35" d="M 691 4666 
L 3169 4666 
L 3169 4134 
L 1269 4134 
L 1269 2991 
Q 1406 3038 1543 3061 
Q 1681 3084 1819 3084 
Q 2600 3084 3056 2656 
Q 3513 2228 3513 1497 
Q 3513 744 3044 326 
Q 2575 -91 1722 -91 
Q 1428 -91 1123 -41 
Q 819 9 494 109 
L 494 744 
Q 775 591 1075 516 
Q 1375 441 1709 441 
Q 2250 441 2565 725 
Q 2881 1009 2881 1497 
Q 2881 1984 2565 2268 
Q 2250 2553 1709 2553 
Q 1456 2553 1204 2497 
Q 953 2441 691 2322 
L 691 4666 
z
" transform="scale(0.015625)"/>
       </defs>
       <use xlink:href="#DejaVuSans-35"/>
      </g>
     </g>
    </g>
    <g id="ytick_5">
     <g id="line2d_5">
      <g>
       <use xlink:href="#m4fb8d9bc67" x="24.19" y="246.525866" style="stroke: #000000; stroke-width: 0.8"/>
      </g>
     </g>
     <g id="text_5">
      <!-- 6 -->
      <g transform="translate(10.8275 250.325085) scale(0.1 -0.1)">
       <defs>
        <path id="DejaVuSans-36" d="M 2113 2584 
Q 1688 2584 1439 2293 
Q 1191 2003 1191 1497 
Q 1191 994 1439 701 
Q 1688 409 2113 409 
Q 2538 409 2786 701 
Q 3034 994 3034 1497 
Q 3034 2003 2786 2293 
Q 2538 2584 2113 2584 
z
M 3366 4563 
L 3366 3988 
Q 3128 4100 2886 4159 
Q 2644 4219 2406 4219 
Q 1781 4219 1451 3797 
Q 1122 3375 1075 2522 
Q 1259 2794 1537 2939 
Q 1816 3084 2150 3084 
Q 2853 3084 3261 2657 
Q 3669 2231 3669 1497 
Q 3669 778 3244 343 
Q 2819 -91 2113 -91 
Q 1303 -91 875 529 
Q 447 1150 447 2328 
Q 447 3434 972 4092 
Q 1497 4750 2381 4750 
Q 2619 4750 2861 4703 
Q 3103 4656 3366 4563 
z
" transform="scale(0.015625)"/>
       </defs>
       <use xlink:href="#DejaVuSans-36"/>
      </g>
     </g>
    </g>
    <g id="ytick_6">
     <g id="line2d_6">
      <g>
       <use xlink:href="#m4fb8d9bc67" x="24.19" y="296.749193" style="stroke: #000000; stroke-width: 0.8"/>
      </g>
     </g>
     <g id="text_6">
      <!-- 7 -->
      <g transform="translate(10.8275 300.548412) scale(0.1 -0.1)">
       <defs>
        <path id="DejaVuSans-37" d="M 525 4666 
L 3525 4666 
L 3525 4397 
L 1831 0 
L 1172 0 
L 2766 4134 
L 525 4134 
L 525 4666 
z
" transform="scale(0.015625)"/>
       </defs>
       <use xlink:href="#DejaVuSans-37"/>
      </g>
     </g>
    </g>
    <g id="ytick_7">
     <g id="line2d_7">
      <g>
       <use xlink:href="#m4fb8d9bc67" x="24.19" y="346.97252" style="stroke: #000000; stroke-width: 0.8"/>
      </g>
     </g>
     <g id="text_7">
      <!-- 8 -->
      <g transform="translate(10.8275 350.771739) scale(0.1 -0.1)">
       <defs>
        <path id="DejaVuSans-38" d="M 2034 2216 
Q 1584 2216 1326 1975 
Q 1069 1734 1069 1313 
Q 1069 891 1326 650 
Q 1584 409 2034 409 
Q 2484 409 2743 651 
Q 3003 894 3003 1313 
Q 3003 1734 2745 1975 
Q 2488 2216 2034 2216 
z
M 1403 2484 
Q 997 2584 770 2862 
Q 544 3141 544 3541 
Q 544 4100 942 4425 
Q 1341 4750 2034 4750 
Q 2731 4750 3128 4425 
Q 3525 4100 3525 3541 
Q 3525 3141 3298 2862 
Q 3072 2584 2669 2484 
Q 3125 2378 3379 2068 
Q 3634 1759 3634 1313 
Q 3634 634 3220 271 
Q 2806 -91 2034 -91 
Q 1263 -91 848 271 
Q 434 634 434 1313 
Q 434 1759 690 2068 
Q 947 2378 1403 2484 
z
M 1172 3481 
Q 1172 3119 1398 2916 
Q 1625 2713 2034 2713 
Q 2441 2713 2670 2916 
Q 2900 3119 2900 3481 
Q 2900 3844 2670 4047 
Q 2441 4250 2034 4250 
Q 1625 4250 1398 4047 
Q 1172 3844 1172 3481 
z
" transform="scale(0.015625)"/>
       </defs>
       <use xlink:href="#DejaVuSans-38"/>
      </g>
     </g>
    </g>
    <g id="ytick_8">
     <g id="line2d_8">
      <g>
       <use xlink:href="#m4fb8d9bc67" x="24.19" y="397.195847" style="stroke: #000000; stroke-width: 0.8"/>
      </g>
     </g>
     <g id="text_8">
      <!-- 9 -->
      <g transform="translate(10.8275 400.995066) scale(0.1 -0.1)">
       <defs>
        <path id="DejaVuSans-39" d="M 703 97 
L 703 672 
Q 941 559 1184 500 
Q 1428 441 1663 441 
Q 2288 441 2617 861 
Q 2947 1281 2994 2138 
Q 2813 1869 2534 1725 
Q 2256 1581 1919 1581 
Q 1219 1581 811 2004 
Q 403 2428 403 3163 
Q 403 3881 828 4315 
Q 1253 4750 1959 4750 
Q 2769 4750 3195 4129 
Q 3622 3509 3622 2328 
Q 3622 1225 3098 567 
Q 2575 -91 1691 -91 
Q 1453 -91 1209 -44 
Q 966 3 703 97 
z
M 1959 2075 
Q 2384 2075 2632 2365 
Q 2881 2656 2881 3163 
Q 2881 3666 2632 3958 
Q 2384 4250 1959 4250 
Q 1534 4250 1286 3958 
Q 1038 3666 1038 3163 
Q 1038 2656 1286 2365 
Q 1534 2075 1959 2075 
z
" transform="scale(0.015625)"/>
       </defs>
       <use xlink:href="#DejaVuSans-39"/>
      </g>
     </g>
    </g>
   </g>
   <g id="patch_3">
    <path d="M 39.118714 105.465951 
L 158.548429 105.465951 
L 158.548429 176.455184 
L 39.118714 176.455184 
L 39.118714 105.465951 
z
" clip-path="url(#p897732d7d7)" style="fill: #3274a1; stroke: #3d3d3d; stroke-linejoin: miter"/>
   </g>
   <g id="line2d_9">
    <path d="M 98.833571 105.465951 
L 98.833571 56.1304 
" clip-path="url(#p897732d7d7)" style="fill: none; stroke: #3d3d3d"/>
   </g>
   <g id="line2d_10">
    <path d="M 98.833571 176.455184 
L 98.833571 273.172696 
" clip-path="url(#p897732d7d7)" style="fill: none; stroke: #3d3d3d"/>
   </g>
   <g id="line2d_11">
    <path d="M 68.976143 56.1304 
L 128.691 56.1304 
" clip-path="url(#p897732d7d7)" style="fill: none; stroke: #3d3d3d; stroke-linecap: square"/>
   </g>
   <g id="line2d_12">
    <path d="M 68.976143 273.172696 
L 128.691 273.172696 
" clip-path="url(#p897732d7d7)" style="fill: none; stroke: #3d3d3d; stroke-linecap: square"/>
   </g>
   <g id="line2d_13">
    <defs>
     <path id="m658b57bf88" d="M 0 3 
C 0.795609 3 1.55874 2.683901 2.12132 2.12132 
C 2.683901 1.55874 3 0.795609 3 0 
C 3 -0.795609 2.683901 -1.55874 2.12132 -2.12132 
C 1.55874 -2.683901 0.795609 -3 0 -3 
C -0.795609 -3 -1.55874 -2.683901 -2.12132 -2.12132 
C -2.683901 -1.55874 -3 -0.795609 -3 0 
C -3 0.795609 -2.683901 1.55874 -2.12132 2.12132 
C -1.55874 2.683901 -0.795609 3 0 3 
z
" style="stroke: #3d3d3d"/>
    </defs>
    <g clip-path="url(#p897732d7d7)">
     <use xlink:href="#m658b57bf88" x="98.833571" y="294.022694" style="fill-opacity: 0; stroke: #3d3d3d"/>
     <use xlink:href="#m658b57bf88" x="98.833571" y="342.691313" style="fill-opacity: 0; stroke: #3d3d3d"/>
    </g>
   </g>
   <g id="patch_4">
    <path d="M 188.405857 113.445717 
L 307.835571 113.445717 
L 307.835571 178.661329 
L 188.405857 178.661329 
L 188.405857 113.445717 
z
" clip-path="url(#p897732d7d7)" style="fill: #e1812c; stroke: #3d3d3d; stroke-linejoin: miter"/>
   </g>
   <g id="line2d_14">
    <path d="M 248.120714 113.445717 
L 248.120714 76.260548 
" clip-path="url(#p897732d7d7)" style="fill: none; stroke: #3d3d3d"/>
   </g>
   <g id="line2d_15">
    <path d="M 248.120714 178.661329 
L 248.120714 274.188685 
" clip-path="url(#p897732d7d7)" style="fill: none; stroke: #3d3d3d"/>
   </g>
   <g id="line2d_16">
    <path d="M 218.263286 76.260548 
L 277.978143 76.260548 
" clip-path="url(#p897732d7d7)" style="fill: none; stroke: #3d3d3d; stroke-linecap: square"/>
   </g>
   <g id="line2d_17">
    <path d="M 218.263286 274.188685 
L 277.978143 274.188685 
" clip-path="url(#p897732d7d7)" style="fill: none; stroke: #3d3d3d; stroke-linecap: square"/>
   </g>
   <g id="line2d_18">
    <g clip-path="url(#p897732d7d7)">
     <use xlink:href="#m658b57bf88" x="248.120714" y="295.144438" style="fill-opacity: 0; stroke: #3d3d3d"/>
     <use xlink:href="#m658b57bf88" x="248.120714" y="342.748684" style="fill-opacity: 0; stroke: #3d3d3d"/>
     <use xlink:href="#m658b57bf88" x="248.120714" y="277.595139" style="fill-opacity: 0; stroke: #3d3d3d"/>
    </g>
   </g>
   <g id="patch_5">
    <path d="M 337.693 87.29058 
L 457.122714 87.29058 
L 457.122714 152.278143 
L 337.693 152.278143 
L 337.693 87.29058 
z
" clip-path="url(#p897732d7d7)" style="fill: #3a923a; stroke: #3d3d3d; stroke-linejoin: miter"/>
   </g>
   <g id="line2d_19">
    <path d="M 397.407857 87.29058 
L 397.407857 50.181548 
" clip-path="url(#p897732d7d7)" style="fill: none; stroke: #3d3d3d"/>
   </g>
   <g id="line2d_20">
    <path d="M 397.407857 152.278143 
L 397.407857 246.868354 
" clip-path="url(#p897732d7d7)" style="fill: none; stroke: #3d3d3d"/>
   </g>
   <g id="line2d_21">
    <path d="M 367.550429 50.181548 
L 427.265286 50.181548 
" clip-path="url(#p897732d7d7)" style="fill: none; stroke: #3d3d3d; stroke-linecap: square"/>
   </g>
   <g id="line2d_22">
    <path d="M 367.550429 246.868354 
L 427.265286 246.868354 
" clip-path="url(#p897732d7d7)" style="fill: none; stroke: #3d3d3d; stroke-linecap: square"/>
   </g>
   <g id="line2d_23">
    <g clip-path="url(#p897732d7d7)">
     <use xlink:href="#m658b57bf88" x="397.407857" y="270.738701" style="fill-opacity: 0; stroke: #3d3d3d"/>
     <use xlink:href="#m658b57bf88" x="397.407857" y="311.934085" style="fill-opacity: 0; stroke: #3d3d3d"/>
     <use xlink:href="#m658b57bf88" x="397.407857" y="253.037908" style="fill-opacity: 0; stroke: #3d3d3d"/>
    </g>
   </g>
   <g id="patch_6">
    <path d="M 486.980143 81.306784 
L 606.409857 81.306784 
L 606.409857 135.24302 
L 486.980143 135.24302 
L 486.980143 81.306784 
z
" clip-path="url(#p897732d7d7)" style="fill: #c03d3e; stroke: #3d3d3d; stroke-linejoin: miter"/>
   </g>
   <g id="line2d_24">
    <path d="M 546.695 81.306784 
L 546.695 49.76798 
" clip-path="url(#p897732d7d7)" style="fill: none; stroke: #3d3d3d"/>
   </g>
   <g id="line2d_25">
    <path d="M 546.695 135.24302 
L 546.695 215.87165 
" clip-path="url(#p897732d7d7)" style="fill: none; stroke: #3d3d3d"/>
   </g>
   <g id="line2d_26">
    <path d="M 516.837571 49.76798 
L 576.552429 49.76798 
" clip-path="url(#p897732d7d7)" style="fill: none; stroke: #3d3d3d; stroke-linecap: square"/>
   </g>
   <g id="line2d_27">
    <path d="M 516.837571 215.87165 
L 576.552429 215.87165 
" clip-path="url(#p897732d7d7)" style="fill: none; stroke: #3d3d3d; stroke-linecap: square"/>
   </g>
   <g id="line2d_28">
    <g clip-path="url(#p897732d7d7)">
     <use xlink:href="#m658b57bf88" x="546.695" y="227.266705" style="fill-opacity: 0; stroke: #3d3d3d"/>
     <use xlink:href="#m658b57bf88" x="546.695" y="261.42085" style="fill-opacity: 0; stroke: #3d3d3d"/>
     <use xlink:href="#m658b57bf88" x="546.695" y="218.254679" style="fill-opacity: 0; stroke: #3d3d3d"/>
     <use xlink:href="#m658b57bf88" x="546.695" y="220.199057" style="fill-opacity: 0; stroke: #3d3d3d"/>
    </g>
   </g>
   <g id="patch_7">
    <path d="M 636.267286 76.498001 
L 755.697 76.498001 
L 755.697 135.998837 
L 636.267286 135.998837 
L 636.267286 76.498001 
z
" clip-path="url(#p897732d7d7)" style="fill: #9372b2; stroke: #3d3d3d; stroke-linejoin: miter"/>
   </g>
   <g id="line2d_29">
    <path d="M 695.982143 76.498001 
L 695.982143 29.454545 
" clip-path="url(#p897732d7d7)" style="fill: none; stroke: #3d3d3d"/>
   </g>
   <g id="line2d_30">
    <path d="M 695.982143 135.998837 
L 695.982143 218.474102 
" clip-path="url(#p897732d7d7)" style="fill: none; stroke: #3d3d3d"/>
   </g>
   <g id="line2d_31">
    <path d="M 666.124714 29.454545 
L 725.839571 29.454545 
" clip-path="url(#p897732d7d7)" style="fill: none; stroke: #3d3d3d; stroke-linecap: square"/>
   </g>
   <g id="line2d_32">
    <path d="M 666.124714 218.474102 
L 725.839571 218.474102 
" clip-path="url(#p897732d7d7)" style="fill: none; stroke: #3d3d3d; stroke-linecap: square"/>
   </g>
   <g id="line2d_33">
    <g clip-path="url(#p897732d7d7)">
     <use xlink:href="#m658b57bf88" x="695.982143" y="234.08462" style="fill-opacity: 0; stroke: #3d3d3d"/>
     <use xlink:href="#m658b57bf88" x="695.982143" y="230.289286" style="fill-opacity: 0; stroke: #3d3d3d"/>
     <use xlink:href="#m658b57bf88" x="695.982143" y="243.459302" style="fill-opacity: 0; stroke: #3d3d3d"/>
    </g>
   </g>
   <g id="patch_8">
    <path d="M 785.554429 86.82778 
L 904.984143 86.82778 
L 904.984143 140.127028 
L 785.554429 140.127028 
L 785.554429 86.82778 
z
" clip-path="url(#p897732d7d7)" style="fill: #845b53; stroke: #3d3d3d; stroke-linejoin: miter"/>
   </g>
   <g id="line2d_34">
    <path d="M 845.269286 86.82778 
L 845.269286 35.592036 
" clip-path="url(#p897732d7d7)" style="fill: none; stroke: #3d3d3d"/>
   </g>
   <g id="line2d_35">
    <path d="M 845.269286 140.127028 
L 845.269286 214.205572 
" clip-path="url(#p897732d7d7)" style="fill: none; stroke: #3d3d3d"/>
   </g>
   <g id="line2d_36">
    <path d="M 815.411857 35.592036 
L 875.126714 35.592036 
" clip-path="url(#p897732d7d7)" style="fill: none; stroke: #3d3d3d; stroke-linecap: square"/>
   </g>
   <g id="line2d_37">
    <path d="M 815.411857 214.205572 
L 875.126714 214.205572 
" clip-path="url(#p897732d7d7)" style="fill: none; stroke: #3d3d3d; stroke-linecap: square"/>
   </g>
   <g id="line2d_38">
    <g clip-path="url(#p897732d7d7)">
     <use xlink:href="#m658b57bf88" x="845.269286" y="243.098897" style="fill-opacity: 0; stroke: #3d3d3d"/>
     <use xlink:href="#m658b57bf88" x="845.269286" y="232.257467" style="fill-opacity: 0; stroke: #3d3d3d"/>
     <use xlink:href="#m658b57bf88" x="845.269286" y="233.567031" style="fill-opacity: 0; stroke: #3d3d3d"/>
     <use xlink:href="#m658b57bf88" x="845.269286" y="223.365741" style="fill-opacity: 0; stroke: #3d3d3d"/>
     <use xlink:href="#m658b57bf88" x="845.269286" y="231.385602" style="fill-opacity: 0; stroke: #3d3d3d"/>
     <use xlink:href="#m658b57bf88" x="845.269286" y="227.079836" style="fill-opacity: 0; stroke: #3d3d3d"/>
     <use xlink:href="#m658b57bf88" x="845.269286" y="233.251769" style="fill-opacity: 0; stroke: #3d3d3d"/>
    </g>
   </g>
   <g id="patch_9">
    <path d="M 934.841571 169.910597 
L 1054.271286 169.910597 
L 1054.271286 223.747874 
L 934.841571 223.747874 
L 934.841571 169.910597 
z
" clip-path="url(#p897732d7d7)" style="fill: #d684bd; stroke: #3d3d3d; stroke-linejoin: miter"/>
   </g>
   <g id="line2d_39">
    <path d="M 994.556429 169.910597 
L 994.556429 105.641799 
" clip-path="url(#p897732d7d7)" style="fill: none; stroke: #3d3d3d"/>
   </g>
   <g id="line2d_40">
    <path d="M 994.556429 223.747874 
L 994.556429 291.840737 
" clip-path="url(#p897732d7d7)" style="fill: none; stroke: #3d3d3d"/>
   </g>
   <g id="line2d_41">
    <path d="M 964.699 105.641799 
L 1024.413857 105.641799 
" clip-path="url(#p897732d7d7)" style="fill: none; stroke: #3d3d3d; stroke-linecap: square"/>
   </g>
   <g id="line2d_42">
    <path d="M 964.699 291.840737 
L 1024.413857 291.840737 
" clip-path="url(#p897732d7d7)" style="fill: none; stroke: #3d3d3d; stroke-linecap: square"/>
   </g>
   <g id="line2d_43">
    <g clip-path="url(#p897732d7d7)">
     <use xlink:href="#m658b57bf88" x="994.556429" y="341.512661" style="fill-opacity: 0; stroke: #3d3d3d"/>
     <use xlink:href="#m658b57bf88" x="994.556429" y="402.545455" style="fill-opacity: 0; stroke: #3d3d3d"/>
    </g>
   </g>
   <g id="line2d_44">
    <path d="M 39.118714 139.703937 
L 158.548429 139.703937 
" clip-path="url(#p897732d7d7)" style="fill: none; stroke: #3d3d3d"/>
   </g>
   <g id="line2d_45">
    <path d="M 188.405857 144.735167 
L 307.835571 144.735167 
" clip-path="url(#p897732d7d7)" style="fill: none; stroke: #3d3d3d"/>
   </g>
   <g id="line2d_46">
    <path d="M 337.693 118.065686 
L 457.122714 118.065686 
" clip-path="url(#p897732d7d7)" style="fill: none; stroke: #3d3d3d"/>
   </g>
   <g id="line2d_47">
    <path d="M 486.980143 105.813255 
L 606.409857 105.813255 
" clip-path="url(#p897732d7d7)" style="fill: none; stroke: #3d3d3d"/>
   </g>
   <g id="line2d_48">
    <path d="M 636.267286 100.765809 
L 755.697 100.765809 
" clip-path="url(#p897732d7d7)" style="fill: none; stroke: #3d3d3d"/>
   </g>
   <g id="line2d_49">
    <path d="M 785.554429 111.342746 
L 904.984143 111.342746 
" clip-path="url(#p897732d7d7)" style="fill: none; stroke: #3d3d3d"/>
   </g>
   <g id="line2d_50">
    <path d="M 934.841571 204.068973 
L 1054.271286 204.068973 
" clip-path="url(#p897732d7d7)" style="fill: none; stroke: #3d3d3d"/>
   </g>
   <g id="patch_10">
    <path d="M 24.19 421.2 
L 24.19 10.8 
" style="fill: none; stroke: #000000; stroke-width: 0.8; stroke-linejoin: miter; stroke-linecap: square"/>
   </g>
   <g id="patch_11">
    <path d="M 1069.2 421.2 
L 1069.2 10.8 
" style="fill: none; stroke: #000000; stroke-width: 0.8; stroke-linejoin: miter; stroke-linecap: square"/>
   </g>
   <g id="patch_12">
    <path d="M 24.19 421.2 
L 1069.2 421.2 
" style="fill: none; stroke: #000000; stroke-width: 0.8; stroke-linejoin: miter; stroke-linecap: square"/>
   </g>
   <g id="patch_13">
    <path d="M 24.19 10.8 
L 1069.2 10.8 
" style="fill: none; stroke: #000000; stroke-width: 0.8; stroke-linejoin: miter; stroke-linecap: square"/>
   </g>
  </g>
 </g>
 <defs>
  <clipPath id="p897732d7d7">
   <rect x="24.19" y="10.8" width="1045.01" height="410.4"/>
  </clipPath>
 </defs>
</svg>
