<?xml version="1.0" encoding="utf-8" standalone="no"?>
<!DOCTYPE svg PUBLIC "-//W3C//DTD SVG 1.1//EN"
  "http://www.w3.org/Graphics/SVG/1.1/DTD/svg11.dtd">
<svg xmlns:xlink="http://www.w3.org/1999/xlink" width="1080pt" height="432pt" viewBox="0 0 1080 432" xmlns="http://www.w3.org/2000/svg" version="1.1">
 <metadata>
  <rdf:RDF xmlns:dc="http://purl.org/dc/elements/1.1/" xmlns:cc="http://creativecommons.org/ns#" xmlns:rdf="http://www.w3.org/1999/02/22-rdf-syntax-ns#">
   <cc:Work>
    <dc:type rdf:resource="http://purl.org/dc/dcmitype/StillImage"/>
    <dc:date>2024-12-10T13:00:38.188371</dc:date>
    <dc:format>image/svg+xml</dc:format>
    <dc:creator>
     <cc:Agent>
      <dc:title>Matplotlib v3.9.3, https://matplotlib.org/</dc:title>
     </cc:Agent>
    </dc:creator>
   </cc:Work>
  </rdf:RDF>
 </metadata>
 <defs>
  <style type="text/css">*{stroke-linejoin: round; stroke-linecap: butt}</style>
 </defs>
 <g id="figure_1">
  <g id="patch_1">
   <path d="M 0 432 
L 1080 432 
L 1080 0 
L 0 0 
z
" style="fill: #ffffff"/>
  </g>
  <g id="axes_1">
   <g id="patch_2">
    <path d="M 30.535 421.2 
L 1069.2 421.2 
L 1069.2 10.8 
L 30.535 10.8 
z
" style="fill: #ffffff"/>
   </g>
   <g id="matplotlib.axis_1"/>
   <g id="matplotlib.axis_2">
    <g id="ytick_1">
     <g id="line2d_1">
      <defs>
       <path id="mbe47f03aec" d="M 0 0 
L -3.5 0 
" style="stroke: #000000; stroke-width: 0.8"/>
      </defs>
      <g>
       <use xlink:href="#mbe47f03aec" x="30.535" y="91.213591" style="stroke: #000000; stroke-width: 0.8"/>
      </g>
     </g>
     <g id="text_1">
      <!-- 6 -->
      <g transform="translate(17.1725 95.01281) scale(0.1 -0.1)">
       <defs>
        <path id="DejaVuSans-36" d="M 2113 2584 
Q 1688 2584 1439 2293 
Q 1191 2003 1191 1497 
Q 1191 994 1439 701 
Q 1688 409 2113 409 
Q 2538 409 2786 701 
Q 3034 994 3034 1497 
Q 3034 2003 2786 2293 
Q 2538 2584 2113 2584 
z
M 3366 4563 
L 3366 3988 
Q 3128 4100 2886 4159 
Q 2644 4219 2406 4219 
Q 1781 4219 1451 3797 
Q 1122 3375 1075 2522 
Q 1259 2794 1537 2939 
Q 1816 3084 2150 3084 
Q 2853 3084 3261 2657 
Q 3669 2231 3669 1497 
Q 3669 778 3244 343 
Q 2819 -91 2113 -91 
Q 1303 -91 875 529 
Q 447 1150 447 2328 
Q 447 3434 972 4092 
Q 1497 4750 2381 4750 
Q 2619 4750 2861 4703 
Q 3103 4656 3366 4563 
z
" transform="scale(0.015625)"/>
       </defs>
       <use xlink:href="#DejaVuSans-36"/>
      </g>
     </g>
    </g>
    <g id="ytick_2">
     <g id="line2d_2">
      <g>
       <use xlink:href="#mbe47f03aec" x="30.535" y="175.485706" style="stroke: #000000; stroke-width: 0.8"/>
      </g>
     </g>
     <g id="text_2">
      <!-- 8 -->
      <g transform="translate(17.1725 179.284925) scale(0.1 -0.1)">
       <defs>
        <path id="DejaVuSans-38" d="M 2034 2216 
Q 1584 2216 1326 1975 
Q 1069 1734 1069 1313 
Q 1069 891 1326 650 
Q 1584 409 2034 409 
Q 2484 409 2743 651 
Q 3003 894 3003 1313 
Q 3003 1734 2745 1975 
Q 2488 2216 2034 2216 
z
M 1403 2484 
Q 997 2584 770 2862 
Q 544 3141 544 3541 
Q 544 4100 942 4425 
Q 1341 4750 2034 4750 
Q 2731 4750 3128 4425 
Q 3525 4100 3525 3541 
Q 3525 3141 3298 2862 
Q 3072 2584 2669 2484 
Q 3125 2378 3379 2068 
Q 3634 1759 3634 1313 
Q 3634 634 3220 271 
Q 2806 -91 2034 -91 
Q 1263 -91 848 271 
Q 434 634 434 1313 
Q 434 1759 690 2068 
Q 947 2378 1403 2484 
z
M 1172 3481 
Q 1172 3119 1398 2916 
Q 1625 2713 2034 2713 
Q 2441 2713 2670 2916 
Q 2900 3119 2900 3481 
Q 2900 3844 2670 4047 
Q 2441 4250 2034 4250 
Q 1625 4250 1398 4047 
Q 1172 3844 1172 3481 
z
" transform="scale(0.015625)"/>
       </defs>
       <use xlink:href="#DejaVuSans-38"/>
      </g>
     </g>
    </g>
    <g id="ytick_3">
     <g id="line2d_3">
      <g>
       <use xlink:href="#mbe47f03aec" x="30.535" y="259.75782" style="stroke: #000000; stroke-width: 0.8"/>
      </g>
     </g>
     <g id="text_3">
      <!-- 10 -->
      <g transform="translate(10.81 263.557039) scale(0.1 -0.1)">
       <defs>
        <path id="DejaVuSans-31" d="M 794 531 
L 1825 531 
L 1825 4091 
L 703 3866 
L 703 4441 
L 1819 4666 
L 2450 4666 
L 2450 531 
L 3481 531 
L 3481 0 
L 794 0 
L 794 531 
z
" transform="scale(0.015625)"/>
        <path id="DejaVuSans-30" d="M 2034 4250 
Q 1547 4250 1301 3770 
Q 1056 3291 1056 2328 
Q 1056 1369 1301 889 
Q 1547 409 2034 409 
Q 2525 409 2770 889 
Q 3016 1369 3016 2328 
Q 3016 3291 2770 3770 
Q 2525 4250 2034 4250 
z
M 2034 4750 
Q 2819 4750 3233 4129 
Q 3647 3509 3647 2328 
Q 3647 1150 3233 529 
Q 2819 -91 2034 -91 
Q 1250 -91 836 529 
Q 422 1150 422 2328 
Q 422 3509 836 4129 
Q 1250 4750 2034 4750 
z
" transform="scale(0.015625)"/>
       </defs>
       <use xlink:href="#DejaVuSans-31"/>
       <use xlink:href="#DejaVuSans-30" x="63.623047"/>
      </g>
     </g>
    </g>
    <g id="ytick_4">
     <g id="line2d_4">
      <g>
       <use xlink:href="#mbe47f03aec" x="30.535" y="344.029935" style="stroke: #000000; stroke-width: 0.8"/>
      </g>
     </g>
     <g id="text_4">
      <!-- 12 -->
      <g transform="translate(10.81 347.829153) scale(0.1 -0.1)">
       <defs>
        <path id="DejaVuSans-32" d="M 1228 531 
L 3431 531 
L 3431 0 
L 469 0 
L 469 531 
Q 828 903 1448 1529 
Q 2069 2156 2228 2338 
Q 2531 2678 2651 2914 
Q 2772 3150 2772 3378 
Q 2772 3750 2511 3984 
Q 2250 4219 1831 4219 
Q 1534 4219 1204 4116 
Q 875 4013 500 3803 
L 500 4441 
Q 881 4594 1212 4672 
Q 1544 4750 1819 4750 
Q 2544 4750 2975 4387 
Q 3406 4025 3406 3419 
Q 3406 3131 3298 2873 
Q 3191 2616 2906 2266 
Q 2828 2175 2409 1742 
Q 1991 1309 1228 531 
z
" transform="scale(0.015625)"/>
       </defs>
       <use xlink:href="#DejaVuSans-31"/>
       <use xlink:href="#DejaVuSans-32" x="63.623047"/>
      </g>
     </g>
    </g>
   </g>
   <g id="patch_3">
    <path d="M 45.373071 176.754638 
L 164.077643 176.754638 
L 164.077643 227.512712 
L 45.373071 227.512712 
L 45.373071 176.754638 
z
" clip-path="url(#p571be05d2a)" style="fill: #3274a1; stroke: #3d3d3d; stroke-linejoin: miter"/>
   </g>
   <g id="line2d_5">
    <path d="M 104.725357 176.754638 
L 104.725357 114.540375 
" clip-path="url(#p571be05d2a)" style="fill: none; stroke: #3d3d3d"/>
   </g>
   <g id="line2d_6">
    <path d="M 104.725357 227.512712 
L 104.725357 277.828786 
" clip-path="url(#p571be05d2a)" style="fill: none; stroke: #3d3d3d"/>
   </g>
   <g id="line2d_7">
    <path d="M 75.049214 114.540375 
L 134.4015 114.540375 
" clip-path="url(#p571be05d2a)" style="fill: none; stroke: #3d3d3d; stroke-linecap: square"/>
   </g>
   <g id="line2d_8">
    <path d="M 75.049214 277.828786 
L 134.4015 277.828786 
" clip-path="url(#p571be05d2a)" style="fill: none; stroke: #3d3d3d; stroke-linecap: square"/>
   </g>
   <g id="line2d_9">
    <defs>
     <path id="mf5adea839f" d="M 0 3 
C 0.795609 3 1.55874 2.683901 2.12132 2.12132 
C 2.683901 1.55874 3 0.795609 3 0 
C 3 -0.795609 2.683901 -1.55874 2.12132 -2.12132 
C 1.55874 -2.683901 0.795609 -3 0 -3 
C -0.795609 -3 -1.55874 -2.683901 -2.12132 -2.12132 
C -2.683901 -1.55874 -3 -0.795609 -3 0 
C -3 0.795609 -2.683901 1.55874 -2.12132 2.12132 
C -1.55874 2.683901 -0.795609 3 0 3 
z
" style="stroke: #3d3d3d"/>
    </defs>
    <g clip-path="url(#p571be05d2a)">
     <use xlink:href="#mf5adea839f" x="104.725357" y="83.990316" style="fill-opacity: 0; stroke: #3d3d3d"/>
     <use xlink:href="#mf5adea839f" x="104.725357" y="359.980119" style="fill-opacity: 0; stroke: #3d3d3d"/>
    </g>
   </g>
   <g id="patch_4">
    <path d="M 193.753786 176.812016 
L 312.458357 176.812016 
L 312.458357 227.040775 
L 193.753786 227.040775 
L 193.753786 176.812016 
z
" clip-path="url(#p571be05d2a)" style="fill: #e1812c; stroke: #3d3d3d; stroke-linejoin: miter"/>
   </g>
   <g id="line2d_10">
    <path d="M 253.106071 176.812016 
L 253.106071 113.837202 
" clip-path="url(#p571be05d2a)" style="fill: none; stroke: #3d3d3d"/>
   </g>
   <g id="line2d_11">
    <path d="M 253.106071 227.040775 
L 253.106071 278.03693 
" clip-path="url(#p571be05d2a)" style="fill: none; stroke: #3d3d3d"/>
   </g>
   <g id="line2d_12">
    <path d="M 223.429929 113.837202 
L 282.782214 113.837202 
" clip-path="url(#p571be05d2a)" style="fill: none; stroke: #3d3d3d; stroke-linecap: square"/>
   </g>
   <g id="line2d_13">
    <path d="M 223.429929 278.03693 
L 282.782214 278.03693 
" clip-path="url(#p571be05d2a)" style="fill: none; stroke: #3d3d3d; stroke-linecap: square"/>
   </g>
   <g id="line2d_14">
    <g clip-path="url(#p571be05d2a)">
     <use xlink:href="#mf5adea839f" x="253.106071" y="83.55636" style="fill-opacity: 0; stroke: #3d3d3d"/>
     <use xlink:href="#mf5adea839f" x="253.106071" y="359.781508" style="fill-opacity: 0; stroke: #3d3d3d"/>
    </g>
   </g>
   <g id="patch_5">
    <path d="M 342.1345 176.636798 
L 460.839071 176.636798 
L 460.839071 226.522623 
L 342.1345 226.522623 
L 342.1345 176.636798 
z
" clip-path="url(#p571be05d2a)" style="fill: #3a923a; stroke: #3d3d3d; stroke-linejoin: miter"/>
   </g>
   <g id="line2d_15">
    <path d="M 401.486786 176.636798 
L 401.486786 116.142663 
" clip-path="url(#p571be05d2a)" style="fill: none; stroke: #3d3d3d"/>
   </g>
   <g id="line2d_16">
    <path d="M 401.486786 226.522623 
L 401.486786 278.210029 
" clip-path="url(#p571be05d2a)" style="fill: none; stroke: #3d3d3d"/>
   </g>
   <g id="line2d_17">
    <path d="M 371.810643 116.142663 
L 431.162929 116.142663 
" clip-path="url(#p571be05d2a)" style="fill: none; stroke: #3d3d3d; stroke-linecap: square"/>
   </g>
   <g id="line2d_18">
    <path d="M 371.810643 278.210029 
L 431.162929 278.210029 
" clip-path="url(#p571be05d2a)" style="fill: none; stroke: #3d3d3d; stroke-linecap: square"/>
   </g>
   <g id="line2d_19">
    <g clip-path="url(#p571be05d2a)">
     <use xlink:href="#mf5adea839f" x="401.486786" y="83.41494" style="fill-opacity: 0; stroke: #3d3d3d"/>
     <use xlink:href="#mf5adea839f" x="401.486786" y="357.869772" style="fill-opacity: 0; stroke: #3d3d3d"/>
    </g>
   </g>
   <g id="patch_6">
    <path d="M 490.515214 74.6043 
L 609.219786 74.6043 
L 609.219786 111.195951 
L 490.515214 111.195951 
L 490.515214 74.6043 
z
" clip-path="url(#p571be05d2a)" style="fill: #c03d3e; stroke: #3d3d3d; stroke-linejoin: miter"/>
   </g>
   <g id="line2d_20">
    <path d="M 549.8675 74.6043 
L 549.8675 29.454545 
" clip-path="url(#p571be05d2a)" style="fill: none; stroke: #3d3d3d"/>
   </g>
   <g id="line2d_21">
    <path d="M 549.8675 111.195951 
L 549.8675 165.264935 
" clip-path="url(#p571be05d2a)" style="fill: none; stroke: #3d3d3d"/>
   </g>
   <g id="line2d_22">
    <path d="M 520.191357 29.454545 
L 579.543643 29.454545 
" clip-path="url(#p571be05d2a)" style="fill: none; stroke: #3d3d3d; stroke-linecap: square"/>
   </g>
   <g id="line2d_23">
    <path d="M 520.191357 165.264935 
L 579.543643 165.264935 
" clip-path="url(#p571be05d2a)" style="fill: none; stroke: #3d3d3d; stroke-linecap: square"/>
   </g>
   <g id="line2d_24">
    <g clip-path="url(#p571be05d2a)">
     <use xlink:href="#mf5adea839f" x="549.8675" y="182.304805" style="fill-opacity: 0; stroke: #3d3d3d"/>
    </g>
   </g>
   <g id="patch_7">
    <path d="M 638.895929 150.149972 
L 757.6005 150.149972 
L 757.6005 193.425769 
L 638.895929 193.425769 
L 638.895929 150.149972 
z
" clip-path="url(#p571be05d2a)" style="fill: #9372b2; stroke: #3d3d3d; stroke-linejoin: miter"/>
   </g>
   <g id="line2d_25">
    <path d="M 698.248214 150.149972 
L 698.248214 85.834016 
" clip-path="url(#p571be05d2a)" style="fill: none; stroke: #3d3d3d"/>
   </g>
   <g id="line2d_26">
    <path d="M 698.248214 193.425769 
L 698.248214 255.858349 
" clip-path="url(#p571be05d2a)" style="fill: none; stroke: #3d3d3d"/>
   </g>
   <g id="line2d_27">
    <path d="M 668.572071 85.834016 
L 727.924357 85.834016 
" clip-path="url(#p571be05d2a)" style="fill: none; stroke: #3d3d3d; stroke-linecap: square"/>
   </g>
   <g id="line2d_28">
    <path d="M 668.572071 255.858349 
L 727.924357 255.858349 
" clip-path="url(#p571be05d2a)" style="fill: none; stroke: #3d3d3d; stroke-linecap: square"/>
   </g>
   <g id="line2d_29">
    <g clip-path="url(#p571be05d2a)">
     <use xlink:href="#mf5adea839f" x="698.248214" y="264.949419" style="fill-opacity: 0; stroke: #3d3d3d"/>
     <use xlink:href="#mf5adea839f" x="698.248214" y="261.709227" style="fill-opacity: 0; stroke: #3d3d3d"/>
    </g>
   </g>
   <g id="patch_8">
    <path d="M 787.276643 145.510198 
L 905.981214 145.510198 
L 905.981214 196.66286 
L 787.276643 196.66286 
L 787.276643 145.510198 
z
" clip-path="url(#p571be05d2a)" style="fill: #845b53; stroke: #3d3d3d; stroke-linejoin: miter"/>
   </g>
   <g id="line2d_30">
    <path d="M 846.628929 145.510198 
L 846.628929 95.986745 
" clip-path="url(#p571be05d2a)" style="fill: none; stroke: #3d3d3d"/>
   </g>
   <g id="line2d_31">
    <path d="M 846.628929 196.66286 
L 846.628929 270.824295 
" clip-path="url(#p571be05d2a)" style="fill: none; stroke: #3d3d3d"/>
   </g>
   <g id="line2d_32">
    <path d="M 816.952786 95.986745 
L 876.305071 95.986745 
" clip-path="url(#p571be05d2a)" style="fill: none; stroke: #3d3d3d; stroke-linecap: square"/>
   </g>
   <g id="line2d_33">
    <path d="M 816.952786 270.824295 
L 876.305071 270.824295 
" clip-path="url(#p571be05d2a)" style="fill: none; stroke: #3d3d3d; stroke-linecap: square"/>
   </g>
   <g id="line2d_34">
    <g clip-path="url(#p571be05d2a)">
     <use xlink:href="#mf5adea839f" x="846.628929" y="304.398432" style="fill-opacity: 0; stroke: #3d3d3d"/>
    </g>
   </g>
   <g id="patch_9">
    <path d="M 935.657357 168.476768 
L 1054.361929 168.476768 
L 1054.361929 224.246983 
L 935.657357 224.246983 
L 935.657357 168.476768 
z
" clip-path="url(#p571be05d2a)" style="fill: #d684bd; stroke: #3d3d3d; stroke-linejoin: miter"/>
   </g>
   <g id="line2d_35">
    <path d="M 995.009643 168.476768 
L 995.009643 106.396136 
" clip-path="url(#p571be05d2a)" style="fill: none; stroke: #3d3d3d"/>
   </g>
   <g id="line2d_36">
    <path d="M 995.009643 224.246983 
L 995.009643 305.733496 
" clip-path="url(#p571be05d2a)" style="fill: none; stroke: #3d3d3d"/>
   </g>
   <g id="line2d_37">
    <path d="M 965.3335 106.396136 
L 1024.685786 106.396136 
" clip-path="url(#p571be05d2a)" style="fill: none; stroke: #3d3d3d; stroke-linecap: square"/>
   </g>
   <g id="line2d_38">
    <path d="M 965.3335 305.733496 
L 1024.685786 305.733496 
" clip-path="url(#p571be05d2a)" style="fill: none; stroke: #3d3d3d; stroke-linecap: square"/>
   </g>
   <g id="line2d_39">
    <g clip-path="url(#p571be05d2a)">
     <use xlink:href="#mf5adea839f" x="995.009643" y="402.545455" style="fill-opacity: 0; stroke: #3d3d3d"/>
     <use xlink:href="#mf5adea839f" x="995.009643" y="310.543122" style="fill-opacity: 0; stroke: #3d3d3d"/>
    </g>
   </g>
   <g id="line2d_40">
    <path d="M 45.373071 201.889702 
L 164.077643 201.889702 
" clip-path="url(#p571be05d2a)" style="fill: none; stroke: #3d3d3d"/>
   </g>
   <g id="line2d_41">
    <path d="M 193.753786 202.201796 
L 312.458357 202.201796 
" clip-path="url(#p571be05d2a)" style="fill: none; stroke: #3d3d3d"/>
   </g>
   <g id="line2d_42">
    <path d="M 342.1345 202.605414 
L 460.839071 202.605414 
" clip-path="url(#p571be05d2a)" style="fill: none; stroke: #3d3d3d"/>
   </g>
   <g id="line2d_43">
    <path d="M 490.515214 94.576275 
L 609.219786 94.576275 
" clip-path="url(#p571be05d2a)" style="fill: none; stroke: #3d3d3d"/>
   </g>
   <g id="line2d_44">
    <path d="M 638.895929 173.236443 
L 757.6005 173.236443 
" clip-path="url(#p571be05d2a)" style="fill: none; stroke: #3d3d3d"/>
   </g>
   <g id="line2d_45">
    <path d="M 787.276643 171.252697 
L 905.981214 171.252697 
" clip-path="url(#p571be05d2a)" style="fill: none; stroke: #3d3d3d"/>
   </g>
   <g id="line2d_46">
    <path d="M 935.657357 192.849793 
L 1054.361929 192.849793 
" clip-path="url(#p571be05d2a)" style="fill: none; stroke: #3d3d3d"/>
   </g>
   <g id="patch_10">
    <path d="M 30.535 421.2 
L 30.535 10.8 
" style="fill: none; stroke: #000000; stroke-width: 0.8; stroke-linejoin: miter; stroke-linecap: square"/>
   </g>
   <g id="patch_11">
    <path d="M 1069.2 421.2 
L 1069.2 10.8 
" style="fill: none; stroke: #000000; stroke-width: 0.8; stroke-linejoin: miter; stroke-linecap: square"/>
   </g>
   <g id="patch_12">
    <path d="M 30.535 421.2 
L 1069.2 421.2 
" style="fill: none; stroke: #000000; stroke-width: 0.8; stroke-linejoin: miter; stroke-linecap: square"/>
   </g>
   <g id="patch_13">
    <path d="M 30.535 10.8 
L 1069.2 10.8 
" style="fill: none; stroke: #000000; stroke-width: 0.8; stroke-linejoin: miter; stroke-linecap: square"/>
   </g>
  </g>
 </g>
 <defs>
  <clipPath id="p571be05d2a">
   <rect x="30.535" y="10.8" width="1038.665" height="410.4"/>
  </clipPath>
 </defs>
</svg>
