<?xml version="1.0" encoding="utf-8" standalone="no"?>
<!DOCTYPE svg PUBLIC "-//W3C//DTD SVG 1.1//EN"
  "http://www.w3.org/Graphics/SVG/1.1/DTD/svg11.dtd">
<svg xmlns:xlink="http://www.w3.org/1999/xlink" width="1080pt" height="432pt" viewBox="0 0 1080 432" xmlns="http://www.w3.org/2000/svg" version="1.1">
 <metadata>
  <rdf:RDF xmlns:dc="http://purl.org/dc/elements/1.1/" xmlns:cc="http://creativecommons.org/ns#" xmlns:rdf="http://www.w3.org/1999/02/22-rdf-syntax-ns#">
   <cc:Work>
    <dc:type rdf:resource="http://purl.org/dc/dcmitype/StillImage"/>
    <dc:date>2024-12-10T13:00:18.684243</dc:date>
    <dc:format>image/svg+xml</dc:format>
    <dc:creator>
     <cc:Agent>
      <dc:title>Matplotlib v3.9.3, https://matplotlib.org/</dc:title>
     </cc:Agent>
    </dc:creator>
   </cc:Work>
  </rdf:RDF>
 </metadata>
 <defs>
  <style type="text/css">*{stroke-linejoin: round; stroke-linecap: butt}</style>
 </defs>
 <g id="figure_1">
  <g id="patch_1">
   <path d="M 0 432 
L 1080 432 
L 1080 0 
L 0 0 
z
" style="fill: #ffffff"/>
  </g>
  <g id="axes_1">
   <g id="patch_2">
    <path d="M 40.165 421.2 
L 1069.2 421.2 
L 1069.2 14.658916 
L 40.165 14.658916 
z
" style="fill: #ffffff"/>
   </g>
   <g id="matplotlib.axis_1"/>
   <g id="matplotlib.axis_2">
    <g id="ytick_1">
     <g id="line2d_1">
      <defs>
       <path id="m93040b249a" d="M 0 0 
L -3.5 0 
" style="stroke: #000000; stroke-width: 0.8"/>
      </defs>
      <g>
       <use xlink:href="#m93040b249a" x="40.165" y="393.001078" style="stroke: #000000; stroke-width: 0.8"/>
      </g>
     </g>
     <g id="text_1">
      <!-- 0.75 -->
      <g transform="translate(10.899375 396.800296) scale(0.1 -0.1)">
       <defs>
        <path id="DejaVuSans-30" d="M 2034 4250 
Q 1547 4250 1301 3770 
Q 1056 3291 1056 2328 
Q 1056 1369 1301 889 
Q 1547 409 2034 409 
Q 2525 409 2770 889 
Q 3016 1369 3016 2328 
Q 3016 3291 2770 3770 
Q 2525 4250 2034 4250 
z
M 2034 4750 
Q 2819 4750 3233 4129 
Q 3647 3509 3647 2328 
Q 3647 1150 3233 529 
Q 2819 -91 2034 -91 
Q 1250 -91 836 529 
Q 422 1150 422 2328 
Q 422 3509 836 4129 
Q 1250 4750 2034 4750 
z
" transform="scale(0.015625)"/>
        <path id="DejaVuSans-2e" d="M 684 794 
L 1344 794 
L 1344 0 
L 684 0 
L 684 794 
z
" transform="scale(0.015625)"/>
        <path id="DejaVuSans-37" d="M 525 4666 
L 3525 4666 
L 3525 4397 
L 1831 0 
L 1172 0 
L 2766 4134 
L 525 4134 
L 525 4666 
z
" transform="scale(0.015625)"/>
        <path id="DejaVuSans-35" d="M 691 4666 
L 3169 4666 
L 3169 4134 
L 1269 4134 
L 1269 2991 
Q 1406 3038 1543 3061 
Q 1681 3084 1819 3084 
Q 2600 3084 3056 2656 
Q 3513 2228 3513 1497 
Q 3513 744 3044 326 
Q 2575 -91 1722 -91 
Q 1428 -91 1123 -41 
Q 819 9 494 109 
L 494 744 
Q 775 591 1075 516 
Q 1375 441 1709 441 
Q 2250 441 2565 725 
Q 2881 1009 2881 1497 
Q 2881 1984 2565 2268 
Q 2250 2553 1709 2553 
Q 1456 2553 1204 2497 
Q 953 2441 691 2322 
L 691 4666 
z
" transform="scale(0.015625)"/>
       </defs>
       <use xlink:href="#DejaVuSans-30"/>
       <use xlink:href="#DejaVuSans-2e" x="63.623047"/>
       <use xlink:href="#DejaVuSans-37" x="95.410156"/>
       <use xlink:href="#DejaVuSans-35" x="159.033203"/>
      </g>
     </g>
    </g>
    <g id="ytick_2">
     <g id="line2d_2">
      <g>
       <use xlink:href="#m93040b249a" x="40.165" y="317.357354" style="stroke: #000000; stroke-width: 0.8"/>
      </g>
     </g>
     <g id="text_2">
      <!-- 0.80 -->
      <g transform="translate(10.899375 321.156572) scale(0.1 -0.1)">
       <defs>
        <path id="DejaVuSans-38" d="M 2034 2216 
Q 1584 2216 1326 1975 
Q 1069 1734 1069 1313 
Q 1069 891 1326 650 
Q 1584 409 2034 409 
Q 2484 409 2743 651 
Q 3003 894 3003 1313 
Q 3003 1734 2745 1975 
Q 2488 2216 2034 2216 
z
M 1403 2484 
Q 997 2584 770 2862 
Q 544 3141 544 3541 
Q 544 4100 942 4425 
Q 1341 4750 2034 4750 
Q 2731 4750 3128 4425 
Q 3525 4100 3525 3541 
Q 3525 3141 3298 2862 
Q 3072 2584 2669 2484 
Q 3125 2378 3379 2068 
Q 3634 1759 3634 1313 
Q 3634 634 3220 271 
Q 2806 -91 2034 -91 
Q 1263 -91 848 271 
Q 434 634 434 1313 
Q 434 1759 690 2068 
Q 947 2378 1403 2484 
z
M 1172 3481 
Q 1172 3119 1398 2916 
Q 1625 2713 2034 2713 
Q 2441 2713 2670 2916 
Q 2900 3119 2900 3481 
Q 2900 3844 2670 4047 
Q 2441 4250 2034 4250 
Q 1625 4250 1398 4047 
Q 1172 3844 1172 3481 
z
" transform="scale(0.015625)"/>
       </defs>
       <use xlink:href="#DejaVuSans-30"/>
       <use xlink:href="#DejaVuSans-2e" x="63.623047"/>
       <use xlink:href="#DejaVuSans-38" x="95.410156"/>
       <use xlink:href="#DejaVuSans-30" x="159.033203"/>
      </g>
     </g>
    </g>
    <g id="ytick_3">
     <g id="line2d_3">
      <g>
       <use xlink:href="#m93040b249a" x="40.165" y="241.71363" style="stroke: #000000; stroke-width: 0.8"/>
      </g>
     </g>
     <g id="text_3">
      <!-- 0.85 -->
      <g transform="translate(10.899375 245.512848) scale(0.1 -0.1)">
       <use xlink:href="#DejaVuSans-30"/>
       <use xlink:href="#DejaVuSans-2e" x="63.623047"/>
       <use xlink:href="#DejaVuSans-38" x="95.410156"/>
       <use xlink:href="#DejaVuSans-35" x="159.033203"/>
      </g>
     </g>
    </g>
    <g id="ytick_4">
     <g id="line2d_4">
      <g>
       <use xlink:href="#m93040b249a" x="40.165" y="166.069906" style="stroke: #000000; stroke-width: 0.8"/>
      </g>
     </g>
     <g id="text_4">
      <!-- 0.90 -->
      <g transform="translate(10.899375 169.869124) scale(0.1 -0.1)">
       <defs>
        <path id="DejaVuSans-39" d="M 703 97 
L 703 672 
Q 941 559 1184 500 
Q 1428 441 1663 441 
Q 2288 441 2617 861 
Q 2947 1281 2994 2138 
Q 2813 1869 2534 1725 
Q 2256 1581 1919 1581 
Q 1219 1581 811 2004 
Q 403 2428 403 3163 
Q 403 3881 828 4315 
Q 1253 4750 1959 4750 
Q 2769 4750 3195 4129 
Q 3622 3509 3622 2328 
Q 3622 1225 3098 567 
Q 2575 -91 1691 -91 
Q 1453 -91 1209 -44 
Q 966 3 703 97 
z
M 1959 2075 
Q 2384 2075 2632 2365 
Q 2881 2656 2881 3163 
Q 2881 3666 2632 3958 
Q 2384 4250 1959 4250 
Q 1534 4250 1286 3958 
Q 1038 3666 1038 3163 
Q 1038 2656 1286 2365 
Q 1534 2075 1959 2075 
z
" transform="scale(0.015625)"/>
       </defs>
       <use xlink:href="#DejaVuSans-30"/>
       <use xlink:href="#DejaVuSans-2e" x="63.623047"/>
       <use xlink:href="#DejaVuSans-39" x="95.410156"/>
       <use xlink:href="#DejaVuSans-30" x="159.033203"/>
      </g>
     </g>
    </g>
    <g id="ytick_5">
     <g id="line2d_5">
      <g>
       <use xlink:href="#m93040b249a" x="40.165" y="90.426181" style="stroke: #000000; stroke-width: 0.8"/>
      </g>
     </g>
     <g id="text_5">
      <!-- 0.95 -->
      <g transform="translate(10.899375 94.2254) scale(0.1 -0.1)">
       <use xlink:href="#DejaVuSans-30"/>
       <use xlink:href="#DejaVuSans-2e" x="63.623047"/>
       <use xlink:href="#DejaVuSans-39" x="95.410156"/>
       <use xlink:href="#DejaVuSans-35" x="159.033203"/>
      </g>
     </g>
    </g>
    <g id="ytick_6">
     <g id="line2d_6">
      <g>
       <use xlink:href="#m93040b249a" x="40.165" y="14.782457" style="stroke: #000000; stroke-width: 0.8"/>
      </g>
     </g>
     <g id="text_6">
      <!-- 1.00 -->
      <g transform="translate(10.899375 18.581676) scale(0.1 -0.1)">
       <defs>
        <path id="DejaVuSans-31" d="M 794 531 
L 1825 531 
L 1825 4091 
L 703 3866 
L 703 4441 
L 1819 4666 
L 2450 4666 
L 2450 531 
L 3481 531 
L 3481 0 
L 794 0 
L 794 531 
z
" transform="scale(0.015625)"/>
       </defs>
       <use xlink:href="#DejaVuSans-31"/>
       <use xlink:href="#DejaVuSans-2e" x="63.623047"/>
       <use xlink:href="#DejaVuSans-30" x="95.410156"/>
       <use xlink:href="#DejaVuSans-30" x="159.033203"/>
      </g>
     </g>
    </g>
   </g>
   <g id="patch_3">
    <path d="M 54.8655 165.494068 
L 172.4695 165.494068 
L 172.4695 97.824158 
L 54.8655 97.824158 
L 54.8655 165.494068 
z
" clip-path="url(#p3b78002d81)" style="fill: #3274a1; stroke: #3d3d3d; stroke-linejoin: miter"/>
   </g>
   <g id="line2d_7">
    <path d="M 113.6675 165.494068 
L 113.6675 266.010722 
" clip-path="url(#p3b78002d81)" style="fill: none; stroke: #3d3d3d"/>
   </g>
   <g id="line2d_8">
    <path d="M 113.6675 97.824158 
L 113.6675 47.959187 
" clip-path="url(#p3b78002d81)" style="fill: none; stroke: #3d3d3d"/>
   </g>
   <g id="line2d_9">
    <path d="M 84.2665 266.010722 
L 143.0685 266.010722 
" clip-path="url(#p3b78002d81)" style="fill: none; stroke: #3d3d3d; stroke-linecap: square"/>
   </g>
   <g id="line2d_10">
    <path d="M 84.2665 47.959187 
L 143.0685 47.959187 
" clip-path="url(#p3b78002d81)" style="fill: none; stroke: #3d3d3d; stroke-linecap: square"/>
   </g>
   <g id="line2d_11">
    <defs>
     <path id="mf9ff5ec324" d="M 0 3 
C 0.795609 3 1.55874 2.683901 2.12132 2.12132 
C 2.683901 1.55874 3 0.795609 3 0 
C 3 -0.795609 2.683901 -1.55874 2.12132 -2.12132 
C 1.55874 -2.683901 0.795609 -3 0 -3 
C -0.795609 -3 -1.55874 -2.683901 -2.12132 -2.12132 
C -2.683901 -1.55874 -3 -0.795609 -3 0 
C -3 0.795609 -2.683901 1.55874 -2.12132 2.12132 
C -1.55874 2.683901 -0.795609 3 0 3 
z
" style="stroke: #3d3d3d"/>
    </defs>
    <g clip-path="url(#p3b78002d81)">
     <use xlink:href="#mf9ff5ec324" x="113.6675" y="345.694886" style="fill-opacity: 0; stroke: #3d3d3d"/>
     <use xlink:href="#mf9ff5ec324" x="113.6675" y="281.680986" style="fill-opacity: 0; stroke: #3d3d3d"/>
     <use xlink:href="#mf9ff5ec324" x="113.6675" y="283.383219" style="fill-opacity: 0; stroke: #3d3d3d"/>
     <use xlink:href="#mf9ff5ec324" x="113.6675" y="286.489262" style="fill-opacity: 0; stroke: #3d3d3d"/>
     <use xlink:href="#mf9ff5ec324" x="113.6675" y="342.668022" style="fill-opacity: 0; stroke: #3d3d3d"/>
     <use xlink:href="#mf9ff5ec324" x="113.6675" y="269.478582" style="fill-opacity: 0; stroke: #3d3d3d"/>
     <use xlink:href="#mf9ff5ec324" x="113.6675" y="307.222528" style="fill-opacity: 0; stroke: #3d3d3d"/>
    </g>
   </g>
   <g id="patch_4">
    <path d="M 201.8705 174.219094 
L 319.4745 174.219094 
L 319.4745 106.324008 
L 201.8705 106.324008 
L 201.8705 174.219094 
z
" clip-path="url(#p3b78002d81)" style="fill: #e1812c; stroke: #3d3d3d; stroke-linejoin: miter"/>
   </g>
   <g id="line2d_12">
    <path d="M 260.6725 174.219094 
L 260.6725 268.421789 
" clip-path="url(#p3b78002d81)" style="fill: none; stroke: #3d3d3d"/>
   </g>
   <g id="line2d_13">
    <path d="M 260.6725 106.324008 
L 260.6725 64.457628 
" clip-path="url(#p3b78002d81)" style="fill: none; stroke: #3d3d3d"/>
   </g>
   <g id="line2d_14">
    <path d="M 231.2715 268.421789 
L 290.0735 268.421789 
" clip-path="url(#p3b78002d81)" style="fill: none; stroke: #3d3d3d; stroke-linecap: square"/>
   </g>
   <g id="line2d_15">
    <path d="M 231.2715 64.457628 
L 290.0735 64.457628 
" clip-path="url(#p3b78002d81)" style="fill: none; stroke: #3d3d3d; stroke-linecap: square"/>
   </g>
   <g id="line2d_16">
    <g clip-path="url(#p3b78002d81)">
     <use xlink:href="#mf9ff5ec324" x="260.6725" y="345.336809" style="fill-opacity: 0; stroke: #3d3d3d"/>
     <use xlink:href="#mf9ff5ec324" x="260.6725" y="290.67989" style="fill-opacity: 0; stroke: #3d3d3d"/>
     <use xlink:href="#mf9ff5ec324" x="260.6725" y="293.35086" style="fill-opacity: 0; stroke: #3d3d3d"/>
     <use xlink:href="#mf9ff5ec324" x="260.6725" y="300.494936" style="fill-opacity: 0; stroke: #3d3d3d"/>
     <use xlink:href="#mf9ff5ec324" x="260.6725" y="344.112435" style="fill-opacity: 0; stroke: #3d3d3d"/>
     <use xlink:href="#mf9ff5ec324" x="260.6725" y="278.451345" style="fill-opacity: 0; stroke: #3d3d3d"/>
     <use xlink:href="#mf9ff5ec324" x="260.6725" y="308.612486" style="fill-opacity: 0; stroke: #3d3d3d"/>
    </g>
   </g>
   <g id="patch_5">
    <path d="M 348.8755 130.065802 
L 466.4795 130.065802 
L 466.4795 72.062821 
L 348.8755 72.062821 
L 348.8755 130.065802 
z
" clip-path="url(#p3b78002d81)" style="fill: #3a923a; stroke: #3d3d3d; stroke-linejoin: miter"/>
   </g>
   <g id="line2d_17">
    <path d="M 407.6775 130.065802 
L 407.6775 197.596374 
" clip-path="url(#p3b78002d81)" style="fill: none; stroke: #3d3d3d"/>
   </g>
   <g id="line2d_18">
    <path d="M 407.6775 72.062821 
L 407.6775 33.138056 
" clip-path="url(#p3b78002d81)" style="fill: none; stroke: #3d3d3d"/>
   </g>
   <g id="line2d_19">
    <path d="M 378.2765 197.596374 
L 437.0785 197.596374 
" clip-path="url(#p3b78002d81)" style="fill: none; stroke: #3d3d3d; stroke-linecap: square"/>
   </g>
   <g id="line2d_20">
    <path d="M 378.2765 33.138056 
L 437.0785 33.138056 
" clip-path="url(#p3b78002d81)" style="fill: none; stroke: #3d3d3d; stroke-linecap: square"/>
   </g>
   <g id="line2d_21">
    <g clip-path="url(#p3b78002d81)">
     <use xlink:href="#mf9ff5ec324" x="407.6775" y="301.739463" style="fill-opacity: 0; stroke: #3d3d3d"/>
     <use xlink:href="#mf9ff5ec324" x="407.6775" y="242.975385" style="fill-opacity: 0; stroke: #3d3d3d"/>
     <use xlink:href="#mf9ff5ec324" x="407.6775" y="263.710913" style="fill-opacity: 0; stroke: #3d3d3d"/>
     <use xlink:href="#mf9ff5ec324" x="407.6775" y="269.463118" style="fill-opacity: 0; stroke: #3d3d3d"/>
     <use xlink:href="#mf9ff5ec324" x="407.6775" y="233.37523" style="fill-opacity: 0; stroke: #3d3d3d"/>
     <use xlink:href="#mf9ff5ec324" x="407.6775" y="342.426824" style="fill-opacity: 0; stroke: #3d3d3d"/>
     <use xlink:href="#mf9ff5ec324" x="407.6775" y="234.291935" style="fill-opacity: 0; stroke: #3d3d3d"/>
     <use xlink:href="#mf9ff5ec324" x="407.6775" y="242.339406" style="fill-opacity: 0; stroke: #3d3d3d"/>
     <use xlink:href="#mf9ff5ec324" x="407.6775" y="247.506018" style="fill-opacity: 0; stroke: #3d3d3d"/>
     <use xlink:href="#mf9ff5ec324" x="407.6775" y="238.555208" style="fill-opacity: 0; stroke: #3d3d3d"/>
    </g>
   </g>
   <g id="patch_6">
    <path d="M 495.8805 119.47265 
L 613.4845 119.47265 
L 613.4845 68.288135 
L 495.8805 68.288135 
L 495.8805 119.47265 
z
" clip-path="url(#p3b78002d81)" style="fill: #c03d3e; stroke: #3d3d3d; stroke-linejoin: miter"/>
   </g>
   <g id="line2d_22">
    <path d="M 554.6825 119.47265 
L 554.6825 191.091272 
" clip-path="url(#p3b78002d81)" style="fill: none; stroke: #3d3d3d"/>
   </g>
   <g id="line2d_23">
    <path d="M 554.6825 68.288135 
L 554.6825 34.818464 
" clip-path="url(#p3b78002d81)" style="fill: none; stroke: #3d3d3d"/>
   </g>
   <g id="line2d_24">
    <path d="M 525.2815 191.091272 
L 584.0835 191.091272 
" clip-path="url(#p3b78002d81)" style="fill: none; stroke: #3d3d3d; stroke-linecap: square"/>
   </g>
   <g id="line2d_25">
    <path d="M 525.2815 34.818464 
L 584.0835 34.818464 
" clip-path="url(#p3b78002d81)" style="fill: none; stroke: #3d3d3d; stroke-linecap: square"/>
   </g>
   <g id="line2d_26">
    <g clip-path="url(#p3b78002d81)">
     <use xlink:href="#mf9ff5ec324" x="554.6825" y="256.188438" style="fill-opacity: 0; stroke: #3d3d3d"/>
     <use xlink:href="#mf9ff5ec324" x="554.6825" y="247.699594" style="fill-opacity: 0; stroke: #3d3d3d"/>
     <use xlink:href="#mf9ff5ec324" x="554.6825" y="251.015035" style="fill-opacity: 0; stroke: #3d3d3d"/>
     <use xlink:href="#mf9ff5ec324" x="554.6825" y="246.345653" style="fill-opacity: 0; stroke: #3d3d3d"/>
     <use xlink:href="#mf9ff5ec324" x="554.6825" y="217.403419" style="fill-opacity: 0; stroke: #3d3d3d"/>
     <use xlink:href="#mf9ff5ec324" x="554.6825" y="316.929517" style="fill-opacity: 0; stroke: #3d3d3d"/>
     <use xlink:href="#mf9ff5ec324" x="554.6825" y="209.933712" style="fill-opacity: 0; stroke: #3d3d3d"/>
     <use xlink:href="#mf9ff5ec324" x="554.6825" y="231.530474" style="fill-opacity: 0; stroke: #3d3d3d"/>
     <use xlink:href="#mf9ff5ec324" x="554.6825" y="204.017244" style="fill-opacity: 0; stroke: #3d3d3d"/>
     <use xlink:href="#mf9ff5ec324" x="554.6825" y="213.982231" style="fill-opacity: 0; stroke: #3d3d3d"/>
    </g>
   </g>
   <g id="patch_7">
    <path d="M 642.8855 157.429251 
L 760.4895 157.429251 
L 760.4895 94.939051 
L 642.8855 94.939051 
L 642.8855 157.429251 
z
" clip-path="url(#p3b78002d81)" style="fill: #9372b2; stroke: #3d3d3d; stroke-linejoin: miter"/>
   </g>
   <g id="line2d_27">
    <path d="M 701.6875 157.429251 
L 701.6875 247.178533 
" clip-path="url(#p3b78002d81)" style="fill: none; stroke: #3d3d3d"/>
   </g>
   <g id="line2d_28">
    <path d="M 701.6875 94.939051 
L 701.6875 37.20576 
" clip-path="url(#p3b78002d81)" style="fill: none; stroke: #3d3d3d"/>
   </g>
   <g id="line2d_29">
    <path d="M 672.2865 247.178533 
L 731.0885 247.178533 
" clip-path="url(#p3b78002d81)" style="fill: none; stroke: #3d3d3d; stroke-linecap: square"/>
   </g>
   <g id="line2d_30">
    <path d="M 672.2865 37.20576 
L 731.0885 37.20576 
" clip-path="url(#p3b78002d81)" style="fill: none; stroke: #3d3d3d; stroke-linecap: square"/>
   </g>
   <g id="line2d_31">
    <g clip-path="url(#p3b78002d81)">
     <use xlink:href="#mf9ff5ec324" x="701.6875" y="322.553472" style="fill-opacity: 0; stroke: #3d3d3d"/>
     <use xlink:href="#mf9ff5ec324" x="701.6875" y="273.761928" style="fill-opacity: 0; stroke: #3d3d3d"/>
     <use xlink:href="#mf9ff5ec324" x="701.6875" y="271.727302" style="fill-opacity: 0; stroke: #3d3d3d"/>
     <use xlink:href="#mf9ff5ec324" x="701.6875" y="263.291108" style="fill-opacity: 0; stroke: #3d3d3d"/>
     <use xlink:href="#mf9ff5ec324" x="701.6875" y="385.205812" style="fill-opacity: 0; stroke: #3d3d3d"/>
    </g>
   </g>
   <g id="patch_8">
    <path d="M 789.8905 164.519448 
L 907.4945 164.519448 
L 907.4945 100.774894 
L 789.8905 100.774894 
L 789.8905 164.519448 
z
" clip-path="url(#p3b78002d81)" style="fill: #845b53; stroke: #3d3d3d; stroke-linejoin: miter"/>
   </g>
   <g id="line2d_32">
    <path d="M 848.6925 164.519448 
L 848.6925 257.267923 
" clip-path="url(#p3b78002d81)" style="fill: none; stroke: #3d3d3d"/>
   </g>
   <g id="line2d_33">
    <path d="M 848.6925 100.774894 
L 848.6925 36.849321 
" clip-path="url(#p3b78002d81)" style="fill: none; stroke: #3d3d3d"/>
   </g>
   <g id="line2d_34">
    <path d="M 819.2915 257.267923 
L 878.0935 257.267923 
" clip-path="url(#p3b78002d81)" style="fill: none; stroke: #3d3d3d; stroke-linecap: square"/>
   </g>
   <g id="line2d_35">
    <path d="M 819.2915 36.849321 
L 878.0935 36.849321 
" clip-path="url(#p3b78002d81)" style="fill: none; stroke: #3d3d3d; stroke-linecap: square"/>
   </g>
   <g id="line2d_36">
    <g clip-path="url(#p3b78002d81)">
     <use xlink:href="#mf9ff5ec324" x="848.6925" y="345.254003" style="fill-opacity: 0; stroke: #3d3d3d"/>
     <use xlink:href="#mf9ff5ec324" x="848.6925" y="294.846859" style="fill-opacity: 0; stroke: #3d3d3d"/>
     <use xlink:href="#mf9ff5ec324" x="848.6925" y="269.300394" style="fill-opacity: 0; stroke: #3d3d3d"/>
     <use xlink:href="#mf9ff5ec324" x="848.6925" y="402.72086" style="fill-opacity: 0; stroke: #3d3d3d"/>
     <use xlink:href="#mf9ff5ec324" x="848.6925" y="268.20578" style="fill-opacity: 0; stroke: #3d3d3d"/>
    </g>
   </g>
   <g id="patch_9">
    <path d="M 936.8955 161.419413 
L 1054.4995 161.419413 
L 1054.4995 98.319765 
L 936.8955 98.319765 
L 936.8955 161.419413 
z
" clip-path="url(#p3b78002d81)" style="fill: #d684bd; stroke: #3d3d3d; stroke-linejoin: miter"/>
   </g>
   <g id="line2d_37">
    <path d="M 995.6975 161.419413 
L 995.6975 254.29697 
" clip-path="url(#p3b78002d81)" style="fill: none; stroke: #3d3d3d"/>
   </g>
   <g id="line2d_38">
    <path d="M 995.6975 98.319765 
L 995.6975 34.591898 
" clip-path="url(#p3b78002d81)" style="fill: none; stroke: #3d3d3d"/>
   </g>
   <g id="line2d_39">
    <path d="M 966.2965 254.29697 
L 1025.0985 254.29697 
" clip-path="url(#p3b78002d81)" style="fill: none; stroke: #3d3d3d; stroke-linecap: square"/>
   </g>
   <g id="line2d_40">
    <path d="M 966.2965 34.591898 
L 1025.0985 34.591898 
" clip-path="url(#p3b78002d81)" style="fill: none; stroke: #3d3d3d; stroke-linecap: square"/>
   </g>
   <g id="line2d_41">
    <g clip-path="url(#p3b78002d81)">
     <use xlink:href="#mf9ff5ec324" x="995.6975" y="263.732208" style="fill-opacity: 0; stroke: #3d3d3d"/>
     <use xlink:href="#mf9ff5ec324" x="995.6975" y="292.036137" style="fill-opacity: 0; stroke: #3d3d3d"/>
     <use xlink:href="#mf9ff5ec324" x="995.6975" y="300.521809" style="fill-opacity: 0; stroke: #3d3d3d"/>
     <use xlink:href="#mf9ff5ec324" x="995.6975" y="262.934228" style="fill-opacity: 0; stroke: #3d3d3d"/>
     <use xlink:href="#mf9ff5ec324" x="995.6975" y="272.100038" style="fill-opacity: 0; stroke: #3d3d3d"/>
     <use xlink:href="#mf9ff5ec324" x="995.6975" y="300.441776" style="fill-opacity: 0; stroke: #3d3d3d"/>
     <use xlink:href="#mf9ff5ec324" x="995.6975" y="349.366642" style="fill-opacity: 0; stroke: #3d3d3d"/>
     <use xlink:href="#mf9ff5ec324" x="995.6975" y="275.341066" style="fill-opacity: 0; stroke: #3d3d3d"/>
     <use xlink:href="#mf9ff5ec324" x="995.6975" y="295.407505" style="fill-opacity: 0; stroke: #3d3d3d"/>
    </g>
   </g>
   <g id="line2d_42">
    <path d="M 54.8655 127.438481 
L 172.4695 127.438481 
" clip-path="url(#p3b78002d81)" style="fill: none; stroke: #3d3d3d"/>
   </g>
   <g id="line2d_43">
    <path d="M 201.8705 136.190955 
L 319.4745 136.190955 
" clip-path="url(#p3b78002d81)" style="fill: none; stroke: #3d3d3d"/>
   </g>
   <g id="line2d_44">
    <path d="M 348.8755 97.890192 
L 466.4795 97.890192 
" clip-path="url(#p3b78002d81)" style="fill: none; stroke: #3d3d3d"/>
   </g>
   <g id="line2d_45">
    <path d="M 495.8805 90.504871 
L 613.4845 90.504871 
" clip-path="url(#p3b78002d81)" style="fill: none; stroke: #3d3d3d"/>
   </g>
   <g id="line2d_46">
    <path d="M 642.8855 124.922925 
L 760.4895 124.922925 
" clip-path="url(#p3b78002d81)" style="fill: none; stroke: #3d3d3d"/>
   </g>
   <g id="line2d_47">
    <path d="M 789.8905 127.415484 
L 907.4945 127.415484 
" clip-path="url(#p3b78002d81)" style="fill: none; stroke: #3d3d3d"/>
   </g>
   <g id="line2d_48">
    <path d="M 936.8955 127.786656 
L 1054.4995 127.786656 
" clip-path="url(#p3b78002d81)" style="fill: none; stroke: #3d3d3d"/>
   </g>
   <g id="patch_10">
    <path d="M 40.165 421.2 
L 40.165 14.658916 
" style="fill: none; stroke: #000000; stroke-width: 0.8; stroke-linejoin: miter; stroke-linecap: square"/>
   </g>
   <g id="patch_11">
    <path d="M 1069.2 421.2 
L 1069.2 14.658916 
" style="fill: none; stroke: #000000; stroke-width: 0.8; stroke-linejoin: miter; stroke-linecap: square"/>
   </g>
   <g id="patch_12">
    <path d="M 40.165 421.2 
L 1069.2 421.2 
" style="fill: none; stroke: #000000; stroke-width: 0.8; stroke-linejoin: miter; stroke-linecap: square"/>
   </g>
   <g id="patch_13">
    <path d="M 40.165 14.658916 
L 1069.2 14.658916 
" style="fill: none; stroke: #000000; stroke-width: 0.8; stroke-linejoin: miter; stroke-linecap: square"/>
   </g>
  </g>
 </g>
 <defs>
  <clipPath id="p3b78002d81">
   <rect x="40.165" y="14.658916" width="1029.035" height="406.541084"/>
  </clipPath>
 </defs>
</svg>
