<?xml version="1.0" encoding="utf-8" standalone="no"?>
<!DOCTYPE svg PUBLIC "-//W3C//DTD SVG 1.1//EN"
  "http://www.w3.org/Graphics/SVG/1.1/DTD/svg11.dtd">
<svg xmlns:xlink="http://www.w3.org/1999/xlink" width="1080pt" height="432pt" viewBox="0 0 1080 432" xmlns="http://www.w3.org/2000/svg" version="1.1">
 <metadata>
  <rdf:RDF xmlns:dc="http://purl.org/dc/elements/1.1/" xmlns:cc="http://creativecommons.org/ns#" xmlns:rdf="http://www.w3.org/1999/02/22-rdf-syntax-ns#">
   <cc:Work>
    <dc:type rdf:resource="http://purl.org/dc/dcmitype/StillImage"/>
    <dc:date>2024-12-10T13:00:19.340699</dc:date>
    <dc:format>image/svg+xml</dc:format>
    <dc:creator>
     <cc:Agent>
      <dc:title>Matplotlib v3.9.3, https://matplotlib.org/</dc:title>
     </cc:Agent>
    </dc:creator>
   </cc:Work>
  </rdf:RDF>
 </metadata>
 <defs>
  <style type="text/css">*{stroke-linejoin: round; stroke-linecap: butt}</style>
 </defs>
 <g id="figure_1">
  <g id="patch_1">
   <path d="M 0 432 
L 1080 432 
L 1080 0 
L 0 0 
z
" style="fill: #ffffff"/>
  </g>
  <g id="axes_1">
   <g id="patch_2">
    <path d="M 24.19 421.2 
L 1069.2 421.2 
L 1069.2 10.8 
L 24.19 10.8 
z
" style="fill: #ffffff"/>
   </g>
   <g id="matplotlib.axis_1"/>
   <g id="matplotlib.axis_2">
    <g id="ytick_1">
     <g id="line2d_1">
      <defs>
       <path id="m8cc0ab28cb" d="M 0 0 
L -3.5 0 
" style="stroke: #000000; stroke-width: 0.8"/>
      </defs>
      <g>
       <use xlink:href="#m8cc0ab28cb" x="24.19" y="61.86776" style="stroke: #000000; stroke-width: 0.8"/>
      </g>
     </g>
     <g id="text_1">
      <!-- 2 -->
      <g transform="translate(10.8275 65.666979) scale(0.1 -0.1)">
       <defs>
        <path id="DejaVuSans-32" d="M 1228 531 
L 3431 531 
L 3431 0 
L 469 0 
L 469 531 
Q 828 903 1448 1529 
Q 2069 2156 2228 2338 
Q 2531 2678 2651 2914 
Q 2772 3150 2772 3378 
Q 2772 3750 2511 3984 
Q 2250 4219 1831 4219 
Q 1534 4219 1204 4116 
Q 875 4013 500 3803 
L 500 4441 
Q 881 4594 1212 4672 
Q 1544 4750 1819 4750 
Q 2544 4750 2975 4387 
Q 3406 4025 3406 3419 
Q 3406 3131 3298 2873 
Q 3191 2616 2906 2266 
Q 2828 2175 2409 1742 
Q 1991 1309 1228 531 
z
" transform="scale(0.015625)"/>
       </defs>
       <use xlink:href="#DejaVuSans-32"/>
      </g>
     </g>
    </g>
    <g id="ytick_2">
     <g id="line2d_2">
      <g>
       <use xlink:href="#m8cc0ab28cb" x="24.19" y="118.118294" style="stroke: #000000; stroke-width: 0.8"/>
      </g>
     </g>
     <g id="text_2">
      <!-- 3 -->
      <g transform="translate(10.8275 121.917513) scale(0.1 -0.1)">
       <defs>
        <path id="DejaVuSans-33" d="M 2597 2516 
Q 3050 2419 3304 2112 
Q 3559 1806 3559 1356 
Q 3559 666 3084 287 
Q 2609 -91 1734 -91 
Q 1441 -91 1130 -33 
Q 819 25 488 141 
L 488 750 
Q 750 597 1062 519 
Q 1375 441 1716 441 
Q 2309 441 2620 675 
Q 2931 909 2931 1356 
Q 2931 1769 2642 2001 
Q 2353 2234 1838 2234 
L 1294 2234 
L 1294 2753 
L 1863 2753 
Q 2328 2753 2575 2939 
Q 2822 3125 2822 3475 
Q 2822 3834 2567 4026 
Q 2313 4219 1838 4219 
Q 1578 4219 1281 4162 
Q 984 4106 628 3988 
L 628 4550 
Q 988 4650 1302 4700 
Q 1616 4750 1894 4750 
Q 2613 4750 3031 4423 
Q 3450 4097 3450 3541 
Q 3450 3153 3228 2886 
Q 3006 2619 2597 2516 
z
" transform="scale(0.015625)"/>
       </defs>
       <use xlink:href="#DejaVuSans-33"/>
      </g>
     </g>
    </g>
    <g id="ytick_3">
     <g id="line2d_3">
      <g>
       <use xlink:href="#m8cc0ab28cb" x="24.19" y="174.368828" style="stroke: #000000; stroke-width: 0.8"/>
      </g>
     </g>
     <g id="text_3">
      <!-- 4 -->
      <g transform="translate(10.8275 178.168047) scale(0.1 -0.1)">
       <defs>
        <path id="DejaVuSans-34" d="M 2419 4116 
L 825 1625 
L 2419 1625 
L 2419 4116 
z
M 2253 4666 
L 3047 4666 
L 3047 1625 
L 3713 1625 
L 3713 1100 
L 3047 1100 
L 3047 0 
L 2419 0 
L 2419 1100 
L 313 1100 
L 313 1709 
L 2253 4666 
z
" transform="scale(0.015625)"/>
       </defs>
       <use xlink:href="#DejaVuSans-34"/>
      </g>
     </g>
    </g>
    <g id="ytick_4">
     <g id="line2d_4">
      <g>
       <use xlink:href="#m8cc0ab28cb" x="24.19" y="230.619362" style="stroke: #000000; stroke-width: 0.8"/>
      </g>
     </g>
     <g id="text_4">
      <!-- 5 -->
      <g transform="translate(10.8275 234.418581) scale(0.1 -0.1)">
       <defs>
        <path id="DejaVuSans-35" d="M 691 4666 
L 3169 4666 
L 3169 4134 
L 1269 4134 
L 1269 2991 
Q 1406 3038 1543 3061 
Q 1681 3084 1819 3084 
Q 2600 3084 3056 2656 
Q 3513 2228 3513 1497 
Q 3513 744 3044 326 
Q 2575 -91 1722 -91 
Q 1428 -91 1123 -41 
Q 819 9 494 109 
L 494 744 
Q 775 591 1075 516 
Q 1375 441 1709 441 
Q 2250 441 2565 725 
Q 2881 1009 2881 1497 
Q 2881 1984 2565 2268 
Q 2250 2553 1709 2553 
Q 1456 2553 1204 2497 
Q 953 2441 691 2322 
L 691 4666 
z
" transform="scale(0.015625)"/>
       </defs>
       <use xlink:href="#DejaVuSans-35"/>
      </g>
     </g>
    </g>
    <g id="ytick_5">
     <g id="line2d_5">
      <g>
       <use xlink:href="#m8cc0ab28cb" x="24.19" y="286.869896" style="stroke: #000000; stroke-width: 0.8"/>
      </g>
     </g>
     <g id="text_5">
      <!-- 6 -->
      <g transform="translate(10.8275 290.669115) scale(0.1 -0.1)">
       <defs>
        <path id="DejaVuSans-36" d="M 2113 2584 
Q 1688 2584 1439 2293 
Q 1191 2003 1191 1497 
Q 1191 994 1439 701 
Q 1688 409 2113 409 
Q 2538 409 2786 701 
Q 3034 994 3034 1497 
Q 3034 2003 2786 2293 
Q 2538 2584 2113 2584 
z
M 3366 4563 
L 3366 3988 
Q 3128 4100 2886 4159 
Q 2644 4219 2406 4219 
Q 1781 4219 1451 3797 
Q 1122 3375 1075 2522 
Q 1259 2794 1537 2939 
Q 1816 3084 2150 3084 
Q 2853 3084 3261 2657 
Q 3669 2231 3669 1497 
Q 3669 778 3244 343 
Q 2819 -91 2113 -91 
Q 1303 -91 875 529 
Q 447 1150 447 2328 
Q 447 3434 972 4092 
Q 1497 4750 2381 4750 
Q 2619 4750 2861 4703 
Q 3103 4656 3366 4563 
z
" transform="scale(0.015625)"/>
       </defs>
       <use xlink:href="#DejaVuSans-36"/>
      </g>
     </g>
    </g>
    <g id="ytick_6">
     <g id="line2d_6">
      <g>
       <use xlink:href="#m8cc0ab28cb" x="24.19" y="343.12043" style="stroke: #000000; stroke-width: 0.8"/>
      </g>
     </g>
     <g id="text_6">
      <!-- 7 -->
      <g transform="translate(10.8275 346.919648) scale(0.1 -0.1)">
       <defs>
        <path id="DejaVuSans-37" d="M 525 4666 
L 3525 4666 
L 3525 4397 
L 1831 0 
L 1172 0 
L 2766 4134 
L 525 4134 
L 525 4666 
z
" transform="scale(0.015625)"/>
       </defs>
       <use xlink:href="#DejaVuSans-37"/>
      </g>
     </g>
    </g>
    <g id="ytick_7">
     <g id="line2d_7">
      <g>
       <use xlink:href="#m8cc0ab28cb" x="24.19" y="399.370964" style="stroke: #000000; stroke-width: 0.8"/>
      </g>
     </g>
     <g id="text_7">
      <!-- 8 -->
      <g transform="translate(10.8275 403.170182) scale(0.1 -0.1)">
       <defs>
        <path id="DejaVuSans-38" d="M 2034 2216 
Q 1584 2216 1326 1975 
Q 1069 1734 1069 1313 
Q 1069 891 1326 650 
Q 1584 409 2034 409 
Q 2484 409 2743 651 
Q 3003 894 3003 1313 
Q 3003 1734 2745 1975 
Q 2488 2216 2034 2216 
z
M 1403 2484 
Q 997 2584 770 2862 
Q 544 3141 544 3541 
Q 544 4100 942 4425 
Q 1341 4750 2034 4750 
Q 2731 4750 3128 4425 
Q 3525 4100 3525 3541 
Q 3525 3141 3298 2862 
Q 3072 2584 2669 2484 
Q 3125 2378 3379 2068 
Q 3634 1759 3634 1313 
Q 3634 634 3220 271 
Q 2806 -91 2034 -91 
Q 1263 -91 848 271 
Q 434 634 434 1313 
Q 434 1759 690 2068 
Q 947 2378 1403 2484 
z
M 1172 3481 
Q 1172 3119 1398 2916 
Q 1625 2713 2034 2713 
Q 2441 2713 2670 2916 
Q 2900 3119 2900 3481 
Q 2900 3844 2670 4047 
Q 2441 4250 2034 4250 
Q 1625 4250 1398 4047 
Q 1172 3844 1172 3481 
z
" transform="scale(0.015625)"/>
       </defs>
       <use xlink:href="#DejaVuSans-38"/>
      </g>
     </g>
    </g>
   </g>
   <g id="patch_3">
    <path d="M 39.118714 124.869411 
L 158.548429 124.869411 
L 158.548429 187.737456 
L 39.118714 187.737456 
L 39.118714 124.869411 
z
" clip-path="url(#p69f100c670)" style="fill: #3274a1; stroke: #3d3d3d; stroke-linejoin: miter"/>
   </g>
   <g id="line2d_8">
    <path d="M 98.833571 124.869411 
L 98.833571 60.787371 
" clip-path="url(#p69f100c670)" style="fill: none; stroke: #3d3d3d"/>
   </g>
   <g id="line2d_9">
    <path d="M 98.833571 187.737456 
L 98.833571 279.567542 
" clip-path="url(#p69f100c670)" style="fill: none; stroke: #3d3d3d"/>
   </g>
   <g id="line2d_10">
    <path d="M 68.976143 60.787371 
L 128.691 60.787371 
" clip-path="url(#p69f100c670)" style="fill: none; stroke: #3d3d3d; stroke-linecap: square"/>
   </g>
   <g id="line2d_11">
    <path d="M 68.976143 279.567542 
L 128.691 279.567542 
" clip-path="url(#p69f100c670)" style="fill: none; stroke: #3d3d3d; stroke-linecap: square"/>
   </g>
   <g id="line2d_12">
    <defs>
     <path id="mddd973b095" d="M 0 3 
C 0.795609 3 1.55874 2.683901 2.12132 2.12132 
C 2.683901 1.55874 3 0.795609 3 0 
C 3 -0.795609 2.683901 -1.55874 2.12132 -2.12132 
C 1.55874 -2.683901 0.795609 -3 0 -3 
C -0.795609 -3 -1.55874 -2.683901 -2.12132 -2.12132 
C -2.683901 -1.55874 -3 -0.795609 -3 0 
C -3 0.795609 -2.683901 1.55874 -2.12132 2.12132 
C -1.55874 2.683901 -0.795609 3 0 3 
z
" style="stroke: #3d3d3d"/>
    </defs>
    <g clip-path="url(#p69f100c670)">
     <use xlink:href="#mddd973b095" x="98.833571" y="305.434801" style="fill-opacity: 0; stroke: #3d3d3d"/>
     <use xlink:href="#mddd973b095" x="98.833571" y="284.804304" style="fill-opacity: 0; stroke: #3d3d3d"/>
    </g>
   </g>
   <g id="patch_4">
    <path d="M 188.405857 134.903991 
L 307.835571 134.903991 
L 307.835571 195.05941 
L 188.405857 195.05941 
L 188.405857 134.903991 
z
" clip-path="url(#p69f100c670)" style="fill: #e1812c; stroke: #3d3d3d; stroke-linejoin: miter"/>
   </g>
   <g id="line2d_13">
    <path d="M 248.120714 134.903991 
L 248.120714 85.568327 
" clip-path="url(#p69f100c670)" style="fill: none; stroke: #3d3d3d"/>
   </g>
   <g id="line2d_14">
    <path d="M 248.120714 195.05941 
L 248.120714 283.144482 
" clip-path="url(#p69f100c670)" style="fill: none; stroke: #3d3d3d"/>
   </g>
   <g id="line2d_15">
    <path d="M 218.263286 85.568327 
L 277.978143 85.568327 
" clip-path="url(#p69f100c670)" style="fill: none; stroke: #3d3d3d; stroke-linecap: square"/>
   </g>
   <g id="line2d_16">
    <path d="M 218.263286 283.144482 
L 277.978143 283.144482 
" clip-path="url(#p69f100c670)" style="fill: none; stroke: #3d3d3d; stroke-linecap: square"/>
   </g>
   <g id="line2d_17">
    <g clip-path="url(#p69f100c670)">
     <use xlink:href="#mddd973b095" x="248.120714" y="306.446484" style="fill-opacity: 0; stroke: #3d3d3d"/>
     <use xlink:href="#mddd973b095" x="248.120714" y="286.75883" style="fill-opacity: 0; stroke: #3d3d3d"/>
     <use xlink:href="#mddd973b095" x="248.120714" y="285.801278" style="fill-opacity: 0; stroke: #3d3d3d"/>
    </g>
   </g>
   <g id="patch_5">
    <path d="M 337.693 95.728559 
L 457.122714 95.728559 
L 457.122714 160.537073 
L 337.693 160.537073 
L 337.693 95.728559 
z
" clip-path="url(#p69f100c670)" style="fill: #3a923a; stroke: #3d3d3d; stroke-linejoin: miter"/>
   </g>
   <g id="line2d_18">
    <path d="M 397.407857 95.728559 
L 397.407857 29.454545 
" clip-path="url(#p69f100c670)" style="fill: none; stroke: #3d3d3d"/>
   </g>
   <g id="line2d_19">
    <path d="M 397.407857 160.537073 
L 397.407857 254.008059 
" clip-path="url(#p69f100c670)" style="fill: none; stroke: #3d3d3d"/>
   </g>
   <g id="line2d_20">
    <path d="M 367.550429 29.454545 
L 427.265286 29.454545 
" clip-path="url(#p69f100c670)" style="fill: none; stroke: #3d3d3d; stroke-linecap: square"/>
   </g>
   <g id="line2d_21">
    <path d="M 367.550429 254.008059 
L 427.265286 254.008059 
" clip-path="url(#p69f100c670)" style="fill: none; stroke: #3d3d3d; stroke-linecap: square"/>
   </g>
   <g id="line2d_22">
    <g clip-path="url(#p69f100c670)">
     <use xlink:href="#mddd973b095" x="397.407857" y="289.043354" style="fill-opacity: 0; stroke: #3d3d3d"/>
     <use xlink:href="#mddd973b095" x="397.407857" y="272.566506" style="fill-opacity: 0; stroke: #3d3d3d"/>
     <use xlink:href="#mddd973b095" x="397.407857" y="283.568757" style="fill-opacity: 0; stroke: #3d3d3d"/>
     <use xlink:href="#mddd973b095" x="397.407857" y="261.887015" style="fill-opacity: 0; stroke: #3d3d3d"/>
    </g>
   </g>
   <g id="patch_6">
    <path d="M 486.980143 90.016652 
L 606.409857 90.016652 
L 606.409857 148.849504 
L 486.980143 148.849504 
L 486.980143 90.016652 
z
" clip-path="url(#p69f100c670)" style="fill: #c03d3e; stroke: #3d3d3d; stroke-linejoin: miter"/>
   </g>
   <g id="line2d_23">
    <path d="M 546.695 90.016652 
L 546.695 35.931944 
" clip-path="url(#p69f100c670)" style="fill: none; stroke: #3d3d3d"/>
   </g>
   <g id="line2d_24">
    <path d="M 546.695 148.849504 
L 546.695 231.566879 
" clip-path="url(#p69f100c670)" style="fill: none; stroke: #3d3d3d"/>
   </g>
   <g id="line2d_25">
    <path d="M 516.837571 35.931944 
L 576.552429 35.931944 
" clip-path="url(#p69f100c670)" style="fill: none; stroke: #3d3d3d; stroke-linecap: square"/>
   </g>
   <g id="line2d_26">
    <path d="M 516.837571 231.566879 
L 576.552429 231.566879 
" clip-path="url(#p69f100c670)" style="fill: none; stroke: #3d3d3d; stroke-linecap: square"/>
   </g>
   <g id="line2d_27">
    <g clip-path="url(#p69f100c670)">
     <use xlink:href="#mddd973b095" x="546.695" y="291.283786" style="fill-opacity: 0; stroke: #3d3d3d"/>
     <use xlink:href="#mddd973b095" x="546.695" y="252.655936" style="fill-opacity: 0; stroke: #3d3d3d"/>
     <use xlink:href="#mddd973b095" x="546.695" y="263.63839" style="fill-opacity: 0; stroke: #3d3d3d"/>
    </g>
   </g>
   <g id="patch_7">
    <path d="M 636.267286 120.50848 
L 755.697 120.50848 
L 755.697 177.387813 
L 636.267286 177.387813 
L 636.267286 120.50848 
z
" clip-path="url(#p69f100c670)" style="fill: #9372b2; stroke: #3d3d3d; stroke-linejoin: miter"/>
   </g>
   <g id="line2d_28">
    <path d="M 695.982143 120.50848 
L 695.982143 47.24075 
" clip-path="url(#p69f100c670)" style="fill: none; stroke: #3d3d3d"/>
   </g>
   <g id="line2d_29">
    <path d="M 695.982143 177.387813 
L 695.982143 261.379445 
" clip-path="url(#p69f100c670)" style="fill: none; stroke: #3d3d3d"/>
   </g>
   <g id="line2d_30">
    <path d="M 666.124714 47.24075 
L 725.839571 47.24075 
" clip-path="url(#p69f100c670)" style="fill: none; stroke: #3d3d3d; stroke-linecap: square"/>
   </g>
   <g id="line2d_31">
    <path d="M 666.124714 261.379445 
L 725.839571 261.379445 
" clip-path="url(#p69f100c670)" style="fill: none; stroke: #3d3d3d; stroke-linecap: square"/>
   </g>
   <g id="line2d_32">
    <g clip-path="url(#p69f100c670)">
     <use xlink:href="#mddd973b095" x="695.982143" y="289.822462" style="fill-opacity: 0; stroke: #3d3d3d"/>
     <use xlink:href="#mddd973b095" x="695.982143" y="300.848539" style="fill-opacity: 0; stroke: #3d3d3d"/>
     <use xlink:href="#mddd973b095" x="695.982143" y="269.218423" style="fill-opacity: 0; stroke: #3d3d3d"/>
     <use xlink:href="#mddd973b095" x="695.982143" y="273.271731" style="fill-opacity: 0; stroke: #3d3d3d"/>
     <use xlink:href="#mddd973b095" x="695.982143" y="276.805818" style="fill-opacity: 0; stroke: #3d3d3d"/>
     <use xlink:href="#mddd973b095" x="695.982143" y="341.570348" style="fill-opacity: 0; stroke: #3d3d3d"/>
    </g>
   </g>
   <g id="patch_8">
    <path d="M 785.554429 128.068978 
L 904.984143 128.068978 
L 904.984143 181.026213 
L 785.554429 181.026213 
L 785.554429 128.068978 
z
" clip-path="url(#p69f100c670)" style="fill: #845b53; stroke: #3d3d3d; stroke-linejoin: miter"/>
   </g>
   <g id="line2d_33">
    <path d="M 845.269286 128.068978 
L 845.269286 52.34163 
" clip-path="url(#p69f100c670)" style="fill: none; stroke: #3d3d3d"/>
   </g>
   <g id="line2d_34">
    <path d="M 845.269286 181.026213 
L 845.269286 257.072577 
" clip-path="url(#p69f100c670)" style="fill: none; stroke: #3d3d3d"/>
   </g>
   <g id="line2d_35">
    <path d="M 815.411857 52.34163 
L 875.126714 52.34163 
" clip-path="url(#p69f100c670)" style="fill: none; stroke: #3d3d3d; stroke-linecap: square"/>
   </g>
   <g id="line2d_36">
    <path d="M 815.411857 257.072577 
L 875.126714 257.072577 
" clip-path="url(#p69f100c670)" style="fill: none; stroke: #3d3d3d; stroke-linecap: square"/>
   </g>
   <g id="line2d_37">
    <g clip-path="url(#p69f100c670)">
     <use xlink:href="#mddd973b095" x="845.269286" y="290.242648" style="fill-opacity: 0; stroke: #3d3d3d"/>
     <use xlink:href="#mddd973b095" x="845.269286" y="307.861211" style="fill-opacity: 0; stroke: #3d3d3d"/>
     <use xlink:href="#mddd973b095" x="845.269286" y="284.706458" style="fill-opacity: 0; stroke: #3d3d3d"/>
     <use xlink:href="#mddd973b095" x="845.269286" y="279.987143" style="fill-opacity: 0; stroke: #3d3d3d"/>
     <use xlink:href="#mddd973b095" x="845.269286" y="350.989705" style="fill-opacity: 0; stroke: #3d3d3d"/>
    </g>
   </g>
   <g id="patch_9">
    <path d="M 934.841571 196.511773 
L 1054.271286 196.511773 
L 1054.271286 260.554009 
L 934.841571 260.554009 
L 934.841571 196.511773 
z
" clip-path="url(#p69f100c670)" style="fill: #d684bd; stroke: #3d3d3d; stroke-linejoin: miter"/>
   </g>
   <g id="line2d_38">
    <path d="M 994.556429 196.511773 
L 994.556429 114.188611 
" clip-path="url(#p69f100c670)" style="fill: none; stroke: #3d3d3d"/>
   </g>
   <g id="line2d_39">
    <path d="M 994.556429 260.554009 
L 994.556429 356.615899 
" clip-path="url(#p69f100c670)" style="fill: none; stroke: #3d3d3d"/>
   </g>
   <g id="line2d_40">
    <path d="M 964.699 114.188611 
L 1024.413857 114.188611 
" clip-path="url(#p69f100c670)" style="fill: none; stroke: #3d3d3d; stroke-linecap: square"/>
   </g>
   <g id="line2d_41">
    <path d="M 964.699 356.615899 
L 1024.413857 356.615899 
" clip-path="url(#p69f100c670)" style="fill: none; stroke: #3d3d3d; stroke-linecap: square"/>
   </g>
   <g id="line2d_42">
    <g clip-path="url(#p69f100c670)">
     <use xlink:href="#mddd973b095" x="994.556429" y="97.493663" style="fill-opacity: 0; stroke: #3d3d3d"/>
     <use xlink:href="#mddd973b095" x="994.556429" y="90.785491" style="fill-opacity: 0; stroke: #3d3d3d"/>
     <use xlink:href="#mddd973b095" x="994.556429" y="376.661454" style="fill-opacity: 0; stroke: #3d3d3d"/>
     <use xlink:href="#mddd973b095" x="994.556429" y="363.669347" style="fill-opacity: 0; stroke: #3d3d3d"/>
     <use xlink:href="#mddd973b095" x="994.556429" y="395.888987" style="fill-opacity: 0; stroke: #3d3d3d"/>
     <use xlink:href="#mddd973b095" x="994.556429" y="395.895748" style="fill-opacity: 0; stroke: #3d3d3d"/>
     <use xlink:href="#mddd973b095" x="994.556429" y="402.545455" style="fill-opacity: 0; stroke: #3d3d3d"/>
     <use xlink:href="#mddd973b095" x="994.556429" y="390.036629" style="fill-opacity: 0; stroke: #3d3d3d"/>
     <use xlink:href="#mddd973b095" x="994.556429" y="362.871992" style="fill-opacity: 0; stroke: #3d3d3d"/>
    </g>
   </g>
   <g id="line2d_43">
    <path d="M 39.118714 151.677522 
L 158.548429 151.677522 
" clip-path="url(#p69f100c670)" style="fill: none; stroke: #3d3d3d"/>
   </g>
   <g id="line2d_44">
    <path d="M 188.405857 163.46683 
L 307.835571 163.46683 
" clip-path="url(#p69f100c670)" style="fill: none; stroke: #3d3d3d"/>
   </g>
   <g id="line2d_45">
    <path d="M 337.693 126.563404 
L 457.122714 126.563404 
" clip-path="url(#p69f100c670)" style="fill: none; stroke: #3d3d3d"/>
   </g>
   <g id="line2d_46">
    <path d="M 486.980143 118.145178 
L 606.409857 118.145178 
" clip-path="url(#p69f100c670)" style="fill: none; stroke: #3d3d3d"/>
   </g>
   <g id="line2d_47">
    <path d="M 636.267286 147.155359 
L 755.697 147.155359 
" clip-path="url(#p69f100c670)" style="fill: none; stroke: #3d3d3d"/>
   </g>
   <g id="line2d_48">
    <path d="M 785.554429 153.31018 
L 904.984143 153.31018 
" clip-path="url(#p69f100c670)" style="fill: none; stroke: #3d3d3d"/>
   </g>
   <g id="line2d_49">
    <path d="M 934.841571 226.436853 
L 1054.271286 226.436853 
" clip-path="url(#p69f100c670)" style="fill: none; stroke: #3d3d3d"/>
   </g>
   <g id="patch_10">
    <path d="M 24.19 421.2 
L 24.19 10.8 
" style="fill: none; stroke: #000000; stroke-width: 0.8; stroke-linejoin: miter; stroke-linecap: square"/>
   </g>
   <g id="patch_11">
    <path d="M 1069.2 421.2 
L 1069.2 10.8 
" style="fill: none; stroke: #000000; stroke-width: 0.8; stroke-linejoin: miter; stroke-linecap: square"/>
   </g>
   <g id="patch_12">
    <path d="M 24.19 421.2 
L 1069.2 421.2 
" style="fill: none; stroke: #000000; stroke-width: 0.8; stroke-linejoin: miter; stroke-linecap: square"/>
   </g>
   <g id="patch_13">
    <path d="M 24.19 10.8 
L 1069.2 10.8 
" style="fill: none; stroke: #000000; stroke-width: 0.8; stroke-linejoin: miter; stroke-linecap: square"/>
   </g>
  </g>
 </g>
 <defs>
  <clipPath id="p69f100c670">
   <rect x="24.19" y="10.8" width="1045.01" height="410.4"/>
  </clipPath>
 </defs>
</svg>
