<?xml version="1.0" encoding="utf-8" standalone="no"?>
<!DOCTYPE svg PUBLIC "-//W3C//DTD SVG 1.1//EN"
  "http://www.w3.org/Graphics/SVG/1.1/DTD/svg11.dtd">
<svg xmlns:xlink="http://www.w3.org/1999/xlink" width="720pt" height="432pt" viewBox="0 0 720 432" xmlns="http://www.w3.org/2000/svg" version="1.1">
 <metadata>
  <rdf:RDF xmlns:dc="http://purl.org/dc/elements/1.1/" xmlns:cc="http://creativecommons.org/ns#" xmlns:rdf="http://www.w3.org/1999/02/22-rdf-syntax-ns#">
   <cc:Work>
    <dc:type rdf:resource="http://purl.org/dc/dcmitype/StillImage"/>
    <dc:date>2024-12-10T00:44:46.437726</dc:date>
    <dc:format>image/svg+xml</dc:format>
    <dc:creator>
     <cc:Agent>
      <dc:title>Matplotlib v3.9.3, https://matplotlib.org/</dc:title>
     </cc:Agent>
    </dc:creator>
   </cc:Work>
  </rdf:RDF>
 </metadata>
 <defs>
  <style type="text/css">*{stroke-linejoin: round; stroke-linecap: butt}</style>
 </defs>
 <g id="figure_1">
  <g id="patch_1">
   <path d="M 0 432 
L 720 432 
L 720 0 
L 0 0 
z
" style="fill: #ffffff"/>
  </g>
  <g id="axes_1">
   <g id="patch_2">
    <path d="M 38.27 308.60624 
L 703.300263 308.60624 
L 703.300263 26.16 
L 38.27 26.16 
z
" style="fill: #ffffff"/>
   </g>
   <g id="matplotlib.axis_1">
    <g id="xtick_1">
     <g id="line2d_1">
      <defs>
       <path id="m48c21a00df" d="M 0 0 
L 0 3.5 
" style="stroke: #000000; stroke-width: 0.8"/>
      </defs>
      <g>
       <use xlink:href="#m48c21a00df" x="85.772162" y="308.60624" style="stroke: #000000; stroke-width: 0.8"/>
      </g>
     </g>
     <g id="text_1">
      <!-- Baseline -->
      <g transform="translate(72.733223 350.95937) rotate(-45) scale(0.1 -0.1)">
       <defs>
        <path id="DejaVuSans-42" d="M 1259 2228 
L 1259 519 
L 2272 519 
Q 2781 519 3026 730 
Q 3272 941 3272 1375 
Q 3272 1813 3026 2020 
Q 2781 2228 2272 2228 
L 1259 2228 
z
M 1259 4147 
L 1259 2741 
L 2194 2741 
Q 2656 2741 2882 2914 
Q 3109 3088 3109 3444 
Q 3109 3797 2882 3972 
Q 2656 4147 2194 4147 
L 1259 4147 
z
M 628 4666 
L 2241 4666 
Q 2963 4666 3353 4366 
Q 3744 4066 3744 3513 
Q 3744 3084 3544 2831 
Q 3344 2578 2956 2516 
Q 3422 2416 3680 2098 
Q 3938 1781 3938 1306 
Q 3938 681 3513 340 
Q 3088 0 2303 0 
L 628 0 
L 628 4666 
z
" transform="scale(0.015625)"/>
        <path id="DejaVuSans-61" d="M 2194 1759 
Q 1497 1759 1228 1600 
Q 959 1441 959 1056 
Q 959 750 1161 570 
Q 1363 391 1709 391 
Q 2188 391 2477 730 
Q 2766 1069 2766 1631 
L 2766 1759 
L 2194 1759 
z
M 3341 1997 
L 3341 0 
L 2766 0 
L 2766 531 
Q 2569 213 2275 61 
Q 1981 -91 1556 -91 
Q 1019 -91 701 211 
Q 384 513 384 1019 
Q 384 1609 779 1909 
Q 1175 2209 1959 2209 
L 2766 2209 
L 2766 2266 
Q 2766 2663 2505 2880 
Q 2244 3097 1772 3097 
Q 1472 3097 1187 3025 
Q 903 2953 641 2809 
L 641 3341 
Q 956 3463 1253 3523 
Q 1550 3584 1831 3584 
Q 2591 3584 2966 3190 
Q 3341 2797 3341 1997 
z
" transform="scale(0.015625)"/>
        <path id="DejaVuSans-73" d="M 2834 3397 
L 2834 2853 
Q 2591 2978 2328 3040 
Q 2066 3103 1784 3103 
Q 1356 3103 1142 2972 
Q 928 2841 928 2578 
Q 928 2378 1081 2264 
Q 1234 2150 1697 2047 
L 1894 2003 
Q 2506 1872 2764 1633 
Q 3022 1394 3022 966 
Q 3022 478 2636 193 
Q 2250 -91 1575 -91 
Q 1294 -91 989 -36 
Q 684 19 347 128 
L 347 722 
Q 666 556 975 473 
Q 1284 391 1588 391 
Q 1994 391 2212 530 
Q 2431 669 2431 922 
Q 2431 1156 2273 1281 
Q 2116 1406 1581 1522 
L 1381 1569 
Q 847 1681 609 1914 
Q 372 2147 372 2553 
Q 372 3047 722 3315 
Q 1072 3584 1716 3584 
Q 2034 3584 2315 3537 
Q 2597 3491 2834 3397 
z
" transform="scale(0.015625)"/>
        <path id="DejaVuSans-65" d="M 3597 1894 
L 3597 1613 
L 953 1613 
Q 991 1019 1311 708 
Q 1631 397 2203 397 
Q 2534 397 2845 478 
Q 3156 559 3463 722 
L 3463 178 
Q 3153 47 2828 -22 
Q 2503 -91 2169 -91 
Q 1331 -91 842 396 
Q 353 884 353 1716 
Q 353 2575 817 3079 
Q 1281 3584 2069 3584 
Q 2775 3584 3186 3129 
Q 3597 2675 3597 1894 
z
M 3022 2063 
Q 3016 2534 2758 2815 
Q 2500 3097 2075 3097 
Q 1594 3097 1305 2825 
Q 1016 2553 972 2059 
L 3022 2063 
z
" transform="scale(0.015625)"/>
        <path id="DejaVuSans-6c" d="M 603 4863 
L 1178 4863 
L 1178 0 
L 603 0 
L 603 4863 
z
" transform="scale(0.015625)"/>
        <path id="DejaVuSans-69" d="M 603 3500 
L 1178 3500 
L 1178 0 
L 603 0 
L 603 3500 
z
M 603 4863 
L 1178 4863 
L 1178 4134 
L 603 4134 
L 603 4863 
z
" transform="scale(0.015625)"/>
        <path id="DejaVuSans-6e" d="M 3513 2113 
L 3513 0 
L 2938 0 
L 2938 2094 
Q 2938 2591 2744 2837 
Q 2550 3084 2163 3084 
Q 1697 3084 1428 2787 
Q 1159 2491 1159 1978 
L 1159 0 
L 581 0 
L 581 3500 
L 1159 3500 
L 1159 2956 
Q 1366 3272 1645 3428 
Q 1925 3584 2291 3584 
Q 2894 3584 3203 3211 
Q 3513 2838 3513 2113 
z
" transform="scale(0.015625)"/>
       </defs>
       <use xlink:href="#DejaVuSans-42"/>
       <use xlink:href="#DejaVuSans-61" x="68.603516"/>
       <use xlink:href="#DejaVuSans-73" x="129.882812"/>
       <use xlink:href="#DejaVuSans-65" x="181.982422"/>
       <use xlink:href="#DejaVuSans-6c" x="243.505859"/>
       <use xlink:href="#DejaVuSans-69" x="271.289062"/>
       <use xlink:href="#DejaVuSans-6e" x="299.072266"/>
       <use xlink:href="#DejaVuSans-65" x="362.451172"/>
      </g>
     </g>
    </g>
    <g id="xtick_2">
     <g id="line2d_2">
      <g>
       <use xlink:href="#m48c21a00df" x="180.776485" y="308.60624" style="stroke: #000000; stroke-width: 0.8"/>
      </g>
     </g>
     <g id="text_2">
      <!-- Sampling -->
      <g transform="translate(166.178597 354.077269) rotate(-45) scale(0.1 -0.1)">
       <defs>
        <path id="DejaVuSans-53" d="M 3425 4513 
L 3425 3897 
Q 3066 4069 2747 4153 
Q 2428 4238 2131 4238 
Q 1616 4238 1336 4038 
Q 1056 3838 1056 3469 
Q 1056 3159 1242 3001 
Q 1428 2844 1947 2747 
L 2328 2669 
Q 3034 2534 3370 2195 
Q 3706 1856 3706 1288 
Q 3706 609 3251 259 
Q 2797 -91 1919 -91 
Q 1588 -91 1214 -16 
Q 841 59 441 206 
L 441 856 
Q 825 641 1194 531 
Q 1563 422 1919 422 
Q 2459 422 2753 634 
Q 3047 847 3047 1241 
Q 3047 1584 2836 1778 
Q 2625 1972 2144 2069 
L 1759 2144 
Q 1053 2284 737 2584 
Q 422 2884 422 3419 
Q 422 4038 858 4394 
Q 1294 4750 2059 4750 
Q 2388 4750 2728 4690 
Q 3069 4631 3425 4513 
z
" transform="scale(0.015625)"/>
        <path id="DejaVuSans-6d" d="M 3328 2828 
Q 3544 3216 3844 3400 
Q 4144 3584 4550 3584 
Q 5097 3584 5394 3201 
Q 5691 2819 5691 2113 
L 5691 0 
L 5113 0 
L 5113 2094 
Q 5113 2597 4934 2840 
Q 4756 3084 4391 3084 
Q 3944 3084 3684 2787 
Q 3425 2491 3425 1978 
L 3425 0 
L 2847 0 
L 2847 2094 
Q 2847 2600 2669 2842 
Q 2491 3084 2119 3084 
Q 1678 3084 1418 2786 
Q 1159 2488 1159 1978 
L 1159 0 
L 581 0 
L 581 3500 
L 1159 3500 
L 1159 2956 
Q 1356 3278 1631 3431 
Q 1906 3584 2284 3584 
Q 2666 3584 2933 3390 
Q 3200 3197 3328 2828 
z
" transform="scale(0.015625)"/>
        <path id="DejaVuSans-70" d="M 1159 525 
L 1159 -1331 
L 581 -1331 
L 581 3500 
L 1159 3500 
L 1159 2969 
Q 1341 3281 1617 3432 
Q 1894 3584 2278 3584 
Q 2916 3584 3314 3078 
Q 3713 2572 3713 1747 
Q 3713 922 3314 415 
Q 2916 -91 2278 -91 
Q 1894 -91 1617 61 
Q 1341 213 1159 525 
z
M 3116 1747 
Q 3116 2381 2855 2742 
Q 2594 3103 2138 3103 
Q 1681 3103 1420 2742 
Q 1159 2381 1159 1747 
Q 1159 1113 1420 752 
Q 1681 391 2138 391 
Q 2594 391 2855 752 
Q 3116 1113 3116 1747 
z
" transform="scale(0.015625)"/>
        <path id="DejaVuSans-67" d="M 2906 1791 
Q 2906 2416 2648 2759 
Q 2391 3103 1925 3103 
Q 1463 3103 1205 2759 
Q 947 2416 947 1791 
Q 947 1169 1205 825 
Q 1463 481 1925 481 
Q 2391 481 2648 825 
Q 2906 1169 2906 1791 
z
M 3481 434 
Q 3481 -459 3084 -895 
Q 2688 -1331 1869 -1331 
Q 1566 -1331 1297 -1286 
Q 1028 -1241 775 -1147 
L 775 -588 
Q 1028 -725 1275 -790 
Q 1522 -856 1778 -856 
Q 2344 -856 2625 -561 
Q 2906 -266 2906 331 
L 2906 616 
Q 2728 306 2450 153 
Q 2172 0 1784 0 
Q 1141 0 747 490 
Q 353 981 353 1791 
Q 353 2603 747 3093 
Q 1141 3584 1784 3584 
Q 2172 3584 2450 3431 
Q 2728 3278 2906 2969 
L 2906 3500 
L 3481 3500 
L 3481 434 
z
" transform="scale(0.015625)"/>
       </defs>
       <use xlink:href="#DejaVuSans-53"/>
       <use xlink:href="#DejaVuSans-61" x="63.476562"/>
       <use xlink:href="#DejaVuSans-6d" x="124.755859"/>
       <use xlink:href="#DejaVuSans-70" x="222.167969"/>
       <use xlink:href="#DejaVuSans-6c" x="285.644531"/>
       <use xlink:href="#DejaVuSans-69" x="313.427734"/>
       <use xlink:href="#DejaVuSans-6e" x="341.210938"/>
       <use xlink:href="#DejaVuSans-67" x="404.589844"/>
      </g>
     </g>
    </g>
    <g id="xtick_3">
     <g id="line2d_3">
      <g>
       <use xlink:href="#m48c21a00df" x="275.780808" y="308.60624" style="stroke: #000000; stroke-width: 0.8"/>
      </g>
     </g>
     <g id="text_3">
      <!-- Mean Shift -->
      <g transform="translate(258.938961 358.565187) rotate(-45) scale(0.1 -0.1)">
       <defs>
        <path id="DejaVuSans-4d" d="M 628 4666 
L 1569 4666 
L 2759 1491 
L 3956 4666 
L 4897 4666 
L 4897 0 
L 4281 0 
L 4281 4097 
L 3078 897 
L 2444 897 
L 1241 4097 
L 1241 0 
L 628 0 
L 628 4666 
z
" transform="scale(0.015625)"/>
        <path id="DejaVuSans-20" transform="scale(0.015625)"/>
        <path id="DejaVuSans-68" d="M 3513 2113 
L 3513 0 
L 2938 0 
L 2938 2094 
Q 2938 2591 2744 2837 
Q 2550 3084 2163 3084 
Q 1697 3084 1428 2787 
Q 1159 2491 1159 1978 
L 1159 0 
L 581 0 
L 581 4863 
L 1159 4863 
L 1159 2956 
Q 1366 3272 1645 3428 
Q 1925 3584 2291 3584 
Q 2894 3584 3203 3211 
Q 3513 2838 3513 2113 
z
" transform="scale(0.015625)"/>
        <path id="DejaVuSans-66" d="M 2375 4863 
L 2375 4384 
L 1825 4384 
Q 1516 4384 1395 4259 
Q 1275 4134 1275 3809 
L 1275 3500 
L 2222 3500 
L 2222 3053 
L 1275 3053 
L 1275 0 
L 697 0 
L 697 3053 
L 147 3053 
L 147 3500 
L 697 3500 
L 697 3744 
Q 697 4328 969 4595 
Q 1241 4863 1831 4863 
L 2375 4863 
z
" transform="scale(0.015625)"/>
        <path id="DejaVuSans-74" d="M 1172 4494 
L 1172 3500 
L 2356 3500 
L 2356 3053 
L 1172 3053 
L 1172 1153 
Q 1172 725 1289 603 
Q 1406 481 1766 481 
L 2356 481 
L 2356 0 
L 1766 0 
Q 1100 0 847 248 
Q 594 497 594 1153 
L 594 3053 
L 172 3053 
L 172 3500 
L 594 3500 
L 594 4494 
L 1172 4494 
z
" transform="scale(0.015625)"/>
       </defs>
       <use xlink:href="#DejaVuSans-4d"/>
       <use xlink:href="#DejaVuSans-65" x="86.279297"/>
       <use xlink:href="#DejaVuSans-61" x="147.802734"/>
       <use xlink:href="#DejaVuSans-6e" x="209.082031"/>
       <use xlink:href="#DejaVuSans-20" x="272.460938"/>
       <use xlink:href="#DejaVuSans-53" x="304.248047"/>
       <use xlink:href="#DejaVuSans-68" x="367.724609"/>
       <use xlink:href="#DejaVuSans-69" x="431.103516"/>
       <use xlink:href="#DejaVuSans-66" x="458.886719"/>
       <use xlink:href="#DejaVuSans-74" x="492.341797"/>
      </g>
     </g>
    </g>
    <g id="xtick_4">
     <g id="line2d_4">
      <g>
       <use xlink:href="#m48c21a00df" x="370.785132" y="308.60624" style="stroke: #000000; stroke-width: 0.8"/>
      </g>
     </g>
     <g id="text_4">
      <!-- Regression -->
      <g transform="translate(353.399696 359.652364) rotate(-45) scale(0.1 -0.1)">
       <defs>
        <path id="DejaVuSans-52" d="M 2841 2188 
Q 3044 2119 3236 1894 
Q 3428 1669 3622 1275 
L 4263 0 
L 3584 0 
L 2988 1197 
Q 2756 1666 2539 1819 
Q 2322 1972 1947 1972 
L 1259 1972 
L 1259 0 
L 628 0 
L 628 4666 
L 2053 4666 
Q 2853 4666 3247 4331 
Q 3641 3997 3641 3322 
Q 3641 2881 3436 2590 
Q 3231 2300 2841 2188 
z
M 1259 4147 
L 1259 2491 
L 2053 2491 
Q 2509 2491 2742 2702 
Q 2975 2913 2975 3322 
Q 2975 3731 2742 3939 
Q 2509 4147 2053 4147 
L 1259 4147 
z
" transform="scale(0.015625)"/>
        <path id="DejaVuSans-72" d="M 2631 2963 
Q 2534 3019 2420 3045 
Q 2306 3072 2169 3072 
Q 1681 3072 1420 2755 
Q 1159 2438 1159 1844 
L 1159 0 
L 581 0 
L 581 3500 
L 1159 3500 
L 1159 2956 
Q 1341 3275 1631 3429 
Q 1922 3584 2338 3584 
Q 2397 3584 2469 3576 
Q 2541 3569 2628 3553 
L 2631 2963 
z
" transform="scale(0.015625)"/>
        <path id="DejaVuSans-6f" d="M 1959 3097 
Q 1497 3097 1228 2736 
Q 959 2375 959 1747 
Q 959 1119 1226 758 
Q 1494 397 1959 397 
Q 2419 397 2687 759 
Q 2956 1122 2956 1747 
Q 2956 2369 2687 2733 
Q 2419 3097 1959 3097 
z
M 1959 3584 
Q 2709 3584 3137 3096 
Q 3566 2609 3566 1747 
Q 3566 888 3137 398 
Q 2709 -91 1959 -91 
Q 1206 -91 779 398 
Q 353 888 353 1747 
Q 353 2609 779 3096 
Q 1206 3584 1959 3584 
z
" transform="scale(0.015625)"/>
       </defs>
       <use xlink:href="#DejaVuSans-52"/>
       <use xlink:href="#DejaVuSans-65" x="64.982422"/>
       <use xlink:href="#DejaVuSans-67" x="126.505859"/>
       <use xlink:href="#DejaVuSans-72" x="189.982422"/>
       <use xlink:href="#DejaVuSans-65" x="228.845703"/>
       <use xlink:href="#DejaVuSans-73" x="290.369141"/>
       <use xlink:href="#DejaVuSans-73" x="342.46875"/>
       <use xlink:href="#DejaVuSans-69" x="394.568359"/>
       <use xlink:href="#DejaVuSans-6f" x="422.351562"/>
       <use xlink:href="#DejaVuSans-6e" x="483.533203"/>
      </g>
     </g>
    </g>
    <g id="xtick_5">
     <g id="line2d_5">
      <g>
       <use xlink:href="#m48c21a00df" x="465.789455" y="308.60624" style="stroke: #000000; stroke-width: 0.8"/>
      </g>
     </g>
     <g id="text_5">
      <!-- EDI + Cosine Loss -->
      <g transform="translate(435.780506 384.89939) rotate(-45) scale(0.1 -0.1)">
       <defs>
        <path id="DejaVuSans-45" d="M 628 4666 
L 3578 4666 
L 3578 4134 
L 1259 4134 
L 1259 2753 
L 3481 2753 
L 3481 2222 
L 1259 2222 
L 1259 531 
L 3634 531 
L 3634 0 
L 628 0 
L 628 4666 
z
" transform="scale(0.015625)"/>
        <path id="DejaVuSans-44" d="M 1259 4147 
L 1259 519 
L 2022 519 
Q 2988 519 3436 956 
Q 3884 1394 3884 2338 
Q 3884 3275 3436 3711 
Q 2988 4147 2022 4147 
L 1259 4147 
z
M 628 4666 
L 1925 4666 
Q 3281 4666 3915 4102 
Q 4550 3538 4550 2338 
Q 4550 1131 3912 565 
Q 3275 0 1925 0 
L 628 0 
L 628 4666 
z
" transform="scale(0.015625)"/>
        <path id="DejaVuSans-49" d="M 628 4666 
L 1259 4666 
L 1259 0 
L 628 0 
L 628 4666 
z
" transform="scale(0.015625)"/>
        <path id="DejaVuSans-2b" d="M 2944 4013 
L 2944 2272 
L 4684 2272 
L 4684 1741 
L 2944 1741 
L 2944 0 
L 2419 0 
L 2419 1741 
L 678 1741 
L 678 2272 
L 2419 2272 
L 2419 4013 
L 2944 4013 
z
" transform="scale(0.015625)"/>
        <path id="DejaVuSans-43" d="M 4122 4306 
L 4122 3641 
Q 3803 3938 3442 4084 
Q 3081 4231 2675 4231 
Q 1875 4231 1450 3742 
Q 1025 3253 1025 2328 
Q 1025 1406 1450 917 
Q 1875 428 2675 428 
Q 3081 428 3442 575 
Q 3803 722 4122 1019 
L 4122 359 
Q 3791 134 3420 21 
Q 3050 -91 2638 -91 
Q 1578 -91 968 557 
Q 359 1206 359 2328 
Q 359 3453 968 4101 
Q 1578 4750 2638 4750 
Q 3056 4750 3426 4639 
Q 3797 4528 4122 4306 
z
" transform="scale(0.015625)"/>
        <path id="DejaVuSans-4c" d="M 628 4666 
L 1259 4666 
L 1259 531 
L 3531 531 
L 3531 0 
L 628 0 
L 628 4666 
z
" transform="scale(0.015625)"/>
       </defs>
       <use xlink:href="#DejaVuSans-45"/>
       <use xlink:href="#DejaVuSans-44" x="63.183594"/>
       <use xlink:href="#DejaVuSans-49" x="140.185547"/>
       <use xlink:href="#DejaVuSans-20" x="169.677734"/>
       <use xlink:href="#DejaVuSans-2b" x="201.464844"/>
       <use xlink:href="#DejaVuSans-20" x="285.253906"/>
       <use xlink:href="#DejaVuSans-43" x="317.041016"/>
       <use xlink:href="#DejaVuSans-6f" x="386.865234"/>
       <use xlink:href="#DejaVuSans-73" x="448.046875"/>
       <use xlink:href="#DejaVuSans-69" x="500.146484"/>
       <use xlink:href="#DejaVuSans-6e" x="527.929688"/>
       <use xlink:href="#DejaVuSans-65" x="591.308594"/>
       <use xlink:href="#DejaVuSans-20" x="652.832031"/>
       <use xlink:href="#DejaVuSans-4c" x="684.619141"/>
       <use xlink:href="#DejaVuSans-6f" x="738.582031"/>
       <use xlink:href="#DejaVuSans-73" x="799.763672"/>
       <use xlink:href="#DejaVuSans-73" x="851.863281"/>
      </g>
     </g>
    </g>
    <g id="xtick_6">
     <g id="line2d_6">
      <g>
       <use xlink:href="#m48c21a00df" x="560.793778" y="308.60624" style="stroke: #000000; stroke-width: 0.8"/>
      </g>
     </g>
     <g id="text_6">
      <!-- Constrastive MSE Loss -->
      <g transform="translate(523.014941 400.439167) rotate(-45) scale(0.1 -0.1)">
       <defs>
        <path id="DejaVuSans-76" d="M 191 3500 
L 800 3500 
L 1894 563 
L 2988 3500 
L 3597 3500 
L 2284 0 
L 1503 0 
L 191 3500 
z
" transform="scale(0.015625)"/>
       </defs>
       <use xlink:href="#DejaVuSans-43"/>
       <use xlink:href="#DejaVuSans-6f" x="69.824219"/>
       <use xlink:href="#DejaVuSans-6e" x="131.005859"/>
       <use xlink:href="#DejaVuSans-73" x="194.384766"/>
       <use xlink:href="#DejaVuSans-74" x="246.484375"/>
       <use xlink:href="#DejaVuSans-72" x="285.693359"/>
       <use xlink:href="#DejaVuSans-61" x="326.806641"/>
       <use xlink:href="#DejaVuSans-73" x="388.085938"/>
       <use xlink:href="#DejaVuSans-74" x="440.185547"/>
       <use xlink:href="#DejaVuSans-69" x="479.394531"/>
       <use xlink:href="#DejaVuSans-76" x="507.177734"/>
       <use xlink:href="#DejaVuSans-65" x="566.357422"/>
       <use xlink:href="#DejaVuSans-20" x="627.880859"/>
       <use xlink:href="#DejaVuSans-4d" x="659.667969"/>
       <use xlink:href="#DejaVuSans-53" x="745.947266"/>
       <use xlink:href="#DejaVuSans-45" x="809.423828"/>
       <use xlink:href="#DejaVuSans-20" x="872.607422"/>
       <use xlink:href="#DejaVuSans-4c" x="904.394531"/>
       <use xlink:href="#DejaVuSans-6f" x="958.357422"/>
       <use xlink:href="#DejaVuSans-73" x="1019.539062"/>
       <use xlink:href="#DejaVuSans-73" x="1071.638672"/>
      </g>
     </g>
    </g>
    <g id="xtick_7">
     <g id="line2d_7">
      <g>
       <use xlink:href="#m48c21a00df" x="655.798101" y="308.60624" style="stroke: #000000; stroke-width: 0.8"/>
      </g>
     </g>
     <g id="text_7">
      <!-- Contrastive Cosine Loss -->
      <g transform="translate(615.517874 405.441947) rotate(-45) scale(0.1 -0.1)">
       <use xlink:href="#DejaVuSans-43"/>
       <use xlink:href="#DejaVuSans-6f" x="69.824219"/>
       <use xlink:href="#DejaVuSans-6e" x="131.005859"/>
       <use xlink:href="#DejaVuSans-74" x="194.384766"/>
       <use xlink:href="#DejaVuSans-72" x="233.59375"/>
       <use xlink:href="#DejaVuSans-61" x="274.707031"/>
       <use xlink:href="#DejaVuSans-73" x="335.986328"/>
       <use xlink:href="#DejaVuSans-74" x="388.085938"/>
       <use xlink:href="#DejaVuSans-69" x="427.294922"/>
       <use xlink:href="#DejaVuSans-76" x="455.078125"/>
       <use xlink:href="#DejaVuSans-65" x="514.257812"/>
       <use xlink:href="#DejaVuSans-20" x="575.78125"/>
       <use xlink:href="#DejaVuSans-43" x="607.568359"/>
       <use xlink:href="#DejaVuSans-6f" x="677.392578"/>
       <use xlink:href="#DejaVuSans-73" x="738.574219"/>
       <use xlink:href="#DejaVuSans-69" x="790.673828"/>
       <use xlink:href="#DejaVuSans-6e" x="818.457031"/>
       <use xlink:href="#DejaVuSans-65" x="881.835938"/>
       <use xlink:href="#DejaVuSans-20" x="943.359375"/>
       <use xlink:href="#DejaVuSans-4c" x="975.146484"/>
       <use xlink:href="#DejaVuSans-6f" x="1029.109375"/>
       <use xlink:href="#DejaVuSans-73" x="1090.291016"/>
       <use xlink:href="#DejaVuSans-73" x="1142.390625"/>
      </g>
     </g>
    </g>
    <g id="text_8">
     <!-- Method -->
     <g transform="translate(352.032007 418.510946) scale(0.1 -0.1)">
      <defs>
       <path id="DejaVuSans-64" d="M 2906 2969 
L 2906 4863 
L 3481 4863 
L 3481 0 
L 2906 0 
L 2906 525 
Q 2725 213 2448 61 
Q 2172 -91 1784 -91 
Q 1150 -91 751 415 
Q 353 922 353 1747 
Q 353 2572 751 3078 
Q 1150 3584 1784 3584 
Q 2172 3584 2448 3432 
Q 2725 3281 2906 2969 
z
M 947 1747 
Q 947 1113 1208 752 
Q 1469 391 1925 391 
Q 2381 391 2643 752 
Q 2906 1113 2906 1747 
Q 2906 2381 2643 2742 
Q 2381 3103 1925 3103 
Q 1469 3103 1208 2742 
Q 947 2381 947 1747 
z
" transform="scale(0.015625)"/>
      </defs>
      <use xlink:href="#DejaVuSans-4d"/>
      <use xlink:href="#DejaVuSans-65" x="86.279297"/>
      <use xlink:href="#DejaVuSans-74" x="147.802734"/>
      <use xlink:href="#DejaVuSans-68" x="187.011719"/>
      <use xlink:href="#DejaVuSans-6f" x="250.390625"/>
      <use xlink:href="#DejaVuSans-64" x="311.572266"/>
     </g>
    </g>
   </g>
   <g id="matplotlib.axis_2">
    <g id="ytick_1">
     <g id="line2d_8">
      <defs>
       <path id="m43a7918ca1" d="M 0 0 
L -3.5 0 
" style="stroke: #000000; stroke-width: 0.8"/>
      </defs>
      <g>
       <use xlink:href="#m43a7918ca1" x="38.27" y="61.305948" style="stroke: #000000; stroke-width: 0.8"/>
      </g>
     </g>
     <g id="text_9">
      <!-- 2 -->
      <g transform="translate(24.9075 65.105166) scale(0.1 -0.1)">
       <defs>
        <path id="DejaVuSans-32" d="M 1228 531 
L 3431 531 
L 3431 0 
L 469 0 
L 469 531 
Q 828 903 1448 1529 
Q 2069 2156 2228 2338 
Q 2531 2678 2651 2914 
Q 2772 3150 2772 3378 
Q 2772 3750 2511 3984 
Q 2250 4219 1831 4219 
Q 1534 4219 1204 4116 
Q 875 4013 500 3803 
L 500 4441 
Q 881 4594 1212 4672 
Q 1544 4750 1819 4750 
Q 2544 4750 2975 4387 
Q 3406 4025 3406 3419 
Q 3406 3131 3298 2873 
Q 3191 2616 2906 2266 
Q 2828 2175 2409 1742 
Q 1991 1309 1228 531 
z
" transform="scale(0.015625)"/>
       </defs>
       <use xlink:href="#DejaVuSans-32"/>
      </g>
     </g>
    </g>
    <g id="ytick_2">
     <g id="line2d_9">
      <g>
       <use xlink:href="#m43a7918ca1" x="38.27" y="100.018793" style="stroke: #000000; stroke-width: 0.8"/>
      </g>
     </g>
     <g id="text_10">
      <!-- 3 -->
      <g transform="translate(24.9075 103.818012) scale(0.1 -0.1)">
       <defs>
        <path id="DejaVuSans-33" d="M 2597 2516 
Q 3050 2419 3304 2112 
Q 3559 1806 3559 1356 
Q 3559 666 3084 287 
Q 2609 -91 1734 -91 
Q 1441 -91 1130 -33 
Q 819 25 488 141 
L 488 750 
Q 750 597 1062 519 
Q 1375 441 1716 441 
Q 2309 441 2620 675 
Q 2931 909 2931 1356 
Q 2931 1769 2642 2001 
Q 2353 2234 1838 2234 
L 1294 2234 
L 1294 2753 
L 1863 2753 
Q 2328 2753 2575 2939 
Q 2822 3125 2822 3475 
Q 2822 3834 2567 4026 
Q 2313 4219 1838 4219 
Q 1578 4219 1281 4162 
Q 984 4106 628 3988 
L 628 4550 
Q 988 4650 1302 4700 
Q 1616 4750 1894 4750 
Q 2613 4750 3031 4423 
Q 3450 4097 3450 3541 
Q 3450 3153 3228 2886 
Q 3006 2619 2597 2516 
z
" transform="scale(0.015625)"/>
       </defs>
       <use xlink:href="#DejaVuSans-33"/>
      </g>
     </g>
    </g>
    <g id="ytick_3">
     <g id="line2d_10">
      <g>
       <use xlink:href="#m43a7918ca1" x="38.27" y="138.731639" style="stroke: #000000; stroke-width: 0.8"/>
      </g>
     </g>
     <g id="text_11">
      <!-- 4 -->
      <g transform="translate(24.9075 142.530857) scale(0.1 -0.1)">
       <defs>
        <path id="DejaVuSans-34" d="M 2419 4116 
L 825 1625 
L 2419 1625 
L 2419 4116 
z
M 2253 4666 
L 3047 4666 
L 3047 1625 
L 3713 1625 
L 3713 1100 
L 3047 1100 
L 3047 0 
L 2419 0 
L 2419 1100 
L 313 1100 
L 313 1709 
L 2253 4666 
z
" transform="scale(0.015625)"/>
       </defs>
       <use xlink:href="#DejaVuSans-34"/>
      </g>
     </g>
    </g>
    <g id="ytick_4">
     <g id="line2d_11">
      <g>
       <use xlink:href="#m43a7918ca1" x="38.27" y="177.444484" style="stroke: #000000; stroke-width: 0.8"/>
      </g>
     </g>
     <g id="text_12">
      <!-- 5 -->
      <g transform="translate(24.9075 181.243703) scale(0.1 -0.1)">
       <defs>
        <path id="DejaVuSans-35" d="M 691 4666 
L 3169 4666 
L 3169 4134 
L 1269 4134 
L 1269 2991 
Q 1406 3038 1543 3061 
Q 1681 3084 1819 3084 
Q 2600 3084 3056 2656 
Q 3513 2228 3513 1497 
Q 3513 744 3044 326 
Q 2575 -91 1722 -91 
Q 1428 -91 1123 -41 
Q 819 9 494 109 
L 494 744 
Q 775 591 1075 516 
Q 1375 441 1709 441 
Q 2250 441 2565 725 
Q 2881 1009 2881 1497 
Q 2881 1984 2565 2268 
Q 2250 2553 1709 2553 
Q 1456 2553 1204 2497 
Q 953 2441 691 2322 
L 691 4666 
z
" transform="scale(0.015625)"/>
       </defs>
       <use xlink:href="#DejaVuSans-35"/>
      </g>
     </g>
    </g>
    <g id="ytick_5">
     <g id="line2d_12">
      <g>
       <use xlink:href="#m43a7918ca1" x="38.27" y="216.15733" style="stroke: #000000; stroke-width: 0.8"/>
      </g>
     </g>
     <g id="text_13">
      <!-- 6 -->
      <g transform="translate(24.9075 219.956549) scale(0.1 -0.1)">
       <defs>
        <path id="DejaVuSans-36" d="M 2113 2584 
Q 1688 2584 1439 2293 
Q 1191 2003 1191 1497 
Q 1191 994 1439 701 
Q 1688 409 2113 409 
Q 2538 409 2786 701 
Q 3034 994 3034 1497 
Q 3034 2003 2786 2293 
Q 2538 2584 2113 2584 
z
M 3366 4563 
L 3366 3988 
Q 3128 4100 2886 4159 
Q 2644 4219 2406 4219 
Q 1781 4219 1451 3797 
Q 1122 3375 1075 2522 
Q 1259 2794 1537 2939 
Q 1816 3084 2150 3084 
Q 2853 3084 3261 2657 
Q 3669 2231 3669 1497 
Q 3669 778 3244 343 
Q 2819 -91 2113 -91 
Q 1303 -91 875 529 
Q 447 1150 447 2328 
Q 447 3434 972 4092 
Q 1497 4750 2381 4750 
Q 2619 4750 2861 4703 
Q 3103 4656 3366 4563 
z
" transform="scale(0.015625)"/>
       </defs>
       <use xlink:href="#DejaVuSans-36"/>
      </g>
     </g>
    </g>
    <g id="ytick_6">
     <g id="line2d_13">
      <g>
       <use xlink:href="#m43a7918ca1" x="38.27" y="254.870175" style="stroke: #000000; stroke-width: 0.8"/>
      </g>
     </g>
     <g id="text_14">
      <!-- 7 -->
      <g transform="translate(24.9075 258.669394) scale(0.1 -0.1)">
       <defs>
        <path id="DejaVuSans-37" d="M 525 4666 
L 3525 4666 
L 3525 4397 
L 1831 0 
L 1172 0 
L 2766 4134 
L 525 4134 
L 525 4666 
z
" transform="scale(0.015625)"/>
       </defs>
       <use xlink:href="#DejaVuSans-37"/>
      </g>
     </g>
    </g>
    <g id="ytick_7">
     <g id="line2d_14">
      <g>
       <use xlink:href="#m43a7918ca1" x="38.27" y="293.583021" style="stroke: #000000; stroke-width: 0.8"/>
      </g>
     </g>
     <g id="text_15">
      <!-- 8 -->
      <g transform="translate(24.9075 297.38224) scale(0.1 -0.1)">
       <defs>
        <path id="DejaVuSans-38" d="M 2034 2216 
Q 1584 2216 1326 1975 
Q 1069 1734 1069 1313 
Q 1069 891 1326 650 
Q 1584 409 2034 409 
Q 2484 409 2743 651 
Q 3003 894 3003 1313 
Q 3003 1734 2745 1975 
Q 2488 2216 2034 2216 
z
M 1403 2484 
Q 997 2584 770 2862 
Q 544 3141 544 3541 
Q 544 4100 942 4425 
Q 1341 4750 2034 4750 
Q 2731 4750 3128 4425 
Q 3525 4100 3525 3541 
Q 3525 3141 3298 2862 
Q 3072 2584 2669 2484 
Q 3125 2378 3379 2068 
Q 3634 1759 3634 1313 
Q 3634 634 3220 271 
Q 2806 -91 2034 -91 
Q 1263 -91 848 271 
Q 434 634 434 1313 
Q 434 1759 690 2068 
Q 947 2378 1403 2484 
z
M 1172 3481 
Q 1172 3119 1398 2916 
Q 1625 2713 2034 2713 
Q 2441 2713 2670 2916 
Q 2900 3119 2900 3481 
Q 2900 3844 2670 4047 
Q 2441 4250 2034 4250 
Q 1625 4250 1398 4047 
Q 1172 3844 1172 3481 
z
" transform="scale(0.015625)"/>
       </defs>
       <use xlink:href="#DejaVuSans-38"/>
      </g>
     </g>
    </g>
    <g id="text_16">
     <!-- Euclidean Distance -->
     <g transform="translate(18.827813 215.173745) rotate(-90) scale(0.1 -0.1)">
      <defs>
       <path id="DejaVuSans-75" d="M 544 1381 
L 544 3500 
L 1119 3500 
L 1119 1403 
Q 1119 906 1312 657 
Q 1506 409 1894 409 
Q 2359 409 2629 706 
Q 2900 1003 2900 1516 
L 2900 3500 
L 3475 3500 
L 3475 0 
L 2900 0 
L 2900 538 
Q 2691 219 2414 64 
Q 2138 -91 1772 -91 
Q 1169 -91 856 284 
Q 544 659 544 1381 
z
M 1991 3584 
L 1991 3584 
z
" transform="scale(0.015625)"/>
       <path id="DejaVuSans-63" d="M 3122 3366 
L 3122 2828 
Q 2878 2963 2633 3030 
Q 2388 3097 2138 3097 
Q 1578 3097 1268 2742 
Q 959 2388 959 1747 
Q 959 1106 1268 751 
Q 1578 397 2138 397 
Q 2388 397 2633 464 
Q 2878 531 3122 666 
L 3122 134 
Q 2881 22 2623 -34 
Q 2366 -91 2075 -91 
Q 1284 -91 818 406 
Q 353 903 353 1747 
Q 353 2603 823 3093 
Q 1294 3584 2113 3584 
Q 2378 3584 2631 3529 
Q 2884 3475 3122 3366 
z
" transform="scale(0.015625)"/>
      </defs>
      <use xlink:href="#DejaVuSans-45"/>
      <use xlink:href="#DejaVuSans-75" x="63.183594"/>
      <use xlink:href="#DejaVuSans-63" x="126.5625"/>
      <use xlink:href="#DejaVuSans-6c" x="181.542969"/>
      <use xlink:href="#DejaVuSans-69" x="209.326172"/>
      <use xlink:href="#DejaVuSans-64" x="237.109375"/>
      <use xlink:href="#DejaVuSans-65" x="300.585938"/>
      <use xlink:href="#DejaVuSans-61" x="362.109375"/>
      <use xlink:href="#DejaVuSans-6e" x="423.388672"/>
      <use xlink:href="#DejaVuSans-20" x="486.767578"/>
      <use xlink:href="#DejaVuSans-44" x="518.554688"/>
      <use xlink:href="#DejaVuSans-69" x="595.556641"/>
      <use xlink:href="#DejaVuSans-73" x="623.339844"/>
      <use xlink:href="#DejaVuSans-74" x="675.439453"/>
      <use xlink:href="#DejaVuSans-61" x="714.648438"/>
      <use xlink:href="#DejaVuSans-6e" x="775.927734"/>
      <use xlink:href="#DejaVuSans-63" x="839.306641"/>
      <use xlink:href="#DejaVuSans-65" x="894.287109"/>
     </g>
    </g>
   </g>
   <g id="patch_3">
    <path d="M 47.770432 104.665059 
L 123.773891 104.665059 
L 123.773891 147.93222 
L 47.770432 147.93222 
L 47.770432 104.665059 
z
" clip-path="url(#p862753e3a4)" style="fill: #3274a1; stroke: #3d3d3d; stroke-linejoin: miter"/>
   </g>
   <g id="line2d_15">
    <path d="M 85.772162 104.665059 
L 85.772162 60.5624 
" clip-path="url(#p862753e3a4)" style="fill: none; stroke: #3d3d3d"/>
   </g>
   <g id="line2d_16">
    <path d="M 85.772162 147.93222 
L 85.772162 211.131691 
" clip-path="url(#p862753e3a4)" style="fill: none; stroke: #3d3d3d"/>
   </g>
   <g id="line2d_17">
    <path d="M 66.771297 60.5624 
L 104.773026 60.5624 
" clip-path="url(#p862753e3a4)" style="fill: none; stroke: #3d3d3d; stroke-linecap: square"/>
   </g>
   <g id="line2d_18">
    <path d="M 66.771297 211.131691 
L 104.773026 211.131691 
" clip-path="url(#p862753e3a4)" style="fill: none; stroke: #3d3d3d; stroke-linecap: square"/>
   </g>
   <g id="line2d_19">
    <defs>
     <path id="m3ef50deec8" d="M 0 3 
C 0.795609 3 1.55874 2.683901 2.12132 2.12132 
C 2.683901 1.55874 3 0.795609 3 0 
C 3 -0.795609 2.683901 -1.55874 2.12132 -2.12132 
C 1.55874 -2.683901 0.795609 -3 0 -3 
C -0.795609 -3 -1.55874 -2.683901 -2.12132 -2.12132 
C -2.683901 -1.55874 -3 -0.795609 -3 0 
C -3 0.795609 -2.683901 1.55874 -2.12132 2.12132 
C -1.55874 2.683901 -0.795609 3 0 3 
z
" style="stroke: #3d3d3d"/>
    </defs>
    <g clip-path="url(#p862753e3a4)">
     <use xlink:href="#m3ef50deec8" x="85.772162" y="228.934103" style="fill-opacity: 0; stroke: #3d3d3d"/>
     <use xlink:href="#m3ef50deec8" x="85.772162" y="214.735744" style="fill-opacity: 0; stroke: #3d3d3d"/>
    </g>
   </g>
   <g id="patch_4">
    <path d="M 142.774756 111.571076 
L 218.778214 111.571076 
L 218.778214 152.971349 
L 142.774756 152.971349 
L 142.774756 111.571076 
z
" clip-path="url(#p862753e3a4)" style="fill: #e1812c; stroke: #3d3d3d; stroke-linejoin: miter"/>
   </g>
   <g id="line2d_20">
    <path d="M 180.776485 111.571076 
L 180.776485 77.617195 
" clip-path="url(#p862753e3a4)" style="fill: none; stroke: #3d3d3d"/>
   </g>
   <g id="line2d_21">
    <path d="M 180.776485 152.971349 
L 180.776485 213.593418 
" clip-path="url(#p862753e3a4)" style="fill: none; stroke: #3d3d3d"/>
   </g>
   <g id="line2d_22">
    <path d="M 161.77562 77.617195 
L 199.77735 77.617195 
" clip-path="url(#p862753e3a4)" style="fill: none; stroke: #3d3d3d; stroke-linecap: square"/>
   </g>
   <g id="line2d_23">
    <path d="M 161.77562 213.593418 
L 199.77735 213.593418 
" clip-path="url(#p862753e3a4)" style="fill: none; stroke: #3d3d3d; stroke-linecap: square"/>
   </g>
   <g id="line2d_24">
    <g clip-path="url(#p862753e3a4)">
     <use xlink:href="#m3ef50deec8" x="180.776485" y="229.630365" style="fill-opacity: 0; stroke: #3d3d3d"/>
     <use xlink:href="#m3ef50deec8" x="180.776485" y="216.080892" style="fill-opacity: 0; stroke: #3d3d3d"/>
     <use xlink:href="#m3ef50deec8" x="180.776485" y="215.421883" style="fill-opacity: 0; stroke: #3d3d3d"/>
    </g>
   </g>
   <g id="patch_5">
    <path d="M 237.779079 84.609689 
L 313.782538 84.609689 
L 313.782538 129.212323 
L 237.779079 129.212323 
L 237.779079 84.609689 
z
" clip-path="url(#p862753e3a4)" style="fill: #3a923a; stroke: #3d3d3d; stroke-linejoin: miter"/>
   </g>
   <g id="line2d_25">
    <path d="M 275.780808 84.609689 
L 275.780808 38.998465 
" clip-path="url(#p862753e3a4)" style="fill: none; stroke: #3d3d3d"/>
   </g>
   <g id="line2d_26">
    <path d="M 275.780808 129.212323 
L 275.780808 193.541096 
" clip-path="url(#p862753e3a4)" style="fill: none; stroke: #3d3d3d"/>
   </g>
   <g id="line2d_27">
    <path d="M 256.779944 38.998465 
L 294.781673 38.998465 
" clip-path="url(#p862753e3a4)" style="fill: none; stroke: #3d3d3d; stroke-linecap: square"/>
   </g>
   <g id="line2d_28">
    <path d="M 256.779944 193.541096 
L 294.781673 193.541096 
" clip-path="url(#p862753e3a4)" style="fill: none; stroke: #3d3d3d; stroke-linecap: square"/>
   </g>
   <g id="line2d_29">
    <g clip-path="url(#p862753e3a4)">
     <use xlink:href="#m3ef50deec8" x="275.780808" y="217.653151" style="fill-opacity: 0; stroke: #3d3d3d"/>
     <use xlink:href="#m3ef50deec8" x="275.780808" y="206.313425" style="fill-opacity: 0; stroke: #3d3d3d"/>
     <use xlink:href="#m3ef50deec8" x="275.780808" y="213.885414" style="fill-opacity: 0; stroke: #3d3d3d"/>
     <use xlink:href="#m3ef50deec8" x="275.780808" y="198.963566" style="fill-opacity: 0; stroke: #3d3d3d"/>
    </g>
   </g>
   <g id="patch_6">
    <path d="M 332.783402 80.67863 
L 408.786861 80.67863 
L 408.786861 121.168683 
L 332.783402 121.168683 
L 332.783402 80.67863 
z
" clip-path="url(#p862753e3a4)" style="fill: #c03d3e; stroke: #3d3d3d; stroke-linejoin: miter"/>
   </g>
   <g id="line2d_30">
    <path d="M 370.785132 80.67863 
L 370.785132 43.456353 
" clip-path="url(#p862753e3a4)" style="fill: none; stroke: #3d3d3d"/>
   </g>
   <g id="line2d_31">
    <path d="M 370.785132 121.168683 
L 370.785132 178.096586 
" clip-path="url(#p862753e3a4)" style="fill: none; stroke: #3d3d3d"/>
   </g>
   <g id="line2d_32">
    <path d="M 351.784267 43.456353 
L 389.785996 43.456353 
" clip-path="url(#p862753e3a4)" style="fill: none; stroke: #3d3d3d; stroke-linecap: square"/>
   </g>
   <g id="line2d_33">
    <path d="M 351.784267 178.096586 
L 389.785996 178.096586 
" clip-path="url(#p862753e3a4)" style="fill: none; stroke: #3d3d3d; stroke-linecap: square"/>
   </g>
   <g id="line2d_34">
    <g clip-path="url(#p862753e3a4)">
     <use xlink:href="#m3ef50deec8" x="370.785132" y="219.195066" style="fill-opacity: 0; stroke: #3d3d3d"/>
     <use xlink:href="#m3ef50deec8" x="370.785132" y="192.610536" style="fill-opacity: 0; stroke: #3d3d3d"/>
     <use xlink:href="#m3ef50deec8" x="370.785132" y="200.1689" style="fill-opacity: 0; stroke: #3d3d3d"/>
    </g>
   </g>
   <g id="patch_7">
    <path d="M 427.787725 101.663771 
L 503.791184 101.663771 
L 503.791184 140.80937 
L 427.787725 140.80937 
L 427.787725 101.663771 
z
" clip-path="url(#p862753e3a4)" style="fill: #9372b2; stroke: #3d3d3d; stroke-linejoin: miter"/>
   </g>
   <g id="line2d_35">
    <path d="M 465.789455 101.663771 
L 465.789455 51.23932 
" clip-path="url(#p862753e3a4)" style="fill: none; stroke: #3d3d3d"/>
   </g>
   <g id="line2d_36">
    <path d="M 465.789455 140.80937 
L 465.789455 198.614245 
" clip-path="url(#p862753e3a4)" style="fill: none; stroke: #3d3d3d"/>
   </g>
   <g id="line2d_37">
    <path d="M 446.78859 51.23932 
L 484.790319 51.23932 
" clip-path="url(#p862753e3a4)" style="fill: none; stroke: #3d3d3d; stroke-linecap: square"/>
   </g>
   <g id="line2d_38">
    <path d="M 446.78859 198.614245 
L 484.790319 198.614245 
" clip-path="url(#p862753e3a4)" style="fill: none; stroke: #3d3d3d; stroke-linecap: square"/>
   </g>
   <g id="line2d_39">
    <g clip-path="url(#p862753e3a4)">
     <use xlink:href="#m3ef50deec8" x="465.789455" y="218.18935" style="fill-opacity: 0; stroke: #3d3d3d"/>
     <use xlink:href="#m3ef50deec8" x="465.789455" y="225.777738" style="fill-opacity: 0; stroke: #3d3d3d"/>
     <use xlink:href="#m3ef50deec8" x="465.789455" y="204.009201" style="fill-opacity: 0; stroke: #3d3d3d"/>
     <use xlink:href="#m3ef50deec8" x="465.789455" y="206.798776" style="fill-opacity: 0; stroke: #3d3d3d"/>
     <use xlink:href="#m3ef50deec8" x="465.789455" y="209.231011" style="fill-opacity: 0; stroke: #3d3d3d"/>
     <use xlink:href="#m3ef50deec8" x="465.789455" y="253.803376" style="fill-opacity: 0; stroke: #3d3d3d"/>
    </g>
   </g>
   <g id="patch_8">
    <path d="M 522.792049 106.867071 
L 598.795507 106.867071 
L 598.795507 143.313396 
L 522.792049 143.313396 
L 522.792049 106.867071 
z
" clip-path="url(#p862753e3a4)" style="fill: #845b53; stroke: #3d3d3d; stroke-linejoin: miter"/>
   </g>
   <g id="line2d_40">
    <path d="M 560.793778 106.867071 
L 560.793778 54.749857 
" clip-path="url(#p862753e3a4)" style="fill: none; stroke: #3d3d3d"/>
   </g>
   <g id="line2d_41">
    <path d="M 560.793778 143.313396 
L 560.793778 195.650164 
" clip-path="url(#p862753e3a4)" style="fill: none; stroke: #3d3d3d"/>
   </g>
   <g id="line2d_42">
    <path d="M 541.792913 54.749857 
L 579.794643 54.749857 
" clip-path="url(#p862753e3a4)" style="fill: none; stroke: #3d3d3d; stroke-linecap: square"/>
   </g>
   <g id="line2d_43">
    <path d="M 541.792913 195.650164 
L 579.794643 195.650164 
" clip-path="url(#p862753e3a4)" style="fill: none; stroke: #3d3d3d; stroke-linecap: square"/>
   </g>
   <g id="line2d_44">
    <g clip-path="url(#p862753e3a4)">
     <use xlink:href="#m3ef50deec8" x="560.793778" y="218.478531" style="fill-opacity: 0; stroke: #3d3d3d"/>
     <use xlink:href="#m3ef50deec8" x="560.793778" y="230.604011" style="fill-opacity: 0; stroke: #3d3d3d"/>
     <use xlink:href="#m3ef50deec8" x="560.793778" y="214.668405" style="fill-opacity: 0; stroke: #3d3d3d"/>
     <use xlink:href="#m3ef50deec8" x="560.793778" y="211.420469" style="fill-opacity: 0; stroke: #3d3d3d"/>
     <use xlink:href="#m3ef50deec8" x="560.793778" y="260.285983" style="fill-opacity: 0; stroke: #3d3d3d"/>
    </g>
   </g>
   <g id="patch_9">
    <path d="M 617.796372 153.970897 
L 693.799831 153.970897 
L 693.799831 198.046162 
L 617.796372 198.046162 
L 617.796372 153.970897 
z
" clip-path="url(#p862753e3a4)" style="fill: #d684bd; stroke: #3d3d3d; stroke-linejoin: miter"/>
   </g>
   <g id="line2d_45">
    <path d="M 655.798101 153.970897 
L 655.798101 97.314299 
" clip-path="url(#p862753e3a4)" style="fill: none; stroke: #3d3d3d"/>
   </g>
   <g id="line2d_46">
    <path d="M 655.798101 198.046162 
L 655.798101 264.158052 
" clip-path="url(#p862753e3a4)" style="fill: none; stroke: #3d3d3d"/>
   </g>
   <g id="line2d_47">
    <path d="M 636.797237 97.314299 
L 674.798966 97.314299 
" clip-path="url(#p862753e3a4)" style="fill: none; stroke: #3d3d3d; stroke-linecap: square"/>
   </g>
   <g id="line2d_48">
    <path d="M 636.797237 264.158052 
L 674.798966 264.158052 
" clip-path="url(#p862753e3a4)" style="fill: none; stroke: #3d3d3d; stroke-linecap: square"/>
   </g>
   <g id="line2d_49">
    <g clip-path="url(#p862753e3a4)">
     <use xlink:href="#m3ef50deec8" x="655.798101" y="85.824472" style="fill-opacity: 0; stroke: #3d3d3d"/>
     <use xlink:href="#m3ef50deec8" x="655.798101" y="81.207761" style="fill-opacity: 0; stroke: #3d3d3d"/>
     <use xlink:href="#m3ef50deec8" x="655.798101" y="277.95384" style="fill-opacity: 0; stroke: #3d3d3d"/>
     <use xlink:href="#m3ef50deec8" x="655.798101" y="269.012389" style="fill-opacity: 0; stroke: #3d3d3d"/>
     <use xlink:href="#m3ef50deec8" x="655.798101" y="291.186649" style="fill-opacity: 0; stroke: #3d3d3d"/>
     <use xlink:href="#m3ef50deec8" x="655.798101" y="291.191302" style="fill-opacity: 0; stroke: #3d3d3d"/>
     <use xlink:href="#m3ef50deec8" x="655.798101" y="295.767775" style="fill-opacity: 0; stroke: #3d3d3d"/>
     <use xlink:href="#m3ef50deec8" x="655.798101" y="287.158928" style="fill-opacity: 0; stroke: #3d3d3d"/>
     <use xlink:href="#m3ef50deec8" x="655.798101" y="268.463632" style="fill-opacity: 0; stroke: #3d3d3d"/>
    </g>
   </g>
   <g id="line2d_50">
    <path d="M 47.770432 123.114987 
L 123.773891 123.114987 
" clip-path="url(#p862753e3a4)" style="fill: none; stroke: #3d3d3d"/>
   </g>
   <g id="line2d_51">
    <path d="M 142.774756 131.228646 
L 218.778214 131.228646 
" clip-path="url(#p862753e3a4)" style="fill: none; stroke: #3d3d3d"/>
   </g>
   <g id="line2d_52">
    <path d="M 237.779079 105.830902 
L 313.782538 105.830902 
" clip-path="url(#p862753e3a4)" style="fill: none; stroke: #3d3d3d"/>
   </g>
   <g id="line2d_53">
    <path d="M 332.783402 100.037295 
L 408.786861 100.037295 
" clip-path="url(#p862753e3a4)" style="fill: none; stroke: #3d3d3d"/>
   </g>
   <g id="line2d_54">
    <path d="M 427.787725 120.002735 
L 503.791184 120.002735 
" clip-path="url(#p862753e3a4)" style="fill: none; stroke: #3d3d3d"/>
   </g>
   <g id="line2d_55">
    <path d="M 522.792049 124.238617 
L 598.795507 124.238617 
" clip-path="url(#p862753e3a4)" style="fill: none; stroke: #3d3d3d"/>
   </g>
   <g id="line2d_56">
    <path d="M 617.796372 174.565991 
L 693.799831 174.565991 
" clip-path="url(#p862753e3a4)" style="fill: none; stroke: #3d3d3d"/>
   </g>
   <g id="patch_10">
    <path d="M 38.27 308.60624 
L 38.27 26.16 
" style="fill: none; stroke: #000000; stroke-width: 0.8; stroke-linejoin: miter; stroke-linecap: square"/>
   </g>
   <g id="patch_11">
    <path d="M 703.300263 308.60624 
L 703.300263 26.16 
" style="fill: none; stroke: #000000; stroke-width: 0.8; stroke-linejoin: miter; stroke-linecap: square"/>
   </g>
   <g id="patch_12">
    <path d="M 38.27 308.60624 
L 703.300263 308.60624 
" style="fill: none; stroke: #000000; stroke-width: 0.8; stroke-linejoin: miter; stroke-linecap: square"/>
   </g>
   <g id="patch_13">
    <path d="M 38.27 26.16 
L 703.300263 26.16 
" style="fill: none; stroke: #000000; stroke-width: 0.8; stroke-linejoin: miter; stroke-linecap: square"/>
   </g>
   <g id="text_17">
    <!-- Comparison of Embedding Euclidean Distance Across Methods: intensifier -->
    <g transform="translate(149.005444 20.16) scale(0.12 -0.12)">
     <defs>
      <path id="DejaVuSans-62" d="M 3116 1747 
Q 3116 2381 2855 2742 
Q 2594 3103 2138 3103 
Q 1681 3103 1420 2742 
Q 1159 2381 1159 1747 
Q 1159 1113 1420 752 
Q 1681 391 2138 391 
Q 2594 391 2855 752 
Q 3116 1113 3116 1747 
z
M 1159 2969 
Q 1341 3281 1617 3432 
Q 1894 3584 2278 3584 
Q 2916 3584 3314 3078 
Q 3713 2572 3713 1747 
Q 3713 922 3314 415 
Q 2916 -91 2278 -91 
Q 1894 -91 1617 61 
Q 1341 213 1159 525 
L 1159 0 
L 581 0 
L 581 4863 
L 1159 4863 
L 1159 2969 
z
" transform="scale(0.015625)"/>
      <path id="DejaVuSans-41" d="M 2188 4044 
L 1331 1722 
L 3047 1722 
L 2188 4044 
z
M 1831 4666 
L 2547 4666 
L 4325 0 
L 3669 0 
L 3244 1197 
L 1141 1197 
L 716 0 
L 50 0 
L 1831 4666 
z
" transform="scale(0.015625)"/>
      <path id="DejaVuSans-3a" d="M 750 794 
L 1409 794 
L 1409 0 
L 750 0 
L 750 794 
z
M 750 3309 
L 1409 3309 
L 1409 2516 
L 750 2516 
L 750 3309 
z
" transform="scale(0.015625)"/>
     </defs>
     <use xlink:href="#DejaVuSans-43"/>
     <use xlink:href="#DejaVuSans-6f" x="69.824219"/>
     <use xlink:href="#DejaVuSans-6d" x="131.005859"/>
     <use xlink:href="#DejaVuSans-70" x="228.417969"/>
     <use xlink:href="#DejaVuSans-61" x="291.894531"/>
     <use xlink:href="#DejaVuSans-72" x="353.173828"/>
     <use xlink:href="#DejaVuSans-69" x="394.287109"/>
     <use xlink:href="#DejaVuSans-73" x="422.070312"/>
     <use xlink:href="#DejaVuSans-6f" x="474.169922"/>
     <use xlink:href="#DejaVuSans-6e" x="535.351562"/>
     <use xlink:href="#DejaVuSans-20" x="598.730469"/>
     <use xlink:href="#DejaVuSans-6f" x="630.517578"/>
     <use xlink:href="#DejaVuSans-66" x="691.699219"/>
     <use xlink:href="#DejaVuSans-20" x="726.904297"/>
     <use xlink:href="#DejaVuSans-45" x="758.691406"/>
     <use xlink:href="#DejaVuSans-6d" x="821.875"/>
     <use xlink:href="#DejaVuSans-62" x="919.287109"/>
     <use xlink:href="#DejaVuSans-65" x="982.763672"/>
     <use xlink:href="#DejaVuSans-64" x="1044.287109"/>
     <use xlink:href="#DejaVuSans-64" x="1107.763672"/>
     <use xlink:href="#DejaVuSans-69" x="1171.240234"/>
     <use xlink:href="#DejaVuSans-6e" x="1199.023438"/>
     <use xlink:href="#DejaVuSans-67" x="1262.402344"/>
     <use xlink:href="#DejaVuSans-20" x="1325.878906"/>
     <use xlink:href="#DejaVuSans-45" x="1357.666016"/>
     <use xlink:href="#DejaVuSans-75" x="1420.849609"/>
     <use xlink:href="#DejaVuSans-63" x="1484.228516"/>
     <use xlink:href="#DejaVuSans-6c" x="1539.208984"/>
     <use xlink:href="#DejaVuSans-69" x="1566.992188"/>
     <use xlink:href="#DejaVuSans-64" x="1594.775391"/>
     <use xlink:href="#DejaVuSans-65" x="1658.251953"/>
     <use xlink:href="#DejaVuSans-61" x="1719.775391"/>
     <use xlink:href="#DejaVuSans-6e" x="1781.054688"/>
     <use xlink:href="#DejaVuSans-20" x="1844.433594"/>
     <use xlink:href="#DejaVuSans-44" x="1876.220703"/>
     <use xlink:href="#DejaVuSans-69" x="1953.222656"/>
     <use xlink:href="#DejaVuSans-73" x="1981.005859"/>
     <use xlink:href="#DejaVuSans-74" x="2033.105469"/>
     <use xlink:href="#DejaVuSans-61" x="2072.314453"/>
     <use xlink:href="#DejaVuSans-6e" x="2133.59375"/>
     <use xlink:href="#DejaVuSans-63" x="2196.972656"/>
     <use xlink:href="#DejaVuSans-65" x="2251.953125"/>
     <use xlink:href="#DejaVuSans-20" x="2313.476562"/>
     <use xlink:href="#DejaVuSans-41" x="2345.263672"/>
     <use xlink:href="#DejaVuSans-63" x="2411.921875"/>
     <use xlink:href="#DejaVuSans-72" x="2466.902344"/>
     <use xlink:href="#DejaVuSans-6f" x="2505.765625"/>
     <use xlink:href="#DejaVuSans-73" x="2566.947266"/>
     <use xlink:href="#DejaVuSans-73" x="2619.046875"/>
     <use xlink:href="#DejaVuSans-20" x="2671.146484"/>
     <use xlink:href="#DejaVuSans-4d" x="2702.933594"/>
     <use xlink:href="#DejaVuSans-65" x="2789.212891"/>
     <use xlink:href="#DejaVuSans-74" x="2850.736328"/>
     <use xlink:href="#DejaVuSans-68" x="2889.945312"/>
     <use xlink:href="#DejaVuSans-6f" x="2953.324219"/>
     <use xlink:href="#DejaVuSans-64" x="3014.505859"/>
     <use xlink:href="#DejaVuSans-73" x="3077.982422"/>
     <use xlink:href="#DejaVuSans-3a" x="3130.082031"/>
     <use xlink:href="#DejaVuSans-20" x="3163.773438"/>
     <use xlink:href="#DejaVuSans-69" x="3195.560547"/>
     <use xlink:href="#DejaVuSans-6e" x="3223.34375"/>
     <use xlink:href="#DejaVuSans-74" x="3286.722656"/>
     <use xlink:href="#DejaVuSans-65" x="3325.931641"/>
     <use xlink:href="#DejaVuSans-6e" x="3387.455078"/>
     <use xlink:href="#DejaVuSans-73" x="3450.833984"/>
     <use xlink:href="#DejaVuSans-69" x="3502.933594"/>
     <use xlink:href="#DejaVuSans-66" x="3530.716797"/>
     <use xlink:href="#DejaVuSans-69" x="3565.921875"/>
     <use xlink:href="#DejaVuSans-65" x="3593.705078"/>
     <use xlink:href="#DejaVuSans-72" x="3655.228516"/>
    </g>
   </g>
  </g>
 </g>
 <defs>
  <clipPath id="p862753e3a4">
   <rect x="38.27" y="26.16" width="665.030263" height="282.44624"/>
  </clipPath>
 </defs>
</svg>
