<?xml version="1.0" encoding="utf-8" standalone="no"?>
<!DOCTYPE svg PUBLIC "-//W3C//DTD SVG 1.1//EN"
  "http://www.w3.org/Graphics/SVG/1.1/DTD/svg11.dtd">
<svg xmlns:xlink="http://www.w3.org/1999/xlink" width="1080pt" height="432pt" viewBox="0 0 1080 432" xmlns="http://www.w3.org/2000/svg" version="1.1">
 <metadata>
  <rdf:RDF xmlns:dc="http://purl.org/dc/elements/1.1/" xmlns:cc="http://creativecommons.org/ns#" xmlns:rdf="http://www.w3.org/1999/02/22-rdf-syntax-ns#">
   <cc:Work>
    <dc:type rdf:resource="http://purl.org/dc/dcmitype/StillImage"/>
    <dc:date>2024-12-10T13:00:31.298591</dc:date>
    <dc:format>image/svg+xml</dc:format>
    <dc:creator>
     <cc:Agent>
      <dc:title>Matplotlib v3.9.3, https://matplotlib.org/</dc:title>
     </cc:Agent>
    </dc:creator>
   </cc:Work>
  </rdf:RDF>
 </metadata>
 <defs>
  <style type="text/css">*{stroke-linejoin: round; stroke-linecap: butt}</style>
 </defs>
 <g id="figure_1">
  <g id="patch_1">
   <path d="M 0 432 
L 1080 432 
L 1080 0 
L 0 0 
z
" style="fill: #ffffff"/>
  </g>
  <g id="axes_1">
   <g id="patch_2">
    <path d="M 40.165 417.239929 
L 1069.2 417.239929 
L 1069.2 10.8 
L 40.165 10.8 
z
" style="fill: #ffffff"/>
   </g>
   <g id="matplotlib.axis_1"/>
   <g id="matplotlib.axis_2">
    <g id="ytick_1">
     <g id="line2d_1">
      <defs>
       <path id="m5839ca4d1a" d="M 0 0 
L -3.5 0 
" style="stroke: #000000; stroke-width: 0.8"/>
      </defs>
      <g>
       <use xlink:href="#m5839ca4d1a" x="40.165" y="414.600796" style="stroke: #000000; stroke-width: 0.8"/>
      </g>
     </g>
     <g id="text_1">
      <!-- 0.60 -->
      <g transform="translate(10.899375 418.400014) scale(0.1 -0.1)">
       <defs>
        <path id="DejaVuSans-30" d="M 2034 4250 
Q 1547 4250 1301 3770 
Q 1056 3291 1056 2328 
Q 1056 1369 1301 889 
Q 1547 409 2034 409 
Q 2525 409 2770 889 
Q 3016 1369 3016 2328 
Q 3016 3291 2770 3770 
Q 2525 4250 2034 4250 
z
M 2034 4750 
Q 2819 4750 3233 4129 
Q 3647 3509 3647 2328 
Q 3647 1150 3233 529 
Q 2819 -91 2034 -91 
Q 1250 -91 836 529 
Q 422 1150 422 2328 
Q 422 3509 836 4129 
Q 1250 4750 2034 4750 
z
" transform="scale(0.015625)"/>
        <path id="DejaVuSans-2e" d="M 684 794 
L 1344 794 
L 1344 0 
L 684 0 
L 684 794 
z
" transform="scale(0.015625)"/>
        <path id="DejaVuSans-36" d="M 2113 2584 
Q 1688 2584 1439 2293 
Q 1191 2003 1191 1497 
Q 1191 994 1439 701 
Q 1688 409 2113 409 
Q 2538 409 2786 701 
Q 3034 994 3034 1497 
Q 3034 2003 2786 2293 
Q 2538 2584 2113 2584 
z
M 3366 4563 
L 3366 3988 
Q 3128 4100 2886 4159 
Q 2644 4219 2406 4219 
Q 1781 4219 1451 3797 
Q 1122 3375 1075 2522 
Q 1259 2794 1537 2939 
Q 1816 3084 2150 3084 
Q 2853 3084 3261 2657 
Q 3669 2231 3669 1497 
Q 3669 778 3244 343 
Q 2819 -91 2113 -91 
Q 1303 -91 875 529 
Q 447 1150 447 2328 
Q 447 3434 972 4092 
Q 1497 4750 2381 4750 
Q 2619 4750 2861 4703 
Q 3103 4656 3366 4563 
z
" transform="scale(0.015625)"/>
       </defs>
       <use xlink:href="#DejaVuSans-30"/>
       <use xlink:href="#DejaVuSans-2e" x="63.623047"/>
       <use xlink:href="#DejaVuSans-36" x="95.410156"/>
       <use xlink:href="#DejaVuSans-30" x="159.033203"/>
      </g>
     </g>
    </g>
    <g id="ytick_2">
     <g id="line2d_2">
      <g>
       <use xlink:href="#m5839ca4d1a" x="40.165" y="365.878081" style="stroke: #000000; stroke-width: 0.8"/>
      </g>
     </g>
     <g id="text_2">
      <!-- 0.65 -->
      <g transform="translate(10.899375 369.677299) scale(0.1 -0.1)">
       <defs>
        <path id="DejaVuSans-35" d="M 691 4666 
L 3169 4666 
L 3169 4134 
L 1269 4134 
L 1269 2991 
Q 1406 3038 1543 3061 
Q 1681 3084 1819 3084 
Q 2600 3084 3056 2656 
Q 3513 2228 3513 1497 
Q 3513 744 3044 326 
Q 2575 -91 1722 -91 
Q 1428 -91 1123 -41 
Q 819 9 494 109 
L 494 744 
Q 775 591 1075 516 
Q 1375 441 1709 441 
Q 2250 441 2565 725 
Q 2881 1009 2881 1497 
Q 2881 1984 2565 2268 
Q 2250 2553 1709 2553 
Q 1456 2553 1204 2497 
Q 953 2441 691 2322 
L 691 4666 
z
" transform="scale(0.015625)"/>
       </defs>
       <use xlink:href="#DejaVuSans-30"/>
       <use xlink:href="#DejaVuSans-2e" x="63.623047"/>
       <use xlink:href="#DejaVuSans-36" x="95.410156"/>
       <use xlink:href="#DejaVuSans-35" x="159.033203"/>
      </g>
     </g>
    </g>
    <g id="ytick_3">
     <g id="line2d_3">
      <g>
       <use xlink:href="#m5839ca4d1a" x="40.165" y="317.155366" style="stroke: #000000; stroke-width: 0.8"/>
      </g>
     </g>
     <g id="text_3">
      <!-- 0.70 -->
      <g transform="translate(10.899375 320.954584) scale(0.1 -0.1)">
       <defs>
        <path id="DejaVuSans-37" d="M 525 4666 
L 3525 4666 
L 3525 4397 
L 1831 0 
L 1172 0 
L 2766 4134 
L 525 4134 
L 525 4666 
z
" transform="scale(0.015625)"/>
       </defs>
       <use xlink:href="#DejaVuSans-30"/>
       <use xlink:href="#DejaVuSans-2e" x="63.623047"/>
       <use xlink:href="#DejaVuSans-37" x="95.410156"/>
       <use xlink:href="#DejaVuSans-30" x="159.033203"/>
      </g>
     </g>
    </g>
    <g id="ytick_4">
     <g id="line2d_4">
      <g>
       <use xlink:href="#m5839ca4d1a" x="40.165" y="268.432651" style="stroke: #000000; stroke-width: 0.8"/>
      </g>
     </g>
     <g id="text_4">
      <!-- 0.75 -->
      <g transform="translate(10.899375 272.231869) scale(0.1 -0.1)">
       <use xlink:href="#DejaVuSans-30"/>
       <use xlink:href="#DejaVuSans-2e" x="63.623047"/>
       <use xlink:href="#DejaVuSans-37" x="95.410156"/>
       <use xlink:href="#DejaVuSans-35" x="159.033203"/>
      </g>
     </g>
    </g>
    <g id="ytick_5">
     <g id="line2d_5">
      <g>
       <use xlink:href="#m5839ca4d1a" x="40.165" y="219.709936" style="stroke: #000000; stroke-width: 0.8"/>
      </g>
     </g>
     <g id="text_5">
      <!-- 0.80 -->
      <g transform="translate(10.899375 223.509155) scale(0.1 -0.1)">
       <defs>
        <path id="DejaVuSans-38" d="M 2034 2216 
Q 1584 2216 1326 1975 
Q 1069 1734 1069 1313 
Q 1069 891 1326 650 
Q 1584 409 2034 409 
Q 2484 409 2743 651 
Q 3003 894 3003 1313 
Q 3003 1734 2745 1975 
Q 2488 2216 2034 2216 
z
M 1403 2484 
Q 997 2584 770 2862 
Q 544 3141 544 3541 
Q 544 4100 942 4425 
Q 1341 4750 2034 4750 
Q 2731 4750 3128 4425 
Q 3525 4100 3525 3541 
Q 3525 3141 3298 2862 
Q 3072 2584 2669 2484 
Q 3125 2378 3379 2068 
Q 3634 1759 3634 1313 
Q 3634 634 3220 271 
Q 2806 -91 2034 -91 
Q 1263 -91 848 271 
Q 434 634 434 1313 
Q 434 1759 690 2068 
Q 947 2378 1403 2484 
z
M 1172 3481 
Q 1172 3119 1398 2916 
Q 1625 2713 2034 2713 
Q 2441 2713 2670 2916 
Q 2900 3119 2900 3481 
Q 2900 3844 2670 4047 
Q 2441 4250 2034 4250 
Q 1625 4250 1398 4047 
Q 1172 3844 1172 3481 
z
" transform="scale(0.015625)"/>
       </defs>
       <use xlink:href="#DejaVuSans-30"/>
       <use xlink:href="#DejaVuSans-2e" x="63.623047"/>
       <use xlink:href="#DejaVuSans-38" x="95.410156"/>
       <use xlink:href="#DejaVuSans-30" x="159.033203"/>
      </g>
     </g>
    </g>
    <g id="ytick_6">
     <g id="line2d_6">
      <g>
       <use xlink:href="#m5839ca4d1a" x="40.165" y="170.987221" style="stroke: #000000; stroke-width: 0.8"/>
      </g>
     </g>
     <g id="text_6">
      <!-- 0.85 -->
      <g transform="translate(10.899375 174.78644) scale(0.1 -0.1)">
       <use xlink:href="#DejaVuSans-30"/>
       <use xlink:href="#DejaVuSans-2e" x="63.623047"/>
       <use xlink:href="#DejaVuSans-38" x="95.410156"/>
       <use xlink:href="#DejaVuSans-35" x="159.033203"/>
      </g>
     </g>
    </g>
    <g id="ytick_7">
     <g id="line2d_7">
      <g>
       <use xlink:href="#m5839ca4d1a" x="40.165" y="122.264506" style="stroke: #000000; stroke-width: 0.8"/>
      </g>
     </g>
     <g id="text_7">
      <!-- 0.90 -->
      <g transform="translate(10.899375 126.063725) scale(0.1 -0.1)">
       <defs>
        <path id="DejaVuSans-39" d="M 703 97 
L 703 672 
Q 941 559 1184 500 
Q 1428 441 1663 441 
Q 2288 441 2617 861 
Q 2947 1281 2994 2138 
Q 2813 1869 2534 1725 
Q 2256 1581 1919 1581 
Q 1219 1581 811 2004 
Q 403 2428 403 3163 
Q 403 3881 828 4315 
Q 1253 4750 1959 4750 
Q 2769 4750 3195 4129 
Q 3622 3509 3622 2328 
Q 3622 1225 3098 567 
Q 2575 -91 1691 -91 
Q 1453 -91 1209 -44 
Q 966 3 703 97 
z
M 1959 2075 
Q 2384 2075 2632 2365 
Q 2881 2656 2881 3163 
Q 2881 3666 2632 3958 
Q 2384 4250 1959 4250 
Q 1534 4250 1286 3958 
Q 1038 3666 1038 3163 
Q 1038 2656 1286 2365 
Q 1534 2075 1959 2075 
z
" transform="scale(0.015625)"/>
       </defs>
       <use xlink:href="#DejaVuSans-30"/>
       <use xlink:href="#DejaVuSans-2e" x="63.623047"/>
       <use xlink:href="#DejaVuSans-39" x="95.410156"/>
       <use xlink:href="#DejaVuSans-30" x="159.033203"/>
      </g>
     </g>
    </g>
    <g id="ytick_8">
     <g id="line2d_8">
      <g>
       <use xlink:href="#m5839ca4d1a" x="40.165" y="73.541791" style="stroke: #000000; stroke-width: 0.8"/>
      </g>
     </g>
     <g id="text_8">
      <!-- 0.95 -->
      <g transform="translate(10.899375 77.34101) scale(0.1 -0.1)">
       <use xlink:href="#DejaVuSans-30"/>
       <use xlink:href="#DejaVuSans-2e" x="63.623047"/>
       <use xlink:href="#DejaVuSans-39" x="95.410156"/>
       <use xlink:href="#DejaVuSans-35" x="159.033203"/>
      </g>
     </g>
    </g>
    <g id="ytick_9">
     <g id="line2d_9">
      <g>
       <use xlink:href="#m5839ca4d1a" x="40.165" y="24.819076" style="stroke: #000000; stroke-width: 0.8"/>
      </g>
     </g>
     <g id="text_9">
      <!-- 1.00 -->
      <g transform="translate(10.899375 28.618295) scale(0.1 -0.1)">
       <defs>
        <path id="DejaVuSans-31" d="M 794 531 
L 1825 531 
L 1825 4091 
L 703 3866 
L 703 4441 
L 1819 4666 
L 2450 4666 
L 2450 531 
L 3481 531 
L 3481 0 
L 794 0 
L 794 531 
z
" transform="scale(0.015625)"/>
       </defs>
       <use xlink:href="#DejaVuSans-31"/>
       <use xlink:href="#DejaVuSans-2e" x="63.623047"/>
       <use xlink:href="#DejaVuSans-30" x="95.410156"/>
       <use xlink:href="#DejaVuSans-30" x="159.033203"/>
      </g>
     </g>
    </g>
   </g>
   <g id="patch_3">
    <path d="M 54.8655 223.540786 
L 172.4695 223.540786 
L 172.4695 162.481514 
L 54.8655 162.481514 
L 54.8655 223.540786 
z
" clip-path="url(#pe7f38b0fda)" style="fill: #3274a1; stroke: #3d3d3d; stroke-linejoin: miter"/>
   </g>
   <g id="line2d_10">
    <path d="M 113.6675 223.540786 
L 113.6675 308.258363 
" clip-path="url(#pe7f38b0fda)" style="fill: none; stroke: #3d3d3d"/>
   </g>
   <g id="line2d_11">
    <path d="M 113.6675 162.481514 
L 113.6675 80.70905 
" clip-path="url(#pe7f38b0fda)" style="fill: none; stroke: #3d3d3d"/>
   </g>
   <g id="line2d_12">
    <path d="M 84.2665 308.258363 
L 143.0685 308.258363 
" clip-path="url(#pe7f38b0fda)" style="fill: none; stroke: #3d3d3d; stroke-linecap: square"/>
   </g>
   <g id="line2d_13">
    <path d="M 84.2665 80.70905 
L 143.0685 80.70905 
" clip-path="url(#pe7f38b0fda)" style="fill: none; stroke: #3d3d3d; stroke-linecap: square"/>
   </g>
   <g id="line2d_14">
    <defs>
     <path id="maf651660d4" d="M 0 3 
C 0.795609 3 1.55874 2.683901 2.12132 2.12132 
C 2.683901 1.55874 3 0.795609 3 0 
C 3 -0.795609 2.683901 -1.55874 2.12132 -2.12132 
C 1.55874 -2.683901 0.795609 -3 0 -3 
C -0.795609 -3 -1.55874 -2.683901 -2.12132 -2.12132 
C -2.683901 -1.55874 -3 -0.795609 -3 0 
C -3 0.795609 -2.683901 1.55874 -2.12132 2.12132 
C -1.55874 2.683901 -0.795609 3 0 3 
z
" style="stroke: #3d3d3d"/>
    </defs>
    <g clip-path="url(#pe7f38b0fda)">
     <use xlink:href="#maf651660d4" x="113.6675" y="398.765386" style="fill-opacity: 0; stroke: #3d3d3d"/>
     <use xlink:href="#maf651660d4" x="113.6675" y="317.900547" style="fill-opacity: 0; stroke: #3d3d3d"/>
    </g>
   </g>
   <g id="patch_4">
    <path d="M 201.8705 217.607609 
L 319.4745 217.607609 
L 319.4745 160.246692 
L 201.8705 160.246692 
L 201.8705 217.607609 
z
" clip-path="url(#pe7f38b0fda)" style="fill: #e1812c; stroke: #3d3d3d; stroke-linejoin: miter"/>
   </g>
   <g id="line2d_15">
    <path d="M 260.6725 217.607609 
L 260.6725 301.694094 
" clip-path="url(#pe7f38b0fda)" style="fill: none; stroke: #3d3d3d"/>
   </g>
   <g id="line2d_16">
    <path d="M 260.6725 160.246692 
L 260.6725 91.733366 
" clip-path="url(#pe7f38b0fda)" style="fill: none; stroke: #3d3d3d"/>
   </g>
   <g id="line2d_17">
    <path d="M 231.2715 301.694094 
L 290.0735 301.694094 
" clip-path="url(#pe7f38b0fda)" style="fill: none; stroke: #3d3d3d; stroke-linecap: square"/>
   </g>
   <g id="line2d_18">
    <path d="M 231.2715 91.733366 
L 290.0735 91.733366 
" clip-path="url(#pe7f38b0fda)" style="fill: none; stroke: #3d3d3d; stroke-linecap: square"/>
   </g>
   <g id="line2d_19">
    <g clip-path="url(#pe7f38b0fda)">
     <use xlink:href="#maf651660d4" x="260.6725" y="388.717942" style="fill-opacity: 0; stroke: #3d3d3d"/>
     <use xlink:href="#maf651660d4" x="260.6725" y="304.64907" style="fill-opacity: 0; stroke: #3d3d3d"/>
     <use xlink:href="#maf651660d4" x="260.6725" y="309.661185" style="fill-opacity: 0; stroke: #3d3d3d"/>
    </g>
   </g>
   <g id="patch_5">
    <path d="M 348.8755 157.540599 
L 466.4795 157.540599 
L 466.4795 101.095436 
L 348.8755 101.095436 
L 348.8755 157.540599 
z
" clip-path="url(#pe7f38b0fda)" style="fill: #3a923a; stroke: #3d3d3d; stroke-linejoin: miter"/>
   </g>
   <g id="line2d_20">
    <path d="M 407.6775 157.540599 
L 407.6775 240.70332 
" clip-path="url(#pe7f38b0fda)" style="fill: none; stroke: #3d3d3d"/>
   </g>
   <g id="line2d_21">
    <path d="M 407.6775 101.095436 
L 407.6775 69.034237 
" clip-path="url(#pe7f38b0fda)" style="fill: none; stroke: #3d3d3d"/>
   </g>
   <g id="line2d_22">
    <path d="M 378.2765 240.70332 
L 437.0785 240.70332 
" clip-path="url(#pe7f38b0fda)" style="fill: none; stroke: #3d3d3d; stroke-linecap: square"/>
   </g>
   <g id="line2d_23">
    <path d="M 378.2765 69.034237 
L 437.0785 69.034237 
" clip-path="url(#pe7f38b0fda)" style="fill: none; stroke: #3d3d3d; stroke-linecap: square"/>
   </g>
   <g id="line2d_24">
    <g clip-path="url(#pe7f38b0fda)">
     <use xlink:href="#maf651660d4" x="407.6775" y="275.384387" style="fill-opacity: 0; stroke: #3d3d3d"/>
     <use xlink:href="#maf651660d4" x="407.6775" y="326.709941" style="fill-opacity: 0; stroke: #3d3d3d"/>
    </g>
   </g>
   <g id="patch_6">
    <path d="M 495.8805 132.61055 
L 613.4845 132.61055 
L 613.4845 89.448725 
L 495.8805 89.448725 
L 495.8805 132.61055 
z
" clip-path="url(#pe7f38b0fda)" style="fill: #c03d3e; stroke: #3d3d3d; stroke-linejoin: miter"/>
   </g>
   <g id="line2d_25">
    <path d="M 554.6825 132.61055 
L 554.6825 190.77291 
" clip-path="url(#pe7f38b0fda)" style="fill: none; stroke: #3d3d3d"/>
   </g>
   <g id="line2d_26">
    <path d="M 554.6825 89.448725 
L 554.6825 59.356344 
" clip-path="url(#pe7f38b0fda)" style="fill: none; stroke: #3d3d3d"/>
   </g>
   <g id="line2d_27">
    <path d="M 525.2815 190.77291 
L 584.0835 190.77291 
" clip-path="url(#pe7f38b0fda)" style="fill: none; stroke: #3d3d3d; stroke-linecap: square"/>
   </g>
   <g id="line2d_28">
    <path d="M 525.2815 59.356344 
L 584.0835 59.356344 
" clip-path="url(#pe7f38b0fda)" style="fill: none; stroke: #3d3d3d; stroke-linecap: square"/>
   </g>
   <g id="line2d_29">
    <g clip-path="url(#pe7f38b0fda)">
     <use xlink:href="#maf651660d4" x="554.6825" y="202.669395" style="fill-opacity: 0; stroke: #3d3d3d"/>
     <use xlink:href="#maf651660d4" x="554.6825" y="247.541598" style="fill-opacity: 0; stroke: #3d3d3d"/>
     <use xlink:href="#maf651660d4" x="554.6825" y="238.44551" style="fill-opacity: 0; stroke: #3d3d3d"/>
     <use xlink:href="#maf651660d4" x="554.6825" y="212.621631" style="fill-opacity: 0; stroke: #3d3d3d"/>
     <use xlink:href="#maf651660d4" x="554.6825" y="213.211395" style="fill-opacity: 0; stroke: #3d3d3d"/>
    </g>
   </g>
   <g id="patch_7">
    <path d="M 642.8855 133.816693 
L 760.4895 133.816693 
L 760.4895 64.127169 
L 642.8855 64.127169 
L 642.8855 133.816693 
z
" clip-path="url(#pe7f38b0fda)" style="fill: #9372b2; stroke: #3d3d3d; stroke-linejoin: miter"/>
   </g>
   <g id="line2d_30">
    <path d="M 701.6875 133.816693 
L 701.6875 237.518424 
" clip-path="url(#pe7f38b0fda)" style="fill: none; stroke: #3d3d3d"/>
   </g>
   <g id="line2d_31">
    <path d="M 701.6875 64.127169 
L 701.6875 33.525185 
" clip-path="url(#pe7f38b0fda)" style="fill: none; stroke: #3d3d3d"/>
   </g>
   <g id="line2d_32">
    <path d="M 672.2865 237.518424 
L 731.0885 237.518424 
" clip-path="url(#pe7f38b0fda)" style="fill: none; stroke: #3d3d3d; stroke-linecap: square"/>
   </g>
   <g id="line2d_33">
    <path d="M 672.2865 33.525185 
L 731.0885 33.525185 
" clip-path="url(#pe7f38b0fda)" style="fill: none; stroke: #3d3d3d; stroke-linecap: square"/>
   </g>
   <g id="line2d_34">
    <g clip-path="url(#pe7f38b0fda)">
     <use xlink:href="#maf651660d4" x="701.6875" y="277.332662" style="fill-opacity: 0; stroke: #3d3d3d"/>
     <use xlink:href="#maf651660d4" x="701.6875" y="246.1218" style="fill-opacity: 0; stroke: #3d3d3d"/>
     <use xlink:href="#maf651660d4" x="701.6875" y="238.993031" style="fill-opacity: 0; stroke: #3d3d3d"/>
     <use xlink:href="#maf651660d4" x="701.6875" y="244.468359" style="fill-opacity: 0; stroke: #3d3d3d"/>
     <use xlink:href="#maf651660d4" x="701.6875" y="281.233478" style="fill-opacity: 0; stroke: #3d3d3d"/>
     <use xlink:href="#maf651660d4" x="701.6875" y="302.728252" style="fill-opacity: 0; stroke: #3d3d3d"/>
     <use xlink:href="#maf651660d4" x="701.6875" y="261.21481" style="fill-opacity: 0; stroke: #3d3d3d"/>
    </g>
   </g>
   <g id="patch_8">
    <path d="M 789.8905 141.829644 
L 907.4945 141.829644 
L 907.4945 71.194142 
L 789.8905 71.194142 
L 789.8905 141.829644 
z
" clip-path="url(#pe7f38b0fda)" style="fill: #845b53; stroke: #3d3d3d; stroke-linejoin: miter"/>
   </g>
   <g id="line2d_35">
    <path d="M 848.6925 141.829644 
L 848.6925 242.688562 
" clip-path="url(#pe7f38b0fda)" style="fill: none; stroke: #3d3d3d"/>
   </g>
   <g id="line2d_36">
    <path d="M 848.6925 71.194142 
L 848.6925 32.36948 
" clip-path="url(#pe7f38b0fda)" style="fill: none; stroke: #3d3d3d"/>
   </g>
   <g id="line2d_37">
    <path d="M 819.2915 242.688562 
L 878.0935 242.688562 
" clip-path="url(#pe7f38b0fda)" style="fill: none; stroke: #3d3d3d; stroke-linecap: square"/>
   </g>
   <g id="line2d_38">
    <path d="M 819.2915 32.36948 
L 878.0935 32.36948 
" clip-path="url(#pe7f38b0fda)" style="fill: none; stroke: #3d3d3d; stroke-linecap: square"/>
   </g>
   <g id="line2d_39">
    <g clip-path="url(#pe7f38b0fda)">
     <use xlink:href="#maf651660d4" x="848.6925" y="273.333262" style="fill-opacity: 0; stroke: #3d3d3d"/>
     <use xlink:href="#maf651660d4" x="848.6925" y="258.039798" style="fill-opacity: 0; stroke: #3d3d3d"/>
     <use xlink:href="#maf651660d4" x="848.6925" y="303.91858" style="fill-opacity: 0; stroke: #3d3d3d"/>
     <use xlink:href="#maf651660d4" x="848.6925" y="252.405597" style="fill-opacity: 0; stroke: #3d3d3d"/>
     <use xlink:href="#maf651660d4" x="848.6925" y="342.500245" style="fill-opacity: 0; stroke: #3d3d3d"/>
     <use xlink:href="#maf651660d4" x="848.6925" y="278.021601" style="fill-opacity: 0; stroke: #3d3d3d"/>
    </g>
   </g>
   <g id="patch_9">
    <path d="M 936.8955 140.729639 
L 1054.4995 140.729639 
L 1054.4995 67.008678 
L 936.8955 67.008678 
L 936.8955 140.729639 
z
" clip-path="url(#pe7f38b0fda)" style="fill: #d684bd; stroke: #3d3d3d; stroke-linejoin: miter"/>
   </g>
   <g id="line2d_40">
    <path d="M 995.6975 140.729639 
L 995.6975 248.744533 
" clip-path="url(#pe7f38b0fda)" style="fill: none; stroke: #3d3d3d"/>
   </g>
   <g id="line2d_41">
    <path d="M 995.6975 67.008678 
L 995.6975 29.274542 
" clip-path="url(#pe7f38b0fda)" style="fill: none; stroke: #3d3d3d"/>
   </g>
   <g id="line2d_42">
    <path d="M 966.2965 248.744533 
L 1025.0985 248.744533 
" clip-path="url(#pe7f38b0fda)" style="fill: none; stroke: #3d3d3d; stroke-linecap: square"/>
   </g>
   <g id="line2d_43">
    <path d="M 966.2965 29.274542 
L 1025.0985 29.274542 
" clip-path="url(#pe7f38b0fda)" style="fill: none; stroke: #3d3d3d; stroke-linecap: square"/>
   </g>
   <g id="line2d_44">
    <g clip-path="url(#pe7f38b0fda)">
     <use xlink:href="#maf651660d4" x="995.6975" y="289.4127" style="fill-opacity: 0; stroke: #3d3d3d"/>
     <use xlink:href="#maf651660d4" x="995.6975" y="255.764993" style="fill-opacity: 0; stroke: #3d3d3d"/>
     <use xlink:href="#maf651660d4" x="995.6975" y="272.381815" style="fill-opacity: 0; stroke: #3d3d3d"/>
     <use xlink:href="#maf651660d4" x="995.6975" y="297.18735" style="fill-opacity: 0; stroke: #3d3d3d"/>
     <use xlink:href="#maf651660d4" x="995.6975" y="351.634189" style="fill-opacity: 0; stroke: #3d3d3d"/>
    </g>
   </g>
   <g id="line2d_45">
    <path d="M 54.8655 187.071427 
L 172.4695 187.071427 
" clip-path="url(#pe7f38b0fda)" style="fill: none; stroke: #3d3d3d"/>
   </g>
   <g id="line2d_46">
    <path d="M 201.8705 185.664308 
L 319.4745 185.664308 
" clip-path="url(#pe7f38b0fda)" style="fill: none; stroke: #3d3d3d"/>
   </g>
   <g id="line2d_47">
    <path d="M 348.8755 129.963692 
L 466.4795 129.963692 
" clip-path="url(#pe7f38b0fda)" style="fill: none; stroke: #3d3d3d"/>
   </g>
   <g id="line2d_48">
    <path d="M 495.8805 111.738076 
L 613.4845 111.738076 
" clip-path="url(#pe7f38b0fda)" style="fill: none; stroke: #3d3d3d"/>
   </g>
   <g id="line2d_49">
    <path d="M 642.8855 102.7651 
L 760.4895 102.7651 
" clip-path="url(#pe7f38b0fda)" style="fill: none; stroke: #3d3d3d"/>
   </g>
   <g id="line2d_50">
    <path d="M 789.8905 106.04726 
L 907.4945 106.04726 
" clip-path="url(#pe7f38b0fda)" style="fill: none; stroke: #3d3d3d"/>
   </g>
   <g id="line2d_51">
    <path d="M 936.8955 104.91181 
L 1054.4995 104.91181 
" clip-path="url(#pe7f38b0fda)" style="fill: none; stroke: #3d3d3d"/>
   </g>
   <g id="patch_10">
    <path d="M 40.165 417.239929 
L 40.165 10.8 
" style="fill: none; stroke: #000000; stroke-width: 0.8; stroke-linejoin: miter; stroke-linecap: square"/>
   </g>
   <g id="patch_11">
    <path d="M 1069.2 417.239929 
L 1069.2 10.8 
" style="fill: none; stroke: #000000; stroke-width: 0.8; stroke-linejoin: miter; stroke-linecap: square"/>
   </g>
   <g id="patch_12">
    <path d="M 40.165 417.239929 
L 1069.2 417.239929 
" style="fill: none; stroke: #000000; stroke-width: 0.8; stroke-linejoin: miter; stroke-linecap: square"/>
   </g>
   <g id="patch_13">
    <path d="M 40.165 10.8 
L 1069.2 10.8 
" style="fill: none; stroke: #000000; stroke-width: 0.8; stroke-linejoin: miter; stroke-linecap: square"/>
   </g>
  </g>
 </g>
 <defs>
  <clipPath id="pe7f38b0fda">
   <rect x="40.165" y="10.8" width="1029.035" height="406.439929"/>
  </clipPath>
 </defs>
</svg>
