<?xml version="1.0" encoding="utf-8" standalone="no"?>
<!DOCTYPE svg PUBLIC "-//W3C//DTD SVG 1.1//EN"
  "http://www.w3.org/Graphics/SVG/1.1/DTD/svg11.dtd">
<svg xmlns:xlink="http://www.w3.org/1999/xlink" width="1080pt" height="432pt" viewBox="0 0 1080 432" xmlns="http://www.w3.org/2000/svg" version="1.1">
 <metadata>
  <rdf:RDF xmlns:dc="http://purl.org/dc/elements/1.1/" xmlns:cc="http://creativecommons.org/ns#" xmlns:rdf="http://www.w3.org/1999/02/22-rdf-syntax-ns#">
   <cc:Work>
    <dc:type rdf:resource="http://purl.org/dc/dcmitype/StillImage"/>
    <dc:date>2024-12-10T13:00:32.022574</dc:date>
    <dc:format>image/svg+xml</dc:format>
    <dc:creator>
     <cc:Agent>
      <dc:title>Matplotlib v3.9.3, https://matplotlib.org/</dc:title>
     </cc:Agent>
    </dc:creator>
   </cc:Work>
  </rdf:RDF>
 </metadata>
 <defs>
  <style type="text/css">*{stroke-linejoin: round; stroke-linecap: butt}</style>
 </defs>
 <g id="figure_1">
  <g id="patch_1">
   <path d="M 0 432 
L 1080 432 
L 1080 0 
L 0 0 
z
" style="fill: #ffffff"/>
  </g>
  <g id="axes_1">
   <g id="patch_2">
    <path d="M 30.535 421.2 
L 1069.2 421.2 
L 1069.2 10.8 
L 30.535 10.8 
z
" style="fill: #ffffff"/>
   </g>
   <g id="matplotlib.axis_1"/>
   <g id="matplotlib.axis_2">
    <g id="ytick_1">
     <g id="line2d_1">
      <defs>
       <path id="me65e36f9fd" d="M 0 0 
L -3.5 0 
" style="stroke: #000000; stroke-width: 0.8"/>
      </defs>
      <g>
       <use xlink:href="#me65e36f9fd" x="30.535" y="60.947159" style="stroke: #000000; stroke-width: 0.8"/>
      </g>
     </g>
     <g id="text_1">
      <!-- 2 -->
      <g transform="translate(17.1725 64.746377) scale(0.1 -0.1)">
       <defs>
        <path id="DejaVuSans-32" d="M 1228 531 
L 3431 531 
L 3431 0 
L 469 0 
L 469 531 
Q 828 903 1448 1529 
Q 2069 2156 2228 2338 
Q 2531 2678 2651 2914 
Q 2772 3150 2772 3378 
Q 2772 3750 2511 3984 
Q 2250 4219 1831 4219 
Q 1534 4219 1204 4116 
Q 875 4013 500 3803 
L 500 4441 
Q 881 4594 1212 4672 
Q 1544 4750 1819 4750 
Q 2544 4750 2975 4387 
Q 3406 4025 3406 3419 
Q 3406 3131 3298 2873 
Q 3191 2616 2906 2266 
Q 2828 2175 2409 1742 
Q 1991 1309 1228 531 
z
" transform="scale(0.015625)"/>
       </defs>
       <use xlink:href="#DejaVuSans-32"/>
      </g>
     </g>
    </g>
    <g id="ytick_2">
     <g id="line2d_2">
      <g>
       <use xlink:href="#me65e36f9fd" x="30.535" y="133.133538" style="stroke: #000000; stroke-width: 0.8"/>
      </g>
     </g>
     <g id="text_2">
      <!-- 4 -->
      <g transform="translate(17.1725 136.932757) scale(0.1 -0.1)">
       <defs>
        <path id="DejaVuSans-34" d="M 2419 4116 
L 825 1625 
L 2419 1625 
L 2419 4116 
z
M 2253 4666 
L 3047 4666 
L 3047 1625 
L 3713 1625 
L 3713 1100 
L 3047 1100 
L 3047 0 
L 2419 0 
L 2419 1100 
L 313 1100 
L 313 1709 
L 2253 4666 
z
" transform="scale(0.015625)"/>
       </defs>
       <use xlink:href="#DejaVuSans-34"/>
      </g>
     </g>
    </g>
    <g id="ytick_3">
     <g id="line2d_3">
      <g>
       <use xlink:href="#me65e36f9fd" x="30.535" y="205.319917" style="stroke: #000000; stroke-width: 0.8"/>
      </g>
     </g>
     <g id="text_3">
      <!-- 6 -->
      <g transform="translate(17.1725 209.119136) scale(0.1 -0.1)">
       <defs>
        <path id="DejaVuSans-36" d="M 2113 2584 
Q 1688 2584 1439 2293 
Q 1191 2003 1191 1497 
Q 1191 994 1439 701 
Q 1688 409 2113 409 
Q 2538 409 2786 701 
Q 3034 994 3034 1497 
Q 3034 2003 2786 2293 
Q 2538 2584 2113 2584 
z
M 3366 4563 
L 3366 3988 
Q 3128 4100 2886 4159 
Q 2644 4219 2406 4219 
Q 1781 4219 1451 3797 
Q 1122 3375 1075 2522 
Q 1259 2794 1537 2939 
Q 1816 3084 2150 3084 
Q 2853 3084 3261 2657 
Q 3669 2231 3669 1497 
Q 3669 778 3244 343 
Q 2819 -91 2113 -91 
Q 1303 -91 875 529 
Q 447 1150 447 2328 
Q 447 3434 972 4092 
Q 1497 4750 2381 4750 
Q 2619 4750 2861 4703 
Q 3103 4656 3366 4563 
z
" transform="scale(0.015625)"/>
       </defs>
       <use xlink:href="#DejaVuSans-36"/>
      </g>
     </g>
    </g>
    <g id="ytick_4">
     <g id="line2d_4">
      <g>
       <use xlink:href="#me65e36f9fd" x="30.535" y="277.506297" style="stroke: #000000; stroke-width: 0.8"/>
      </g>
     </g>
     <g id="text_4">
      <!-- 8 -->
      <g transform="translate(17.1725 281.305516) scale(0.1 -0.1)">
       <defs>
        <path id="DejaVuSans-38" d="M 2034 2216 
Q 1584 2216 1326 1975 
Q 1069 1734 1069 1313 
Q 1069 891 1326 650 
Q 1584 409 2034 409 
Q 2484 409 2743 651 
Q 3003 894 3003 1313 
Q 3003 1734 2745 1975 
Q 2488 2216 2034 2216 
z
M 1403 2484 
Q 997 2584 770 2862 
Q 544 3141 544 3541 
Q 544 4100 942 4425 
Q 1341 4750 2034 4750 
Q 2731 4750 3128 4425 
Q 3525 4100 3525 3541 
Q 3525 3141 3298 2862 
Q 3072 2584 2669 2484 
Q 3125 2378 3379 2068 
Q 3634 1759 3634 1313 
Q 3634 634 3220 271 
Q 2806 -91 2034 -91 
Q 1263 -91 848 271 
Q 434 634 434 1313 
Q 434 1759 690 2068 
Q 947 2378 1403 2484 
z
M 1172 3481 
Q 1172 3119 1398 2916 
Q 1625 2713 2034 2713 
Q 2441 2713 2670 2916 
Q 2900 3119 2900 3481 
Q 2900 3844 2670 4047 
Q 2441 4250 2034 4250 
Q 1625 4250 1398 4047 
Q 1172 3844 1172 3481 
z
" transform="scale(0.015625)"/>
       </defs>
       <use xlink:href="#DejaVuSans-38"/>
      </g>
     </g>
    </g>
    <g id="ytick_5">
     <g id="line2d_5">
      <g>
       <use xlink:href="#me65e36f9fd" x="30.535" y="349.692676" style="stroke: #000000; stroke-width: 0.8"/>
      </g>
     </g>
     <g id="text_5">
      <!-- 10 -->
      <g transform="translate(10.81 353.491895) scale(0.1 -0.1)">
       <defs>
        <path id="DejaVuSans-31" d="M 794 531 
L 1825 531 
L 1825 4091 
L 703 3866 
L 703 4441 
L 1819 4666 
L 2450 4666 
L 2450 531 
L 3481 531 
L 3481 0 
L 794 0 
L 794 531 
z
" transform="scale(0.015625)"/>
        <path id="DejaVuSans-30" d="M 2034 4250 
Q 1547 4250 1301 3770 
Q 1056 3291 1056 2328 
Q 1056 1369 1301 889 
Q 1547 409 2034 409 
Q 2525 409 2770 889 
Q 3016 1369 3016 2328 
Q 3016 3291 2770 3770 
Q 2525 4250 2034 4250 
z
M 2034 4750 
Q 2819 4750 3233 4129 
Q 3647 3509 3647 2328 
Q 3647 1150 3233 529 
Q 2819 -91 2034 -91 
Q 1250 -91 836 529 
Q 422 1150 422 2328 
Q 422 3509 836 4129 
Q 1250 4750 2034 4750 
z
" transform="scale(0.015625)"/>
       </defs>
       <use xlink:href="#DejaVuSans-31"/>
       <use xlink:href="#DejaVuSans-30" x="63.623047"/>
      </g>
     </g>
    </g>
   </g>
   <g id="patch_3">
    <path d="M 45.373071 165.279046 
L 164.077643 165.279046 
L 164.077643 202.174433 
L 45.373071 202.174433 
L 45.373071 165.279046 
z
" clip-path="url(#p693c7e9f3f)" style="fill: #3274a1; stroke: #3d3d3d; stroke-linejoin: miter"/>
   </g>
   <g id="line2d_6">
    <path d="M 104.725357 165.279046 
L 104.725357 120.693868 
" clip-path="url(#p693c7e9f3f)" style="fill: none; stroke: #3d3d3d"/>
   </g>
   <g id="line2d_7">
    <path d="M 104.725357 202.174433 
L 104.725357 257.323106 
" clip-path="url(#p693c7e9f3f)" style="fill: none; stroke: #3d3d3d"/>
   </g>
   <g id="line2d_8">
    <path d="M 75.049214 120.693868 
L 134.4015 120.693868 
" clip-path="url(#p693c7e9f3f)" style="fill: none; stroke: #3d3d3d; stroke-linecap: square"/>
   </g>
   <g id="line2d_9">
    <path d="M 75.049214 257.323106 
L 134.4015 257.323106 
" clip-path="url(#p693c7e9f3f)" style="fill: none; stroke: #3d3d3d; stroke-linecap: square"/>
   </g>
   <g id="line2d_10">
    <defs>
     <path id="m8de365b265" d="M 0 3 
C 0.795609 3 1.55874 2.683901 2.12132 2.12132 
C 2.683901 1.55874 3 0.795609 3 0 
C 3 -0.795609 2.683901 -1.55874 2.12132 -2.12132 
C 1.55874 -2.683901 0.795609 -3 0 -3 
C -0.795609 -3 -1.55874 -2.683901 -2.12132 -2.12132 
C -2.683901 -1.55874 -3 -0.795609 -3 0 
C -3 0.795609 -2.683901 1.55874 -2.12132 2.12132 
C -1.55874 2.683901 -0.795609 3 0 3 
z
" style="stroke: #3d3d3d"/>
    </defs>
    <g clip-path="url(#p693c7e9f3f)">
     <use xlink:href="#m8de365b265" x="104.725357" y="273.284713" style="fill-opacity: 0; stroke: #3d3d3d"/>
     <use xlink:href="#m8de365b265" x="104.725357" y="261.04405" style="fill-opacity: 0; stroke: #3d3d3d"/>
     <use xlink:href="#m8de365b265" x="104.725357" y="318.668372" style="fill-opacity: 0; stroke: #3d3d3d"/>
     <use xlink:href="#m8de365b265" x="104.725357" y="261.463193" style="fill-opacity: 0; stroke: #3d3d3d"/>
    </g>
   </g>
   <g id="patch_4">
    <path d="M 193.753786 163.147415 
L 312.458357 163.147415 
L 312.458357 202.015363 
L 193.753786 202.015363 
L 193.753786 163.147415 
z
" clip-path="url(#p693c7e9f3f)" style="fill: #e1812c; stroke: #3d3d3d; stroke-linejoin: miter"/>
   </g>
   <g id="line2d_11">
    <path d="M 253.106071 163.147415 
L 253.106071 127.165957 
" clip-path="url(#p693c7e9f3f)" style="fill: none; stroke: #3d3d3d"/>
   </g>
   <g id="line2d_12">
    <path d="M 253.106071 202.015363 
L 253.106071 255.395815 
" clip-path="url(#p693c7e9f3f)" style="fill: none; stroke: #3d3d3d"/>
   </g>
   <g id="line2d_13">
    <path d="M 223.429929 127.165957 
L 282.782214 127.165957 
" clip-path="url(#p693c7e9f3f)" style="fill: none; stroke: #3d3d3d; stroke-linecap: square"/>
   </g>
   <g id="line2d_14">
    <path d="M 223.429929 255.395815 
L 282.782214 255.395815 
" clip-path="url(#p693c7e9f3f)" style="fill: none; stroke: #3d3d3d; stroke-linecap: square"/>
   </g>
   <g id="line2d_15">
    <g clip-path="url(#p693c7e9f3f)">
     <use xlink:href="#m8de365b265" x="253.106071" y="270.577233" style="fill-opacity: 0; stroke: #3d3d3d"/>
     <use xlink:href="#m8de365b265" x="253.106071" y="260.596778" style="fill-opacity: 0; stroke: #3d3d3d"/>
     <use xlink:href="#m8de365b265" x="253.106071" y="313.966499" style="fill-opacity: 0; stroke: #3d3d3d"/>
     <use xlink:href="#m8de365b265" x="253.106071" y="261.310097" style="fill-opacity: 0; stroke: #3d3d3d"/>
    </g>
   </g>
   <g id="patch_5">
    <path d="M 342.1345 122.939487 
L 460.839071 122.939487 
L 460.839071 166.796933 
L 342.1345 166.796933 
L 342.1345 122.939487 
z
" clip-path="url(#p693c7e9f3f)" style="fill: #3a923a; stroke: #3d3d3d; stroke-linejoin: miter"/>
   </g>
   <g id="line2d_16">
    <path d="M 401.486786 122.939487 
L 401.486786 83.449473 
" clip-path="url(#p693c7e9f3f)" style="fill: none; stroke: #3d3d3d"/>
   </g>
   <g id="line2d_17">
    <path d="M 401.486786 166.796933 
L 401.486786 227.472528 
" clip-path="url(#p693c7e9f3f)" style="fill: none; stroke: #3d3d3d"/>
   </g>
   <g id="line2d_18">
    <path d="M 371.810643 83.449473 
L 431.162929 83.449473 
" clip-path="url(#p693c7e9f3f)" style="fill: none; stroke: #3d3d3d; stroke-linecap: square"/>
   </g>
   <g id="line2d_19">
    <path d="M 371.810643 227.472528 
L 431.162929 227.472528 
" clip-path="url(#p693c7e9f3f)" style="fill: none; stroke: #3d3d3d; stroke-linecap: square"/>
   </g>
   <g id="line2d_20">
    <g clip-path="url(#p693c7e9f3f)">
     <use xlink:href="#m8de365b265" x="401.486786" y="239.164974" style="fill-opacity: 0; stroke: #3d3d3d"/>
     <use xlink:href="#m8de365b265" x="401.486786" y="250.578363" style="fill-opacity: 0; stroke: #3d3d3d"/>
     <use xlink:href="#m8de365b265" x="401.486786" y="283.140422" style="fill-opacity: 0; stroke: #3d3d3d"/>
    </g>
   </g>
   <g id="patch_6">
    <path d="M 490.515214 106.374441 
L 609.219786 106.374441 
L 609.219786 146.278299 
L 490.515214 146.278299 
L 490.515214 106.374441 
z
" clip-path="url(#p693c7e9f3f)" style="fill: #c03d3e; stroke: #3d3d3d; stroke-linejoin: miter"/>
   </g>
   <g id="line2d_21">
    <path d="M 549.8675 106.374441 
L 549.8675 72.548957 
" clip-path="url(#p693c7e9f3f)" style="fill: none; stroke: #3d3d3d"/>
   </g>
   <g id="line2d_22">
    <path d="M 549.8675 146.278299 
L 549.8675 205.693539 
" clip-path="url(#p693c7e9f3f)" style="fill: none; stroke: #3d3d3d"/>
   </g>
   <g id="line2d_23">
    <path d="M 520.191357 72.548957 
L 579.543643 72.548957 
" clip-path="url(#p693c7e9f3f)" style="fill: none; stroke: #3d3d3d; stroke-linecap: square"/>
   </g>
   <g id="line2d_24">
    <path d="M 520.191357 205.693539 
L 579.543643 205.693539 
" clip-path="url(#p693c7e9f3f)" style="fill: none; stroke: #3d3d3d; stroke-linecap: square"/>
   </g>
   <g id="line2d_25">
    <g clip-path="url(#p693c7e9f3f)">
     <use xlink:href="#m8de365b265" x="549.8675" y="212.386049" style="fill-opacity: 0; stroke: #3d3d3d"/>
     <use xlink:href="#m8de365b265" x="549.8675" y="227.048609" style="fill-opacity: 0; stroke: #3d3d3d"/>
    </g>
   </g>
   <g id="patch_7">
    <path d="M 638.895929 82.054093 
L 757.6005 82.054093 
L 757.6005 143.136717 
L 638.895929 143.136717 
L 638.895929 82.054093 
z
" clip-path="url(#p693c7e9f3f)" style="fill: #9372b2; stroke: #3d3d3d; stroke-linejoin: miter"/>
   </g>
   <g id="line2d_26">
    <path d="M 698.248214 82.054093 
L 698.248214 31.419047 
" clip-path="url(#p693c7e9f3f)" style="fill: none; stroke: #3d3d3d"/>
   </g>
   <g id="line2d_27">
    <path d="M 698.248214 143.136717 
L 698.248214 233.276825 
" clip-path="url(#p693c7e9f3f)" style="fill: none; stroke: #3d3d3d"/>
   </g>
   <g id="line2d_28">
    <path d="M 668.572071 31.419047 
L 727.924357 31.419047 
" clip-path="url(#p693c7e9f3f)" style="fill: none; stroke: #3d3d3d; stroke-linecap: square"/>
   </g>
   <g id="line2d_29">
    <path d="M 668.572071 233.276825 
L 727.924357 233.276825 
" clip-path="url(#p693c7e9f3f)" style="fill: none; stroke: #3d3d3d; stroke-linecap: square"/>
   </g>
   <g id="line2d_30">
    <g clip-path="url(#p693c7e9f3f)">
     <use xlink:href="#m8de365b265" x="698.248214" y="248.604029" style="fill-opacity: 0; stroke: #3d3d3d"/>
     <use xlink:href="#m8de365b265" x="698.248214" y="279.825188" style="fill-opacity: 0; stroke: #3d3d3d"/>
    </g>
   </g>
   <g id="patch_8">
    <path d="M 787.276643 88.838996 
L 905.981214 88.838996 
L 905.981214 152.044905 
L 787.276643 152.044905 
L 787.276643 88.838996 
z
" clip-path="url(#p693c7e9f3f)" style="fill: #845b53; stroke: #3d3d3d; stroke-linejoin: miter"/>
   </g>
   <g id="line2d_31">
    <path d="M 846.628929 88.838996 
L 846.628929 29.454545 
" clip-path="url(#p693c7e9f3f)" style="fill: none; stroke: #3d3d3d"/>
   </g>
   <g id="line2d_32">
    <path d="M 846.628929 152.044905 
L 846.628929 245.672478 
" clip-path="url(#p693c7e9f3f)" style="fill: none; stroke: #3d3d3d"/>
   </g>
   <g id="line2d_33">
    <path d="M 816.952786 29.454545 
L 876.305071 29.454545 
" clip-path="url(#p693c7e9f3f)" style="fill: none; stroke: #3d3d3d; stroke-linecap: square"/>
   </g>
   <g id="line2d_34">
    <path d="M 816.952786 245.672478 
L 876.305071 245.672478 
" clip-path="url(#p693c7e9f3f)" style="fill: none; stroke: #3d3d3d; stroke-linecap: square"/>
   </g>
   <g id="line2d_35">
    <g clip-path="url(#p693c7e9f3f)">
     <use xlink:href="#m8de365b265" x="846.628929" y="298.887878" style="fill-opacity: 0; stroke: #3d3d3d"/>
    </g>
   </g>
   <g id="patch_9">
    <path d="M 935.657357 154.907982 
L 1054.361929 154.907982 
L 1054.361929 218.420664 
L 935.657357 218.420664 
L 935.657357 154.907982 
z
" clip-path="url(#p693c7e9f3f)" style="fill: #d684bd; stroke: #3d3d3d; stroke-linejoin: miter"/>
   </g>
   <g id="line2d_36">
    <path d="M 995.009643 154.907982 
L 995.009643 74.555469 
" clip-path="url(#p693c7e9f3f)" style="fill: none; stroke: #3d3d3d"/>
   </g>
   <g id="line2d_37">
    <path d="M 995.009643 218.420664 
L 995.009643 306.184351 
" clip-path="url(#p693c7e9f3f)" style="fill: none; stroke: #3d3d3d"/>
   </g>
   <g id="line2d_38">
    <path d="M 965.3335 74.555469 
L 1024.685786 74.555469 
" clip-path="url(#p693c7e9f3f)" style="fill: none; stroke: #3d3d3d; stroke-linecap: square"/>
   </g>
   <g id="line2d_39">
    <path d="M 965.3335 306.184351 
L 1024.685786 306.184351 
" clip-path="url(#p693c7e9f3f)" style="fill: none; stroke: #3d3d3d; stroke-linecap: square"/>
   </g>
   <g id="line2d_40">
    <g clip-path="url(#p693c7e9f3f)">
     <use xlink:href="#m8de365b265" x="995.009643" y="44.962109" style="fill-opacity: 0; stroke: #3d3d3d"/>
     <use xlink:href="#m8de365b265" x="995.009643" y="58.390729" style="fill-opacity: 0; stroke: #3d3d3d"/>
     <use xlink:href="#m8de365b265" x="995.009643" y="44.962109" style="fill-opacity: 0; stroke: #3d3d3d"/>
     <use xlink:href="#m8de365b265" x="995.009643" y="356.243645" style="fill-opacity: 0; stroke: #3d3d3d"/>
     <use xlink:href="#m8de365b265" x="995.009643" y="316.142518" style="fill-opacity: 0; stroke: #3d3d3d"/>
     <use xlink:href="#m8de365b265" x="995.009643" y="402.545455" style="fill-opacity: 0; stroke: #3d3d3d"/>
     <use xlink:href="#m8de365b265" x="995.009643" y="391.277759" style="fill-opacity: 0; stroke: #3d3d3d"/>
     <use xlink:href="#m8de365b265" x="995.009643" y="402.545455" style="fill-opacity: 0; stroke: #3d3d3d"/>
     <use xlink:href="#m8de365b265" x="995.009643" y="345.367076" style="fill-opacity: 0; stroke: #3d3d3d"/>
    </g>
   </g>
   <g id="line2d_41">
    <path d="M 45.373071 181.263698 
L 164.077643 181.263698 
" clip-path="url(#p693c7e9f3f)" style="fill: none; stroke: #3d3d3d"/>
   </g>
   <g id="line2d_42">
    <path d="M 193.753786 180.682954 
L 312.458357 180.682954 
" clip-path="url(#p693c7e9f3f)" style="fill: none; stroke: #3d3d3d"/>
   </g>
   <g id="line2d_43">
    <path d="M 342.1345 145.130611 
L 460.839071 145.130611 
" clip-path="url(#p693c7e9f3f)" style="fill: none; stroke: #3d3d3d"/>
   </g>
   <g id="line2d_44">
    <path d="M 490.515214 126.40644 
L 609.219786 126.40644 
" clip-path="url(#p693c7e9f3f)" style="fill: none; stroke: #3d3d3d"/>
   </g>
   <g id="line2d_45">
    <path d="M 638.895929 116.34056 
L 757.6005 116.34056 
" clip-path="url(#p693c7e9f3f)" style="fill: none; stroke: #3d3d3d"/>
   </g>
   <g id="line2d_46">
    <path d="M 787.276643 123.237073 
L 905.981214 123.237073 
" clip-path="url(#p693c7e9f3f)" style="fill: none; stroke: #3d3d3d"/>
   </g>
   <g id="line2d_47">
    <path d="M 935.657357 186.21888 
L 1054.361929 186.21888 
" clip-path="url(#p693c7e9f3f)" style="fill: none; stroke: #3d3d3d"/>
   </g>
   <g id="patch_10">
    <path d="M 30.535 421.2 
L 30.535 10.8 
" style="fill: none; stroke: #000000; stroke-width: 0.8; stroke-linejoin: miter; stroke-linecap: square"/>
   </g>
   <g id="patch_11">
    <path d="M 1069.2 421.2 
L 1069.2 10.8 
" style="fill: none; stroke: #000000; stroke-width: 0.8; stroke-linejoin: miter; stroke-linecap: square"/>
   </g>
   <g id="patch_12">
    <path d="M 30.535 421.2 
L 1069.2 421.2 
" style="fill: none; stroke: #000000; stroke-width: 0.8; stroke-linejoin: miter; stroke-linecap: square"/>
   </g>
   <g id="patch_13">
    <path d="M 30.535 10.8 
L 1069.2 10.8 
" style="fill: none; stroke: #000000; stroke-width: 0.8; stroke-linejoin: miter; stroke-linecap: square"/>
   </g>
  </g>
 </g>
 <defs>
  <clipPath id="p693c7e9f3f">
   <rect x="30.535" y="10.8" width="1038.665" height="410.4"/>
  </clipPath>
 </defs>
</svg>
