<?xml version="1.0" encoding="utf-8" standalone="no"?>
<!DOCTYPE svg PUBLIC "-//W3C//DTD SVG 1.1//EN"
  "http://www.w3.org/Graphics/SVG/1.1/DTD/svg11.dtd">
<svg xmlns:xlink="http://www.w3.org/1999/xlink" width="1080pt" height="432pt" viewBox="0 0 1080 432" xmlns="http://www.w3.org/2000/svg" version="1.1">
 <metadata>
  <rdf:RDF xmlns:dc="http://purl.org/dc/elements/1.1/" xmlns:cc="http://creativecommons.org/ns#" xmlns:rdf="http://www.w3.org/1999/02/22-rdf-syntax-ns#">
   <cc:Work>
    <dc:type rdf:resource="http://purl.org/dc/dcmitype/StillImage"/>
    <dc:date>2024-12-10T13:00:23.008396</dc:date>
    <dc:format>image/svg+xml</dc:format>
    <dc:creator>
     <cc:Agent>
      <dc:title>Matplotlib v3.9.3, https://matplotlib.org/</dc:title>
     </cc:Agent>
    </dc:creator>
   </cc:Work>
  </rdf:RDF>
 </metadata>
 <defs>
  <style type="text/css">*{stroke-linejoin: round; stroke-linecap: butt}</style>
 </defs>
 <g id="figure_1">
  <g id="patch_1">
   <path d="M 0 432 
L 1080 432 
L 1080 0 
L 0 0 
z
" style="fill: #ffffff"/>
  </g>
  <g id="axes_1">
   <g id="patch_2">
    <path d="M 40.165 421.2 
L 1069.2 421.2 
L 1069.2 10.8 
L 40.165 10.8 
z
" style="fill: #ffffff"/>
   </g>
   <g id="matplotlib.axis_1"/>
   <g id="matplotlib.axis_2">
    <g id="ytick_1">
     <g id="line2d_1">
      <defs>
       <path id="m2eab6e8060" d="M 0 0 
L -3.5 0 
" style="stroke: #000000; stroke-width: 0.8"/>
      </defs>
      <g>
       <use xlink:href="#m2eab6e8060" x="40.165" y="367.148881" style="stroke: #000000; stroke-width: 0.8"/>
      </g>
     </g>
     <g id="text_1">
      <!-- 0.75 -->
      <g transform="translate(10.899375 370.948099) scale(0.1 -0.1)">
       <defs>
        <path id="DejaVuSans-30" d="M 2034 4250 
Q 1547 4250 1301 3770 
Q 1056 3291 1056 2328 
Q 1056 1369 1301 889 
Q 1547 409 2034 409 
Q 2525 409 2770 889 
Q 3016 1369 3016 2328 
Q 3016 3291 2770 3770 
Q 2525 4250 2034 4250 
z
M 2034 4750 
Q 2819 4750 3233 4129 
Q 3647 3509 3647 2328 
Q 3647 1150 3233 529 
Q 2819 -91 2034 -91 
Q 1250 -91 836 529 
Q 422 1150 422 2328 
Q 422 3509 836 4129 
Q 1250 4750 2034 4750 
z
" transform="scale(0.015625)"/>
        <path id="DejaVuSans-2e" d="M 684 794 
L 1344 794 
L 1344 0 
L 684 0 
L 684 794 
z
" transform="scale(0.015625)"/>
        <path id="DejaVuSans-37" d="M 525 4666 
L 3525 4666 
L 3525 4397 
L 1831 0 
L 1172 0 
L 2766 4134 
L 525 4134 
L 525 4666 
z
" transform="scale(0.015625)"/>
        <path id="DejaVuSans-35" d="M 691 4666 
L 3169 4666 
L 3169 4134 
L 1269 4134 
L 1269 2991 
Q 1406 3038 1543 3061 
Q 1681 3084 1819 3084 
Q 2600 3084 3056 2656 
Q 3513 2228 3513 1497 
Q 3513 744 3044 326 
Q 2575 -91 1722 -91 
Q 1428 -91 1123 -41 
Q 819 9 494 109 
L 494 744 
Q 775 591 1075 516 
Q 1375 441 1709 441 
Q 2250 441 2565 725 
Q 2881 1009 2881 1497 
Q 2881 1984 2565 2268 
Q 2250 2553 1709 2553 
Q 1456 2553 1204 2497 
Q 953 2441 691 2322 
L 691 4666 
z
" transform="scale(0.015625)"/>
       </defs>
       <use xlink:href="#DejaVuSans-30"/>
       <use xlink:href="#DejaVuSans-2e" x="63.623047"/>
       <use xlink:href="#DejaVuSans-37" x="95.410156"/>
       <use xlink:href="#DejaVuSans-35" x="159.033203"/>
      </g>
     </g>
    </g>
    <g id="ytick_2">
     <g id="line2d_2">
      <g>
       <use xlink:href="#m2eab6e8060" x="40.165" y="299.218679" style="stroke: #000000; stroke-width: 0.8"/>
      </g>
     </g>
     <g id="text_2">
      <!-- 0.80 -->
      <g transform="translate(10.899375 303.017898) scale(0.1 -0.1)">
       <defs>
        <path id="DejaVuSans-38" d="M 2034 2216 
Q 1584 2216 1326 1975 
Q 1069 1734 1069 1313 
Q 1069 891 1326 650 
Q 1584 409 2034 409 
Q 2484 409 2743 651 
Q 3003 894 3003 1313 
Q 3003 1734 2745 1975 
Q 2488 2216 2034 2216 
z
M 1403 2484 
Q 997 2584 770 2862 
Q 544 3141 544 3541 
Q 544 4100 942 4425 
Q 1341 4750 2034 4750 
Q 2731 4750 3128 4425 
Q 3525 4100 3525 3541 
Q 3525 3141 3298 2862 
Q 3072 2584 2669 2484 
Q 3125 2378 3379 2068 
Q 3634 1759 3634 1313 
Q 3634 634 3220 271 
Q 2806 -91 2034 -91 
Q 1263 -91 848 271 
Q 434 634 434 1313 
Q 434 1759 690 2068 
Q 947 2378 1403 2484 
z
M 1172 3481 
Q 1172 3119 1398 2916 
Q 1625 2713 2034 2713 
Q 2441 2713 2670 2916 
Q 2900 3119 2900 3481 
Q 2900 3844 2670 4047 
Q 2441 4250 2034 4250 
Q 1625 4250 1398 4047 
Q 1172 3844 1172 3481 
z
" transform="scale(0.015625)"/>
       </defs>
       <use xlink:href="#DejaVuSans-30"/>
       <use xlink:href="#DejaVuSans-2e" x="63.623047"/>
       <use xlink:href="#DejaVuSans-38" x="95.410156"/>
       <use xlink:href="#DejaVuSans-30" x="159.033203"/>
      </g>
     </g>
    </g>
    <g id="ytick_3">
     <g id="line2d_3">
      <g>
       <use xlink:href="#m2eab6e8060" x="40.165" y="231.288477" style="stroke: #000000; stroke-width: 0.8"/>
      </g>
     </g>
     <g id="text_3">
      <!-- 0.85 -->
      <g transform="translate(10.899375 235.087696) scale(0.1 -0.1)">
       <use xlink:href="#DejaVuSans-30"/>
       <use xlink:href="#DejaVuSans-2e" x="63.623047"/>
       <use xlink:href="#DejaVuSans-38" x="95.410156"/>
       <use xlink:href="#DejaVuSans-35" x="159.033203"/>
      </g>
     </g>
    </g>
    <g id="ytick_4">
     <g id="line2d_4">
      <g>
       <use xlink:href="#m2eab6e8060" x="40.165" y="163.358275" style="stroke: #000000; stroke-width: 0.8"/>
      </g>
     </g>
     <g id="text_4">
      <!-- 0.90 -->
      <g transform="translate(10.899375 167.157494) scale(0.1 -0.1)">
       <defs>
        <path id="DejaVuSans-39" d="M 703 97 
L 703 672 
Q 941 559 1184 500 
Q 1428 441 1663 441 
Q 2288 441 2617 861 
Q 2947 1281 2994 2138 
Q 2813 1869 2534 1725 
Q 2256 1581 1919 1581 
Q 1219 1581 811 2004 
Q 403 2428 403 3163 
Q 403 3881 828 4315 
Q 1253 4750 1959 4750 
Q 2769 4750 3195 4129 
Q 3622 3509 3622 2328 
Q 3622 1225 3098 567 
Q 2575 -91 1691 -91 
Q 1453 -91 1209 -44 
Q 966 3 703 97 
z
M 1959 2075 
Q 2384 2075 2632 2365 
Q 2881 2656 2881 3163 
Q 2881 3666 2632 3958 
Q 2384 4250 1959 4250 
Q 1534 4250 1286 3958 
Q 1038 3666 1038 3163 
Q 1038 2656 1286 2365 
Q 1534 2075 1959 2075 
z
" transform="scale(0.015625)"/>
       </defs>
       <use xlink:href="#DejaVuSans-30"/>
       <use xlink:href="#DejaVuSans-2e" x="63.623047"/>
       <use xlink:href="#DejaVuSans-39" x="95.410156"/>
       <use xlink:href="#DejaVuSans-30" x="159.033203"/>
      </g>
     </g>
    </g>
    <g id="ytick_5">
     <g id="line2d_5">
      <g>
       <use xlink:href="#m2eab6e8060" x="40.165" y="95.428073" style="stroke: #000000; stroke-width: 0.8"/>
      </g>
     </g>
     <g id="text_5">
      <!-- 0.95 -->
      <g transform="translate(10.899375 99.227292) scale(0.1 -0.1)">
       <use xlink:href="#DejaVuSans-30"/>
       <use xlink:href="#DejaVuSans-2e" x="63.623047"/>
       <use xlink:href="#DejaVuSans-39" x="95.410156"/>
       <use xlink:href="#DejaVuSans-35" x="159.033203"/>
      </g>
     </g>
    </g>
    <g id="ytick_6">
     <g id="line2d_6">
      <g>
       <use xlink:href="#m2eab6e8060" x="40.165" y="27.497871" style="stroke: #000000; stroke-width: 0.8"/>
      </g>
     </g>
     <g id="text_6">
      <!-- 1.00 -->
      <g transform="translate(10.899375 31.29709) scale(0.1 -0.1)">
       <defs>
        <path id="DejaVuSans-31" d="M 794 531 
L 1825 531 
L 1825 4091 
L 703 3866 
L 703 4441 
L 1819 4666 
L 2450 4666 
L 2450 531 
L 3481 531 
L 3481 0 
L 794 0 
L 794 531 
z
" transform="scale(0.015625)"/>
       </defs>
       <use xlink:href="#DejaVuSans-31"/>
       <use xlink:href="#DejaVuSans-2e" x="63.623047"/>
       <use xlink:href="#DejaVuSans-30" x="95.410156"/>
       <use xlink:href="#DejaVuSans-30" x="159.033203"/>
      </g>
     </g>
    </g>
   </g>
   <g id="patch_3">
    <path d="M 54.8655 185.967597 
L 172.4695 185.967597 
L 172.4695 101.481232 
L 54.8655 101.481232 
L 54.8655 185.967597 
z
" clip-path="url(#p6e0072cd0b)" style="fill: #3274a1; stroke: #3d3d3d; stroke-linejoin: miter"/>
   </g>
   <g id="line2d_7">
    <path d="M 113.6675 185.967597 
L 113.6675 309.274307 
" clip-path="url(#p6e0072cd0b)" style="fill: none; stroke: #3d3d3d"/>
   </g>
   <g id="line2d_8">
    <path d="M 113.6675 101.481232 
L 113.6675 43.868607 
" clip-path="url(#p6e0072cd0b)" style="fill: none; stroke: #3d3d3d"/>
   </g>
   <g id="line2d_9">
    <path d="M 84.2665 309.274307 
L 143.0685 309.274307 
" clip-path="url(#p6e0072cd0b)" style="fill: none; stroke: #3d3d3d; stroke-linecap: square"/>
   </g>
   <g id="line2d_10">
    <path d="M 84.2665 43.868607 
L 143.0685 43.868607 
" clip-path="url(#p6e0072cd0b)" style="fill: none; stroke: #3d3d3d; stroke-linecap: square"/>
   </g>
   <g id="line2d_11">
    <defs>
     <path id="m9d0f6f0d1e" d="M 0 3 
C 0.795609 3 1.55874 2.683901 2.12132 2.12132 
C 2.683901 1.55874 3 0.795609 3 0 
C 3 -0.795609 2.683901 -1.55874 2.12132 -2.12132 
C 1.55874 -2.683901 0.795609 -3 0 -3 
C -0.795609 -3 -1.55874 -2.683901 -2.12132 -2.12132 
C -2.683901 -1.55874 -3 -0.795609 -3 0 
C -3 0.795609 -2.683901 1.55874 -2.12132 2.12132 
C -1.55874 2.683901 -0.795609 3 0 3 
z
" style="stroke: #3d3d3d"/>
    </defs>
    <g clip-path="url(#p6e0072cd0b)">
     <use xlink:href="#m9d0f6f0d1e" x="113.6675" y="336.592913" style="fill-opacity: 0; stroke: #3d3d3d"/>
     <use xlink:href="#m9d0f6f0d1e" x="113.6675" y="397.575955" style="fill-opacity: 0; stroke: #3d3d3d"/>
     <use xlink:href="#m9d0f6f0d1e" x="113.6675" y="349.297013" style="fill-opacity: 0; stroke: #3d3d3d"/>
     <use xlink:href="#m9d0f6f0d1e" x="113.6675" y="349.297013" style="fill-opacity: 0; stroke: #3d3d3d"/>
    </g>
   </g>
   <g id="patch_4">
    <path d="M 201.8705 186.721832 
L 319.4745 186.721832 
L 319.4745 102.957381 
L 201.8705 102.957381 
L 201.8705 186.721832 
z
" clip-path="url(#p6e0072cd0b)" style="fill: #e1812c; stroke: #3d3d3d; stroke-linejoin: miter"/>
   </g>
   <g id="line2d_12">
    <path d="M 260.6725 186.721832 
L 260.6725 310.084528 
" clip-path="url(#p6e0072cd0b)" style="fill: none; stroke: #3d3d3d"/>
   </g>
   <g id="line2d_13">
    <path d="M 260.6725 102.957381 
L 260.6725 44.180982 
" clip-path="url(#p6e0072cd0b)" style="fill: none; stroke: #3d3d3d"/>
   </g>
   <g id="line2d_14">
    <path d="M 231.2715 310.084528 
L 290.0735 310.084528 
" clip-path="url(#p6e0072cd0b)" style="fill: none; stroke: #3d3d3d; stroke-linecap: square"/>
   </g>
   <g id="line2d_15">
    <path d="M 231.2715 44.180982 
L 290.0735 44.180982 
" clip-path="url(#p6e0072cd0b)" style="fill: none; stroke: #3d3d3d; stroke-linecap: square"/>
   </g>
   <g id="line2d_16">
    <g clip-path="url(#p6e0072cd0b)">
     <use xlink:href="#m9d0f6f0d1e" x="260.6725" y="336.480115" style="fill-opacity: 0; stroke: #3d3d3d"/>
     <use xlink:href="#m9d0f6f0d1e" x="260.6725" y="396.853887" style="fill-opacity: 0; stroke: #3d3d3d"/>
     <use xlink:href="#m9d0f6f0d1e" x="260.6725" y="349.416223" style="fill-opacity: 0; stroke: #3d3d3d"/>
     <use xlink:href="#m9d0f6f0d1e" x="260.6725" y="349.338885" style="fill-opacity: 0; stroke: #3d3d3d"/>
    </g>
   </g>
   <g id="patch_5">
    <path d="M 348.8755 183.951755 
L 466.4795 183.951755 
L 466.4795 101.822038 
L 348.8755 101.822038 
L 348.8755 183.951755 
z
" clip-path="url(#p6e0072cd0b)" style="fill: #3a923a; stroke: #3d3d3d; stroke-linejoin: miter"/>
   </g>
   <g id="line2d_17">
    <path d="M 407.6775 183.951755 
L 407.6775 301.878068 
" clip-path="url(#p6e0072cd0b)" style="fill: none; stroke: #3d3d3d"/>
   </g>
   <g id="line2d_18">
    <path d="M 407.6775 101.822038 
L 407.6775 43.250494 
" clip-path="url(#p6e0072cd0b)" style="fill: none; stroke: #3d3d3d"/>
   </g>
   <g id="line2d_19">
    <path d="M 378.2765 301.878068 
L 437.0785 301.878068 
" clip-path="url(#p6e0072cd0b)" style="fill: none; stroke: #3d3d3d; stroke-linecap: square"/>
   </g>
   <g id="line2d_20">
    <path d="M 378.2765 43.250494 
L 437.0785 43.250494 
" clip-path="url(#p6e0072cd0b)" style="fill: none; stroke: #3d3d3d; stroke-linecap: square"/>
   </g>
   <g id="line2d_21">
    <g clip-path="url(#p6e0072cd0b)">
     <use xlink:href="#m9d0f6f0d1e" x="407.6775" y="326.624075" style="fill-opacity: 0; stroke: #3d3d3d"/>
     <use xlink:href="#m9d0f6f0d1e" x="407.6775" y="402.545455" style="fill-opacity: 0; stroke: #3d3d3d"/>
     <use xlink:href="#m9d0f6f0d1e" x="407.6775" y="347.338368" style="fill-opacity: 0; stroke: #3d3d3d"/>
     <use xlink:href="#m9d0f6f0d1e" x="407.6775" y="317.334884" style="fill-opacity: 0; stroke: #3d3d3d"/>
     <use xlink:href="#m9d0f6f0d1e" x="407.6775" y="347.338368" style="fill-opacity: 0; stroke: #3d3d3d"/>
     <use xlink:href="#m9d0f6f0d1e" x="407.6775" y="309.955147" style="fill-opacity: 0; stroke: #3d3d3d"/>
    </g>
   </g>
   <g id="patch_6">
    <path d="M 495.8805 166.134387 
L 613.4845 166.134387 
L 613.4845 100.717078 
L 495.8805 100.717078 
L 495.8805 166.134387 
z
" clip-path="url(#p6e0072cd0b)" style="fill: #c03d3e; stroke: #3d3d3d; stroke-linejoin: miter"/>
   </g>
   <g id="line2d_22">
    <path d="M 554.6825 166.134387 
L 554.6825 258.909104 
" clip-path="url(#p6e0072cd0b)" style="fill: none; stroke: #3d3d3d"/>
   </g>
   <g id="line2d_23">
    <path d="M 554.6825 100.717078 
L 554.6825 51.547594 
" clip-path="url(#p6e0072cd0b)" style="fill: none; stroke: #3d3d3d"/>
   </g>
   <g id="line2d_24">
    <path d="M 525.2815 258.909104 
L 584.0835 258.909104 
" clip-path="url(#p6e0072cd0b)" style="fill: none; stroke: #3d3d3d; stroke-linecap: square"/>
   </g>
   <g id="line2d_25">
    <path d="M 525.2815 51.547594 
L 584.0835 51.547594 
" clip-path="url(#p6e0072cd0b)" style="fill: none; stroke: #3d3d3d; stroke-linecap: square"/>
   </g>
   <g id="line2d_26">
    <g clip-path="url(#p6e0072cd0b)">
     <use xlink:href="#m9d0f6f0d1e" x="554.6825" y="265.32215" style="fill-opacity: 0; stroke: #3d3d3d"/>
     <use xlink:href="#m9d0f6f0d1e" x="554.6825" y="290.012524" style="fill-opacity: 0; stroke: #3d3d3d"/>
     <use xlink:href="#m9d0f6f0d1e" x="554.6825" y="357.834675" style="fill-opacity: 0; stroke: #3d3d3d"/>
     <use xlink:href="#m9d0f6f0d1e" x="554.6825" y="288.282282" style="fill-opacity: 0; stroke: #3d3d3d"/>
     <use xlink:href="#m9d0f6f0d1e" x="554.6825" y="270.495839" style="fill-opacity: 0; stroke: #3d3d3d"/>
     <use xlink:href="#m9d0f6f0d1e" x="554.6825" y="277.439263" style="fill-opacity: 0; stroke: #3d3d3d"/>
     <use xlink:href="#m9d0f6f0d1e" x="554.6825" y="288.282282" style="fill-opacity: 0; stroke: #3d3d3d"/>
    </g>
   </g>
   <g id="patch_7">
    <path d="M 642.8855 170.401149 
L 760.4895 170.401149 
L 760.4895 40.379676 
L 642.8855 40.379676 
L 642.8855 170.401149 
z
" clip-path="url(#p6e0072cd0b)" style="fill: #9372b2; stroke: #3d3d3d; stroke-linejoin: miter"/>
   </g>
   <g id="line2d_27">
    <path d="M 701.6875 170.401149 
L 701.6875 359.296795 
" clip-path="url(#p6e0072cd0b)" style="fill: none; stroke: #3d3d3d"/>
   </g>
   <g id="line2d_28">
    <path d="M 701.6875 40.379676 
L 701.6875 33.014583 
" clip-path="url(#p6e0072cd0b)" style="fill: none; stroke: #3d3d3d"/>
   </g>
   <g id="line2d_29">
    <path d="M 672.2865 359.296795 
L 731.0885 359.296795 
" clip-path="url(#p6e0072cd0b)" style="fill: none; stroke: #3d3d3d; stroke-linecap: square"/>
   </g>
   <g id="line2d_30">
    <path d="M 672.2865 33.014583 
L 731.0885 33.014583 
" clip-path="url(#p6e0072cd0b)" style="fill: none; stroke: #3d3d3d; stroke-linecap: square"/>
   </g>
   <g id="line2d_31">
    <g clip-path="url(#p6e0072cd0b)">
     <use xlink:href="#m9d0f6f0d1e" x="701.6875" y="385.8513" style="fill-opacity: 0; stroke: #3d3d3d"/>
    </g>
   </g>
   <g id="patch_8">
    <path d="M 789.8905 168.880188 
L 907.4945 168.880188 
L 907.4945 38.358252 
L 789.8905 38.358252 
L 789.8905 168.880188 
z
" clip-path="url(#p6e0072cd0b)" style="fill: #845b53; stroke: #3d3d3d; stroke-linejoin: miter"/>
   </g>
   <g id="line2d_32">
    <path d="M 848.6925 168.880188 
L 848.6925 356.232926 
" clip-path="url(#p6e0072cd0b)" style="fill: none; stroke: #3d3d3d"/>
   </g>
   <g id="line2d_33">
    <path d="M 848.6925 38.358252 
L 848.6925 32.439553 
" clip-path="url(#p6e0072cd0b)" style="fill: none; stroke: #3d3d3d"/>
   </g>
   <g id="line2d_34">
    <path d="M 819.2915 356.232926 
L 878.0935 356.232926 
" clip-path="url(#p6e0072cd0b)" style="fill: none; stroke: #3d3d3d; stroke-linecap: square"/>
   </g>
   <g id="line2d_35">
    <path d="M 819.2915 32.439553 
L 878.0935 32.439553 
" clip-path="url(#p6e0072cd0b)" style="fill: none; stroke: #3d3d3d; stroke-linecap: square"/>
   </g>
   <g id="line2d_36"/>
   <g id="patch_9">
    <path d="M 936.8955 179.924094 
L 1054.4995 179.924094 
L 1054.4995 33.274379 
L 936.8955 33.274379 
L 936.8955 179.924094 
z
" clip-path="url(#p6e0072cd0b)" style="fill: #d684bd; stroke: #3d3d3d; stroke-linejoin: miter"/>
   </g>
   <g id="line2d_37">
    <path d="M 995.6975 179.924094 
L 995.6975 383.141364 
" clip-path="url(#p6e0072cd0b)" style="fill: none; stroke: #3d3d3d"/>
   </g>
   <g id="line2d_38">
    <path d="M 995.6975 33.274379 
L 995.6975 29.454545 
" clip-path="url(#p6e0072cd0b)" style="fill: none; stroke: #3d3d3d"/>
   </g>
   <g id="line2d_39">
    <path d="M 966.2965 383.141364 
L 1025.0985 383.141364 
" clip-path="url(#p6e0072cd0b)" style="fill: none; stroke: #3d3d3d; stroke-linecap: square"/>
   </g>
   <g id="line2d_40">
    <path d="M 966.2965 29.454545 
L 1025.0985 29.454545 
" clip-path="url(#p6e0072cd0b)" style="fill: none; stroke: #3d3d3d; stroke-linecap: square"/>
   </g>
   <g id="line2d_41"/>
   <g id="line2d_42">
    <path d="M 54.8655 137.250652 
L 172.4695 137.250652 
" clip-path="url(#p6e0072cd0b)" style="fill: none; stroke: #3d3d3d"/>
   </g>
   <g id="line2d_43">
    <path d="M 201.8705 138.862017 
L 319.4745 138.862017 
" clip-path="url(#p6e0072cd0b)" style="fill: none; stroke: #3d3d3d"/>
   </g>
   <g id="line2d_44">
    <path d="M 348.8755 137.553642 
L 466.4795 137.553642 
" clip-path="url(#p6e0072cd0b)" style="fill: none; stroke: #3d3d3d"/>
   </g>
   <g id="line2d_45">
    <path d="M 495.8805 126.252519 
L 613.4845 126.252519 
" clip-path="url(#p6e0072cd0b)" style="fill: none; stroke: #3d3d3d"/>
   </g>
   <g id="line2d_46">
    <path d="M 642.8855 53.473167 
L 760.4895 53.473167 
" clip-path="url(#p6e0072cd0b)" style="fill: none; stroke: #3d3d3d"/>
   </g>
   <g id="line2d_47">
    <path d="M 789.8905 50.854254 
L 907.4945 50.854254 
" clip-path="url(#p6e0072cd0b)" style="fill: none; stroke: #3d3d3d"/>
   </g>
   <g id="line2d_48">
    <path d="M 936.8955 39.512327 
L 1054.4995 39.512327 
" clip-path="url(#p6e0072cd0b)" style="fill: none; stroke: #3d3d3d"/>
   </g>
   <g id="patch_10">
    <path d="M 40.165 421.2 
L 40.165 10.8 
" style="fill: none; stroke: #000000; stroke-width: 0.8; stroke-linejoin: miter; stroke-linecap: square"/>
   </g>
   <g id="patch_11">
    <path d="M 1069.2 421.2 
L 1069.2 10.8 
" style="fill: none; stroke: #000000; stroke-width: 0.8; stroke-linejoin: miter; stroke-linecap: square"/>
   </g>
   <g id="patch_12">
    <path d="M 40.165 421.2 
L 1069.2 421.2 
" style="fill: none; stroke: #000000; stroke-width: 0.8; stroke-linejoin: miter; stroke-linecap: square"/>
   </g>
   <g id="patch_13">
    <path d="M 40.165 10.8 
L 1069.2 10.8 
" style="fill: none; stroke: #000000; stroke-width: 0.8; stroke-linejoin: miter; stroke-linecap: square"/>
   </g>
  </g>
 </g>
 <defs>
  <clipPath id="p6e0072cd0b">
   <rect x="40.165" y="10.8" width="1029.035" height="410.4"/>
  </clipPath>
 </defs>
</svg>
