<?xml version="1.0" encoding="utf-8" standalone="no"?>
<!DOCTYPE svg PUBLIC "-//W3C//DTD SVG 1.1//EN"
  "http://www.w3.org/Graphics/SVG/1.1/DTD/svg11.dtd">
<svg xmlns:xlink="http://www.w3.org/1999/xlink" width="1080pt" height="432pt" viewBox="0 0 1080 432" xmlns="http://www.w3.org/2000/svg" version="1.1">
 <metadata>
  <rdf:RDF xmlns:dc="http://purl.org/dc/elements/1.1/" xmlns:cc="http://creativecommons.org/ns#" xmlns:rdf="http://www.w3.org/1999/02/22-rdf-syntax-ns#">
   <cc:Work>
    <dc:type rdf:resource="http://purl.org/dc/dcmitype/StillImage"/>
    <dc:date>2024-12-10T13:00:34.182349</dc:date>
    <dc:format>image/svg+xml</dc:format>
    <dc:creator>
     <cc:Agent>
      <dc:title>Matplotlib v3.9.3, https://matplotlib.org/</dc:title>
     </cc:Agent>
    </dc:creator>
   </cc:Work>
  </rdf:RDF>
 </metadata>
 <defs>
  <style type="text/css">*{stroke-linejoin: round; stroke-linecap: butt}</style>
 </defs>
 <g id="figure_1">
  <g id="patch_1">
   <path d="M 0 432 
L 1080 432 
L 1080 0 
L 0 0 
z
" style="fill: #ffffff"/>
  </g>
  <g id="axes_1">
   <g id="patch_2">
    <path d="M 30.535 421.2 
L 1069.2 421.2 
L 1069.2 10.8 
L 30.535 10.8 
z
" style="fill: #ffffff"/>
   </g>
   <g id="matplotlib.axis_1"/>
   <g id="matplotlib.axis_2">
    <g id="ytick_1">
     <g id="line2d_1">
      <defs>
       <path id="m2f890e8018" d="M 0 0 
L -3.5 0 
" style="stroke: #000000; stroke-width: 0.8"/>
      </defs>
      <g>
       <use xlink:href="#m2f890e8018" x="30.535" y="64.963265" style="stroke: #000000; stroke-width: 0.8"/>
      </g>
     </g>
     <g id="text_1">
      <!-- 2 -->
      <g transform="translate(17.1725 68.762484) scale(0.1 -0.1)">
       <defs>
        <path id="DejaVuSans-32" d="M 1228 531 
L 3431 531 
L 3431 0 
L 469 0 
L 469 531 
Q 828 903 1448 1529 
Q 2069 2156 2228 2338 
Q 2531 2678 2651 2914 
Q 2772 3150 2772 3378 
Q 2772 3750 2511 3984 
Q 2250 4219 1831 4219 
Q 1534 4219 1204 4116 
Q 875 4013 500 3803 
L 500 4441 
Q 881 4594 1212 4672 
Q 1544 4750 1819 4750 
Q 2544 4750 2975 4387 
Q 3406 4025 3406 3419 
Q 3406 3131 3298 2873 
Q 3191 2616 2906 2266 
Q 2828 2175 2409 1742 
Q 1991 1309 1228 531 
z
" transform="scale(0.015625)"/>
       </defs>
       <use xlink:href="#DejaVuSans-32"/>
      </g>
     </g>
    </g>
    <g id="ytick_2">
     <g id="line2d_2">
      <g>
       <use xlink:href="#m2f890e8018" x="30.535" y="149.415823" style="stroke: #000000; stroke-width: 0.8"/>
      </g>
     </g>
     <g id="text_2">
      <!-- 4 -->
      <g transform="translate(17.1725 153.215042) scale(0.1 -0.1)">
       <defs>
        <path id="DejaVuSans-34" d="M 2419 4116 
L 825 1625 
L 2419 1625 
L 2419 4116 
z
M 2253 4666 
L 3047 4666 
L 3047 1625 
L 3713 1625 
L 3713 1100 
L 3047 1100 
L 3047 0 
L 2419 0 
L 2419 1100 
L 313 1100 
L 313 1709 
L 2253 4666 
z
" transform="scale(0.015625)"/>
       </defs>
       <use xlink:href="#DejaVuSans-34"/>
      </g>
     </g>
    </g>
    <g id="ytick_3">
     <g id="line2d_3">
      <g>
       <use xlink:href="#m2f890e8018" x="30.535" y="233.868381" style="stroke: #000000; stroke-width: 0.8"/>
      </g>
     </g>
     <g id="text_3">
      <!-- 6 -->
      <g transform="translate(17.1725 237.6676) scale(0.1 -0.1)">
       <defs>
        <path id="DejaVuSans-36" d="M 2113 2584 
Q 1688 2584 1439 2293 
Q 1191 2003 1191 1497 
Q 1191 994 1439 701 
Q 1688 409 2113 409 
Q 2538 409 2786 701 
Q 3034 994 3034 1497 
Q 3034 2003 2786 2293 
Q 2538 2584 2113 2584 
z
M 3366 4563 
L 3366 3988 
Q 3128 4100 2886 4159 
Q 2644 4219 2406 4219 
Q 1781 4219 1451 3797 
Q 1122 3375 1075 2522 
Q 1259 2794 1537 2939 
Q 1816 3084 2150 3084 
Q 2853 3084 3261 2657 
Q 3669 2231 3669 1497 
Q 3669 778 3244 343 
Q 2819 -91 2113 -91 
Q 1303 -91 875 529 
Q 447 1150 447 2328 
Q 447 3434 972 4092 
Q 1497 4750 2381 4750 
Q 2619 4750 2861 4703 
Q 3103 4656 3366 4563 
z
" transform="scale(0.015625)"/>
       </defs>
       <use xlink:href="#DejaVuSans-36"/>
      </g>
     </g>
    </g>
    <g id="ytick_4">
     <g id="line2d_4">
      <g>
       <use xlink:href="#m2f890e8018" x="30.535" y="318.320939" style="stroke: #000000; stroke-width: 0.8"/>
      </g>
     </g>
     <g id="text_4">
      <!-- 8 -->
      <g transform="translate(17.1725 322.120157) scale(0.1 -0.1)">
       <defs>
        <path id="DejaVuSans-38" d="M 2034 2216 
Q 1584 2216 1326 1975 
Q 1069 1734 1069 1313 
Q 1069 891 1326 650 
Q 1584 409 2034 409 
Q 2484 409 2743 651 
Q 3003 894 3003 1313 
Q 3003 1734 2745 1975 
Q 2488 2216 2034 2216 
z
M 1403 2484 
Q 997 2584 770 2862 
Q 544 3141 544 3541 
Q 544 4100 942 4425 
Q 1341 4750 2034 4750 
Q 2731 4750 3128 4425 
Q 3525 4100 3525 3541 
Q 3525 3141 3298 2862 
Q 3072 2584 2669 2484 
Q 3125 2378 3379 2068 
Q 3634 1759 3634 1313 
Q 3634 634 3220 271 
Q 2806 -91 2034 -91 
Q 1263 -91 848 271 
Q 434 634 434 1313 
Q 434 1759 690 2068 
Q 947 2378 1403 2484 
z
M 1172 3481 
Q 1172 3119 1398 2916 
Q 1625 2713 2034 2713 
Q 2441 2713 2670 2916 
Q 2900 3119 2900 3481 
Q 2900 3844 2670 4047 
Q 2441 4250 2034 4250 
Q 1625 4250 1398 4047 
Q 1172 3844 1172 3481 
z
" transform="scale(0.015625)"/>
       </defs>
       <use xlink:href="#DejaVuSans-38"/>
      </g>
     </g>
    </g>
    <g id="ytick_5">
     <g id="line2d_5">
      <g>
       <use xlink:href="#m2f890e8018" x="30.535" y="402.773496" style="stroke: #000000; stroke-width: 0.8"/>
      </g>
     </g>
     <g id="text_5">
      <!-- 10 -->
      <g transform="translate(10.81 406.572715) scale(0.1 -0.1)">
       <defs>
        <path id="DejaVuSans-31" d="M 794 531 
L 1825 531 
L 1825 4091 
L 703 3866 
L 703 4441 
L 1819 4666 
L 2450 4666 
L 2450 531 
L 3481 531 
L 3481 0 
L 794 0 
L 794 531 
z
" transform="scale(0.015625)"/>
        <path id="DejaVuSans-30" d="M 2034 4250 
Q 1547 4250 1301 3770 
Q 1056 3291 1056 2328 
Q 1056 1369 1301 889 
Q 1547 409 2034 409 
Q 2525 409 2770 889 
Q 3016 1369 3016 2328 
Q 3016 3291 2770 3770 
Q 2525 4250 2034 4250 
z
M 2034 4750 
Q 2819 4750 3233 4129 
Q 3647 3509 3647 2328 
Q 3647 1150 3233 529 
Q 2819 -91 2034 -91 
Q 1250 -91 836 529 
Q 422 1150 422 2328 
Q 422 3509 836 4129 
Q 1250 4750 2034 4750 
z
" transform="scale(0.015625)"/>
       </defs>
       <use xlink:href="#DejaVuSans-31"/>
       <use xlink:href="#DejaVuSans-30" x="63.623047"/>
      </g>
     </g>
    </g>
   </g>
   <g id="patch_3">
    <path d="M 45.373071 158.270958 
L 164.077643 158.270958 
L 164.077643 203.369587 
L 45.373071 203.369587 
L 45.373071 158.270958 
z
" clip-path="url(#p00192af6a1)" style="fill: #3274a1; stroke: #3d3d3d; stroke-linejoin: miter"/>
   </g>
   <g id="line2d_6">
    <path d="M 104.725357 158.270958 
L 104.725357 96.530504 
" clip-path="url(#p00192af6a1)" style="fill: none; stroke: #3d3d3d"/>
   </g>
   <g id="line2d_7">
    <path d="M 104.725357 203.369587 
L 104.725357 267.398984 
" clip-path="url(#p00192af6a1)" style="fill: none; stroke: #3d3d3d"/>
   </g>
   <g id="line2d_8">
    <path d="M 75.049214 96.530504 
L 134.4015 96.530504 
" clip-path="url(#p00192af6a1)" style="fill: none; stroke: #3d3d3d; stroke-linecap: square"/>
   </g>
   <g id="line2d_9">
    <path d="M 75.049214 267.398984 
L 134.4015 267.398984 
" clip-path="url(#p00192af6a1)" style="fill: none; stroke: #3d3d3d; stroke-linecap: square"/>
   </g>
   <g id="line2d_10">
    <defs>
     <path id="m21c22f3297" d="M 0 3 
C 0.795609 3 1.55874 2.683901 2.12132 2.12132 
C 2.683901 1.55874 3 0.795609 3 0 
C 3 -0.795609 2.683901 -1.55874 2.12132 -2.12132 
C 1.55874 -2.683901 0.795609 -3 0 -3 
C -0.795609 -3 -1.55874 -2.683901 -2.12132 -2.12132 
C -2.683901 -1.55874 -3 -0.795609 -3 0 
C -3 0.795609 -2.683901 1.55874 -2.12132 2.12132 
C -1.55874 2.683901 -0.795609 3 0 3 
z
" style="stroke: #3d3d3d"/>
    </defs>
    <g clip-path="url(#p00192af6a1)">
     <use xlink:href="#m21c22f3297" x="104.725357" y="289.03684" style="fill-opacity: 0; stroke: #3d3d3d"/>
     <use xlink:href="#m21c22f3297" x="104.725357" y="312.846813" style="fill-opacity: 0; stroke: #3d3d3d"/>
     <use xlink:href="#m21c22f3297" x="104.725357" y="333.573353" style="fill-opacity: 0; stroke: #3d3d3d"/>
    </g>
   </g>
   <g id="patch_4">
    <path d="M 193.753786 164.175882 
L 312.458357 164.175882 
L 312.458357 206.855369 
L 193.753786 206.855369 
L 193.753786 164.175882 
z
" clip-path="url(#p00192af6a1)" style="fill: #e1812c; stroke: #3d3d3d; stroke-linejoin: miter"/>
   </g>
   <g id="line2d_11">
    <path d="M 253.106071 164.175882 
L 253.106071 105.286148 
" clip-path="url(#p00192af6a1)" style="fill: none; stroke: #3d3d3d"/>
   </g>
   <g id="line2d_12">
    <path d="M 253.106071 206.855369 
L 253.106071 266.07959 
" clip-path="url(#p00192af6a1)" style="fill: none; stroke: #3d3d3d"/>
   </g>
   <g id="line2d_13">
    <path d="M 223.429929 105.286148 
L 282.782214 105.286148 
" clip-path="url(#p00192af6a1)" style="fill: none; stroke: #3d3d3d; stroke-linecap: square"/>
   </g>
   <g id="line2d_14">
    <path d="M 223.429929 266.07959 
L 282.782214 266.07959 
" clip-path="url(#p00192af6a1)" style="fill: none; stroke: #3d3d3d; stroke-linecap: square"/>
   </g>
   <g id="line2d_15">
    <g clip-path="url(#p00192af6a1)">
     <use xlink:href="#m21c22f3297" x="253.106071" y="289.31413" style="fill-opacity: 0; stroke: #3d3d3d"/>
     <use xlink:href="#m21c22f3297" x="253.106071" y="311.290267" style="fill-opacity: 0; stroke: #3d3d3d"/>
     <use xlink:href="#m21c22f3297" x="253.106071" y="340.115972" style="fill-opacity: 0; stroke: #3d3d3d"/>
    </g>
   </g>
   <g id="patch_5">
    <path d="M 342.1345 142.118168 
L 460.839071 142.118168 
L 460.839071 184.75153 
L 342.1345 184.75153 
L 342.1345 142.118168 
z
" clip-path="url(#p00192af6a1)" style="fill: #3a923a; stroke: #3d3d3d; stroke-linejoin: miter"/>
   </g>
   <g id="line2d_16">
    <path d="M 401.486786 142.118168 
L 401.486786 94.75853 
" clip-path="url(#p00192af6a1)" style="fill: none; stroke: #3d3d3d"/>
   </g>
   <g id="line2d_17">
    <path d="M 401.486786 184.75153 
L 401.486786 244.309474 
" clip-path="url(#p00192af6a1)" style="fill: none; stroke: #3d3d3d"/>
   </g>
   <g id="line2d_18">
    <path d="M 371.810643 94.75853 
L 431.162929 94.75853 
" clip-path="url(#p00192af6a1)" style="fill: none; stroke: #3d3d3d; stroke-linecap: square"/>
   </g>
   <g id="line2d_19">
    <path d="M 371.810643 244.309474 
L 431.162929 244.309474 
" clip-path="url(#p00192af6a1)" style="fill: none; stroke: #3d3d3d; stroke-linecap: square"/>
   </g>
   <g id="line2d_20">
    <g clip-path="url(#p00192af6a1)">
     <use xlink:href="#m21c22f3297" x="401.486786" y="261.55346" style="fill-opacity: 0; stroke: #3d3d3d"/>
     <use xlink:href="#m21c22f3297" x="401.486786" y="281.861976" style="fill-opacity: 0; stroke: #3d3d3d"/>
     <use xlink:href="#m21c22f3297" x="401.486786" y="320.757027" style="fill-opacity: 0; stroke: #3d3d3d"/>
     <use xlink:href="#m21c22f3297" x="401.486786" y="255.55309" style="fill-opacity: 0; stroke: #3d3d3d"/>
    </g>
   </g>
   <g id="patch_6">
    <path d="M 490.515214 132.967557 
L 609.219786 132.967557 
L 609.219786 168.816377 
L 490.515214 168.816377 
L 490.515214 132.967557 
z
" clip-path="url(#p00192af6a1)" style="fill: #c03d3e; stroke: #3d3d3d; stroke-linejoin: miter"/>
   </g>
   <g id="line2d_21">
    <path d="M 549.8675 132.967557 
L 549.8675 95.017034 
" clip-path="url(#p00192af6a1)" style="fill: none; stroke: #3d3d3d"/>
   </g>
   <g id="line2d_22">
    <path d="M 549.8675 168.816377 
L 549.8675 221.519308 
" clip-path="url(#p00192af6a1)" style="fill: none; stroke: #3d3d3d"/>
   </g>
   <g id="line2d_23">
    <path d="M 520.191357 95.017034 
L 579.543643 95.017034 
" clip-path="url(#p00192af6a1)" style="fill: none; stroke: #3d3d3d; stroke-linecap: square"/>
   </g>
   <g id="line2d_24">
    <path d="M 520.191357 221.519308 
L 579.543643 221.519308 
" clip-path="url(#p00192af6a1)" style="fill: none; stroke: #3d3d3d; stroke-linecap: square"/>
   </g>
   <g id="line2d_25">
    <g clip-path="url(#p00192af6a1)">
     <use xlink:href="#m21c22f3297" x="549.8675" y="230.588042" style="fill-opacity: 0; stroke: #3d3d3d"/>
     <use xlink:href="#m21c22f3297" x="549.8675" y="230.933393" style="fill-opacity: 0; stroke: #3d3d3d"/>
     <use xlink:href="#m21c22f3297" x="549.8675" y="250.652347" style="fill-opacity: 0; stroke: #3d3d3d"/>
     <use xlink:href="#m21c22f3297" x="549.8675" y="309.117207" style="fill-opacity: 0; stroke: #3d3d3d"/>
    </g>
   </g>
   <g id="patch_7">
    <path d="M 638.895929 88.65775 
L 757.6005 88.65775 
L 757.6005 178.15674 
L 638.895929 178.15674 
L 638.895929 88.65775 
z
" clip-path="url(#p00192af6a1)" style="fill: #9372b2; stroke: #3d3d3d; stroke-linejoin: miter"/>
   </g>
   <g id="line2d_26">
    <path d="M 698.248214 88.65775 
L 698.248214 29.454545 
" clip-path="url(#p00192af6a1)" style="fill: none; stroke: #3d3d3d"/>
   </g>
   <g id="line2d_27">
    <path d="M 698.248214 178.15674 
L 698.248214 308.003422 
" clip-path="url(#p00192af6a1)" style="fill: none; stroke: #3d3d3d"/>
   </g>
   <g id="line2d_28">
    <path d="M 668.572071 29.454545 
L 727.924357 29.454545 
" clip-path="url(#p00192af6a1)" style="fill: none; stroke: #3d3d3d; stroke-linecap: square"/>
   </g>
   <g id="line2d_29">
    <path d="M 668.572071 308.003422 
L 727.924357 308.003422 
" clip-path="url(#p00192af6a1)" style="fill: none; stroke: #3d3d3d; stroke-linecap: square"/>
   </g>
   <g id="line2d_30"/>
   <g id="patch_8">
    <path d="M 787.276643 113.327071 
L 905.981214 113.327071 
L 905.981214 186.533792 
L 787.276643 186.533792 
L 787.276643 113.327071 
z
" clip-path="url(#p00192af6a1)" style="fill: #845b53; stroke: #3d3d3d; stroke-linejoin: miter"/>
   </g>
   <g id="line2d_31">
    <path d="M 846.628929 113.327071 
L 846.628929 48.298759 
" clip-path="url(#p00192af6a1)" style="fill: none; stroke: #3d3d3d"/>
   </g>
   <g id="line2d_32">
    <path d="M 846.628929 186.533792 
L 846.628929 287.994905 
" clip-path="url(#p00192af6a1)" style="fill: none; stroke: #3d3d3d"/>
   </g>
   <g id="line2d_33">
    <path d="M 816.952786 48.298759 
L 876.305071 48.298759 
" clip-path="url(#p00192af6a1)" style="fill: none; stroke: #3d3d3d; stroke-linecap: square"/>
   </g>
   <g id="line2d_34">
    <path d="M 816.952786 287.994905 
L 876.305071 287.994905 
" clip-path="url(#p00192af6a1)" style="fill: none; stroke: #3d3d3d; stroke-linecap: square"/>
   </g>
   <g id="line2d_35">
    <g clip-path="url(#p00192af6a1)">
     <use xlink:href="#m21c22f3297" x="846.628929" y="311.802289" style="fill-opacity: 0; stroke: #3d3d3d"/>
    </g>
   </g>
   <g id="patch_9">
    <path d="M 935.657357 180.39834 
L 1054.361929 180.39834 
L 1054.361929 241.323139 
L 935.657357 241.323139 
L 935.657357 180.39834 
z
" clip-path="url(#p00192af6a1)" style="fill: #d684bd; stroke: #3d3d3d; stroke-linejoin: miter"/>
   </g>
   <g id="line2d_36">
    <path d="M 995.009643 180.39834 
L 995.009643 95.450872 
" clip-path="url(#p00192af6a1)" style="fill: none; stroke: #3d3d3d"/>
   </g>
   <g id="line2d_37">
    <path d="M 995.009643 241.323139 
L 995.009643 329.238028 
" clip-path="url(#p00192af6a1)" style="fill: none; stroke: #3d3d3d"/>
   </g>
   <g id="line2d_38">
    <path d="M 965.3335 95.450872 
L 1024.685786 95.450872 
" clip-path="url(#p00192af6a1)" style="fill: none; stroke: #3d3d3d; stroke-linecap: square"/>
   </g>
   <g id="line2d_39">
    <path d="M 965.3335 329.238028 
L 1024.685786 329.238028 
" clip-path="url(#p00192af6a1)" style="fill: none; stroke: #3d3d3d; stroke-linecap: square"/>
   </g>
   <g id="line2d_40">
    <g clip-path="url(#p00192af6a1)">
     <use xlink:href="#m21c22f3297" x="995.009643" y="34.313405" style="fill-opacity: 0; stroke: #3d3d3d"/>
     <use xlink:href="#m21c22f3297" x="995.009643" y="343.131974" style="fill-opacity: 0; stroke: #3d3d3d"/>
     <use xlink:href="#m21c22f3297" x="995.009643" y="402.545455" style="fill-opacity: 0; stroke: #3d3d3d"/>
     <use xlink:href="#m21c22f3297" x="995.009643" y="385.395241" style="fill-opacity: 0; stroke: #3d3d3d"/>
     <use xlink:href="#m21c22f3297" x="995.009643" y="397.767641" style="fill-opacity: 0; stroke: #3d3d3d"/>
     <use xlink:href="#m21c22f3297" x="995.009643" y="385.492906" style="fill-opacity: 0; stroke: #3d3d3d"/>
    </g>
   </g>
   <g id="line2d_41">
    <path d="M 45.373071 181.438263 
L 164.077643 181.438263 
" clip-path="url(#p00192af6a1)" style="fill: none; stroke: #3d3d3d"/>
   </g>
   <g id="line2d_42">
    <path d="M 193.753786 184.798518 
L 312.458357 184.798518 
" clip-path="url(#p00192af6a1)" style="fill: none; stroke: #3d3d3d"/>
   </g>
   <g id="line2d_43">
    <path d="M 342.1345 161.265222 
L 460.839071 161.265222 
" clip-path="url(#p00192af6a1)" style="fill: none; stroke: #3d3d3d"/>
   </g>
   <g id="line2d_44">
    <path d="M 490.515214 150.881141 
L 609.219786 150.881141 
" clip-path="url(#p00192af6a1)" style="fill: none; stroke: #3d3d3d"/>
   </g>
   <g id="line2d_45">
    <path d="M 638.895929 143.268229 
L 757.6005 143.268229 
" clip-path="url(#p00192af6a1)" style="fill: none; stroke: #3d3d3d"/>
   </g>
   <g id="line2d_46">
    <path d="M 787.276643 155.49039 
L 905.981214 155.49039 
" clip-path="url(#p00192af6a1)" style="fill: none; stroke: #3d3d3d"/>
   </g>
   <g id="line2d_47">
    <path d="M 935.657357 215.281052 
L 1054.361929 215.281052 
" clip-path="url(#p00192af6a1)" style="fill: none; stroke: #3d3d3d"/>
   </g>
   <g id="patch_10">
    <path d="M 30.535 421.2 
L 30.535 10.8 
" style="fill: none; stroke: #000000; stroke-width: 0.8; stroke-linejoin: miter; stroke-linecap: square"/>
   </g>
   <g id="patch_11">
    <path d="M 1069.2 421.2 
L 1069.2 10.8 
" style="fill: none; stroke: #000000; stroke-width: 0.8; stroke-linejoin: miter; stroke-linecap: square"/>
   </g>
   <g id="patch_12">
    <path d="M 30.535 421.2 
L 1069.2 421.2 
" style="fill: none; stroke: #000000; stroke-width: 0.8; stroke-linejoin: miter; stroke-linecap: square"/>
   </g>
   <g id="patch_13">
    <path d="M 30.535 10.8 
L 1069.2 10.8 
" style="fill: none; stroke: #000000; stroke-width: 0.8; stroke-linejoin: miter; stroke-linecap: square"/>
   </g>
  </g>
 </g>
 <defs>
  <clipPath id="p00192af6a1">
   <rect x="30.535" y="10.8" width="1038.665" height="410.4"/>
  </clipPath>
 </defs>
</svg>
