<?xml version="1.0" encoding="utf-8" standalone="no"?>
<!DOCTYPE svg PUBLIC "-//W3C//DTD SVG 1.1//EN"
  "http://www.w3.org/Graphics/SVG/1.1/DTD/svg11.dtd">
<svg xmlns:xlink="http://www.w3.org/1999/xlink" width="1080pt" height="432pt" viewBox="0 0 1080 432" xmlns="http://www.w3.org/2000/svg" version="1.1">
 <metadata>
  <rdf:RDF xmlns:dc="http://purl.org/dc/elements/1.1/" xmlns:cc="http://creativecommons.org/ns#" xmlns:rdf="http://www.w3.org/1999/02/22-rdf-syntax-ns#">
   <cc:Work>
    <dc:type rdf:resource="http://purl.org/dc/dcmitype/StillImage"/>
    <dc:date>2024-12-10T13:00:35.701919</dc:date>
    <dc:format>image/svg+xml</dc:format>
    <dc:creator>
     <cc:Agent>
      <dc:title>Matplotlib v3.9.3, https://matplotlib.org/</dc:title>
     </cc:Agent>
    </dc:creator>
   </cc:Work>
  </rdf:RDF>
 </metadata>
 <defs>
  <style type="text/css">*{stroke-linejoin: round; stroke-linecap: butt}</style>
 </defs>
 <g id="figure_1">
  <g id="patch_1">
   <path d="M 0 432 
L 1080 432 
L 1080 0 
L 0 0 
z
" style="fill: #ffffff"/>
  </g>
  <g id="axes_1">
   <g id="patch_2">
    <path d="M 40.165 421.2 
L 1069.2 421.2 
L 1069.2 10.8 
L 40.165 10.8 
z
" style="fill: #ffffff"/>
   </g>
   <g id="matplotlib.axis_1"/>
   <g id="matplotlib.axis_2">
    <g id="ytick_1">
     <g id="line2d_1">
      <defs>
       <path id="mfa5cc6e76e" d="M 0 0 
L -3.5 0 
" style="stroke: #000000; stroke-width: 0.8"/>
      </defs>
      <g>
       <use xlink:href="#mfa5cc6e76e" x="40.165" y="377.926118" style="stroke: #000000; stroke-width: 0.8"/>
      </g>
     </g>
     <g id="text_1">
      <!-- 0.70 -->
      <g transform="translate(10.899375 381.725337) scale(0.1 -0.1)">
       <defs>
        <path id="DejaVuSans-30" d="M 2034 4250 
Q 1547 4250 1301 3770 
Q 1056 3291 1056 2328 
Q 1056 1369 1301 889 
Q 1547 409 2034 409 
Q 2525 409 2770 889 
Q 3016 1369 3016 2328 
Q 3016 3291 2770 3770 
Q 2525 4250 2034 4250 
z
M 2034 4750 
Q 2819 4750 3233 4129 
Q 3647 3509 3647 2328 
Q 3647 1150 3233 529 
Q 2819 -91 2034 -91 
Q 1250 -91 836 529 
Q 422 1150 422 2328 
Q 422 3509 836 4129 
Q 1250 4750 2034 4750 
z
" transform="scale(0.015625)"/>
        <path id="DejaVuSans-2e" d="M 684 794 
L 1344 794 
L 1344 0 
L 684 0 
L 684 794 
z
" transform="scale(0.015625)"/>
        <path id="DejaVuSans-37" d="M 525 4666 
L 3525 4666 
L 3525 4397 
L 1831 0 
L 1172 0 
L 2766 4134 
L 525 4134 
L 525 4666 
z
" transform="scale(0.015625)"/>
       </defs>
       <use xlink:href="#DejaVuSans-30"/>
       <use xlink:href="#DejaVuSans-2e" x="63.623047"/>
       <use xlink:href="#DejaVuSans-37" x="95.410156"/>
       <use xlink:href="#DejaVuSans-30" x="159.033203"/>
      </g>
     </g>
    </g>
    <g id="ytick_2">
     <g id="line2d_2">
      <g>
       <use xlink:href="#mfa5cc6e76e" x="40.165" y="319.449389" style="stroke: #000000; stroke-width: 0.8"/>
      </g>
     </g>
     <g id="text_2">
      <!-- 0.75 -->
      <g transform="translate(10.899375 323.248608) scale(0.1 -0.1)">
       <defs>
        <path id="DejaVuSans-35" d="M 691 4666 
L 3169 4666 
L 3169 4134 
L 1269 4134 
L 1269 2991 
Q 1406 3038 1543 3061 
Q 1681 3084 1819 3084 
Q 2600 3084 3056 2656 
Q 3513 2228 3513 1497 
Q 3513 744 3044 326 
Q 2575 -91 1722 -91 
Q 1428 -91 1123 -41 
Q 819 9 494 109 
L 494 744 
Q 775 591 1075 516 
Q 1375 441 1709 441 
Q 2250 441 2565 725 
Q 2881 1009 2881 1497 
Q 2881 1984 2565 2268 
Q 2250 2553 1709 2553 
Q 1456 2553 1204 2497 
Q 953 2441 691 2322 
L 691 4666 
z
" transform="scale(0.015625)"/>
       </defs>
       <use xlink:href="#DejaVuSans-30"/>
       <use xlink:href="#DejaVuSans-2e" x="63.623047"/>
       <use xlink:href="#DejaVuSans-37" x="95.410156"/>
       <use xlink:href="#DejaVuSans-35" x="159.033203"/>
      </g>
     </g>
    </g>
    <g id="ytick_3">
     <g id="line2d_3">
      <g>
       <use xlink:href="#mfa5cc6e76e" x="40.165" y="260.97266" style="stroke: #000000; stroke-width: 0.8"/>
      </g>
     </g>
     <g id="text_3">
      <!-- 0.80 -->
      <g transform="translate(10.899375 264.771879) scale(0.1 -0.1)">
       <defs>
        <path id="DejaVuSans-38" d="M 2034 2216 
Q 1584 2216 1326 1975 
Q 1069 1734 1069 1313 
Q 1069 891 1326 650 
Q 1584 409 2034 409 
Q 2484 409 2743 651 
Q 3003 894 3003 1313 
Q 3003 1734 2745 1975 
Q 2488 2216 2034 2216 
z
M 1403 2484 
Q 997 2584 770 2862 
Q 544 3141 544 3541 
Q 544 4100 942 4425 
Q 1341 4750 2034 4750 
Q 2731 4750 3128 4425 
Q 3525 4100 3525 3541 
Q 3525 3141 3298 2862 
Q 3072 2584 2669 2484 
Q 3125 2378 3379 2068 
Q 3634 1759 3634 1313 
Q 3634 634 3220 271 
Q 2806 -91 2034 -91 
Q 1263 -91 848 271 
Q 434 634 434 1313 
Q 434 1759 690 2068 
Q 947 2378 1403 2484 
z
M 1172 3481 
Q 1172 3119 1398 2916 
Q 1625 2713 2034 2713 
Q 2441 2713 2670 2916 
Q 2900 3119 2900 3481 
Q 2900 3844 2670 4047 
Q 2441 4250 2034 4250 
Q 1625 4250 1398 4047 
Q 1172 3844 1172 3481 
z
" transform="scale(0.015625)"/>
       </defs>
       <use xlink:href="#DejaVuSans-30"/>
       <use xlink:href="#DejaVuSans-2e" x="63.623047"/>
       <use xlink:href="#DejaVuSans-38" x="95.410156"/>
       <use xlink:href="#DejaVuSans-30" x="159.033203"/>
      </g>
     </g>
    </g>
    <g id="ytick_4">
     <g id="line2d_4">
      <g>
       <use xlink:href="#mfa5cc6e76e" x="40.165" y="202.495931" style="stroke: #000000; stroke-width: 0.8"/>
      </g>
     </g>
     <g id="text_4">
      <!-- 0.85 -->
      <g transform="translate(10.899375 206.295149) scale(0.1 -0.1)">
       <use xlink:href="#DejaVuSans-30"/>
       <use xlink:href="#DejaVuSans-2e" x="63.623047"/>
       <use xlink:href="#DejaVuSans-38" x="95.410156"/>
       <use xlink:href="#DejaVuSans-35" x="159.033203"/>
      </g>
     </g>
    </g>
    <g id="ytick_5">
     <g id="line2d_5">
      <g>
       <use xlink:href="#mfa5cc6e76e" x="40.165" y="144.019201" style="stroke: #000000; stroke-width: 0.8"/>
      </g>
     </g>
     <g id="text_5">
      <!-- 0.90 -->
      <g transform="translate(10.899375 147.81842) scale(0.1 -0.1)">
       <defs>
        <path id="DejaVuSans-39" d="M 703 97 
L 703 672 
Q 941 559 1184 500 
Q 1428 441 1663 441 
Q 2288 441 2617 861 
Q 2947 1281 2994 2138 
Q 2813 1869 2534 1725 
Q 2256 1581 1919 1581 
Q 1219 1581 811 2004 
Q 403 2428 403 3163 
Q 403 3881 828 4315 
Q 1253 4750 1959 4750 
Q 2769 4750 3195 4129 
Q 3622 3509 3622 2328 
Q 3622 1225 3098 567 
Q 2575 -91 1691 -91 
Q 1453 -91 1209 -44 
Q 966 3 703 97 
z
M 1959 2075 
Q 2384 2075 2632 2365 
Q 2881 2656 2881 3163 
Q 2881 3666 2632 3958 
Q 2384 4250 1959 4250 
Q 1534 4250 1286 3958 
Q 1038 3666 1038 3163 
Q 1038 2656 1286 2365 
Q 1534 2075 1959 2075 
z
" transform="scale(0.015625)"/>
       </defs>
       <use xlink:href="#DejaVuSans-30"/>
       <use xlink:href="#DejaVuSans-2e" x="63.623047"/>
       <use xlink:href="#DejaVuSans-39" x="95.410156"/>
       <use xlink:href="#DejaVuSans-30" x="159.033203"/>
      </g>
     </g>
    </g>
    <g id="ytick_6">
     <g id="line2d_6">
      <g>
       <use xlink:href="#mfa5cc6e76e" x="40.165" y="85.542472" style="stroke: #000000; stroke-width: 0.8"/>
      </g>
     </g>
     <g id="text_6">
      <!-- 0.95 -->
      <g transform="translate(10.899375 89.341691) scale(0.1 -0.1)">
       <use xlink:href="#DejaVuSans-30"/>
       <use xlink:href="#DejaVuSans-2e" x="63.623047"/>
       <use xlink:href="#DejaVuSans-39" x="95.410156"/>
       <use xlink:href="#DejaVuSans-35" x="159.033203"/>
      </g>
     </g>
    </g>
    <g id="ytick_7">
     <g id="line2d_7">
      <g>
       <use xlink:href="#mfa5cc6e76e" x="40.165" y="27.065743" style="stroke: #000000; stroke-width: 0.8"/>
      </g>
     </g>
     <g id="text_7">
      <!-- 1.00 -->
      <g transform="translate(10.899375 30.864962) scale(0.1 -0.1)">
       <defs>
        <path id="DejaVuSans-31" d="M 794 531 
L 1825 531 
L 1825 4091 
L 703 3866 
L 703 4441 
L 1819 4666 
L 2450 4666 
L 2450 531 
L 3481 531 
L 3481 0 
L 794 0 
L 794 531 
z
" transform="scale(0.015625)"/>
       </defs>
       <use xlink:href="#DejaVuSans-31"/>
       <use xlink:href="#DejaVuSans-2e" x="63.623047"/>
       <use xlink:href="#DejaVuSans-30" x="95.410156"/>
       <use xlink:href="#DejaVuSans-30" x="159.033203"/>
      </g>
     </g>
    </g>
   </g>
   <g id="patch_3">
    <path d="M 54.8655 226.552114 
L 172.4695 226.552114 
L 172.4695 133.636058 
L 54.8655 133.636058 
L 54.8655 226.552114 
z
" clip-path="url(#p08ecd154d4)" style="fill: #3274a1; stroke: #3d3d3d; stroke-linejoin: miter"/>
   </g>
   <g id="line2d_8">
    <path d="M 113.6675 226.552114 
L 113.6675 340.100411 
" clip-path="url(#p08ecd154d4)" style="fill: none; stroke: #3d3d3d"/>
   </g>
   <g id="line2d_9">
    <path d="M 113.6675 133.636058 
L 113.6675 44.428308 
" clip-path="url(#p08ecd154d4)" style="fill: none; stroke: #3d3d3d"/>
   </g>
   <g id="line2d_10">
    <path d="M 84.2665 340.100411 
L 143.0685 340.100411 
" clip-path="url(#p08ecd154d4)" style="fill: none; stroke: #3d3d3d; stroke-linecap: square"/>
   </g>
   <g id="line2d_11">
    <path d="M 84.2665 44.428308 
L 143.0685 44.428308 
" clip-path="url(#p08ecd154d4)" style="fill: none; stroke: #3d3d3d; stroke-linecap: square"/>
   </g>
   <g id="line2d_12">
    <defs>
     <path id="m625910e186" d="M 0 3 
C 0.795609 3 1.55874 2.683901 2.12132 2.12132 
C 2.683901 1.55874 3 0.795609 3 0 
C 3 -0.795609 2.683901 -1.55874 2.12132 -2.12132 
C 1.55874 -2.683901 0.795609 -3 0 -3 
C -0.795609 -3 -1.55874 -2.683901 -2.12132 -2.12132 
C -2.683901 -1.55874 -3 -0.795609 -3 0 
C -3 0.795609 -2.683901 1.55874 -2.12132 2.12132 
C -1.55874 2.683901 -0.795609 3 0 3 
z
" style="stroke: #3d3d3d"/>
    </defs>
    <g clip-path="url(#p08ecd154d4)">
     <use xlink:href="#m625910e186" x="113.6675" y="391.353419" style="fill-opacity: 0; stroke: #3d3d3d"/>
     <use xlink:href="#m625910e186" x="113.6675" y="367.932436" style="fill-opacity: 0; stroke: #3d3d3d"/>
     <use xlink:href="#m625910e186" x="113.6675" y="399.465062" style="fill-opacity: 0; stroke: #3d3d3d"/>
     <use xlink:href="#m625910e186" x="113.6675" y="371.153643" style="fill-opacity: 0; stroke: #3d3d3d"/>
     <use xlink:href="#m625910e186" x="113.6675" y="402.481818" style="fill-opacity: 0; stroke: #3d3d3d"/>
     <use xlink:href="#m625910e186" x="113.6675" y="366.922087" style="fill-opacity: 0; stroke: #3d3d3d"/>
    </g>
   </g>
   <g id="patch_4">
    <path d="M 201.8705 227.545576 
L 319.4745 227.545576 
L 319.4745 138.181924 
L 201.8705 138.181924 
L 201.8705 227.545576 
z
" clip-path="url(#p08ecd154d4)" style="fill: #e1812c; stroke: #3d3d3d; stroke-linejoin: miter"/>
   </g>
   <g id="line2d_13">
    <path d="M 260.6725 227.545576 
L 260.6725 341.665054 
" clip-path="url(#p08ecd154d4)" style="fill: none; stroke: #3d3d3d"/>
   </g>
   <g id="line2d_14">
    <path d="M 260.6725 138.181924 
L 260.6725 51.810577 
" clip-path="url(#p08ecd154d4)" style="fill: none; stroke: #3d3d3d"/>
   </g>
   <g id="line2d_15">
    <path d="M 231.2715 341.665054 
L 290.0735 341.665054 
" clip-path="url(#p08ecd154d4)" style="fill: none; stroke: #3d3d3d; stroke-linecap: square"/>
   </g>
   <g id="line2d_16">
    <path d="M 231.2715 51.810577 
L 290.0735 51.810577 
" clip-path="url(#p08ecd154d4)" style="fill: none; stroke: #3d3d3d; stroke-linecap: square"/>
   </g>
   <g id="line2d_17">
    <g clip-path="url(#p08ecd154d4)">
     <use xlink:href="#m625910e186" x="260.6725" y="393.102768" style="fill-opacity: 0; stroke: #3d3d3d"/>
     <use xlink:href="#m625910e186" x="260.6725" y="368.874164" style="fill-opacity: 0; stroke: #3d3d3d"/>
     <use xlink:href="#m625910e186" x="260.6725" y="402.545455" style="fill-opacity: 0; stroke: #3d3d3d"/>
     <use xlink:href="#m625910e186" x="260.6725" y="368.385333" style="fill-opacity: 0; stroke: #3d3d3d"/>
     <use xlink:href="#m625910e186" x="260.6725" y="401.968192" style="fill-opacity: 0; stroke: #3d3d3d"/>
     <use xlink:href="#m625910e186" x="260.6725" y="366.395811" style="fill-opacity: 0; stroke: #3d3d3d"/>
    </g>
   </g>
   <g id="patch_5">
    <path d="M 348.8755 185.283727 
L 466.4795 185.283727 
L 466.4795 112.93612 
L 348.8755 112.93612 
L 348.8755 185.283727 
z
" clip-path="url(#p08ecd154d4)" style="fill: #3a923a; stroke: #3d3d3d; stroke-linejoin: miter"/>
   </g>
   <g id="line2d_18">
    <path d="M 407.6775 185.283727 
L 407.6775 289.966889 
" clip-path="url(#p08ecd154d4)" style="fill: none; stroke: #3d3d3d"/>
   </g>
   <g id="line2d_19">
    <path d="M 407.6775 112.93612 
L 407.6775 59.540159 
" clip-path="url(#p08ecd154d4)" style="fill: none; stroke: #3d3d3d"/>
   </g>
   <g id="line2d_20">
    <path d="M 378.2765 289.966889 
L 437.0785 289.966889 
" clip-path="url(#p08ecd154d4)" style="fill: none; stroke: #3d3d3d; stroke-linecap: square"/>
   </g>
   <g id="line2d_21">
    <path d="M 378.2765 59.540159 
L 437.0785 59.540159 
" clip-path="url(#p08ecd154d4)" style="fill: none; stroke: #3d3d3d; stroke-linecap: square"/>
   </g>
   <g id="line2d_22">
    <g clip-path="url(#p08ecd154d4)">
     <use xlink:href="#m625910e186" x="407.6775" y="307.428713" style="fill-opacity: 0; stroke: #3d3d3d"/>
     <use xlink:href="#m625910e186" x="407.6775" y="368.266153" style="fill-opacity: 0; stroke: #3d3d3d"/>
     <use xlink:href="#m625910e186" x="407.6775" y="299.208704" style="fill-opacity: 0; stroke: #3d3d3d"/>
     <use xlink:href="#m625910e186" x="407.6775" y="327.258676" style="fill-opacity: 0; stroke: #3d3d3d"/>
     <use xlink:href="#m625910e186" x="407.6775" y="340.671708" style="fill-opacity: 0; stroke: #3d3d3d"/>
     <use xlink:href="#m625910e186" x="407.6775" y="330.272955" style="fill-opacity: 0; stroke: #3d3d3d"/>
     <use xlink:href="#m625910e186" x="407.6775" y="340.920626" style="fill-opacity: 0; stroke: #3d3d3d"/>
     <use xlink:href="#m625910e186" x="407.6775" y="342.693953" style="fill-opacity: 0; stroke: #3d3d3d"/>
    </g>
   </g>
   <g id="patch_6">
    <path d="M 495.8805 165.889262 
L 613.4845 165.889262 
L 613.4845 110.311051 
L 495.8805 110.311051 
L 495.8805 165.889262 
z
" clip-path="url(#p08ecd154d4)" style="fill: #c03d3e; stroke: #3d3d3d; stroke-linejoin: miter"/>
   </g>
   <g id="line2d_23">
    <path d="M 554.6825 165.889262 
L 554.6825 230.601787 
" clip-path="url(#p08ecd154d4)" style="fill: none; stroke: #3d3d3d"/>
   </g>
   <g id="line2d_24">
    <path d="M 554.6825 110.311051 
L 554.6825 72.048396 
" clip-path="url(#p08ecd154d4)" style="fill: none; stroke: #3d3d3d"/>
   </g>
   <g id="line2d_25">
    <path d="M 525.2815 230.601787 
L 584.0835 230.601787 
" clip-path="url(#p08ecd154d4)" style="fill: none; stroke: #3d3d3d; stroke-linecap: square"/>
   </g>
   <g id="line2d_26">
    <path d="M 525.2815 72.048396 
L 584.0835 72.048396 
" clip-path="url(#p08ecd154d4)" style="fill: none; stroke: #3d3d3d; stroke-linecap: square"/>
   </g>
   <g id="line2d_27">
    <g clip-path="url(#p08ecd154d4)">
     <use xlink:href="#m625910e186" x="554.6825" y="280.258935" style="fill-opacity: 0; stroke: #3d3d3d"/>
     <use xlink:href="#m625910e186" x="554.6825" y="263.766352" style="fill-opacity: 0; stroke: #3d3d3d"/>
     <use xlink:href="#m625910e186" x="554.6825" y="251.786678" style="fill-opacity: 0; stroke: #3d3d3d"/>
     <use xlink:href="#m625910e186" x="554.6825" y="261.66276" style="fill-opacity: 0; stroke: #3d3d3d"/>
     <use xlink:href="#m625910e186" x="554.6825" y="262.014608" style="fill-opacity: 0; stroke: #3d3d3d"/>
     <use xlink:href="#m625910e186" x="554.6825" y="251.103702" style="fill-opacity: 0; stroke: #3d3d3d"/>
     <use xlink:href="#m625910e186" x="554.6825" y="283.550522" style="fill-opacity: 0; stroke: #3d3d3d"/>
     <use xlink:href="#m625910e186" x="554.6825" y="301.36075" style="fill-opacity: 0; stroke: #3d3d3d"/>
     <use xlink:href="#m625910e186" x="554.6825" y="275.038685" style="fill-opacity: 0; stroke: #3d3d3d"/>
     <use xlink:href="#m625910e186" x="554.6825" y="300.059347" style="fill-opacity: 0; stroke: #3d3d3d"/>
     <use xlink:href="#m625910e186" x="554.6825" y="294.093135" style="fill-opacity: 0; stroke: #3d3d3d"/>
    </g>
   </g>
   <g id="patch_7">
    <path d="M 642.8855 114.674277 
L 760.4895 114.674277 
L 760.4895 42.162933 
L 642.8855 42.162933 
L 642.8855 114.674277 
z
" clip-path="url(#p08ecd154d4)" style="fill: #9372b2; stroke: #3d3d3d; stroke-linejoin: miter"/>
   </g>
   <g id="line2d_28">
    <path d="M 701.6875 114.674277 
L 701.6875 222.186027 
" clip-path="url(#p08ecd154d4)" style="fill: none; stroke: #3d3d3d"/>
   </g>
   <g id="line2d_29">
    <path d="M 701.6875 42.162933 
L 701.6875 31.320453 
" clip-path="url(#p08ecd154d4)" style="fill: none; stroke: #3d3d3d"/>
   </g>
   <g id="line2d_30">
    <path d="M 672.2865 222.186027 
L 731.0885 222.186027 
" clip-path="url(#p08ecd154d4)" style="fill: none; stroke: #3d3d3d; stroke-linecap: square"/>
   </g>
   <g id="line2d_31">
    <path d="M 672.2865 31.320453 
L 731.0885 31.320453 
" clip-path="url(#p08ecd154d4)" style="fill: none; stroke: #3d3d3d; stroke-linecap: square"/>
   </g>
   <g id="line2d_32">
    <g clip-path="url(#p08ecd154d4)">
     <use xlink:href="#m625910e186" x="701.6875" y="247.627554" style="fill-opacity: 0; stroke: #3d3d3d"/>
     <use xlink:href="#m625910e186" x="701.6875" y="274.178611" style="fill-opacity: 0; stroke: #3d3d3d"/>
     <use xlink:href="#m625910e186" x="701.6875" y="291.732822" style="fill-opacity: 0; stroke: #3d3d3d"/>
     <use xlink:href="#m625910e186" x="701.6875" y="247.585784" style="fill-opacity: 0; stroke: #3d3d3d"/>
     <use xlink:href="#m625910e186" x="701.6875" y="264.964737" style="fill-opacity: 0; stroke: #3d3d3d"/>
     <use xlink:href="#m625910e186" x="701.6875" y="350.186243" style="fill-opacity: 0; stroke: #3d3d3d"/>
    </g>
   </g>
   <g id="patch_8">
    <path d="M 789.8905 107.712414 
L 907.4945 107.712414 
L 907.4945 37.276509 
L 789.8905 37.276509 
L 789.8905 107.712414 
z
" clip-path="url(#p08ecd154d4)" style="fill: #845b53; stroke: #3d3d3d; stroke-linejoin: miter"/>
   </g>
   <g id="line2d_33">
    <path d="M 848.6925 107.712414 
L 848.6925 211.377326 
" clip-path="url(#p08ecd154d4)" style="fill: none; stroke: #3d3d3d"/>
   </g>
   <g id="line2d_34">
    <path d="M 848.6925 37.276509 
L 848.6925 29.632524 
" clip-path="url(#p08ecd154d4)" style="fill: none; stroke: #3d3d3d"/>
   </g>
   <g id="line2d_35">
    <path d="M 819.2915 211.377326 
L 878.0935 211.377326 
" clip-path="url(#p08ecd154d4)" style="fill: none; stroke: #3d3d3d; stroke-linecap: square"/>
   </g>
   <g id="line2d_36">
    <path d="M 819.2915 29.632524 
L 878.0935 29.632524 
" clip-path="url(#p08ecd154d4)" style="fill: none; stroke: #3d3d3d; stroke-linecap: square"/>
   </g>
   <g id="line2d_37">
    <g clip-path="url(#p08ecd154d4)">
     <use xlink:href="#m625910e186" x="848.6925" y="276.828844" style="fill-opacity: 0; stroke: #3d3d3d"/>
     <use xlink:href="#m625910e186" x="848.6925" y="221.445325" style="fill-opacity: 0; stroke: #3d3d3d"/>
     <use xlink:href="#m625910e186" x="848.6925" y="253.238402" style="fill-opacity: 0; stroke: #3d3d3d"/>
     <use xlink:href="#m625910e186" x="848.6925" y="244.934105" style="fill-opacity: 0; stroke: #3d3d3d"/>
     <use xlink:href="#m625910e186" x="848.6925" y="215.718915" style="fill-opacity: 0; stroke: #3d3d3d"/>
     <use xlink:href="#m625910e186" x="848.6925" y="225.193634" style="fill-opacity: 0; stroke: #3d3d3d"/>
     <use xlink:href="#m625910e186" x="848.6925" y="371.524155" style="fill-opacity: 0; stroke: #3d3d3d"/>
    </g>
   </g>
   <g id="patch_9">
    <path d="M 936.8955 118.240088 
L 1054.4995 118.240088 
L 1054.4995 35.225947 
L 936.8955 35.225947 
L 936.8955 118.240088 
z
" clip-path="url(#p08ecd154d4)" style="fill: #d684bd; stroke: #3d3d3d; stroke-linejoin: miter"/>
   </g>
   <g id="line2d_38">
    <path d="M 995.6975 118.240088 
L 995.6975 238.054844 
" clip-path="url(#p08ecd154d4)" style="fill: none; stroke: #3d3d3d"/>
   </g>
   <g id="line2d_39">
    <path d="M 995.6975 35.225947 
L 995.6975 29.454545 
" clip-path="url(#p08ecd154d4)" style="fill: none; stroke: #3d3d3d"/>
   </g>
   <g id="line2d_40">
    <path d="M 966.2965 238.054844 
L 1025.0985 238.054844 
" clip-path="url(#p08ecd154d4)" style="fill: none; stroke: #3d3d3d; stroke-linecap: square"/>
   </g>
   <g id="line2d_41">
    <path d="M 966.2965 29.454545 
L 1025.0985 29.454545 
" clip-path="url(#p08ecd154d4)" style="fill: none; stroke: #3d3d3d; stroke-linecap: square"/>
   </g>
   <g id="line2d_42">
    <g clip-path="url(#p08ecd154d4)">
     <use xlink:href="#m625910e186" x="995.6975" y="301.891773" style="fill-opacity: 0; stroke: #3d3d3d"/>
     <use xlink:href="#m625910e186" x="995.6975" y="248.455034" style="fill-opacity: 0; stroke: #3d3d3d"/>
     <use xlink:href="#m625910e186" x="995.6975" y="308.648115" style="fill-opacity: 0; stroke: #3d3d3d"/>
     <use xlink:href="#m625910e186" x="995.6975" y="271.254881" style="fill-opacity: 0; stroke: #3d3d3d"/>
     <use xlink:href="#m625910e186" x="995.6975" y="260.76437" style="fill-opacity: 0; stroke: #3d3d3d"/>
     <use xlink:href="#m625910e186" x="995.6975" y="244.311086" style="fill-opacity: 0; stroke: #3d3d3d"/>
     <use xlink:href="#m625910e186" x="995.6975" y="299.250475" style="fill-opacity: 0; stroke: #3d3d3d"/>
     <use xlink:href="#m625910e186" x="995.6975" y="275.634461" style="fill-opacity: 0; stroke: #3d3d3d"/>
     <use xlink:href="#m625910e186" x="995.6975" y="339.746497" style="fill-opacity: 0; stroke: #3d3d3d"/>
    </g>
   </g>
   <g id="line2d_43">
    <path d="M 54.8655 174.281664 
L 172.4695 174.281664 
" clip-path="url(#p08ecd154d4)" style="fill: none; stroke: #3d3d3d"/>
   </g>
   <g id="line2d_44">
    <path d="M 201.8705 177.52974 
L 319.4745 177.52974 
" clip-path="url(#p08ecd154d4)" style="fill: none; stroke: #3d3d3d"/>
   </g>
   <g id="line2d_45">
    <path d="M 348.8755 141.467319 
L 466.4795 141.467319 
" clip-path="url(#p08ecd154d4)" style="fill: none; stroke: #3d3d3d"/>
   </g>
   <g id="line2d_46">
    <path d="M 495.8805 134.351645 
L 613.4845 134.351645 
" clip-path="url(#p08ecd154d4)" style="fill: none; stroke: #3d3d3d"/>
   </g>
   <g id="line2d_47">
    <path d="M 642.8855 62.963862 
L 760.4895 62.963862 
" clip-path="url(#p08ecd154d4)" style="fill: none; stroke: #3d3d3d"/>
   </g>
   <g id="line2d_48">
    <path d="M 789.8905 61.642728 
L 907.4945 61.642728 
" clip-path="url(#p08ecd154d4)" style="fill: none; stroke: #3d3d3d"/>
   </g>
   <g id="line2d_49">
    <path d="M 936.8955 57.368302 
L 1054.4995 57.368302 
" clip-path="url(#p08ecd154d4)" style="fill: none; stroke: #3d3d3d"/>
   </g>
   <g id="patch_10">
    <path d="M 40.165 421.2 
L 40.165 10.8 
" style="fill: none; stroke: #000000; stroke-width: 0.8; stroke-linejoin: miter; stroke-linecap: square"/>
   </g>
   <g id="patch_11">
    <path d="M 1069.2 421.2 
L 1069.2 10.8 
" style="fill: none; stroke: #000000; stroke-width: 0.8; stroke-linejoin: miter; stroke-linecap: square"/>
   </g>
   <g id="patch_12">
    <path d="M 40.165 421.2 
L 1069.2 421.2 
" style="fill: none; stroke: #000000; stroke-width: 0.8; stroke-linejoin: miter; stroke-linecap: square"/>
   </g>
   <g id="patch_13">
    <path d="M 40.165 10.8 
L 1069.2 10.8 
" style="fill: none; stroke: #000000; stroke-width: 0.8; stroke-linejoin: miter; stroke-linecap: square"/>
   </g>
  </g>
 </g>
 <defs>
  <clipPath id="p08ecd154d4">
   <rect x="40.165" y="10.8" width="1029.035" height="410.4"/>
  </clipPath>
 </defs>
</svg>
