<?xml version="1.0" encoding="utf-8" standalone="no"?>
<!DOCTYPE svg PUBLIC "-//W3C//DTD SVG 1.1//EN"
  "http://www.w3.org/Graphics/SVG/1.1/DTD/svg11.dtd">
<svg xmlns:xlink="http://www.w3.org/1999/xlink" width="1080pt" height="432pt" viewBox="0 0 1080 432" xmlns="http://www.w3.org/2000/svg" version="1.1">
 <metadata>
  <rdf:RDF xmlns:dc="http://purl.org/dc/elements/1.1/" xmlns:cc="http://creativecommons.org/ns#" xmlns:rdf="http://www.w3.org/1999/02/22-rdf-syntax-ns#">
   <cc:Work>
    <dc:type rdf:resource="http://purl.org/dc/dcmitype/StillImage"/>
    <dc:date>2024-12-10T13:00:36.220682</dc:date>
    <dc:format>image/svg+xml</dc:format>
    <dc:creator>
     <cc:Agent>
      <dc:title>Matplotlib v3.9.3, https://matplotlib.org/</dc:title>
     </cc:Agent>
    </dc:creator>
   </cc:Work>
  </rdf:RDF>
 </metadata>
 <defs>
  <style type="text/css">*{stroke-linejoin: round; stroke-linecap: butt}</style>
 </defs>
 <g id="figure_1">
  <g id="patch_1">
   <path d="M 0 432 
L 1080 432 
L 1080 0 
L 0 0 
z
" style="fill: #ffffff"/>
  </g>
  <g id="axes_1">
   <g id="patch_2">
    <path d="M 30.535 417.645341 
L 1069.2 417.645341 
L 1069.2 10.8 
L 30.535 10.8 
z
" style="fill: #ffffff"/>
   </g>
   <g id="matplotlib.axis_1"/>
   <g id="matplotlib.axis_2">
    <g id="ytick_1">
     <g id="line2d_1">
      <defs>
       <path id="m39a689e184" d="M 0 0 
L -3.5 0 
" style="stroke: #000000; stroke-width: 0.8"/>
      </defs>
      <g>
       <use xlink:href="#m39a689e184" x="30.535" y="74.752652" style="stroke: #000000; stroke-width: 0.8"/>
      </g>
     </g>
     <g id="text_1">
      <!-- 2 -->
      <g transform="translate(17.1725 78.551871) scale(0.1 -0.1)">
       <defs>
        <path id="DejaVuSans-32" d="M 1228 531 
L 3431 531 
L 3431 0 
L 469 0 
L 469 531 
Q 828 903 1448 1529 
Q 2069 2156 2228 2338 
Q 2531 2678 2651 2914 
Q 2772 3150 2772 3378 
Q 2772 3750 2511 3984 
Q 2250 4219 1831 4219 
Q 1534 4219 1204 4116 
Q 875 4013 500 3803 
L 500 4441 
Q 881 4594 1212 4672 
Q 1544 4750 1819 4750 
Q 2544 4750 2975 4387 
Q 3406 4025 3406 3419 
Q 3406 3131 3298 2873 
Q 3191 2616 2906 2266 
Q 2828 2175 2409 1742 
Q 1991 1309 1228 531 
z
" transform="scale(0.015625)"/>
       </defs>
       <use xlink:href="#DejaVuSans-32"/>
      </g>
     </g>
    </g>
    <g id="ytick_2">
     <g id="line2d_2">
      <g>
       <use xlink:href="#m39a689e184" x="30.535" y="142.703667" style="stroke: #000000; stroke-width: 0.8"/>
      </g>
     </g>
     <g id="text_2">
      <!-- 4 -->
      <g transform="translate(17.1725 146.502885) scale(0.1 -0.1)">
       <defs>
        <path id="DejaVuSans-34" d="M 2419 4116 
L 825 1625 
L 2419 1625 
L 2419 4116 
z
M 2253 4666 
L 3047 4666 
L 3047 1625 
L 3713 1625 
L 3713 1100 
L 3047 1100 
L 3047 0 
L 2419 0 
L 2419 1100 
L 313 1100 
L 313 1709 
L 2253 4666 
z
" transform="scale(0.015625)"/>
       </defs>
       <use xlink:href="#DejaVuSans-34"/>
      </g>
     </g>
    </g>
    <g id="ytick_3">
     <g id="line2d_3">
      <g>
       <use xlink:href="#m39a689e184" x="30.535" y="210.654681" style="stroke: #000000; stroke-width: 0.8"/>
      </g>
     </g>
     <g id="text_3">
      <!-- 6 -->
      <g transform="translate(17.1725 214.4539) scale(0.1 -0.1)">
       <defs>
        <path id="DejaVuSans-36" d="M 2113 2584 
Q 1688 2584 1439 2293 
Q 1191 2003 1191 1497 
Q 1191 994 1439 701 
Q 1688 409 2113 409 
Q 2538 409 2786 701 
Q 3034 994 3034 1497 
Q 3034 2003 2786 2293 
Q 2538 2584 2113 2584 
z
M 3366 4563 
L 3366 3988 
Q 3128 4100 2886 4159 
Q 2644 4219 2406 4219 
Q 1781 4219 1451 3797 
Q 1122 3375 1075 2522 
Q 1259 2794 1537 2939 
Q 1816 3084 2150 3084 
Q 2853 3084 3261 2657 
Q 3669 2231 3669 1497 
Q 3669 778 3244 343 
Q 2819 -91 2113 -91 
Q 1303 -91 875 529 
Q 447 1150 447 2328 
Q 447 3434 972 4092 
Q 1497 4750 2381 4750 
Q 2619 4750 2861 4703 
Q 3103 4656 3366 4563 
z
" transform="scale(0.015625)"/>
       </defs>
       <use xlink:href="#DejaVuSans-36"/>
      </g>
     </g>
    </g>
    <g id="ytick_4">
     <g id="line2d_4">
      <g>
       <use xlink:href="#m39a689e184" x="30.535" y="278.605695" style="stroke: #000000; stroke-width: 0.8"/>
      </g>
     </g>
     <g id="text_4">
      <!-- 8 -->
      <g transform="translate(17.1725 282.404914) scale(0.1 -0.1)">
       <defs>
        <path id="DejaVuSans-38" d="M 2034 2216 
Q 1584 2216 1326 1975 
Q 1069 1734 1069 1313 
Q 1069 891 1326 650 
Q 1584 409 2034 409 
Q 2484 409 2743 651 
Q 3003 894 3003 1313 
Q 3003 1734 2745 1975 
Q 2488 2216 2034 2216 
z
M 1403 2484 
Q 997 2584 770 2862 
Q 544 3141 544 3541 
Q 544 4100 942 4425 
Q 1341 4750 2034 4750 
Q 2731 4750 3128 4425 
Q 3525 4100 3525 3541 
Q 3525 3141 3298 2862 
Q 3072 2584 2669 2484 
Q 3125 2378 3379 2068 
Q 3634 1759 3634 1313 
Q 3634 634 3220 271 
Q 2806 -91 2034 -91 
Q 1263 -91 848 271 
Q 434 634 434 1313 
Q 434 1759 690 2068 
Q 947 2378 1403 2484 
z
M 1172 3481 
Q 1172 3119 1398 2916 
Q 1625 2713 2034 2713 
Q 2441 2713 2670 2916 
Q 2900 3119 2900 3481 
Q 2900 3844 2670 4047 
Q 2441 4250 2034 4250 
Q 1625 4250 1398 4047 
Q 1172 3844 1172 3481 
z
" transform="scale(0.015625)"/>
       </defs>
       <use xlink:href="#DejaVuSans-38"/>
      </g>
     </g>
    </g>
    <g id="ytick_5">
     <g id="line2d_5">
      <g>
       <use xlink:href="#m39a689e184" x="30.535" y="346.556709" style="stroke: #000000; stroke-width: 0.8"/>
      </g>
     </g>
     <g id="text_5">
      <!-- 10 -->
      <g transform="translate(10.81 350.355928) scale(0.1 -0.1)">
       <defs>
        <path id="DejaVuSans-31" d="M 794 531 
L 1825 531 
L 1825 4091 
L 703 3866 
L 703 4441 
L 1819 4666 
L 2450 4666 
L 2450 531 
L 3481 531 
L 3481 0 
L 794 0 
L 794 531 
z
" transform="scale(0.015625)"/>
        <path id="DejaVuSans-30" d="M 2034 4250 
Q 1547 4250 1301 3770 
Q 1056 3291 1056 2328 
Q 1056 1369 1301 889 
Q 1547 409 2034 409 
Q 2525 409 2770 889 
Q 3016 1369 3016 2328 
Q 3016 3291 2770 3770 
Q 2525 4250 2034 4250 
z
M 2034 4750 
Q 2819 4750 3233 4129 
Q 3647 3509 3647 2328 
Q 3647 1150 3233 529 
Q 2819 -91 2034 -91 
Q 1250 -91 836 529 
Q 422 1150 422 2328 
Q 422 3509 836 4129 
Q 1250 4750 2034 4750 
z
" transform="scale(0.015625)"/>
       </defs>
       <use xlink:href="#DejaVuSans-31"/>
       <use xlink:href="#DejaVuSans-30" x="63.623047"/>
      </g>
     </g>
    </g>
    <g id="ytick_6">
     <g id="line2d_6">
      <g>
       <use xlink:href="#m39a689e184" x="30.535" y="414.507724" style="stroke: #000000; stroke-width: 0.8"/>
      </g>
     </g>
     <g id="text_6">
      <!-- 12 -->
      <g transform="translate(10.81 418.306942) scale(0.1 -0.1)">
       <use xlink:href="#DejaVuSans-31"/>
       <use xlink:href="#DejaVuSans-32" x="63.623047"/>
      </g>
     </g>
    </g>
   </g>
   <g id="patch_3">
    <path d="M 45.373071 140.492671 
L 164.077643 140.492671 
L 164.077643 193.718258 
L 45.373071 193.718258 
L 45.373071 140.492671 
z
" clip-path="url(#pfd483fbb68)" style="fill: #3274a1; stroke: #3d3d3d; stroke-linejoin: miter"/>
   </g>
   <g id="line2d_7">
    <path d="M 104.725357 140.492671 
L 104.725357 64.253093 
" clip-path="url(#pfd483fbb68)" style="fill: none; stroke: #3d3d3d"/>
   </g>
   <g id="line2d_8">
    <path d="M 104.725357 193.718258 
L 104.725357 269.453776 
" clip-path="url(#pfd483fbb68)" style="fill: none; stroke: #3d3d3d"/>
   </g>
   <g id="line2d_9">
    <path d="M 75.049214 64.253093 
L 134.4015 64.253093 
" clip-path="url(#pfd483fbb68)" style="fill: none; stroke: #3d3d3d; stroke-linecap: square"/>
   </g>
   <g id="line2d_10">
    <path d="M 75.049214 269.453776 
L 134.4015 269.453776 
" clip-path="url(#pfd483fbb68)" style="fill: none; stroke: #3d3d3d; stroke-linecap: square"/>
   </g>
   <g id="line2d_11">
    <defs>
     <path id="md4b961fe8f" d="M 0 3 
C 0.795609 3 1.55874 2.683901 2.12132 2.12132 
C 2.683901 1.55874 3 0.795609 3 0 
C 3 -0.795609 2.683901 -1.55874 2.12132 -2.12132 
C 1.55874 -2.683901 0.795609 -3 0 -3 
C -0.795609 -3 -1.55874 -2.683901 -2.12132 -2.12132 
C -2.683901 -1.55874 -3 -0.795609 -3 0 
C -3 0.795609 -2.683901 1.55874 -2.12132 2.12132 
C -1.55874 2.683901 -0.795609 3 0 3 
z
" style="stroke: #3d3d3d"/>
    </defs>
    <g clip-path="url(#pfd483fbb68)">
     <use xlink:href="#md4b961fe8f" x="104.725357" y="312.195722" style="fill-opacity: 0; stroke: #3d3d3d"/>
    </g>
   </g>
   <g id="patch_4">
    <path d="M 193.753786 143.904812 
L 312.458357 143.904812 
L 312.458357 194.732263 
L 193.753786 194.732263 
L 193.753786 143.904812 
z
" clip-path="url(#pfd483fbb68)" style="fill: #e1812c; stroke: #3d3d3d; stroke-linejoin: miter"/>
   </g>
   <g id="line2d_12">
    <path d="M 253.106071 143.904812 
L 253.106071 75.361245 
" clip-path="url(#pfd483fbb68)" style="fill: none; stroke: #3d3d3d"/>
   </g>
   <g id="line2d_13">
    <path d="M 253.106071 194.732263 
L 253.106071 270.009174 
" clip-path="url(#pfd483fbb68)" style="fill: none; stroke: #3d3d3d"/>
   </g>
   <g id="line2d_14">
    <path d="M 223.429929 75.361245 
L 282.782214 75.361245 
" clip-path="url(#pfd483fbb68)" style="fill: none; stroke: #3d3d3d; stroke-linecap: square"/>
   </g>
   <g id="line2d_15">
    <path d="M 223.429929 270.009174 
L 282.782214 270.009174 
" clip-path="url(#pfd483fbb68)" style="fill: none; stroke: #3d3d3d; stroke-linecap: square"/>
   </g>
   <g id="line2d_16">
    <g clip-path="url(#pfd483fbb68)">
     <use xlink:href="#md4b961fe8f" x="253.106071" y="311.628882" style="fill-opacity: 0; stroke: #3d3d3d"/>
    </g>
   </g>
   <g id="patch_5">
    <path d="M 342.1345 130.190593 
L 460.839071 130.190593 
L 460.839071 176.164251 
L 342.1345 176.164251 
L 342.1345 130.190593 
z
" clip-path="url(#pfd483fbb68)" style="fill: #3a923a; stroke: #3d3d3d; stroke-linejoin: miter"/>
   </g>
   <g id="line2d_17">
    <path d="M 401.486786 130.190593 
L 401.486786 88.926996 
" clip-path="url(#pfd483fbb68)" style="fill: none; stroke: #3d3d3d"/>
   </g>
   <g id="line2d_18">
    <path d="M 401.486786 176.164251 
L 401.486786 243.214752 
" clip-path="url(#pfd483fbb68)" style="fill: none; stroke: #3d3d3d"/>
   </g>
   <g id="line2d_19">
    <path d="M 371.810643 88.926996 
L 431.162929 88.926996 
" clip-path="url(#pfd483fbb68)" style="fill: none; stroke: #3d3d3d; stroke-linecap: square"/>
   </g>
   <g id="line2d_20">
    <path d="M 371.810643 243.214752 
L 431.162929 243.214752 
" clip-path="url(#pfd483fbb68)" style="fill: none; stroke: #3d3d3d; stroke-linecap: square"/>
   </g>
   <g id="line2d_21">
    <g clip-path="url(#pfd483fbb68)">
     <use xlink:href="#md4b961fe8f" x="401.486786" y="304.955983" style="fill-opacity: 0; stroke: #3d3d3d"/>
     <use xlink:href="#md4b961fe8f" x="401.486786" y="255.016907" style="fill-opacity: 0; stroke: #3d3d3d"/>
    </g>
   </g>
   <g id="patch_6">
    <path d="M 490.515214 127.432853 
L 609.219786 127.432853 
L 609.219786 159.849712 
L 490.515214 159.849712 
L 490.515214 127.432853 
z
" clip-path="url(#pfd483fbb68)" style="fill: #c03d3e; stroke: #3d3d3d; stroke-linejoin: miter"/>
   </g>
   <g id="line2d_22">
    <path d="M 549.8675 127.432853 
L 549.8675 99.888239 
" clip-path="url(#pfd483fbb68)" style="fill: none; stroke: #3d3d3d"/>
   </g>
   <g id="line2d_23">
    <path d="M 549.8675 159.849712 
L 549.8675 207.691829 
" clip-path="url(#pfd483fbb68)" style="fill: none; stroke: #3d3d3d"/>
   </g>
   <g id="line2d_24">
    <path d="M 520.191357 99.888239 
L 579.543643 99.888239 
" clip-path="url(#pfd483fbb68)" style="fill: none; stroke: #3d3d3d; stroke-linecap: square"/>
   </g>
   <g id="line2d_25">
    <path d="M 520.191357 207.691829 
L 579.543643 207.691829 
" clip-path="url(#pfd483fbb68)" style="fill: none; stroke: #3d3d3d; stroke-linecap: square"/>
   </g>
   <g id="line2d_26">
    <g clip-path="url(#pfd483fbb68)">
     <use xlink:href="#md4b961fe8f" x="549.8675" y="221.963516" style="fill-opacity: 0; stroke: #3d3d3d"/>
     <use xlink:href="#md4b961fe8f" x="549.8675" y="212.966229" style="fill-opacity: 0; stroke: #3d3d3d"/>
     <use xlink:href="#md4b961fe8f" x="549.8675" y="211.277425" style="fill-opacity: 0; stroke: #3d3d3d"/>
     <use xlink:href="#md4b961fe8f" x="549.8675" y="227.146972" style="fill-opacity: 0; stroke: #3d3d3d"/>
     <use xlink:href="#md4b961fe8f" x="549.8675" y="235.558137" style="fill-opacity: 0; stroke: #3d3d3d"/>
     <use xlink:href="#md4b961fe8f" x="549.8675" y="221.288091" style="fill-opacity: 0; stroke: #3d3d3d"/>
     <use xlink:href="#md4b961fe8f" x="549.8675" y="214.075893" style="fill-opacity: 0; stroke: #3d3d3d"/>
     <use xlink:href="#md4b961fe8f" x="549.8675" y="217.726576" style="fill-opacity: 0; stroke: #3d3d3d"/>
    </g>
   </g>
   <g id="patch_7">
    <path d="M 638.895929 58.340147 
L 757.6005 58.340147 
L 757.6005 132.270283 
L 638.895929 132.270283 
L 638.895929 58.340147 
z
" clip-path="url(#pfd483fbb68)" style="fill: #9372b2; stroke: #3d3d3d; stroke-linejoin: miter"/>
   </g>
   <g id="line2d_27">
    <path d="M 698.248214 58.340147 
L 698.248214 33.628718 
" clip-path="url(#pfd483fbb68)" style="fill: none; stroke: #3d3d3d"/>
   </g>
   <g id="line2d_28">
    <path d="M 698.248214 132.270283 
L 698.248214 229.957818 
" clip-path="url(#pfd483fbb68)" style="fill: none; stroke: #3d3d3d"/>
   </g>
   <g id="line2d_29">
    <path d="M 668.572071 33.628718 
L 727.924357 33.628718 
" clip-path="url(#pfd483fbb68)" style="fill: none; stroke: #3d3d3d; stroke-linecap: square"/>
   </g>
   <g id="line2d_30">
    <path d="M 668.572071 229.957818 
L 727.924357 229.957818 
" clip-path="url(#pfd483fbb68)" style="fill: none; stroke: #3d3d3d; stroke-linecap: square"/>
   </g>
   <g id="line2d_31"/>
   <g id="patch_8">
    <path d="M 787.276643 52.372371 
L 905.981214 52.372371 
L 905.981214 128.023098 
L 787.276643 128.023098 
L 787.276643 52.372371 
z
" clip-path="url(#pfd483fbb68)" style="fill: #845b53; stroke: #3d3d3d; stroke-linejoin: miter"/>
   </g>
   <g id="line2d_32">
    <path d="M 846.628929 52.372371 
L 846.628929 29.29297 
" clip-path="url(#pfd483fbb68)" style="fill: none; stroke: #3d3d3d"/>
   </g>
   <g id="line2d_33">
    <path d="M 846.628929 128.023098 
L 846.628929 237.260389 
" clip-path="url(#pfd483fbb68)" style="fill: none; stroke: #3d3d3d"/>
   </g>
   <g id="line2d_34">
    <path d="M 816.952786 29.29297 
L 876.305071 29.29297 
" clip-path="url(#pfd483fbb68)" style="fill: none; stroke: #3d3d3d; stroke-linecap: square"/>
   </g>
   <g id="line2d_35">
    <path d="M 816.952786 237.260389 
L 876.305071 237.260389 
" clip-path="url(#pfd483fbb68)" style="fill: none; stroke: #3d3d3d; stroke-linecap: square"/>
   </g>
   <g id="line2d_36"/>
   <g id="patch_9">
    <path d="M 935.657357 118.020528 
L 1054.361929 118.020528 
L 1054.361929 200.537636 
L 935.657357 200.537636 
L 935.657357 118.020528 
z
" clip-path="url(#pfd483fbb68)" style="fill: #d684bd; stroke: #3d3d3d; stroke-linejoin: miter"/>
   </g>
   <g id="line2d_37">
    <path d="M 995.009643 118.020528 
L 995.009643 51.418661 
" clip-path="url(#pfd483fbb68)" style="fill: none; stroke: #3d3d3d"/>
   </g>
   <g id="line2d_38">
    <path d="M 995.009643 200.537636 
L 995.009643 312.772821 
" clip-path="url(#pfd483fbb68)" style="fill: none; stroke: #3d3d3d"/>
   </g>
   <g id="line2d_39">
    <path d="M 965.3335 51.418661 
L 1024.685786 51.418661 
" clip-path="url(#pfd483fbb68)" style="fill: none; stroke: #3d3d3d; stroke-linecap: square"/>
   </g>
   <g id="line2d_40">
    <path d="M 965.3335 312.772821 
L 1024.685786 312.772821 
" clip-path="url(#pfd483fbb68)" style="fill: none; stroke: #3d3d3d; stroke-linecap: square"/>
   </g>
   <g id="line2d_41">
    <g clip-path="url(#pfd483fbb68)">
     <use xlink:href="#md4b961fe8f" x="995.009643" y="399.152371" style="fill-opacity: 0; stroke: #3d3d3d"/>
     <use xlink:href="#md4b961fe8f" x="995.009643" y="342.009634" style="fill-opacity: 0; stroke: #3d3d3d"/>
    </g>
   </g>
   <g id="line2d_42">
    <path d="M 45.373071 164.591748 
L 164.077643 164.591748 
" clip-path="url(#pfd483fbb68)" style="fill: none; stroke: #3d3d3d"/>
   </g>
   <g id="line2d_43">
    <path d="M 193.753786 167.573152 
L 312.458357 167.573152 
" clip-path="url(#pfd483fbb68)" style="fill: none; stroke: #3d3d3d"/>
   </g>
   <g id="line2d_44">
    <path d="M 342.1345 149.466923 
L 460.839071 149.466923 
" clip-path="url(#pfd483fbb68)" style="fill: none; stroke: #3d3d3d"/>
   </g>
   <g id="line2d_45">
    <path d="M 490.515214 143.098993 
L 609.219786 143.098993 
" clip-path="url(#pfd483fbb68)" style="fill: none; stroke: #3d3d3d"/>
   </g>
   <g id="line2d_46">
    <path d="M 638.895929 87.92922 
L 757.6005 87.92922 
" clip-path="url(#pfd483fbb68)" style="fill: none; stroke: #3d3d3d"/>
   </g>
   <g id="line2d_47">
    <path d="M 787.276643 89.497699 
L 905.981214 89.497699 
" clip-path="url(#pfd483fbb68)" style="fill: none; stroke: #3d3d3d"/>
   </g>
   <g id="line2d_48">
    <path d="M 935.657357 149.519655 
L 1054.361929 149.519655 
" clip-path="url(#pfd483fbb68)" style="fill: none; stroke: #3d3d3d"/>
   </g>
   <g id="patch_10">
    <path d="M 30.535 417.645341 
L 30.535 10.8 
" style="fill: none; stroke: #000000; stroke-width: 0.8; stroke-linejoin: miter; stroke-linecap: square"/>
   </g>
   <g id="patch_11">
    <path d="M 1069.2 417.645341 
L 1069.2 10.8 
" style="fill: none; stroke: #000000; stroke-width: 0.8; stroke-linejoin: miter; stroke-linecap: square"/>
   </g>
   <g id="patch_12">
    <path d="M 30.535 417.645341 
L 1069.2 417.645341 
" style="fill: none; stroke: #000000; stroke-width: 0.8; stroke-linejoin: miter; stroke-linecap: square"/>
   </g>
   <g id="patch_13">
    <path d="M 30.535 10.8 
L 1069.2 10.8 
" style="fill: none; stroke: #000000; stroke-width: 0.8; stroke-linejoin: miter; stroke-linecap: square"/>
   </g>
  </g>
 </g>
 <defs>
  <clipPath id="pfd483fbb68">
   <rect x="30.535" y="10.8" width="1038.665" height="406.845341"/>
  </clipPath>
 </defs>
</svg>
