<?xml version="1.0" encoding="utf-8" standalone="no"?>
<!DOCTYPE svg PUBLIC "-//W3C//DTD SVG 1.1//EN"
  "http://www.w3.org/Graphics/SVG/1.1/DTD/svg11.dtd">
<svg xmlns:xlink="http://www.w3.org/1999/xlink" width="1080pt" height="432pt" viewBox="0 0 1080 432" xmlns="http://www.w3.org/2000/svg" version="1.1">
 <metadata>
  <rdf:RDF xmlns:dc="http://purl.org/dc/elements/1.1/" xmlns:cc="http://creativecommons.org/ns#" xmlns:rdf="http://www.w3.org/1999/02/22-rdf-syntax-ns#">
   <cc:Work>
    <dc:type rdf:resource="http://purl.org/dc/dcmitype/StillImage"/>
    <dc:date>2024-12-10T13:00:29.174381</dc:date>
    <dc:format>image/svg+xml</dc:format>
    <dc:creator>
     <cc:Agent>
      <dc:title>Matplotlib v3.9.3, https://matplotlib.org/</dc:title>
     </cc:Agent>
    </dc:creator>
   </cc:Work>
  </rdf:RDF>
 </metadata>
 <defs>
  <style type="text/css">*{stroke-linejoin: round; stroke-linecap: butt}</style>
 </defs>
 <g id="figure_1">
  <g id="patch_1">
   <path d="M 0 432 
L 1080 432 
L 1080 0 
L 0 0 
z
" style="fill: #ffffff"/>
  </g>
  <g id="axes_1">
   <g id="patch_2">
    <path d="M 40.165 415.113699 
L 1069.2 415.113699 
L 1069.2 12.859438 
L 40.165 12.859438 
z
" style="fill: #ffffff"/>
   </g>
   <g id="matplotlib.axis_1"/>
   <g id="matplotlib.axis_2">
    <g id="ytick_1">
     <g id="line2d_1">
      <defs>
       <path id="m4704d0bb4e" d="M 0 0 
L -3.5 0 
" style="stroke: #000000; stroke-width: 0.8"/>
      </defs>
      <g>
       <use xlink:href="#m4704d0bb4e" x="40.165" y="415.072948" style="stroke: #000000; stroke-width: 0.8"/>
      </g>
     </g>
     <g id="text_1">
      <!-- 0.70 -->
      <g transform="translate(10.899375 418.872166) scale(0.1 -0.1)">
       <defs>
        <path id="DejaVuSans-30" d="M 2034 4250 
Q 1547 4250 1301 3770 
Q 1056 3291 1056 2328 
Q 1056 1369 1301 889 
Q 1547 409 2034 409 
Q 2525 409 2770 889 
Q 3016 1369 3016 2328 
Q 3016 3291 2770 3770 
Q 2525 4250 2034 4250 
z
M 2034 4750 
Q 2819 4750 3233 4129 
Q 3647 3509 3647 2328 
Q 3647 1150 3233 529 
Q 2819 -91 2034 -91 
Q 1250 -91 836 529 
Q 422 1150 422 2328 
Q 422 3509 836 4129 
Q 1250 4750 2034 4750 
z
" transform="scale(0.015625)"/>
        <path id="DejaVuSans-2e" d="M 684 794 
L 1344 794 
L 1344 0 
L 684 0 
L 684 794 
z
" transform="scale(0.015625)"/>
        <path id="DejaVuSans-37" d="M 525 4666 
L 3525 4666 
L 3525 4397 
L 1831 0 
L 1172 0 
L 2766 4134 
L 525 4134 
L 525 4666 
z
" transform="scale(0.015625)"/>
       </defs>
       <use xlink:href="#DejaVuSans-30"/>
       <use xlink:href="#DejaVuSans-2e" x="63.623047"/>
       <use xlink:href="#DejaVuSans-37" x="95.410156"/>
       <use xlink:href="#DejaVuSans-30" x="159.033203"/>
      </g>
     </g>
    </g>
    <g id="ytick_2">
     <g id="line2d_2">
      <g>
       <use xlink:href="#m4704d0bb4e" x="40.165" y="348.420414" style="stroke: #000000; stroke-width: 0.8"/>
      </g>
     </g>
     <g id="text_2">
      <!-- 0.75 -->
      <g transform="translate(10.899375 352.219633) scale(0.1 -0.1)">
       <defs>
        <path id="DejaVuSans-35" d="M 691 4666 
L 3169 4666 
L 3169 4134 
L 1269 4134 
L 1269 2991 
Q 1406 3038 1543 3061 
Q 1681 3084 1819 3084 
Q 2600 3084 3056 2656 
Q 3513 2228 3513 1497 
Q 3513 744 3044 326 
Q 2575 -91 1722 -91 
Q 1428 -91 1123 -41 
Q 819 9 494 109 
L 494 744 
Q 775 591 1075 516 
Q 1375 441 1709 441 
Q 2250 441 2565 725 
Q 2881 1009 2881 1497 
Q 2881 1984 2565 2268 
Q 2250 2553 1709 2553 
Q 1456 2553 1204 2497 
Q 953 2441 691 2322 
L 691 4666 
z
" transform="scale(0.015625)"/>
       </defs>
       <use xlink:href="#DejaVuSans-30"/>
       <use xlink:href="#DejaVuSans-2e" x="63.623047"/>
       <use xlink:href="#DejaVuSans-37" x="95.410156"/>
       <use xlink:href="#DejaVuSans-35" x="159.033203"/>
      </g>
     </g>
    </g>
    <g id="ytick_3">
     <g id="line2d_3">
      <g>
       <use xlink:href="#m4704d0bb4e" x="40.165" y="281.76788" style="stroke: #000000; stroke-width: 0.8"/>
      </g>
     </g>
     <g id="text_3">
      <!-- 0.80 -->
      <g transform="translate(10.899375 285.567099) scale(0.1 -0.1)">
       <defs>
        <path id="DejaVuSans-38" d="M 2034 2216 
Q 1584 2216 1326 1975 
Q 1069 1734 1069 1313 
Q 1069 891 1326 650 
Q 1584 409 2034 409 
Q 2484 409 2743 651 
Q 3003 894 3003 1313 
Q 3003 1734 2745 1975 
Q 2488 2216 2034 2216 
z
M 1403 2484 
Q 997 2584 770 2862 
Q 544 3141 544 3541 
Q 544 4100 942 4425 
Q 1341 4750 2034 4750 
Q 2731 4750 3128 4425 
Q 3525 4100 3525 3541 
Q 3525 3141 3298 2862 
Q 3072 2584 2669 2484 
Q 3125 2378 3379 2068 
Q 3634 1759 3634 1313 
Q 3634 634 3220 271 
Q 2806 -91 2034 -91 
Q 1263 -91 848 271 
Q 434 634 434 1313 
Q 434 1759 690 2068 
Q 947 2378 1403 2484 
z
M 1172 3481 
Q 1172 3119 1398 2916 
Q 1625 2713 2034 2713 
Q 2441 2713 2670 2916 
Q 2900 3119 2900 3481 
Q 2900 3844 2670 4047 
Q 2441 4250 2034 4250 
Q 1625 4250 1398 4047 
Q 1172 3844 1172 3481 
z
" transform="scale(0.015625)"/>
       </defs>
       <use xlink:href="#DejaVuSans-30"/>
       <use xlink:href="#DejaVuSans-2e" x="63.623047"/>
       <use xlink:href="#DejaVuSans-38" x="95.410156"/>
       <use xlink:href="#DejaVuSans-30" x="159.033203"/>
      </g>
     </g>
    </g>
    <g id="ytick_4">
     <g id="line2d_4">
      <g>
       <use xlink:href="#m4704d0bb4e" x="40.165" y="215.115347" style="stroke: #000000; stroke-width: 0.8"/>
      </g>
     </g>
     <g id="text_4">
      <!-- 0.85 -->
      <g transform="translate(10.899375 218.914566) scale(0.1 -0.1)">
       <use xlink:href="#DejaVuSans-30"/>
       <use xlink:href="#DejaVuSans-2e" x="63.623047"/>
       <use xlink:href="#DejaVuSans-38" x="95.410156"/>
       <use xlink:href="#DejaVuSans-35" x="159.033203"/>
      </g>
     </g>
    </g>
    <g id="ytick_5">
     <g id="line2d_5">
      <g>
       <use xlink:href="#m4704d0bb4e" x="40.165" y="148.462813" style="stroke: #000000; stroke-width: 0.8"/>
      </g>
     </g>
     <g id="text_5">
      <!-- 0.90 -->
      <g transform="translate(10.899375 152.262032) scale(0.1 -0.1)">
       <defs>
        <path id="DejaVuSans-39" d="M 703 97 
L 703 672 
Q 941 559 1184 500 
Q 1428 441 1663 441 
Q 2288 441 2617 861 
Q 2947 1281 2994 2138 
Q 2813 1869 2534 1725 
Q 2256 1581 1919 1581 
Q 1219 1581 811 2004 
Q 403 2428 403 3163 
Q 403 3881 828 4315 
Q 1253 4750 1959 4750 
Q 2769 4750 3195 4129 
Q 3622 3509 3622 2328 
Q 3622 1225 3098 567 
Q 2575 -91 1691 -91 
Q 1453 -91 1209 -44 
Q 966 3 703 97 
z
M 1959 2075 
Q 2384 2075 2632 2365 
Q 2881 2656 2881 3163 
Q 2881 3666 2632 3958 
Q 2384 4250 1959 4250 
Q 1534 4250 1286 3958 
Q 1038 3666 1038 3163 
Q 1038 2656 1286 2365 
Q 1534 2075 1959 2075 
z
" transform="scale(0.015625)"/>
       </defs>
       <use xlink:href="#DejaVuSans-30"/>
       <use xlink:href="#DejaVuSans-2e" x="63.623047"/>
       <use xlink:href="#DejaVuSans-39" x="95.410156"/>
       <use xlink:href="#DejaVuSans-30" x="159.033203"/>
      </g>
     </g>
    </g>
    <g id="ytick_6">
     <g id="line2d_6">
      <g>
       <use xlink:href="#m4704d0bb4e" x="40.165" y="81.81028" style="stroke: #000000; stroke-width: 0.8"/>
      </g>
     </g>
     <g id="text_6">
      <!-- 0.95 -->
      <g transform="translate(10.899375 85.609498) scale(0.1 -0.1)">
       <use xlink:href="#DejaVuSans-30"/>
       <use xlink:href="#DejaVuSans-2e" x="63.623047"/>
       <use xlink:href="#DejaVuSans-39" x="95.410156"/>
       <use xlink:href="#DejaVuSans-35" x="159.033203"/>
      </g>
     </g>
    </g>
    <g id="ytick_7">
     <g id="line2d_7">
      <g>
       <use xlink:href="#m4704d0bb4e" x="40.165" y="15.157746" style="stroke: #000000; stroke-width: 0.8"/>
      </g>
     </g>
     <g id="text_7">
      <!-- 1.00 -->
      <g transform="translate(10.899375 18.956965) scale(0.1 -0.1)">
       <defs>
        <path id="DejaVuSans-31" d="M 794 531 
L 1825 531 
L 1825 4091 
L 703 3866 
L 703 4441 
L 1819 4666 
L 2450 4666 
L 2450 531 
L 3481 531 
L 3481 0 
L 794 0 
L 794 531 
z
" transform="scale(0.015625)"/>
       </defs>
       <use xlink:href="#DejaVuSans-31"/>
       <use xlink:href="#DejaVuSans-2e" x="63.623047"/>
       <use xlink:href="#DejaVuSans-30" x="95.410156"/>
       <use xlink:href="#DejaVuSans-30" x="159.033203"/>
      </g>
     </g>
    </g>
   </g>
   <g id="patch_3">
    <path d="M 54.8655 185.003787 
L 172.4695 185.003787 
L 172.4695 124.173688 
L 54.8655 124.173688 
L 54.8655 185.003787 
z
" clip-path="url(#p30e9b54a17)" style="fill: #3274a1; stroke: #3d3d3d; stroke-linejoin: miter"/>
   </g>
   <g id="line2d_8">
    <path d="M 113.6675 185.003787 
L 113.6675 269.522496 
" clip-path="url(#p30e9b54a17)" style="fill: none; stroke: #3d3d3d"/>
   </g>
   <g id="line2d_9">
    <path d="M 113.6675 124.173688 
L 113.6675 64.403332 
" clip-path="url(#p30e9b54a17)" style="fill: none; stroke: #3d3d3d"/>
   </g>
   <g id="line2d_10">
    <path d="M 84.2665 269.522496 
L 143.0685 269.522496 
" clip-path="url(#p30e9b54a17)" style="fill: none; stroke: #3d3d3d; stroke-linecap: square"/>
   </g>
   <g id="line2d_11">
    <path d="M 84.2665 64.403332 
L 143.0685 64.403332 
" clip-path="url(#p30e9b54a17)" style="fill: none; stroke: #3d3d3d; stroke-linecap: square"/>
   </g>
   <g id="line2d_12">
    <defs>
     <path id="md2fb483728" d="M 0 3 
C 0.795609 3 1.55874 2.683901 2.12132 2.12132 
C 2.683901 1.55874 3 0.795609 3 0 
C 3 -0.795609 2.683901 -1.55874 2.12132 -2.12132 
C 1.55874 -2.683901 0.795609 -3 0 -3 
C -0.795609 -3 -1.55874 -2.683901 -2.12132 -2.12132 
C -2.683901 -1.55874 -3 -0.795609 -3 0 
C -3 0.795609 -2.683901 1.55874 -2.12132 2.12132 
C -1.55874 2.683901 -0.795609 3 0 3 
z
" style="stroke: #3d3d3d"/>
    </defs>
    <g clip-path="url(#p30e9b54a17)">
     <use xlink:href="#md2fb483728" x="113.6675" y="396.829414" style="fill-opacity: 0; stroke: #3d3d3d"/>
    </g>
   </g>
   <g id="patch_4">
    <path d="M 201.8705 189.455913 
L 319.4745 189.455913 
L 319.4745 131.362989 
L 201.8705 131.362989 
L 201.8705 189.455913 
z
" clip-path="url(#p30e9b54a17)" style="fill: #e1812c; stroke: #3d3d3d; stroke-linejoin: miter"/>
   </g>
   <g id="line2d_13">
    <path d="M 260.6725 189.455913 
L 260.6725 273.162812 
" clip-path="url(#p30e9b54a17)" style="fill: none; stroke: #3d3d3d"/>
   </g>
   <g id="line2d_14">
    <path d="M 260.6725 131.362989 
L 260.6725 81.415417 
" clip-path="url(#p30e9b54a17)" style="fill: none; stroke: #3d3d3d"/>
   </g>
   <g id="line2d_15">
    <path d="M 231.2715 273.162812 
L 290.0735 273.162812 
" clip-path="url(#p30e9b54a17)" style="fill: none; stroke: #3d3d3d; stroke-linecap: square"/>
   </g>
   <g id="line2d_16">
    <path d="M 231.2715 81.415417 
L 290.0735 81.415417 
" clip-path="url(#p30e9b54a17)" style="fill: none; stroke: #3d3d3d; stroke-linecap: square"/>
   </g>
   <g id="line2d_17">
    <g clip-path="url(#p30e9b54a17)">
     <use xlink:href="#md2fb483728" x="260.6725" y="394.473111" style="fill-opacity: 0; stroke: #3d3d3d"/>
    </g>
   </g>
   <g id="patch_5">
    <path d="M 348.8755 139.037081 
L 466.4795 139.037081 
L 466.4795 87.752657 
L 348.8755 87.752657 
L 348.8755 139.037081 
z
" clip-path="url(#p30e9b54a17)" style="fill: #3a923a; stroke: #3d3d3d; stroke-linejoin: miter"/>
   </g>
   <g id="line2d_18">
    <path d="M 407.6775 139.037081 
L 407.6775 204.936007 
" clip-path="url(#p30e9b54a17)" style="fill: none; stroke: #3d3d3d"/>
   </g>
   <g id="line2d_19">
    <path d="M 407.6775 87.752657 
L 407.6775 44.602561 
" clip-path="url(#p30e9b54a17)" style="fill: none; stroke: #3d3d3d"/>
   </g>
   <g id="line2d_20">
    <path d="M 378.2765 204.936007 
L 437.0785 204.936007 
" clip-path="url(#p30e9b54a17)" style="fill: none; stroke: #3d3d3d; stroke-linecap: square"/>
   </g>
   <g id="line2d_21">
    <path d="M 378.2765 44.602561 
L 437.0785 44.602561 
" clip-path="url(#p30e9b54a17)" style="fill: none; stroke: #3d3d3d; stroke-linecap: square"/>
   </g>
   <g id="line2d_22">
    <g clip-path="url(#p30e9b54a17)">
     <use xlink:href="#md2fb483728" x="407.6775" y="216.097872" style="fill-opacity: 0; stroke: #3d3d3d"/>
     <use xlink:href="#md2fb483728" x="407.6775" y="246.662936" style="fill-opacity: 0; stroke: #3d3d3d"/>
     <use xlink:href="#md2fb483728" x="407.6775" y="232.431008" style="fill-opacity: 0; stroke: #3d3d3d"/>
     <use xlink:href="#md2fb483728" x="407.6775" y="223.492975" style="fill-opacity: 0; stroke: #3d3d3d"/>
     <use xlink:href="#md2fb483728" x="407.6775" y="265.555893" style="fill-opacity: 0; stroke: #3d3d3d"/>
     <use xlink:href="#md2fb483728" x="407.6775" y="329.955252" style="fill-opacity: 0; stroke: #3d3d3d"/>
     <use xlink:href="#md2fb483728" x="407.6775" y="219.223706" style="fill-opacity: 0; stroke: #3d3d3d"/>
    </g>
   </g>
   <g id="patch_6">
    <path d="M 495.8805 121.711649 
L 613.4845 121.711649 
L 613.4845 78.977771 
L 495.8805 78.977771 
L 495.8805 121.711649 
z
" clip-path="url(#p30e9b54a17)" style="fill: #c03d3e; stroke: #3d3d3d; stroke-linejoin: miter"/>
   </g>
   <g id="line2d_23">
    <path d="M 554.6825 121.711649 
L 554.6825 179.256579 
" clip-path="url(#p30e9b54a17)" style="fill: none; stroke: #3d3d3d"/>
   </g>
   <g id="line2d_24">
    <path d="M 554.6825 78.977771 
L 554.6825 48.666264 
" clip-path="url(#p30e9b54a17)" style="fill: none; stroke: #3d3d3d"/>
   </g>
   <g id="line2d_25">
    <path d="M 525.2815 179.256579 
L 584.0835 179.256579 
" clip-path="url(#p30e9b54a17)" style="fill: none; stroke: #3d3d3d; stroke-linecap: square"/>
   </g>
   <g id="line2d_26">
    <path d="M 525.2815 48.666264 
L 584.0835 48.666264 
" clip-path="url(#p30e9b54a17)" style="fill: none; stroke: #3d3d3d; stroke-linecap: square"/>
   </g>
   <g id="line2d_27">
    <g clip-path="url(#p30e9b54a17)">
     <use xlink:href="#md2fb483728" x="554.6825" y="213.688642" style="fill-opacity: 0; stroke: #3d3d3d"/>
     <use xlink:href="#md2fb483728" x="554.6825" y="207.126782" style="fill-opacity: 0; stroke: #3d3d3d"/>
     <use xlink:href="#md2fb483728" x="554.6825" y="230.848774" style="fill-opacity: 0; stroke: #3d3d3d"/>
     <use xlink:href="#md2fb483728" x="554.6825" y="196.791794" style="fill-opacity: 0; stroke: #3d3d3d"/>
     <use xlink:href="#md2fb483728" x="554.6825" y="192.110145" style="fill-opacity: 0; stroke: #3d3d3d"/>
     <use xlink:href="#md2fb483728" x="554.6825" y="247.334636" style="fill-opacity: 0; stroke: #3d3d3d"/>
     <use xlink:href="#md2fb483728" x="554.6825" y="279.760208" style="fill-opacity: 0; stroke: #3d3d3d"/>
     <use xlink:href="#md2fb483728" x="554.6825" y="190.31722" style="fill-opacity: 0; stroke: #3d3d3d"/>
    </g>
   </g>
   <g id="patch_7">
    <path d="M 642.8855 131.742105 
L 760.4895 131.742105 
L 760.4895 78.026395 
L 642.8855 78.026395 
L 642.8855 131.742105 
z
" clip-path="url(#p30e9b54a17)" style="fill: #9372b2; stroke: #3d3d3d; stroke-linejoin: miter"/>
   </g>
   <g id="line2d_28">
    <path d="M 701.6875 131.742105 
L 701.6875 207.34973 
" clip-path="url(#p30e9b54a17)" style="fill: none; stroke: #3d3d3d"/>
   </g>
   <g id="line2d_29">
    <path d="M 701.6875 78.026395 
L 701.6875 36.10738 
" clip-path="url(#p30e9b54a17)" style="fill: none; stroke: #3d3d3d"/>
   </g>
   <g id="line2d_30">
    <path d="M 672.2865 207.34973 
L 731.0885 207.34973 
" clip-path="url(#p30e9b54a17)" style="fill: none; stroke: #3d3d3d; stroke-linecap: square"/>
   </g>
   <g id="line2d_31">
    <path d="M 672.2865 36.10738 
L 731.0885 36.10738 
" clip-path="url(#p30e9b54a17)" style="fill: none; stroke: #3d3d3d; stroke-linecap: square"/>
   </g>
   <g id="line2d_32">
    <g clip-path="url(#p30e9b54a17)">
     <use xlink:href="#md2fb483728" x="701.6875" y="215.771332" style="fill-opacity: 0; stroke: #3d3d3d"/>
     <use xlink:href="#md2fb483728" x="701.6875" y="230.268996" style="fill-opacity: 0; stroke: #3d3d3d"/>
     <use xlink:href="#md2fb483728" x="701.6875" y="281.466458" style="fill-opacity: 0; stroke: #3d3d3d"/>
     <use xlink:href="#md2fb483728" x="701.6875" y="240.416954" style="fill-opacity: 0; stroke: #3d3d3d"/>
     <use xlink:href="#md2fb483728" x="701.6875" y="267.022385" style="fill-opacity: 0; stroke: #3d3d3d"/>
     <use xlink:href="#md2fb483728" x="701.6875" y="219.183293" style="fill-opacity: 0; stroke: #3d3d3d"/>
     <use xlink:href="#md2fb483728" x="701.6875" y="219.678926" style="fill-opacity: 0; stroke: #3d3d3d"/>
    </g>
   </g>
   <g id="patch_8">
    <path d="M 789.8905 132.487885 
L 907.4945 132.487885 
L 907.4945 75.837129 
L 789.8905 75.837129 
L 789.8905 132.487885 
z
" clip-path="url(#p30e9b54a17)" style="fill: #845b53; stroke: #3d3d3d; stroke-linejoin: miter"/>
   </g>
   <g id="line2d_33">
    <path d="M 848.6925 132.487885 
L 848.6925 212.525338 
" clip-path="url(#p30e9b54a17)" style="fill: none; stroke: #3d3d3d"/>
   </g>
   <g id="line2d_34">
    <path d="M 848.6925 75.837129 
L 848.6925 32.793381 
" clip-path="url(#p30e9b54a17)" style="fill: none; stroke: #3d3d3d"/>
   </g>
   <g id="line2d_35">
    <path d="M 819.2915 212.525338 
L 878.0935 212.525338 
" clip-path="url(#p30e9b54a17)" style="fill: none; stroke: #3d3d3d; stroke-linecap: square"/>
   </g>
   <g id="line2d_36">
    <path d="M 819.2915 32.793381 
L 878.0935 32.793381 
" clip-path="url(#p30e9b54a17)" style="fill: none; stroke: #3d3d3d; stroke-linecap: square"/>
   </g>
   <g id="line2d_37">
    <g clip-path="url(#p30e9b54a17)">
     <use xlink:href="#md2fb483728" x="848.6925" y="247.373592" style="fill-opacity: 0; stroke: #3d3d3d"/>
     <use xlink:href="#md2fb483728" x="848.6925" y="295.179922" style="fill-opacity: 0; stroke: #3d3d3d"/>
     <use xlink:href="#md2fb483728" x="848.6925" y="229.08893" style="fill-opacity: 0; stroke: #3d3d3d"/>
     <use xlink:href="#md2fb483728" x="848.6925" y="258.514367" style="fill-opacity: 0; stroke: #3d3d3d"/>
     <use xlink:href="#md2fb483728" x="848.6925" y="261.555043" style="fill-opacity: 0; stroke: #3d3d3d"/>
     <use xlink:href="#md2fb483728" x="848.6925" y="218.323982" style="fill-opacity: 0; stroke: #3d3d3d"/>
     <use xlink:href="#md2fb483728" x="848.6925" y="239.348938" style="fill-opacity: 0; stroke: #3d3d3d"/>
    </g>
   </g>
   <g id="patch_9">
    <path d="M 936.8955 142.426354 
L 1054.4995 142.426354 
L 1054.4995 78.611484 
L 936.8955 78.611484 
L 936.8955 142.426354 
z
" clip-path="url(#p30e9b54a17)" style="fill: #d684bd; stroke: #3d3d3d; stroke-linejoin: miter"/>
   </g>
   <g id="line2d_38">
    <path d="M 995.6975 142.426354 
L 995.6975 223.112606 
" clip-path="url(#p30e9b54a17)" style="fill: none; stroke: #3d3d3d"/>
   </g>
   <g id="line2d_39">
    <path d="M 995.6975 78.611484 
L 995.6975 31.143722 
" clip-path="url(#p30e9b54a17)" style="fill: none; stroke: #3d3d3d"/>
   </g>
   <g id="line2d_40">
    <path d="M 966.2965 223.112606 
L 1025.0985 223.112606 
" clip-path="url(#p30e9b54a17)" style="fill: none; stroke: #3d3d3d; stroke-linecap: square"/>
   </g>
   <g id="line2d_41">
    <path d="M 966.2965 31.143722 
L 1025.0985 31.143722 
" clip-path="url(#p30e9b54a17)" style="fill: none; stroke: #3d3d3d; stroke-linecap: square"/>
   </g>
   <g id="line2d_42">
    <g clip-path="url(#p30e9b54a17)">
     <use xlink:href="#md2fb483728" x="995.6975" y="249.31425" style="fill-opacity: 0; stroke: #3d3d3d"/>
     <use xlink:href="#md2fb483728" x="995.6975" y="258.075386" style="fill-opacity: 0; stroke: #3d3d3d"/>
     <use xlink:href="#md2fb483728" x="995.6975" y="296.18705" style="fill-opacity: 0; stroke: #3d3d3d"/>
     <use xlink:href="#md2fb483728" x="995.6975" y="260.439124" style="fill-opacity: 0; stroke: #3d3d3d"/>
     <use xlink:href="#md2fb483728" x="995.6975" y="307.104977" style="fill-opacity: 0; stroke: #3d3d3d"/>
     <use xlink:href="#md2fb483728" x="995.6975" y="240.737813" style="fill-opacity: 0; stroke: #3d3d3d"/>
    </g>
   </g>
   <g id="line2d_43">
    <path d="M 54.8655 152.093045 
L 172.4695 152.093045 
" clip-path="url(#p30e9b54a17)" style="fill: none; stroke: #3d3d3d"/>
   </g>
   <g id="line2d_44">
    <path d="M 201.8705 159.445128 
L 319.4745 159.445128 
" clip-path="url(#p30e9b54a17)" style="fill: none; stroke: #3d3d3d"/>
   </g>
   <g id="line2d_45">
    <path d="M 348.8755 112.442218 
L 466.4795 112.442218 
" clip-path="url(#p30e9b54a17)" style="fill: none; stroke: #3d3d3d"/>
   </g>
   <g id="line2d_46">
    <path d="M 495.8805 97.310638 
L 613.4845 97.310638 
" clip-path="url(#p30e9b54a17)" style="fill: none; stroke: #3d3d3d"/>
   </g>
   <g id="line2d_47">
    <path d="M 642.8855 98.512279 
L 760.4895 98.512279 
" clip-path="url(#p30e9b54a17)" style="fill: none; stroke: #3d3d3d"/>
   </g>
   <g id="line2d_48">
    <path d="M 789.8905 98.303093 
L 907.4945 98.303093 
" clip-path="url(#p30e9b54a17)" style="fill: none; stroke: #3d3d3d"/>
   </g>
   <g id="line2d_49">
    <path d="M 936.8955 105.573271 
L 1054.4995 105.573271 
" clip-path="url(#p30e9b54a17)" style="fill: none; stroke: #3d3d3d"/>
   </g>
   <g id="patch_10">
    <path d="M 40.165 415.113699 
L 40.165 12.859438 
" style="fill: none; stroke: #000000; stroke-width: 0.8; stroke-linejoin: miter; stroke-linecap: square"/>
   </g>
   <g id="patch_11">
    <path d="M 1069.2 415.113699 
L 1069.2 12.859438 
" style="fill: none; stroke: #000000; stroke-width: 0.8; stroke-linejoin: miter; stroke-linecap: square"/>
   </g>
   <g id="patch_12">
    <path d="M 40.165 415.113699 
L 1069.2 415.113699 
" style="fill: none; stroke: #000000; stroke-width: 0.8; stroke-linejoin: miter; stroke-linecap: square"/>
   </g>
   <g id="patch_13">
    <path d="M 40.165 12.859438 
L 1069.2 12.859438 
" style="fill: none; stroke: #000000; stroke-width: 0.8; stroke-linejoin: miter; stroke-linecap: square"/>
   </g>
  </g>
 </g>
 <defs>
  <clipPath id="p30e9b54a17">
   <rect x="40.165" y="12.859438" width="1029.035" height="402.254261"/>
  </clipPath>
 </defs>
</svg>
