<?xml version="1.0" encoding="utf-8" standalone="no"?>
<!DOCTYPE svg PUBLIC "-//W3C//DTD SVG 1.1//EN"
  "http://www.w3.org/Graphics/SVG/1.1/DTD/svg11.dtd">
<svg xmlns:xlink="http://www.w3.org/1999/xlink" width="1080pt" height="432pt" viewBox="0 0 1080 432" xmlns="http://www.w3.org/2000/svg" version="1.1">
 <metadata>
  <rdf:RDF xmlns:dc="http://purl.org/dc/elements/1.1/" xmlns:cc="http://creativecommons.org/ns#" xmlns:rdf="http://www.w3.org/1999/02/22-rdf-syntax-ns#">
   <cc:Work>
    <dc:type rdf:resource="http://purl.org/dc/dcmitype/StillImage"/>
    <dc:date>2024-12-10T13:00:29.752642</dc:date>
    <dc:format>image/svg+xml</dc:format>
    <dc:creator>
     <cc:Agent>
      <dc:title>Matplotlib v3.9.3, https://matplotlib.org/</dc:title>
     </cc:Agent>
    </dc:creator>
   </cc:Work>
  </rdf:RDF>
 </metadata>
 <defs>
  <style type="text/css">*{stroke-linejoin: round; stroke-linecap: butt}</style>
 </defs>
 <g id="figure_1">
  <g id="patch_1">
   <path d="M 0 432 
L 1080 432 
L 1080 0 
L 0 0 
z
" style="fill: #ffffff"/>
  </g>
  <g id="axes_1">
   <g id="patch_2">
    <path d="M 24.19 415.714503 
L 1069.2 415.714503 
L 1069.2 10.8 
L 24.19 10.8 
z
" style="fill: #ffffff"/>
   </g>
   <g id="matplotlib.axis_1"/>
   <g id="matplotlib.axis_2">
    <g id="ytick_1">
     <g id="line2d_1">
      <defs>
       <path id="mf853064240" d="M 0 0 
L -3.5 0 
" style="stroke: #000000; stroke-width: 0.8"/>
      </defs>
      <g>
       <use xlink:href="#mf853064240" x="24.19" y="59.460764" style="stroke: #000000; stroke-width: 0.8"/>
      </g>
     </g>
     <g id="text_1">
      <!-- 2 -->
      <g transform="translate(10.8275 63.259983) scale(0.1 -0.1)">
       <defs>
        <path id="DejaVuSans-32" d="M 1228 531 
L 3431 531 
L 3431 0 
L 469 0 
L 469 531 
Q 828 903 1448 1529 
Q 2069 2156 2228 2338 
Q 2531 2678 2651 2914 
Q 2772 3150 2772 3378 
Q 2772 3750 2511 3984 
Q 2250 4219 1831 4219 
Q 1534 4219 1204 4116 
Q 875 4013 500 3803 
L 500 4441 
Q 881 4594 1212 4672 
Q 1544 4750 1819 4750 
Q 2544 4750 2975 4387 
Q 3406 4025 3406 3419 
Q 3406 3131 3298 2873 
Q 3191 2616 2906 2266 
Q 2828 2175 2409 1742 
Q 1991 1309 1228 531 
z
" transform="scale(0.015625)"/>
       </defs>
       <use xlink:href="#DejaVuSans-32"/>
      </g>
     </g>
    </g>
    <g id="ytick_2">
     <g id="line2d_2">
      <g>
       <use xlink:href="#mf853064240" x="24.19" y="118.70766" style="stroke: #000000; stroke-width: 0.8"/>
      </g>
     </g>
     <g id="text_2">
      <!-- 3 -->
      <g transform="translate(10.8275 122.506878) scale(0.1 -0.1)">
       <defs>
        <path id="DejaVuSans-33" d="M 2597 2516 
Q 3050 2419 3304 2112 
Q 3559 1806 3559 1356 
Q 3559 666 3084 287 
Q 2609 -91 1734 -91 
Q 1441 -91 1130 -33 
Q 819 25 488 141 
L 488 750 
Q 750 597 1062 519 
Q 1375 441 1716 441 
Q 2309 441 2620 675 
Q 2931 909 2931 1356 
Q 2931 1769 2642 2001 
Q 2353 2234 1838 2234 
L 1294 2234 
L 1294 2753 
L 1863 2753 
Q 2328 2753 2575 2939 
Q 2822 3125 2822 3475 
Q 2822 3834 2567 4026 
Q 2313 4219 1838 4219 
Q 1578 4219 1281 4162 
Q 984 4106 628 3988 
L 628 4550 
Q 988 4650 1302 4700 
Q 1616 4750 1894 4750 
Q 2613 4750 3031 4423 
Q 3450 4097 3450 3541 
Q 3450 3153 3228 2886 
Q 3006 2619 2597 2516 
z
" transform="scale(0.015625)"/>
       </defs>
       <use xlink:href="#DejaVuSans-33"/>
      </g>
     </g>
    </g>
    <g id="ytick_3">
     <g id="line2d_3">
      <g>
       <use xlink:href="#mf853064240" x="24.19" y="177.954555" style="stroke: #000000; stroke-width: 0.8"/>
      </g>
     </g>
     <g id="text_3">
      <!-- 4 -->
      <g transform="translate(10.8275 181.753774) scale(0.1 -0.1)">
       <defs>
        <path id="DejaVuSans-34" d="M 2419 4116 
L 825 1625 
L 2419 1625 
L 2419 4116 
z
M 2253 4666 
L 3047 4666 
L 3047 1625 
L 3713 1625 
L 3713 1100 
L 3047 1100 
L 3047 0 
L 2419 0 
L 2419 1100 
L 313 1100 
L 313 1709 
L 2253 4666 
z
" transform="scale(0.015625)"/>
       </defs>
       <use xlink:href="#DejaVuSans-34"/>
      </g>
     </g>
    </g>
    <g id="ytick_4">
     <g id="line2d_4">
      <g>
       <use xlink:href="#mf853064240" x="24.19" y="237.201451" style="stroke: #000000; stroke-width: 0.8"/>
      </g>
     </g>
     <g id="text_4">
      <!-- 5 -->
      <g transform="translate(10.8275 241.00067) scale(0.1 -0.1)">
       <defs>
        <path id="DejaVuSans-35" d="M 691 4666 
L 3169 4666 
L 3169 4134 
L 1269 4134 
L 1269 2991 
Q 1406 3038 1543 3061 
Q 1681 3084 1819 3084 
Q 2600 3084 3056 2656 
Q 3513 2228 3513 1497 
Q 3513 744 3044 326 
Q 2575 -91 1722 -91 
Q 1428 -91 1123 -41 
Q 819 9 494 109 
L 494 744 
Q 775 591 1075 516 
Q 1375 441 1709 441 
Q 2250 441 2565 725 
Q 2881 1009 2881 1497 
Q 2881 1984 2565 2268 
Q 2250 2553 1709 2553 
Q 1456 2553 1204 2497 
Q 953 2441 691 2322 
L 691 4666 
z
" transform="scale(0.015625)"/>
       </defs>
       <use xlink:href="#DejaVuSans-35"/>
      </g>
     </g>
    </g>
    <g id="ytick_5">
     <g id="line2d_5">
      <g>
       <use xlink:href="#mf853064240" x="24.19" y="296.448347" style="stroke: #000000; stroke-width: 0.8"/>
      </g>
     </g>
     <g id="text_5">
      <!-- 6 -->
      <g transform="translate(10.8275 300.247566) scale(0.1 -0.1)">
       <defs>
        <path id="DejaVuSans-36" d="M 2113 2584 
Q 1688 2584 1439 2293 
Q 1191 2003 1191 1497 
Q 1191 994 1439 701 
Q 1688 409 2113 409 
Q 2538 409 2786 701 
Q 3034 994 3034 1497 
Q 3034 2003 2786 2293 
Q 2538 2584 2113 2584 
z
M 3366 4563 
L 3366 3988 
Q 3128 4100 2886 4159 
Q 2644 4219 2406 4219 
Q 1781 4219 1451 3797 
Q 1122 3375 1075 2522 
Q 1259 2794 1537 2939 
Q 1816 3084 2150 3084 
Q 2853 3084 3261 2657 
Q 3669 2231 3669 1497 
Q 3669 778 3244 343 
Q 2819 -91 2113 -91 
Q 1303 -91 875 529 
Q 447 1150 447 2328 
Q 447 3434 972 4092 
Q 1497 4750 2381 4750 
Q 2619 4750 2861 4703 
Q 3103 4656 3366 4563 
z
" transform="scale(0.015625)"/>
       </defs>
       <use xlink:href="#DejaVuSans-36"/>
      </g>
     </g>
    </g>
    <g id="ytick_6">
     <g id="line2d_6">
      <g>
       <use xlink:href="#mf853064240" x="24.19" y="355.695242" style="stroke: #000000; stroke-width: 0.8"/>
      </g>
     </g>
     <g id="text_6">
      <!-- 7 -->
      <g transform="translate(10.8275 359.494461) scale(0.1 -0.1)">
       <defs>
        <path id="DejaVuSans-37" d="M 525 4666 
L 3525 4666 
L 3525 4397 
L 1831 0 
L 1172 0 
L 2766 4134 
L 525 4134 
L 525 4666 
z
" transform="scale(0.015625)"/>
       </defs>
       <use xlink:href="#DejaVuSans-37"/>
      </g>
     </g>
    </g>
    <g id="ytick_7">
     <g id="line2d_7">
      <g>
       <use xlink:href="#mf853064240" x="24.19" y="414.942138" style="stroke: #000000; stroke-width: 0.8"/>
      </g>
     </g>
     <g id="text_7">
      <!-- 8 -->
      <g transform="translate(10.8275 418.741357) scale(0.1 -0.1)">
       <defs>
        <path id="DejaVuSans-38" d="M 2034 2216 
Q 1584 2216 1326 1975 
Q 1069 1734 1069 1313 
Q 1069 891 1326 650 
Q 1584 409 2034 409 
Q 2484 409 2743 651 
Q 3003 894 3003 1313 
Q 3003 1734 2745 1975 
Q 2488 2216 2034 2216 
z
M 1403 2484 
Q 997 2584 770 2862 
Q 544 3141 544 3541 
Q 544 4100 942 4425 
Q 1341 4750 2034 4750 
Q 2731 4750 3128 4425 
Q 3525 4100 3525 3541 
Q 3525 3141 3298 2862 
Q 3072 2584 2669 2484 
Q 3125 2378 3379 2068 
Q 3634 1759 3634 1313 
Q 3634 634 3220 271 
Q 2806 -91 2034 -91 
Q 1263 -91 848 271 
Q 434 634 434 1313 
Q 434 1759 690 2068 
Q 947 2378 1403 2484 
z
M 1172 3481 
Q 1172 3119 1398 2916 
Q 1625 2713 2034 2713 
Q 2441 2713 2670 2916 
Q 2900 3119 2900 3481 
Q 2900 3844 2670 4047 
Q 2441 4250 2034 4250 
Q 1625 4250 1398 4047 
Q 1172 3844 1172 3481 
z
" transform="scale(0.015625)"/>
       </defs>
       <use xlink:href="#DejaVuSans-38"/>
      </g>
     </g>
    </g>
   </g>
   <g id="patch_3">
    <path d="M 39.118714 162.178729 
L 158.548429 162.178729 
L 158.548429 225.562536 
L 39.118714 225.562536 
L 39.118714 162.178729 
z
" clip-path="url(#p3461c1a5b6)" style="fill: #3274a1; stroke: #3d3d3d; stroke-linejoin: miter"/>
   </g>
   <g id="line2d_8">
    <path d="M 98.833571 162.178729 
L 98.833571 87.037297 
" clip-path="url(#p3461c1a5b6)" style="fill: none; stroke: #3d3d3d"/>
   </g>
   <g id="line2d_9">
    <path d="M 98.833571 225.562536 
L 98.833571 295.580335 
" clip-path="url(#p3461c1a5b6)" style="fill: none; stroke: #3d3d3d"/>
   </g>
   <g id="line2d_10">
    <path d="M 68.976143 87.037297 
L 128.691 87.037297 
" clip-path="url(#p3461c1a5b6)" style="fill: none; stroke: #3d3d3d; stroke-linecap: square"/>
   </g>
   <g id="line2d_11">
    <path d="M 68.976143 295.580335 
L 128.691 295.580335 
" clip-path="url(#p3461c1a5b6)" style="fill: none; stroke: #3d3d3d; stroke-linecap: square"/>
   </g>
   <g id="line2d_12">
    <defs>
     <path id="m120af2eea9" d="M 0 3 
C 0.795609 3 1.55874 2.683901 2.12132 2.12132 
C 2.683901 1.55874 3 0.795609 3 0 
C 3 -0.795609 2.683901 -1.55874 2.12132 -2.12132 
C 1.55874 -2.683901 0.795609 -3 0 -3 
C -0.795609 -3 -1.55874 -2.683901 -2.12132 -2.12132 
C -2.683901 -1.55874 -3 -0.795609 -3 0 
C -3 0.795609 -2.683901 1.55874 -2.12132 2.12132 
C -1.55874 2.683901 -0.795609 3 0 3 
z
" style="stroke: #3d3d3d"/>
    </defs>
    <g clip-path="url(#p3461c1a5b6)">
     <use xlink:href="#m120af2eea9" x="98.833571" y="391.129925" style="fill-opacity: 0; stroke: #3d3d3d"/>
    </g>
   </g>
   <g id="patch_4">
    <path d="M 188.405857 170.863789 
L 307.835571 170.863789 
L 307.835571 229.097025 
L 188.405857 229.097025 
L 188.405857 170.863789 
z
" clip-path="url(#p3461c1a5b6)" style="fill: #e1812c; stroke: #3d3d3d; stroke-linejoin: miter"/>
   </g>
   <g id="line2d_13">
    <path d="M 248.120714 170.863789 
L 248.120714 104.338899 
" clip-path="url(#p3461c1a5b6)" style="fill: none; stroke: #3d3d3d"/>
   </g>
   <g id="line2d_14">
    <path d="M 248.120714 229.097025 
L 248.120714 311.861665 
" clip-path="url(#p3461c1a5b6)" style="fill: none; stroke: #3d3d3d"/>
   </g>
   <g id="line2d_15">
    <path d="M 218.263286 104.338899 
L 277.978143 104.338899 
" clip-path="url(#p3461c1a5b6)" style="fill: none; stroke: #3d3d3d; stroke-linecap: square"/>
   </g>
   <g id="line2d_16">
    <path d="M 218.263286 311.861665 
L 277.978143 311.861665 
" clip-path="url(#p3461c1a5b6)" style="fill: none; stroke: #3d3d3d; stroke-linecap: square"/>
   </g>
   <g id="line2d_17">
    <g clip-path="url(#p3461c1a5b6)">
     <use xlink:href="#m120af2eea9" x="248.120714" y="389.839687" style="fill-opacity: 0; stroke: #3d3d3d"/>
    </g>
   </g>
   <g id="patch_5">
    <path d="M 337.693 127.43526 
L 457.122714 127.43526 
L 457.122714 184.771995 
L 337.693 184.771995 
L 337.693 127.43526 
z
" clip-path="url(#p3461c1a5b6)" style="fill: #3a923a; stroke: #3d3d3d; stroke-linejoin: miter"/>
   </g>
   <g id="line2d_18">
    <path d="M 397.407857 127.43526 
L 397.407857 59.143922 
" clip-path="url(#p3461c1a5b6)" style="fill: none; stroke: #3d3d3d"/>
   </g>
   <g id="line2d_19">
    <path d="M 397.407857 184.771995 
L 397.407857 268.30149 
" clip-path="url(#p3461c1a5b6)" style="fill: none; stroke: #3d3d3d"/>
   </g>
   <g id="line2d_20">
    <path d="M 367.550429 59.143922 
L 427.265286 59.143922 
" clip-path="url(#p3461c1a5b6)" style="fill: none; stroke: #3d3d3d; stroke-linecap: square"/>
   </g>
   <g id="line2d_21">
    <path d="M 367.550429 268.30149 
L 427.265286 268.30149 
" clip-path="url(#p3461c1a5b6)" style="fill: none; stroke: #3d3d3d; stroke-linecap: square"/>
   </g>
   <g id="line2d_22">
    <g clip-path="url(#p3461c1a5b6)">
     <use xlink:href="#m120af2eea9" x="397.407857" y="286.950938" style="fill-opacity: 0; stroke: #3d3d3d"/>
     <use xlink:href="#m120af2eea9" x="397.407857" y="278.648523" style="fill-opacity: 0; stroke: #3d3d3d"/>
     <use xlink:href="#m120af2eea9" x="397.407857" y="342.960993" style="fill-opacity: 0; stroke: #3d3d3d"/>
    </g>
   </g>
   <g id="patch_6">
    <path d="M 486.980143 108.872592 
L 606.409857 108.872592 
L 606.409857 157.162914 
L 486.980143 157.162914 
L 486.980143 108.872592 
z
" clip-path="url(#p3461c1a5b6)" style="fill: #c03d3e; stroke: #3d3d3d; stroke-linejoin: miter"/>
   </g>
   <g id="line2d_23">
    <path d="M 546.695 108.872592 
L 546.695 58.70962 
" clip-path="url(#p3461c1a5b6)" style="fill: none; stroke: #3d3d3d"/>
   </g>
   <g id="line2d_24">
    <path d="M 546.695 157.162914 
L 546.695 224.694287 
" clip-path="url(#p3461c1a5b6)" style="fill: none; stroke: #3d3d3d"/>
   </g>
   <g id="line2d_25">
    <path d="M 516.837571 58.70962 
L 576.552429 58.70962 
" clip-path="url(#p3461c1a5b6)" style="fill: none; stroke: #3d3d3d; stroke-linecap: square"/>
   </g>
   <g id="line2d_26">
    <path d="M 516.837571 224.694287 
L 576.552429 224.694287 
" clip-path="url(#p3461c1a5b6)" style="fill: none; stroke: #3d3d3d; stroke-linecap: square"/>
   </g>
   <g id="line2d_27">
    <g clip-path="url(#p3461c1a5b6)">
     <use xlink:href="#m120af2eea9" x="546.695" y="232.91541" style="fill-opacity: 0; stroke: #3d3d3d"/>
     <use xlink:href="#m120af2eea9" x="546.695" y="278.574859" style="fill-opacity: 0; stroke: #3d3d3d"/>
     <use xlink:href="#m120af2eea9" x="546.695" y="232.447997" style="fill-opacity: 0; stroke: #3d3d3d"/>
     <use xlink:href="#m120af2eea9" x="546.695" y="281.232868" style="fill-opacity: 0; stroke: #3d3d3d"/>
     <use xlink:href="#m120af2eea9" x="546.695" y="239.08938" style="fill-opacity: 0; stroke: #3d3d3d"/>
    </g>
   </g>
   <g id="patch_7">
    <path d="M 636.267286 109.885349 
L 755.697 109.885349 
L 755.697 163.637072 
L 636.267286 163.637072 
L 636.267286 109.885349 
z
" clip-path="url(#p3461c1a5b6)" style="fill: #9372b2; stroke: #3d3d3d; stroke-linejoin: miter"/>
   </g>
   <g id="line2d_28">
    <path d="M 695.982143 109.885349 
L 695.982143 45.038101 
" clip-path="url(#p3461c1a5b6)" style="fill: none; stroke: #3d3d3d"/>
   </g>
   <g id="line2d_29">
    <path d="M 695.982143 163.637072 
L 695.982143 236.391961 
" clip-path="url(#p3461c1a5b6)" style="fill: none; stroke: #3d3d3d"/>
   </g>
   <g id="line2d_30">
    <path d="M 666.124714 45.038101 
L 725.839571 45.038101 
" clip-path="url(#p3461c1a5b6)" style="fill: none; stroke: #3d3d3d; stroke-linecap: square"/>
   </g>
   <g id="line2d_31">
    <path d="M 666.124714 236.391961 
L 725.839571 236.391961 
" clip-path="url(#p3461c1a5b6)" style="fill: none; stroke: #3d3d3d; stroke-linecap: square"/>
   </g>
   <g id="line2d_32">
    <g clip-path="url(#p3461c1a5b6)">
     <use xlink:href="#m120af2eea9" x="695.982143" y="259.179221" style="fill-opacity: 0; stroke: #3d3d3d"/>
     <use xlink:href="#m120af2eea9" x="695.982143" y="281.526424" style="fill-opacity: 0; stroke: #3d3d3d"/>
     <use xlink:href="#m120af2eea9" x="695.982143" y="310.668618" style="fill-opacity: 0; stroke: #3d3d3d"/>
     <use xlink:href="#m120af2eea9" x="695.982143" y="277.534528" style="fill-opacity: 0; stroke: #3d3d3d"/>
    </g>
   </g>
   <g id="patch_8">
    <path d="M 785.554429 109.533973 
L 904.984143 109.533973 
L 904.984143 168.862679 
L 785.554429 168.862679 
L 785.554429 109.533973 
z
" clip-path="url(#p3461c1a5b6)" style="fill: #845b53; stroke: #3d3d3d; stroke-linejoin: miter"/>
   </g>
   <g id="line2d_33">
    <path d="M 845.269286 109.533973 
L 845.269286 29.205205 
" clip-path="url(#p3461c1a5b6)" style="fill: none; stroke: #3d3d3d"/>
   </g>
   <g id="line2d_34">
    <path d="M 845.269286 168.862679 
L 845.269286 248.990352 
" clip-path="url(#p3461c1a5b6)" style="fill: none; stroke: #3d3d3d"/>
   </g>
   <g id="line2d_35">
    <path d="M 815.411857 29.205205 
L 875.126714 29.205205 
" clip-path="url(#p3461c1a5b6)" style="fill: none; stroke: #3d3d3d; stroke-linecap: square"/>
   </g>
   <g id="line2d_36">
    <path d="M 815.411857 248.990352 
L 875.126714 248.990352 
" clip-path="url(#p3461c1a5b6)" style="fill: none; stroke: #3d3d3d; stroke-linecap: square"/>
   </g>
   <g id="line2d_37">
    <g clip-path="url(#p3461c1a5b6)">
     <use xlink:href="#m120af2eea9" x="845.269286" y="274.477156" style="fill-opacity: 0; stroke: #3d3d3d"/>
     <use xlink:href="#m120af2eea9" x="845.269286" y="259.071366" style="fill-opacity: 0; stroke: #3d3d3d"/>
     <use xlink:href="#m120af2eea9" x="845.269286" y="319.036697" style="fill-opacity: 0; stroke: #3d3d3d"/>
     <use xlink:href="#m120af2eea9" x="845.269286" y="289.128111" style="fill-opacity: 0; stroke: #3d3d3d"/>
    </g>
   </g>
   <g id="patch_9">
    <path d="M 934.841571 218.321262 
L 1054.271286 218.321262 
L 1054.271286 284.18143 
L 934.841571 284.18143 
L 934.841571 218.321262 
z
" clip-path="url(#p3461c1a5b6)" style="fill: #d684bd; stroke: #3d3d3d; stroke-linejoin: miter"/>
   </g>
   <g id="line2d_38">
    <path d="M 994.556429 218.321262 
L 994.556429 130.05153 
" clip-path="url(#p3461c1a5b6)" style="fill: none; stroke: #3d3d3d"/>
   </g>
   <g id="line2d_39">
    <path d="M 994.556429 284.18143 
L 994.556429 382.5846 
" clip-path="url(#p3461c1a5b6)" style="fill: none; stroke: #3d3d3d"/>
   </g>
   <g id="line2d_40">
    <path d="M 964.699 130.05153 
L 1024.413857 130.05153 
" clip-path="url(#p3461c1a5b6)" style="fill: none; stroke: #3d3d3d; stroke-linecap: square"/>
   </g>
   <g id="line2d_41">
    <path d="M 964.699 382.5846 
L 1024.413857 382.5846 
" clip-path="url(#p3461c1a5b6)" style="fill: none; stroke: #3d3d3d; stroke-linecap: square"/>
   </g>
   <g id="line2d_42">
    <g clip-path="url(#p3461c1a5b6)">
     <use xlink:href="#m120af2eea9" x="994.556429" y="397.309298" style="fill-opacity: 0; stroke: #3d3d3d"/>
     <use xlink:href="#m120af2eea9" x="994.556429" y="387.610084" style="fill-opacity: 0; stroke: #3d3d3d"/>
    </g>
   </g>
   <g id="line2d_43">
    <path d="M 39.118714 195.698854 
L 158.548429 195.698854 
" clip-path="url(#p3461c1a5b6)" style="fill: none; stroke: #3d3d3d"/>
   </g>
   <g id="line2d_44">
    <path d="M 188.405857 201.262622 
L 307.835571 201.262622 
" clip-path="url(#p3461c1a5b6)" style="fill: none; stroke: #3d3d3d"/>
   </g>
   <g id="line2d_45">
    <path d="M 337.693 155.439079 
L 457.122714 155.439079 
" clip-path="url(#p3461c1a5b6)" style="fill: none; stroke: #3d3d3d"/>
   </g>
   <g id="line2d_46">
    <path d="M 486.980143 132.836849 
L 606.409857 132.836849 
" clip-path="url(#p3461c1a5b6)" style="fill: none; stroke: #3d3d3d"/>
   </g>
   <g id="line2d_47">
    <path d="M 636.267286 133.840479 
L 755.697 133.840479 
" clip-path="url(#p3461c1a5b6)" style="fill: none; stroke: #3d3d3d"/>
   </g>
   <g id="line2d_48">
    <path d="M 785.554429 133.570798 
L 904.984143 133.570798 
" clip-path="url(#p3461c1a5b6)" style="fill: none; stroke: #3d3d3d"/>
   </g>
   <g id="line2d_49">
    <path d="M 934.841571 250.126969 
L 1054.271286 250.126969 
" clip-path="url(#p3461c1a5b6)" style="fill: none; stroke: #3d3d3d"/>
   </g>
   <g id="patch_10">
    <path d="M 24.19 415.714503 
L 24.19 10.8 
" style="fill: none; stroke: #000000; stroke-width: 0.8; stroke-linejoin: miter; stroke-linecap: square"/>
   </g>
   <g id="patch_11">
    <path d="M 1069.2 415.714503 
L 1069.2 10.8 
" style="fill: none; stroke: #000000; stroke-width: 0.8; stroke-linejoin: miter; stroke-linecap: square"/>
   </g>
   <g id="patch_12">
    <path d="M 24.19 415.714503 
L 1069.2 415.714503 
" style="fill: none; stroke: #000000; stroke-width: 0.8; stroke-linejoin: miter; stroke-linecap: square"/>
   </g>
   <g id="patch_13">
    <path d="M 24.19 10.8 
L 1069.2 10.8 
" style="fill: none; stroke: #000000; stroke-width: 0.8; stroke-linejoin: miter; stroke-linecap: square"/>
   </g>
  </g>
 </g>
 <defs>
  <clipPath id="p3461c1a5b6">
   <rect x="24.19" y="10.8" width="1045.01" height="404.914503"/>
  </clipPath>
 </defs>
</svg>
